<svg width="110" height="39" viewBox="0 0 110 39" fill="none" xmlns="http://www.w3.org/2000/svg">
<path fill-rule="evenodd" clip-rule="evenodd" d="M21.6459 38.0333V21.8181H39.8075L41.7561 24.2194L43.769 21.8181H109.691V36.915C109.691 36.915 107.967 38.0171 105.973 38.0333H69.4709L67.274 35.4772V38.0333H60.0749V33.67C60.0749 33.67 59.0915 34.279 56.9654 34.279H54.515V38.0333H43.615L41.6692 35.5805L39.6936 38.0333H21.6459ZM0.484863 9.59649L4.57108 0.570312H11.6378L13.9568 5.62641V0.570312H22.7413L24.1218 4.22471L25.4601 0.570312H64.8937V2.4075C64.8937 2.4075 66.9666 0.570312 70.3735 0.570312L83.1682 0.612681L85.4471 5.60261V0.570312H92.7985L94.8218 3.43662V0.570312H102.241V16.7855H94.8218L92.8828 13.9099V16.7855H82.082L80.9958 14.2294H78.0922L77.0237 16.7855H69.699C66.7676 16.7855 64.8937 14.9858 64.8937 14.9858V16.7855H53.8497L51.6578 14.2294V16.7855H10.5909L9.50547 14.2294H6.61111L5.53336 16.7855H0.484863V9.59649ZM0.505528 14.7127L6.01695 2.57129H10.1953L15.7015 14.7127H12.0342L11.0225 12.2814H5.11067L4.09375 14.7127H0.505528ZM9.85881 9.64523L8.0568 5.39673L6.24951 9.64523H9.85881ZM16.0817 14.7095V2.56812L21.1807 2.58606L24.1465 10.4141L27.0413 2.56812H32.0996V14.7095H28.896V5.76322L25.5001 14.7095H22.6906L19.2853 5.76322V14.7095H16.0817ZM34.2914 14.7095V2.56812H44.7451V5.28396H37.5287V7.36078H44.5765V9.91687H37.5287V12.0736H44.7451V14.7095H34.2914ZM46.5999 14.7127V2.57129H53.7289C56.0911 2.57129 58.2076 3.95528 58.2076 6.51026C58.2076 8.69441 56.4231 10.1012 54.6931 10.2395L58.9084 14.7127H54.9935L51.1524 10.3993H49.8035V14.7127H46.5999ZM53.4654 5.28711H49.8034V7.84319H53.5128C54.1549 7.84319 54.9829 7.37177 54.9829 6.56515C54.9829 5.93818 54.3439 5.28711 53.4654 5.28711ZM62.7864 14.7095H59.5154V2.56812H62.7864V14.7095ZM70.5423 14.7095H69.8362C66.42 14.7095 64.3459 12.1594 64.3459 8.68875C64.3459 5.13231 66.3968 2.56812 70.7109 2.56812H74.2517V5.44371H70.5814C68.8302 5.44371 67.5916 6.73864 67.5916 8.7187C67.5916 11.07 69.0078 12.0576 71.0481 12.0576H71.8912L70.5423 14.7095ZM72.0016 14.7127L77.513 2.57129H81.6914L87.1975 14.7127H83.5303L82.5186 12.2814H76.6067L75.5898 14.7127H72.0016ZM81.3548 9.64523L79.5528 5.39673L77.7455 9.64523H81.3548ZM87.5719 14.7095V2.56812H91.6449L96.8454 10.1964V2.56812H100.049V14.7095H96.1078L90.7755 6.88152V14.7095H87.5719ZM23.8376 35.957V23.8156H34.2913V26.5314H27.0749V28.6082H34.1227V31.1643H27.0749V33.321H34.2913V35.957H23.8376ZM75.0615 35.957V23.8156H85.5153V26.5314H78.2988V28.6082H85.313V31.1643H78.2988V33.321H85.5153V35.957H75.0615ZM34.6967 35.957L39.7866 29.9611L34.5755 23.8156H38.6116L41.715 27.6147L44.829 23.8156H48.707L43.5645 29.8863L48.6637 35.957H44.6283L41.6149 32.2177L38.6748 35.957H34.6967ZM49.0447 35.9591V23.8177H56.121C59.0246 23.8177 60.7209 25.5909 60.7209 27.9015C60.7209 30.6908 58.5581 32.125 55.7047 32.125H52.3325V35.9591H49.0447ZM55.8837 26.5632H52.3323V29.3589H55.8731C56.8088 29.3589 57.4644 28.7714 57.4644 27.9611C57.4644 27.0985 56.8055 26.5632 55.8837 26.5632ZM62.1122 35.957V23.8156H69.2412C71.6033 23.8156 73.7199 25.1995 73.7199 27.7545C73.7199 29.9387 71.9354 31.3455 70.2054 31.4838L74.4206 35.957H70.5057L66.6646 31.6436H65.3157V35.957H62.1122ZM68.9782 26.5317H65.3162V29.0878H69.0256C69.6677 29.0878 70.4957 28.6164 70.4957 27.8098C70.4957 27.1828 69.8567 26.5317 68.9782 26.5317ZM86.9981 35.957V33.321H93.4095C94.3581 33.321 94.7689 32.8353 94.7689 32.3026C94.7689 31.7921 94.3594 31.2761 93.4095 31.2761H90.5122C87.9938 31.2761 86.5913 29.8224 86.5913 27.6397C86.5913 25.6929 87.8757 23.8156 91.618 23.8156H97.8565L96.5077 26.5474H91.1121C90.0808 26.5474 89.7633 27.0602 89.7633 27.5498C89.7633 28.0532 90.1556 28.6082 90.9435 28.6082H93.9785C96.7859 28.6082 98.0041 30.117 98.0041 32.0929C98.0041 34.2171 96.6466 35.957 93.8257 35.957H86.9981ZM98.2873 35.957V33.321H104.699C105.647 33.321 106.058 32.8353 106.058 32.3026C106.058 31.7921 105.649 31.2761 104.699 31.2761H101.801C99.2831 31.2761 97.8805 29.8224 97.8805 27.6397C97.8805 25.6929 99.1649 23.8156 102.907 23.8156H109.146L107.797 26.5474H102.401C101.37 26.5474 101.052 27.0602 101.052 27.5498C101.052 28.0532 101.445 28.6082 102.233 28.6082H105.268C108.075 28.6082 109.293 30.117 109.293 32.0929C109.293 34.2171 107.936 35.957 105.115 35.957H98.2873Z" fill="#172B85"/>
</svg>
