<svg width="70" height="70" viewBox="0 0 70 70" fill="none" xmlns="http://www.w3.org/2000/svg">
<g clip-path="url(#clip0_700_7944)">
<path d="M67 35C67 52.6731 52.6731 67 35 67C17.3269 67 3 52.6731 3 35C3 17.3269 17.3269 3 35 3C52.6731 3 67 17.3269 67 35Z" fill="url(#paint0_linear_700_7944)"/>
<path d="M52.2463 30.3622C51.1229 30.3622 50.1102 30.6008 49.208 31.0823C48.3059 31.5638 47.5983 32.2243 47.0809 33.0722C46.5723 33.9201 46.3158 34.8661 46.3158 35.91C46.3158 36.9454 46.5767 37.8829 47.0941 38.7308C47.6115 39.5787 48.3192 40.2477 49.2169 40.7335C50.1146 41.2192 51.1229 41.4621 52.2463 41.4621C53.7454 41.4621 54.9837 41.0743 55.9699 40.3074V35.9654H56.8898V40.6908C56.3149 41.2235 55.6206 41.624 54.8024 41.901C53.9842 42.1779 53.1219 42.3143 52.2108 42.3143C50.9151 42.3143 49.7432 42.0373 48.7039 41.4834C47.6646 40.9337 46.8465 40.1667 46.2539 39.1952C45.6613 38.2195 45.365 37.1287 45.365 35.9143C45.365 34.6999 45.6613 33.6048 46.2539 32.6333C46.8465 31.6618 47.6646 30.8991 48.7039 30.3452C49.7432 29.7912 50.9195 29.5143 52.2285 29.5143C53.1882 29.5143 54.0727 29.6634 54.8776 29.9532C55.6824 30.2472 56.3679 30.6775 56.9429 31.24L56.3458 31.8536C55.793 31.3295 55.1827 30.946 54.5017 30.7116C53.8206 30.4815 53.0688 30.3622 52.2463 30.3622Z" fill="white"/>
<path d="M24.4249 36.8304C24.4249 38.3814 24.0578 39.5404 23.3193 40.3074C22.5807 41.0743 21.5238 41.4621 20.1395 41.4621C18.742 41.4621 17.6763 41.0786 16.9421 40.3074C16.208 39.5404 15.8409 38.3771 15.8409 36.8304V29.6038H14.8857V36.8688C14.8857 38.6456 15.3456 40.0006 16.2611 40.9252C17.1765 41.8498 18.4635 42.3143 20.1219 42.3143C21.7803 42.3143 23.0716 41.8498 23.9959 40.9252C24.9202 40.0006 25.3801 38.6498 25.3801 36.8688V29.6038H24.4249V36.8304Z" fill="white"/>
<path d="M31.116 30.4347H35.8303V42.2205H36.7811V30.4347H41.4954V29.6038H31.116V30.4347Z" fill="white"/>
</g>
<rect x="1" y="1" width="68" height="68" rx="34" stroke="url(#paint1_linear_700_7944)" stroke-width="2"/>
<defs>
<linearGradient id="paint0_linear_700_7944" x1="9.31111" y1="5.73634" x2="54.7461" y2="42.7828" gradientUnits="userSpaceOnUse">
<stop stop-color="#180223"/>
<stop offset="1" stop-color="#1D0337"/>
</linearGradient>
<linearGradient id="paint1_linear_700_7944" x1="66.3365" y1="12.7143" x2="27.8857" y2="90.8365" gradientUnits="userSpaceOnUse">
<stop stop-color="#7F31DA"/>
<stop offset="0.325806" stop-color="#D669F4"/>
<stop offset="0.653937" stop-color="#FF5CAA"/>
<stop offset="1" stop-color="#FF9883"/>
</linearGradient>
<clipPath id="clip0_700_7944">
<rect x="3" y="3" width="64" height="64" rx="32" fill="white"/>
</clipPath>
</defs>
</svg>
