<svg width="70" height="70" viewBox="0 0 70 70" fill="none" xmlns="http://www.w3.org/2000/svg">
<g clip-path="url(#clip0_700_7946)">
<circle cx="35" cy="35" r="32" fill="url(#paint0_linear_700_7946)"/>
<path d="M19.1562 25.9375H21.7812L26.7148 39.0977L31.6367 25.9375H34.2617L27.7461 43H25.6602L19.1562 25.9375ZM17.9609 25.9375H20.457L20.8906 37.3281V43H17.9609V25.9375ZM32.9609 25.9375H35.4688V43H32.5273V37.3281L32.9609 25.9375ZM52.5664 34V34.9375C52.5664 36.2266 52.3984 37.3828 52.0625 38.4062C51.7266 39.4297 51.2461 40.3008 50.6211 41.0195C50.0039 41.7383 49.2617 42.2891 48.3945 42.6719C47.5273 43.0469 46.5664 43.2344 45.5117 43.2344C44.4648 43.2344 43.5078 43.0469 42.6406 42.6719C41.7812 42.2891 41.0352 41.7383 40.4023 41.0195C39.7695 40.3008 39.2773 39.4297 38.9258 38.4062C38.582 37.3828 38.4102 36.2266 38.4102 34.9375V34C38.4102 32.7109 38.582 31.5586 38.9258 30.543C39.2695 29.5195 39.7539 28.6484 40.3789 27.9297C41.0117 27.2031 41.7578 26.6523 42.6172 26.2773C43.4844 25.8945 44.4414 25.7031 45.4883 25.7031C46.543 25.7031 47.5039 25.8945 48.3711 26.2773C49.2383 26.6523 49.9844 27.2031 50.6094 27.9297C51.2344 28.6484 51.7148 29.5195 52.0508 30.543C52.3945 31.5586 52.5664 32.7109 52.5664 34ZM49.625 34.9375V33.9766C49.625 33.0234 49.5312 32.1836 49.3438 31.457C49.1641 30.7227 48.8945 30.1094 48.5352 29.6172C48.1836 29.1172 47.75 28.7422 47.2344 28.4922C46.7188 28.2344 46.1367 28.1055 45.4883 28.1055C44.8398 28.1055 44.2617 28.2344 43.7539 28.4922C43.2461 28.7422 42.8125 29.1172 42.4531 29.6172C42.1016 30.1094 41.832 30.7227 41.6445 31.457C41.457 32.1836 41.3633 33.0234 41.3633 33.9766V34.9375C41.3633 35.8906 41.457 36.7344 41.6445 37.4688C41.832 38.2031 42.1055 38.8242 42.4648 39.332C42.832 39.832 43.2695 40.2109 43.7773 40.4688C44.2852 40.7188 44.8633 40.8438 45.5117 40.8438C46.168 40.8438 46.75 40.7188 47.2578 40.4688C47.7656 40.2109 48.1953 39.832 48.5469 39.332C48.8984 38.8242 49.1641 38.2031 49.3438 37.4688C49.5312 36.7344 49.625 35.8906 49.625 34.9375Z" fill="url(#paint1_linear_700_7946)"/>
</g>
<rect x="1" y="1" width="68" height="68" rx="34" stroke="url(#paint2_linear_700_7946)" stroke-width="2"/>
<defs>
<linearGradient id="paint0_linear_700_7946" x1="35" y1="32.3017" x2="35" y2="68.3559" gradientUnits="userSpaceOnUse">
<stop stop-color="white"/>
<stop offset="1" stop-color="#F0EAF8"/>
</linearGradient>
<linearGradient id="paint1_linear_700_7946" x1="60.0692" y1="26.0857" x2="51.0616" y2="62.6879" gradientUnits="userSpaceOnUse">
<stop stop-color="#7F31DA"/>
<stop offset="0.325806" stop-color="#D669F4"/>
<stop offset="0.653937" stop-color="#FF5CAA"/>
<stop offset="1" stop-color="#FF9883"/>
</linearGradient>
<linearGradient id="paint2_linear_700_7946" x1="66.3365" y1="12.7143" x2="27.8857" y2="90.8365" gradientUnits="userSpaceOnUse">
<stop stop-color="#7F31DA"/>
<stop offset="0.325806" stop-color="#D669F4"/>
<stop offset="0.653937" stop-color="#FF5CAA"/>
<stop offset="1" stop-color="#FF9883"/>
</linearGradient>
<clipPath id="clip0_700_7946">
<rect x="3" y="3" width="64" height="64" rx="32" fill="white"/>
</clipPath>
</defs>
</svg>
