<svg width="184" height="140" viewBox="0 0 184 140" fill="none" xmlns="http://www.w3.org/2000/svg">
<path d="M35 39C35 35.6863 37.6863 33 41 33H123C126.314 33 129 35.6863 129 39V105C129 108.314 126.314 111 123 111H41C37.6863 111 35 108.314 35 105V39Z" fill="url(#paint0_linear_1102_8263)"/>
<g filter="url(#filter0_f_1102_8263)">
<circle cx="53" cy="53" r="17" fill="white" fill-opacity="0.8"/>
</g>
<g filter="url(#filter1_f_1102_8263)">
<ellipse cx="127.5" cy="68.5" rx="20.5" ry="19.5" fill="#D669F4"/>
</g>
<path d="M51.6235 47.6236C52.1038 47.1633 52.1278 46.3935 51.6771 45.9042C51.6486 45.8733 51.6189 45.8442 51.5882 45.817L46.1282 40.348C45.659 39.8781 44.9054 39.885 44.445 40.3635C43.9845 40.8419 43.9916 41.6108 44.4607 42.0807L49.089 46.7167L44.3764 51.2334C43.8962 51.6937 43.8722 52.4636 44.3229 52.9529C44.7735 53.4422 45.5282 53.4657 46.0085 53.0054L51.6235 47.6236Z" fill="white"/>
<path d="M56 51.5C56 50.6716 56.6716 50 57.5 50H64.5C65.3284 50 66 50.6716 66 51.5C66 52.3284 65.3284 53 64.5 53H57.5C56.6716 53 56 52.3284 56 51.5Z" fill="white"/>
<g filter="url(#filter2_bd_1102_8263)">
<path d="M89.85 65.65H79.2C78.2585 65.65 77.3555 66.024 76.6898 66.6898C76.024 67.3555 75.65 68.2585 75.65 69.2C75.65 70.1415 76.024 71.0445 76.6898 71.7102C77.3555 72.376 78.2585 72.75 79.2 72.75H89.85C90.7915 72.75 91.6945 72.376 92.3602 71.7102C93.026 71.0445 93.4 70.1415 93.4 69.2C93.4 68.2585 93.026 67.3555 92.3602 66.6898C91.6945 66.024 90.7915 65.65 89.85 65.65Z" fill="url(#paint1_linear_1102_8263)" shape-rendering="crispEdges"/>
<path d="M89.85 86.95H79.2C78.2585 86.95 77.3555 87.324 76.6898 87.9898C76.024 88.6555 75.65 89.5585 75.65 90.5C75.65 91.4415 76.024 92.3445 76.6898 93.0102C77.3555 93.676 78.2585 94.05 79.2 94.05H89.85C90.7915 94.05 91.6945 93.676 92.3602 93.0102C93.026 92.3445 93.4 91.4415 93.4 90.5C93.4 89.5585 93.026 88.6555 92.3602 87.9898C91.6945 87.324 90.7915 86.95 89.85 86.95Z" fill="url(#paint2_linear_1102_8263)" shape-rendering="crispEdges"/>
<path d="M132.8 65.65C132.098 65.65 131.412 65.8582 130.828 66.2483C130.244 66.6384 129.789 67.1928 129.52 67.8415C129.252 68.4902 129.181 69.2039 129.318 69.8926C129.455 70.5812 129.793 71.2138 130.29 71.7102C130.786 72.2067 131.419 72.5448 132.107 72.6818C132.796 72.8188 133.51 72.7485 134.159 72.4798C134.807 72.2111 135.362 71.7561 135.752 71.1723C136.142 70.5885 136.35 69.9021 136.35 69.2C136.35 68.2585 135.976 67.3555 135.31 66.6898C134.644 66.024 133.742 65.65 132.8 65.65Z" fill="url(#paint3_linear_1102_8263)" shape-rendering="crispEdges"/>
<path d="M122.15 65.65C121.448 65.65 120.762 65.8582 120.178 66.2483C119.594 66.6384 119.139 67.1928 118.87 67.8415C118.602 68.4902 118.531 69.2039 118.668 69.8926C118.805 70.5812 119.143 71.2138 119.64 71.7102C120.136 72.2067 120.769 72.5448 121.457 72.6818C122.146 72.8188 122.86 72.7485 123.509 72.4798C124.157 72.2111 124.712 71.7561 125.102 71.1723C125.492 70.5885 125.7 69.9021 125.7 69.2C125.7 68.2585 125.326 67.3555 124.66 66.6898C123.994 66.024 123.092 65.65 122.15 65.65Z" fill="url(#paint4_linear_1102_8263)" shape-rendering="crispEdges"/>
<path d="M122.15 86.95C121.448 86.95 120.762 87.1582 120.178 87.5483C119.594 87.9384 119.139 88.4928 118.87 89.1415C118.602 89.7901 118.531 90.5039 118.668 91.1926C118.805 91.8812 119.143 92.5138 119.64 93.0102C120.136 93.5067 120.769 93.8448 121.457 93.9818C122.146 94.1188 122.86 94.0485 123.509 93.7798C124.157 93.5111 124.712 93.0561 125.102 92.4723C125.492 91.8885 125.7 91.2021 125.7 90.5C125.7 89.5585 125.326 88.6555 124.66 87.9898C123.994 87.324 123.092 86.95 122.15 86.95Z" fill="url(#paint5_linear_1102_8263)" shape-rendering="crispEdges"/>
<path d="M132.8 86.95C132.098 86.95 131.412 87.1582 130.828 87.5483C130.244 87.9384 129.789 88.4928 129.52 89.1415C129.252 89.7901 129.181 90.5039 129.318 91.1926C129.455 91.8812 129.793 92.5138 130.29 93.0102C130.786 93.5067 131.419 93.8448 132.107 93.9818C132.796 94.1188 133.51 94.0485 134.159 93.7798C134.807 93.5111 135.362 93.0561 135.752 92.4723C136.142 91.8885 136.35 91.2021 136.35 90.5C136.35 89.5585 135.976 88.6555 135.31 87.9898C134.644 87.324 133.742 86.95 132.8 86.95Z" fill="url(#paint6_linear_1102_8263)" shape-rendering="crispEdges"/>
<path d="M89.85 108.25H79.2C78.2585 108.25 77.3555 108.624 76.6898 109.29C76.024 109.956 75.65 110.858 75.65 111.8C75.65 112.742 76.024 113.644 76.6898 114.31C77.3555 114.976 78.2585 115.35 79.2 115.35H89.85C90.7915 115.35 91.6945 114.976 92.3602 114.31C93.026 113.644 93.4 112.742 93.4 111.8C93.4 110.858 93.026 109.956 92.3602 109.29C91.6945 108.624 90.7915 108.25 89.85 108.25Z" fill="url(#paint7_linear_1102_8263)" shape-rendering="crispEdges"/>
<path d="M122.15 108.25C121.448 108.25 120.762 108.458 120.178 108.848C119.594 109.238 119.139 109.793 118.87 110.441C118.602 111.09 118.531 111.804 118.668 112.493C118.805 113.181 119.143 113.814 119.64 114.31C120.136 114.807 120.769 115.145 121.457 115.282C122.146 115.419 122.86 115.348 123.509 115.08C124.157 114.811 124.712 114.356 125.102 113.772C125.492 113.188 125.7 112.502 125.7 111.8C125.7 110.858 125.326 109.956 124.66 109.29C123.994 108.624 123.092 108.25 122.15 108.25Z" fill="url(#paint8_linear_1102_8263)" shape-rendering="crispEdges"/>
<path fill-rule="evenodd" clip-rule="evenodd" d="M143.881 58.1193C145.878 60.1166 147 62.8254 147 65.65V72.75C146.984 75.3772 145.998 77.9059 144.231 79.85C145.998 81.7941 146.984 84.3228 147 86.95V94.05C146.984 96.6772 145.998 99.2059 144.231 101.15C145.998 103.094 146.984 105.623 147 108.25V115.35C147 118.175 145.878 120.883 143.881 122.881C141.883 124.878 139.175 126 136.35 126H74.65C71.8254 126 69.1166 124.878 67.1193 122.881C65.1221 120.883 64 118.175 64 115.35V108.25C64.0157 105.623 65.0018 103.094 66.769 101.15C65.0018 99.2059 64.0157 96.6772 64 94.05V86.95C64.0157 84.3228 65.0018 81.7941 66.769 79.85C65.0018 77.9059 64.0157 75.3772 64 72.75V65.65C64 62.8254 65.1221 60.1166 67.1193 58.1193C69.1166 56.1221 71.8254 55 74.65 55H136.35C139.175 55 141.883 56.1221 143.881 58.1193ZM138.86 117.86C139.526 117.194 139.9 116.292 139.9 115.35V108.25C139.9 107.308 139.526 106.406 138.86 105.74C138.194 105.074 137.292 104.7 136.35 104.7H74.65C73.7085 104.7 72.8055 105.074 72.1398 105.74C71.474 106.406 71.1 107.308 71.1 108.25V115.35C71.1 116.292 71.474 117.194 72.1398 117.86C72.8055 118.526 73.7085 118.9 74.65 118.9H136.35C137.292 118.9 138.194 118.526 138.86 117.86ZM138.86 96.5602C139.526 95.8945 139.9 94.9915 139.9 94.05V86.95C139.9 86.0085 139.526 85.1055 138.86 84.4398C138.194 83.774 137.292 83.4 136.35 83.4H74.65C73.7085 83.4 72.8055 83.774 72.1398 84.4398C71.474 85.1055 71.1 86.0085 71.1 86.95V94.05C71.1 94.9915 71.474 95.8945 72.1398 96.5602C72.8055 97.226 73.7085 97.6 74.65 97.6H136.35C137.292 97.6 138.194 97.226 138.86 96.5602ZM138.86 75.2602C139.526 74.5945 139.9 73.6915 139.9 72.75V65.65C139.9 64.7085 139.526 63.8055 138.86 63.1398C138.194 62.474 137.292 62.1 136.35 62.1H74.65C73.7085 62.1 72.8055 62.474 72.1398 63.1398C71.474 63.8055 71.1 64.7085 71.1 65.65V72.75C71.1 73.6915 71.474 74.5945 72.1398 75.2602C72.8055 75.926 73.7085 76.3 74.65 76.3H136.35C137.292 76.3 138.194 75.926 138.86 75.2602Z" fill="url(#paint9_linear_1102_8263)" fill-opacity="0.9" shape-rendering="crispEdges"/>
<path d="M132.8 108.25C132.098 108.25 131.412 108.458 130.828 108.848C130.244 109.238 129.789 109.793 129.52 110.441C129.252 111.09 129.181 111.804 129.318 112.493C129.455 113.181 129.793 113.814 130.29 114.31C130.786 114.807 131.419 115.145 132.107 115.282C132.796 115.419 133.51 115.348 134.159 115.08C134.807 114.811 135.362 114.356 135.752 113.772C136.142 113.188 136.35 112.502 136.35 111.8C136.35 110.858 135.976 109.956 135.31 109.29C134.644 108.624 133.742 108.25 132.8 108.25Z" fill="url(#paint10_linear_1102_8263)" shape-rendering="crispEdges"/>
<path fill-rule="evenodd" clip-rule="evenodd" d="M139.9 72.75C139.9 73.6915 139.526 74.5945 138.86 75.2602C138.194 75.926 137.292 76.3 136.35 76.3H74.65C73.7085 76.3 72.8055 75.926 72.1398 75.2602C71.474 74.5945 71.1 73.6915 71.1 72.75V65.65C71.1 64.7085 71.474 63.8055 72.1398 63.1398C72.8055 62.474 73.7085 62.1 74.65 62.1H136.35C137.292 62.1 138.194 62.474 138.86 63.1398C139.526 63.8055 139.9 64.7085 139.9 65.65V72.75ZM130.828 66.2483C131.412 65.8582 132.098 65.65 132.8 65.65C133.742 65.65 134.644 66.024 135.31 66.6898C135.976 67.3555 136.35 68.2585 136.35 69.2C136.35 69.9021 136.142 70.5885 135.752 71.1723C135.362 71.7561 134.807 72.2111 134.159 72.4798C133.51 72.7485 132.796 72.8188 132.107 72.6818C131.419 72.5448 130.786 72.2067 130.29 71.7102C129.793 71.2138 129.455 70.5812 129.318 69.8926C129.181 69.2039 129.252 68.4902 129.52 67.8415C129.789 67.1928 130.244 66.6384 130.828 66.2483ZM120.178 66.2483C120.762 65.8582 121.448 65.65 122.15 65.65C123.092 65.65 123.994 66.024 124.66 66.6898C125.326 67.3555 125.7 68.2585 125.7 69.2C125.7 69.9021 125.492 70.5885 125.102 71.1723C124.712 71.7561 124.157 72.2111 123.509 72.4798C122.86 72.7485 122.146 72.8188 121.457 72.6818C120.769 72.5448 120.136 72.2067 119.64 71.7102C119.143 71.2138 118.805 70.5812 118.668 69.8926C118.531 69.2039 118.602 68.4902 118.87 67.8415C119.139 67.1928 119.594 66.6384 120.178 66.2483ZM79.2 65.65H89.85C90.7915 65.65 91.6945 66.024 92.3602 66.6898C93.026 67.3555 93.4 68.2585 93.4 69.2C93.4 70.1415 93.026 71.0445 92.3602 71.7102C91.6945 72.376 90.7915 72.75 89.85 72.75H79.2C78.2585 72.75 77.3555 72.376 76.6898 71.7102C76.024 71.0445 75.65 70.1415 75.65 69.2C75.65 68.2585 76.024 67.3555 76.6898 66.6898C77.3555 66.024 78.2585 65.65 79.2 65.65Z" fill="white" shape-rendering="crispEdges"/>
<path fill-rule="evenodd" clip-rule="evenodd" d="M139.9 94.05C139.9 94.9915 139.526 95.8945 138.86 96.5602C138.194 97.226 137.292 97.6 136.35 97.6H74.65C73.7085 97.6 72.8055 97.226 72.1398 96.5602C71.474 95.8945 71.1 94.9915 71.1 94.05V86.95C71.1 86.0085 71.474 85.1055 72.1398 84.4398C72.8055 83.774 73.7085 83.4 74.65 83.4H136.35C137.292 83.4 138.194 83.774 138.86 84.4398C139.526 85.1055 139.9 86.0085 139.9 86.95V94.05ZM120.178 87.5483C120.762 87.1582 121.448 86.95 122.15 86.95C123.092 86.95 123.994 87.324 124.66 87.9898C125.326 88.6555 125.7 89.5585 125.7 90.5C125.7 91.2021 125.492 91.8885 125.102 92.4723C124.712 93.0561 124.157 93.5111 123.509 93.7798C122.86 94.0485 122.146 94.1188 121.457 93.9818C120.769 93.8448 120.136 93.5067 119.64 93.0102C119.143 92.5138 118.805 91.8812 118.668 91.1926C118.531 90.5039 118.602 89.7901 118.87 89.1415C119.139 88.4928 119.594 87.9384 120.178 87.5483ZM79.2 86.95H89.85C90.7915 86.95 91.6945 87.324 92.3602 87.9898C93.026 88.6555 93.4 89.5585 93.4 90.5C93.4 91.4415 93.026 92.3445 92.3602 93.0102C91.6945 93.676 90.7915 94.05 89.85 94.05H79.2C78.2585 94.05 77.3555 93.676 76.6898 93.0102C76.024 92.3445 75.65 91.4415 75.65 90.5C75.65 89.5585 76.024 88.6555 76.6898 87.9898C77.3555 87.324 78.2585 86.95 79.2 86.95ZM130.828 87.5483C131.412 87.1582 132.098 86.95 132.8 86.95C133.742 86.95 134.644 87.324 135.31 87.9898C135.976 88.6555 136.35 89.5585 136.35 90.5C136.35 91.2021 136.142 91.8885 135.752 92.4723C135.362 93.0561 134.807 93.5111 134.159 93.7798C133.51 94.0485 132.796 94.1188 132.107 93.9818C131.419 93.8448 130.786 93.5067 130.29 93.0102C129.793 92.5138 129.455 91.8812 129.318 91.1926C129.181 90.5039 129.252 89.7901 129.52 89.1415C129.789 88.4928 130.244 87.9384 130.828 87.5483Z" fill="white" shape-rendering="crispEdges"/>
<path fill-rule="evenodd" clip-rule="evenodd" d="M139.9 115.35C139.9 116.292 139.526 117.194 138.86 117.86C138.194 118.526 137.292 118.9 136.35 118.9H74.65C73.7085 118.9 72.8055 118.526 72.1398 117.86C71.474 117.194 71.1 116.292 71.1 115.35V108.25C71.1 107.308 71.474 106.406 72.1398 105.74C72.8055 105.074 73.7085 104.7 74.65 104.7H136.35C137.292 104.7 138.194 105.074 138.86 105.74C139.526 106.406 139.9 107.308 139.9 108.25V115.35ZM120.178 108.848C120.762 108.458 121.448 108.25 122.15 108.25C123.092 108.25 123.994 108.624 124.66 109.29C125.326 109.956 125.7 110.858 125.7 111.8C125.7 112.502 125.492 113.188 125.102 113.772C124.712 114.356 124.157 114.811 123.509 115.08C122.86 115.348 122.146 115.419 121.457 115.282C120.769 115.145 120.136 114.807 119.64 114.31C119.143 113.814 118.805 113.181 118.668 112.493C118.531 111.804 118.602 111.09 118.87 110.441C119.139 109.793 119.594 109.238 120.178 108.848ZM79.2 108.25H89.85C90.7915 108.25 91.6945 108.624 92.3602 109.29C93.026 109.956 93.4 110.858 93.4 111.8C93.4 112.742 93.026 113.644 92.3602 114.31C91.6945 114.976 90.7915 115.35 89.85 115.35H79.2C78.2585 115.35 77.3555 114.976 76.6898 114.31C76.024 113.644 75.65 112.742 75.65 111.8C75.65 110.858 76.024 109.956 76.6898 109.29C77.3555 108.624 78.2585 108.25 79.2 108.25ZM130.828 108.848C131.412 108.458 132.098 108.25 132.8 108.25C133.742 108.25 134.644 108.624 135.31 109.29C135.976 109.956 136.35 110.858 136.35 111.8C136.35 112.502 136.142 113.188 135.752 113.772C135.362 114.356 134.807 114.811 134.159 115.08C133.51 115.348 132.796 115.419 132.107 115.282C131.419 115.145 130.786 114.807 130.29 114.31C129.793 113.814 129.455 113.181 129.318 112.493C129.181 111.804 129.252 111.09 129.52 110.441C129.789 109.793 130.244 109.238 130.828 108.848Z" fill="white" shape-rendering="crispEdges"/>
</g>
<path d="M32 13C28.8934 13 26.3382 15.361 26.031 18.3865C26.0105 18.5882 26 18.7929 26 19V32H22V19C22 13.4772 26.4772 9 32 9H153C158.523 9 163 13.4772 163 19V130C163 135.523 158.523 140 153 140H32C26.4771 140 22 135.523 22 130V118H26V130C26 133.314 28.6863 136 32 136H153C156.314 136 159 133.314 159 130V19C159 15.6863 156.314 13 153 13H32Z" fill="url(#paint11_linear_1102_8263)"/>
<defs>
<filter id="filter0_f_1102_8263" x="0" y="0" width="106" height="106" filterUnits="userSpaceOnUse" color-interpolation-filters="sRGB">
<feFlood flood-opacity="0" result="BackgroundImageFix"/>
<feBlend mode="normal" in="SourceGraphic" in2="BackgroundImageFix" result="shape"/>
<feGaussianBlur stdDeviation="18" result="effect1_foregroundBlur_1102_8263"/>
</filter>
<filter id="filter1_f_1102_8263" x="71" y="13" width="113" height="111" filterUnits="userSpaceOnUse" color-interpolation-filters="sRGB">
<feFlood flood-opacity="0" result="BackgroundImageFix"/>
<feBlend mode="normal" in="SourceGraphic" in2="BackgroundImageFix" result="shape"/>
<feGaussianBlur stdDeviation="18" result="effect1_foregroundBlur_1102_8263"/>
</filter>
<filter id="filter2_bd_1102_8263" x="59" y="50" width="93" height="84" filterUnits="userSpaceOnUse" color-interpolation-filters="sRGB">
<feFlood flood-opacity="0" result="BackgroundImageFix"/>
<feGaussianBlur in="BackgroundImageFix" stdDeviation="2.5"/>
<feComposite in2="SourceAlpha" operator="in" result="effect1_backgroundBlur_1102_8263"/>
<feColorMatrix in="SourceAlpha" type="matrix" values="0 0 0 0 0 0 0 0 0 0 0 0 0 0 0 0 0 0 127 0" result="hardAlpha"/>
<feOffset dy="4"/>
<feGaussianBlur stdDeviation="2"/>
<feComposite in2="hardAlpha" operator="out"/>
<feColorMatrix type="matrix" values="0 0 0 0 0 0 0 0 0 0 0 0 0 0 0 0 0 0 0.25 0"/>
<feBlend mode="normal" in2="effect1_backgroundBlur_1102_8263" result="effect2_dropShadow_1102_8263"/>
<feBlend mode="normal" in="SourceGraphic" in2="effect2_dropShadow_1102_8263" result="shape"/>
</filter>
<linearGradient id="paint0_linear_1102_8263" x1="124.08" y1="47.1674" x2="86.2291" y2="139.847" gradientUnits="userSpaceOnUse">
<stop stop-color="#7F31DA"/>
<stop offset="0.325806" stop-color="#D669F4"/>
<stop offset="0.653937" stop-color="#FF5CAA"/>
<stop offset="1" stop-color="#FF9883"/>
</linearGradient>
<linearGradient id="paint1_linear_1102_8263" x1="142.656" y1="67.8959" x2="107.453" y2="151.508" gradientUnits="userSpaceOnUse">
<stop stop-color="#7F31DA"/>
<stop offset="0.325806" stop-color="#D669F4"/>
<stop offset="0.653937" stop-color="#FF5CAA"/>
<stop offset="1" stop-color="#FF9883"/>
</linearGradient>
<linearGradient id="paint2_linear_1102_8263" x1="142.656" y1="67.8959" x2="107.453" y2="151.508" gradientUnits="userSpaceOnUse">
<stop stop-color="#7F31DA"/>
<stop offset="0.325806" stop-color="#D669F4"/>
<stop offset="0.653937" stop-color="#FF5CAA"/>
<stop offset="1" stop-color="#FF9883"/>
</linearGradient>
<linearGradient id="paint3_linear_1102_8263" x1="142.656" y1="67.8959" x2="107.453" y2="151.508" gradientUnits="userSpaceOnUse">
<stop stop-color="#7F31DA"/>
<stop offset="0.325806" stop-color="#D669F4"/>
<stop offset="0.653937" stop-color="#FF5CAA"/>
<stop offset="1" stop-color="#FF9883"/>
</linearGradient>
<linearGradient id="paint4_linear_1102_8263" x1="142.656" y1="67.8959" x2="107.453" y2="151.508" gradientUnits="userSpaceOnUse">
<stop stop-color="#7F31DA"/>
<stop offset="0.325806" stop-color="#D669F4"/>
<stop offset="0.653937" stop-color="#FF5CAA"/>
<stop offset="1" stop-color="#FF9883"/>
</linearGradient>
<linearGradient id="paint5_linear_1102_8263" x1="142.656" y1="67.8959" x2="107.453" y2="151.508" gradientUnits="userSpaceOnUse">
<stop stop-color="#7F31DA"/>
<stop offset="0.325806" stop-color="#D669F4"/>
<stop offset="0.653937" stop-color="#FF5CAA"/>
<stop offset="1" stop-color="#FF9883"/>
</linearGradient>
<linearGradient id="paint6_linear_1102_8263" x1="142.656" y1="67.8959" x2="107.453" y2="151.508" gradientUnits="userSpaceOnUse">
<stop stop-color="#7F31DA"/>
<stop offset="0.325806" stop-color="#D669F4"/>
<stop offset="0.653937" stop-color="#FF5CAA"/>
<stop offset="1" stop-color="#FF9883"/>
</linearGradient>
<linearGradient id="paint7_linear_1102_8263" x1="142.656" y1="67.8959" x2="107.453" y2="151.508" gradientUnits="userSpaceOnUse">
<stop stop-color="#7F31DA"/>
<stop offset="0.325806" stop-color="#D669F4"/>
<stop offset="0.653937" stop-color="#FF5CAA"/>
<stop offset="1" stop-color="#FF9883"/>
</linearGradient>
<linearGradient id="paint8_linear_1102_8263" x1="142.656" y1="67.8959" x2="107.453" y2="151.508" gradientUnits="userSpaceOnUse">
<stop stop-color="#7F31DA"/>
<stop offset="0.325806" stop-color="#D669F4"/>
<stop offset="0.653937" stop-color="#FF5CAA"/>
<stop offset="1" stop-color="#FF9883"/>
</linearGradient>
<linearGradient id="paint9_linear_1102_8263" x1="111.5" y1="55" x2="111.5" y2="126" gradientUnits="userSpaceOnUse">
<stop stop-color="#FBFBFB"/>
<stop offset="0.530671" stop-color="#DBC8F9" stop-opacity="0.573497"/>
<stop offset="1" stop-color="#7FC0FC" stop-opacity="0.2"/>
</linearGradient>
<linearGradient id="paint10_linear_1102_8263" x1="142.656" y1="67.8959" x2="107.453" y2="151.508" gradientUnits="userSpaceOnUse">
<stop stop-color="#7F31DA"/>
<stop offset="0.325806" stop-color="#D669F4"/>
<stop offset="0.653937" stop-color="#FF5CAA"/>
<stop offset="1" stop-color="#FF9883"/>
</linearGradient>
<linearGradient id="paint11_linear_1102_8263" x1="155.621" y1="32.7939" x2="86.9335" y2="183.002" gradientUnits="userSpaceOnUse">
<stop stop-color="#7F31DA"/>
<stop offset="0.325806" stop-color="#D669F4"/>
<stop offset="0.653937" stop-color="#FF5CAA"/>
<stop offset="1" stop-color="#FF9883"/>
</linearGradient>
</defs>
</svg>
