<svg width="138" height="31" viewBox="0 0 138 31" fill="none" xmlns="http://www.w3.org/2000/svg">
<path fill-rule="evenodd" clip-rule="evenodd" d="M17.4336 24.1914L17.3343 24.2874C15.7408 25.883 13.8959 26.7279 11.9965 26.7279C8.03119 26.7279 5.15168 23.8036 5.15168 19.7691C5.15168 15.7426 8.03119 12.8159 11.9965 12.8159C13.8959 12.8159 15.74 13.6632 17.3343 15.2611L17.4336 15.3586L19.984 12.3273L19.9159 12.2455C17.7963 9.78218 15.25 8.58397 12.1206 8.58397C8.98248 8.58397 6.11018 9.62247 4.04184 11.4941C1.79253 13.5232 0.607422 16.3822 0.607422 19.7676C0.607422 23.1529 1.79333 26.0198 4.04184 28.0481C6.11018 29.9292 8.98248 30.9606 12.1206 30.9606C15.25 30.9606 17.7963 29.7632 19.9159 27.2991L19.984 27.2236L17.4336 24.1914Z" fill="#004685"/>
<path fill-rule="evenodd" clip-rule="evenodd" d="M22.5616 30.5483H27.0682V8.93563H22.5616V30.5483Z" fill="#004685"/>
<path fill-rule="evenodd" clip-rule="evenodd" d="M44.7216 25.85C43.5173 26.569 42.3994 26.9317 41.3929 26.9317C39.9371 26.9317 39.2789 26.1765 39.2789 24.4944V13.0252H43.8704V8.95536H39.2789V2.22947L34.8628 4.55273V8.95536H31.0528V13.0252H34.8628V25.2269C34.8628 28.5485 36.867 30.8198 39.8603 30.8804C41.8902 30.919 43.1145 30.3242 43.8576 29.8891L43.9032 29.8584L44.9859 25.6903L44.7216 25.85Z" fill="#004685"/>
<path fill-rule="evenodd" clip-rule="evenodd" d="M48.4514 30.5483H52.9621V8.93563H48.4514V30.5483Z" fill="#004685"/>
<path fill-rule="evenodd" clip-rule="evenodd" d="M61.5671 14.0717L61.5062 14.1511V25.3316L61.5503 25.4C62.97 27.5565 65.2834 28.8468 67.7409 28.8468C71.5397 28.8468 73.4671 25.6998 73.4671 19.4986C73.4671 13.9544 71.3347 10.7807 67.6144 10.7807C65.3578 10.7799 63.3231 11.8876 61.5671 14.0717ZM137.402 30.473V30.5485C136.725 30.5485 134.954 30.5485 134.68 30.5485C134.525 30.2417 128.976 18.6969 128.976 18.6969L124.834 24.4032C124.834 24.4032 124.834 30.0379 124.834 30.5485C124.405 30.5485 122.684 30.5485 122.262 30.5485C122.262 30.0048 122.262 2.47265 122.262 2.15559C122.488 2.02893 124.227 1.04864 124.834 0.7127C124.834 1.62847 124.834 21.3286 124.834 21.3286L126.239 19.1839C126.235 19.191 132.543 10.2182 133.35 9.07503C133.577 9.07503 135.408 9.07503 136.166 9.07503C135.566 9.86256 130.608 16.5696 130.608 16.5696C130.608 16.5696 136.76 29.1733 137.402 30.473ZM86.1422 31.0001H85.0507C82.8351 30.8742 78.8457 29.864 78.8457 24.2404C78.8457 19.2437 83.0432 17.4696 86.9757 17.4696C88.9528 17.4696 90.9034 17.9157 92.3175 18.6969L92.7419 18.9259V15.8442C92.7419 12.4266 91.0427 10.6957 87.6836 10.6957C85.6129 10.6957 83.7431 11.2071 81.8309 12.2692C81.6603 11.8876 81.0646 10.595 80.9004 10.23C82.9023 9.19068 85.3758 8.61084 87.8942 8.61084C92.8861 8.61084 95.3132 10.8507 95.3132 15.4666C95.3132 15.4666 95.3132 30.0088 95.3132 30.5485C94.8864 30.5485 93.1655 30.5485 92.7411 30.5485C92.7411 30.1008 92.7411 27.4165 92.7411 27.4165L92.2431 27.9601C90.4846 29.8617 88.4867 30.8648 86.1422 31.0001ZM68.4656 31.0001H67.4486C65.321 30.8711 63.5826 29.9632 62.0067 28.1725L61.507 27.5982C61.507 27.5982 61.507 30.1111 61.507 30.5477C61.0858 30.5477 59.365 30.5477 58.9406 30.5477C58.9406 30.0041 58.9406 2.47187 58.9406 2.15481C59.1576 2.02814 60.9049 1.04785 61.507 0.711914C61.507 1.59543 61.507 12.2008 61.507 12.2008L62.0035 11.665C63.8989 9.60923 65.9952 8.61006 68.4055 8.61006C73.23 8.61006 75.999 12.5595 75.999 19.453C75.999 26.2418 73.0571 30.7106 68.4656 31.0001ZM81.3657 24.0303C81.3657 27.2426 83.0593 29.0096 86.1349 29.0096C88.755 29.0096 91.0788 27.7941 92.6915 25.5841L92.7411 25.5086V20.8007L92.5978 20.7197C90.9563 19.8 89.2771 19.4278 86.8044 19.4278C83.4028 19.4278 81.3657 21.1492 81.3657 24.0303ZM103.705 11.6327C105.03 9.68554 107.11 8.61006 109.543 8.61006C114.391 8.61006 116.961 11.6493 116.961 17.3988C116.961 17.3988 116.961 30.0096 116.961 30.5477C116.537 30.5477 114.814 30.5477 114.384 30.5477C114.384 30.0096 114.384 17.944 114.384 17.944C114.384 13.052 112.653 10.7791 108.911 10.7791C105.326 10.7791 103.184 13.4604 103.184 17.944C103.184 17.944 103.184 30.0096 103.184 30.5477C102.763 30.5477 101.035 30.5477 100.613 30.5477C100.613 30.008 100.613 9.61002 100.613 9.07424C101.035 9.07424 102.763 9.07424 103.184 9.07424C103.184 9.51875 103.184 12.403 103.184 12.403L103.705 11.6327Z" fill="#004685"/>
</svg>
