<svg width="154" height="158" viewBox="0 0 154 158" fill="none" xmlns="http://www.w3.org/2000/svg">
<path d="M23 20C19.8934 20 17.3382 22.361 17.031 25.3865C17.0105 25.5882 17 25.7929 17 26V39H13V26C13 20.4772 17.4772 16 23 16H144C149.523 16 154 20.4772 154 26V137C154 142.523 149.523 147 144 147H23C17.4771 147 13 142.523 13 137V125H17V137C17 140.314 19.6863 143 23 143H144C147.314 143 150 140.314 150 137V26C150 22.6863 147.314 20 144 20H23Z" fill="url(#paint0_linear_1102_8258)"/>
<path d="M35.5 46C35.5 42.6863 38.2434 40 41.6277 40H125.372C128.757 40 131.5 42.6863 131.5 46V112C131.5 115.314 128.757 118 125.372 118H41.6277C38.2434 118 35.5 115.314 35.5 112V46Z" fill="url(#paint1_linear_1102_8258)"/>
<g filter="url(#filter0_f_1102_8258)">
<ellipse cx="53.883" cy="60" rx="17.3617" ry="17" fill="white" fill-opacity="0.8"/>
</g>
<g filter="url(#filter1_f_1102_8258)">
<ellipse cx="84.2658" cy="119.5" rx="14.4943" ry="13.5" fill="#D669F4"/>
</g>
<g filter="url(#filter2_f_1102_8258)">
<ellipse cx="86.5638" cy="64" rx="19.9149" ry="28" fill="#D669F4"/>
</g>
<g filter="url(#filter3_b_1102_8258)">
<path d="M67.6869 39.1294C73.7319 37.4809 80.1557 36 84 36C87.8443 36 94.2681 37.4809 100.313 39.1294C106.497 40.8059 112.732 42.7897 116.398 43.9912C117.931 44.4989 119.289 45.43 120.318 46.6774C121.347 47.9249 122.004 55.0265 122.214 56.6318C125.535 81.6503 117.83 100.192 108.481 112.458C104.516 117.705 99.7894 122.326 94.4576 126.166C92.6139 127.495 90.6605 128.663 88.6187 129.659C87.0587 130.396 85.3817 131 84 131C82.6183 131 80.9469 130.396 79.3813 129.659C77.3394 128.663 75.3861 127.495 73.5424 126.166C68.2107 122.326 63.4837 117.705 59.5192 112.458C50.1703 100.192 42.465 81.6503 45.7856 56.6318C45.9956 55.0265 46.6528 47.9249 47.6817 46.6774C48.7105 45.43 50.0694 44.4989 51.6022 43.9912C56.9239 42.241 62.2871 40.6199 67.6869 39.1294Z" fill="url(#paint2_radial_1102_8258)" fill-opacity="0.8"/>
<path d="M67.6869 39.1294C73.7319 37.4809 80.1557 36 84 36C87.8443 36 94.2681 37.4809 100.313 39.1294C106.497 40.8059 112.732 42.7897 116.398 43.9912C117.931 44.4989 119.289 45.43 120.318 46.6774C121.347 47.9249 122.004 55.0265 122.214 56.6318C125.535 81.6503 117.83 100.192 108.481 112.458C104.516 117.705 99.7894 122.326 94.4576 126.166C92.6139 127.495 90.6605 128.663 88.6187 129.659C87.0587 130.396 85.3817 131 84 131C82.6183 131 80.9469 130.396 79.3813 129.659C77.3394 128.663 75.3861 127.495 73.5424 126.166C68.2107 122.326 63.4837 117.705 59.5192 112.458C50.1703 100.192 42.465 81.6503 45.7856 56.6318C45.9956 55.0265 46.6528 47.9249 47.6817 46.6774C48.7105 45.43 50.0694 44.4989 51.6022 43.9912C56.9239 42.241 62.2871 40.6199 67.6869 39.1294Z" fill="white" fill-opacity="0.2"/>
</g>
<g filter="url(#filter4_d_1102_8258)">
<path d="M86 43C86 44.1046 85.1046 45 84 45C82.8954 45 82 44.1046 82 43C82 41.8954 82.8954 41 84 41C85.1046 41 86 41.8954 86 43Z" fill="white"/>
<path fill-rule="evenodd" clip-rule="evenodd" d="M84 47C85.1046 47 86 47.8954 86 49V61C86 61.0287 85.9994 61.0572 85.9982 61.0856C88.8454 61.3306 91.5443 62.0943 94 63.2818V57C94 56.931 94.0035 56.8627 94.0103 56.7955C94.1127 55.787 94.9645 55 96 55H99.3414C100.165 52.6696 102.388 51 105 51C108.314 51 111 53.6863 111 57C111 60.3137 108.314 63 105 63C102.388 63 100.165 61.3304 99.3414 59H98V65.7502C100.84 67.9321 103.156 70.7618 104.727 74.0185C104.816 74.0063 104.907 74 105 74H117V72.6586C114.67 71.8349 113 69.6124 113 67C113 63.6863 115.686 61 119 61C122.314 61 125 63.6863 125 67C125 69.6124 123.33 71.8349 121 72.6586V76C121 77.1046 120.105 78 119 78H106.21C106.558 79.2924 106.796 80.6299 106.914 82.0018C106.933 82.001 106.952 82.0005 106.971 82.0002L107 82H111C112.105 82 113 82.8954 113 84C113 85.1046 112.105 86 111 86H107C106.982 86 106.965 85.9998 106.947 85.9993L106.914 85.9982C106.796 87.3701 106.558 88.7076 106.21 90H119C120.105 90 121 90.8954 121 92V95.3414C123.33 96.1651 125 98.3876 125 101C125 104.314 122.314 107 119 107C115.686 107 113 104.314 113 101C113 98.3876 114.67 96.1651 117 95.3414V94H105C104.907 94 104.816 93.9937 104.727 93.9815C103.156 97.2382 100.84 100.068 98 102.25V110H99.083C99.559 107.162 102.027 105 105 105C108.314 105 111 107.686 111 111C111 114.314 108.314 117 105 117C102.779 117 100.84 115.793 99.8027 114H96C94.8954 114 94 113.105 94 112V104.718C91.5443 105.906 88.8454 106.669 85.9982 106.914C85.9994 106.943 86 106.971 86 107V119C86 120.105 85.1046 121 84 121C82.8954 121 82 120.105 82 119V107C82 106.981 82.0003 106.963 82.0008 106.944L82.0018 106.914C79.1546 106.669 76.4557 105.906 74 104.718V112C74 113.105 73.1046 114 72 114H68.1973C67.1599 115.793 65.2208 117 63 117C59.6863 117 57 114.314 57 111C57 107.686 59.6863 105 63 105C65.973 105 68.441 107.162 68.917 110H70V102.25C67.1655 100.072 64.8528 97.2489 63.2818 94H50V95.3414C52.3304 96.1651 54 98.3876 54 101C54 104.314 51.3137 107 48 107C44.6863 107 42 104.314 42 101C42 98.3876 43.6696 96.1651 46 95.3414L46 92C46 90.9645 46.787 90.1127 47.7955 90.0103C47.8627 90.0035 47.931 90 48 90H61.7905C61.4422 88.7076 61.2037 87.3701 61.0856 85.9982C61.0572 85.9994 61.0287 86 61 86H57C55.8954 86 55 85.1046 55 84C55 82.8954 55.8954 82 57 82H61C61.0287 82 61.0572 82.0006 61.0856 82.0018C61.2037 80.6299 61.4422 79.2924 61.7905 78H48C47.931 78 47.8627 77.9965 47.7955 77.9897C46.787 77.8873 46 77.0355 46 76L46 72.6586C43.6696 71.8349 42 69.6124 42 67C42 63.6863 44.6863 61 48 61C51.3137 61 54 63.6863 54 67C54 69.6124 52.3304 71.8349 50 72.6586V74H63.2818C64.8528 70.7511 67.1655 67.9279 70 65.7502V59H68.6586C67.8349 61.3304 65.6124 63 63 63C59.6863 63 57 60.3137 57 57C57 53.6863 59.6863 51 63 51C65.6124 51 67.8349 52.6696 68.6586 55H72C73.1046 55 74 55.8954 74 57V63.2818C76.4557 62.0943 79.1546 61.3306 82.0018 61.0856C82.0006 61.0572 82 61.0287 82 61V49C82 47.8954 82.8954 47 84 47ZM105 59C106.105 59 107 58.1046 107 57C107 55.8954 106.105 55 105 55C103.895 55 103 55.8954 103 57C103 58.1046 103.895 59 105 59ZM107 111C107 112.105 106.105 113 105 113C103.895 113 103 112.105 103 111C103 109.895 103.895 109 105 109C106.105 109 107 109.895 107 111ZM63 59C64.1046 59 65 58.1046 65 57C65 55.8954 64.1046 55 63 55C61.8954 55 61 55.8954 61 57C61 58.1046 61.8954 59 63 59ZM48 99C49.1046 99 50 99.8954 50 101C50 102.105 49.1046 103 48 103C46.8954 103 46 102.105 46 101C46 99.8954 46.8954 99 48 99ZM50 67C50 68.1046 49.1046 69 48 69C46.8954 69 46 68.1046 46 67C46 65.8954 46.8954 65 48 65C49.1046 65 50 65.8954 50 67ZM119 69C117.895 69 117 68.1046 117 67C117 65.8954 117.895 65 119 65C120.105 65 121 65.8954 121 67C121 68.1046 120.105 69 119 69ZM117 101C117 99.8954 117.895 99 119 99C120.105 99 121 99.8954 121 101C121 102.105 120.105 103 119 103C117.895 103 117 102.105 117 101ZM65 111C65 112.105 64.1046 113 63 113C61.8954 113 61 112.105 61 111C61 109.895 61.8954 109 63 109C64.1046 109 65 109.895 65 111Z" fill="white"/>
<path d="M53 84C53 85.1046 52.1046 86 51 86C49.8954 86 49 85.1046 49 84C49 82.8954 49.8954 82 51 82C52.1046 82 53 82.8954 53 84Z" fill="white"/>
<path d="M117 86C118.105 86 119 85.1046 119 84C119 82.8954 118.105 82 117 82C115.895 82 115 82.8954 115 84C115 85.1046 115.895 86 117 86Z" fill="white"/>
<path d="M84 127C85.1046 127 86 126.105 86 125C86 123.895 85.1046 123 84 123C82.8954 123 82 123.895 82 125C82 126.105 82.8954 127 84 127Z" fill="white"/>
</g>
<path d="M92.0152 82.5644C92.7719 81.4285 93.2099 80.1043 93.2822 78.7343C93.3545 77.3643 93.0584 76.0001 92.4257 74.7883C91.793 73.5765 90.8475 72.5628 89.6909 71.8562C88.5343 71.1497 87.2102 70.7768 85.8609 70.7778V68.8889C85.8609 68.3879 85.6652 67.9075 85.3169 67.5532C84.9685 67.199 84.496 67 84.0033 67C83.5107 67 83.0382 67.199 82.6898 67.5532C82.3414 67.9075 82.1457 68.3879 82.1457 68.8889V70.7778H78.4305V68.8889C78.4305 68.3879 78.2348 67.9075 77.8864 67.5532C77.538 67.199 77.0655 67 76.5729 67C76.0802 67 75.6077 67.199 75.2593 67.5532C74.9109 67.9075 74.7152 68.3879 74.7152 68.8889V70.7778H72.8576C72.3649 70.7778 71.8925 70.9768 71.5441 71.331C71.1957 71.6853 71 72.1657 71 72.6667C71 73.1676 71.1957 73.6481 71.5441 74.0023C71.8925 74.3565 72.3649 74.5556 72.8576 74.5556H74.7152V93.4444H72.8576C72.3649 93.4444 71.8925 93.6434 71.5441 93.9977C71.1957 94.3519 71 94.8324 71 95.3333C71 95.8343 71.1957 96.3147 71.5441 96.669C71.8925 97.0232 72.3649 97.2222 72.8576 97.2222H74.7152V99.1111C74.7152 99.6121 74.9109 100.093 75.2593 100.447C75.6077 100.801 76.0802 101 76.5729 101C77.0655 101 77.538 100.801 77.8864 100.447C78.2348 100.093 78.4305 99.6121 78.4305 99.1111V97.2222H82.1457V99.1111C82.1457 99.6121 82.3414 100.093 82.6898 100.447C83.0382 100.801 83.5107 101 84.0033 101C84.496 101 84.9685 100.801 85.3169 100.447C85.6652 100.093 85.8609 99.6121 85.8609 99.1111V97.2222H89.5762C91.3296 97.2251 93.0272 96.5958 94.3674 95.4461C95.7076 94.2964 96.6036 92.7009 96.8961 90.9429C97.1886 89.185 96.8588 87.3785 95.9651 85.8445C95.0715 84.3105 93.672 83.1483 92.0152 82.5644ZM89.5762 78.3333C89.5752 79.335 89.1834 80.2953 88.4869 81.0035C87.7904 81.7118 86.846 82.1101 85.8609 82.1111H78.4305V74.5556H85.8609C86.846 74.5566 87.7904 74.9549 88.4869 75.6631C89.1834 76.3714 89.5752 77.3317 89.5762 78.3333ZM89.5762 93.4444H78.4305V85.8889H89.5762C90.5615 85.8889 91.5065 86.2869 92.2032 86.9954C92.9 87.7038 93.2914 88.6647 93.2914 89.6667C93.2914 90.6686 92.9 91.6295 92.2032 92.338C91.5065 93.0464 90.5615 93.4444 89.5762 93.4444Z" fill="url(#paint3_linear_1102_8258)"/>
<defs>
<filter id="filter0_f_1102_8258" x="0.521301" y="7" width="106.723" height="106" filterUnits="userSpaceOnUse" color-interpolation-filters="sRGB">
<feFlood flood-opacity="0" result="BackgroundImageFix"/>
<feBlend mode="normal" in="SourceGraphic" in2="BackgroundImageFix" result="shape"/>
<feGaussianBlur stdDeviation="18" result="effect1_foregroundBlur_1102_8258"/>
</filter>
<filter id="filter1_f_1102_8258" x="44.8484" y="81.0769" width="78.8347" height="76.8462" filterUnits="userSpaceOnUse" color-interpolation-filters="sRGB">
<feFlood flood-opacity="0" result="BackgroundImageFix"/>
<feBlend mode="normal" in="SourceGraphic" in2="BackgroundImageFix" result="shape"/>
<feGaussianBlur stdDeviation="12.4615" result="effect1_foregroundBlur_1102_8258"/>
</filter>
<filter id="filter2_f_1102_8258" x="30.6489" y="0" width="111.83" height="128" filterUnits="userSpaceOnUse" color-interpolation-filters="sRGB">
<feFlood flood-opacity="0" result="BackgroundImageFix"/>
<feBlend mode="normal" in="SourceGraphic" in2="BackgroundImageFix" result="shape"/>
<feGaussianBlur stdDeviation="18" result="effect1_foregroundBlur_1102_8258"/>
</filter>
<filter id="filter3_b_1102_8258" x="42" y="33" width="84" height="101" filterUnits="userSpaceOnUse" color-interpolation-filters="sRGB">
<feFlood flood-opacity="0" result="BackgroundImageFix"/>
<feGaussianBlur in="BackgroundImageFix" stdDeviation="1.5"/>
<feComposite in2="SourceAlpha" operator="in" result="effect1_backgroundBlur_1102_8258"/>
<feBlend mode="normal" in="SourceGraphic" in2="effect1_backgroundBlur_1102_8258" result="shape"/>
</filter>
<filter id="filter4_d_1102_8258" x="38" y="41" width="91" height="94" filterUnits="userSpaceOnUse" color-interpolation-filters="sRGB">
<feFlood flood-opacity="0" result="BackgroundImageFix"/>
<feColorMatrix in="SourceAlpha" type="matrix" values="0 0 0 0 0 0 0 0 0 0 0 0 0 0 0 0 0 0 127 0" result="hardAlpha"/>
<feOffset dy="4"/>
<feGaussianBlur stdDeviation="2"/>
<feComposite in2="hardAlpha" operator="out"/>
<feColorMatrix type="matrix" values="0 0 0 0 0 0 0 0 0 0 0 0 0 0 0 0 0 0 0.25 0"/>
<feBlend mode="normal" in2="BackgroundImageFix" result="effect1_dropShadow_1102_8258"/>
<feBlend mode="normal" in="SourceGraphic" in2="effect1_dropShadow_1102_8258" result="shape"/>
</filter>
<linearGradient id="paint0_linear_1102_8258" x1="146.621" y1="39.7939" x2="77.9335" y2="190.002" gradientUnits="userSpaceOnUse">
<stop stop-color="#7F31DA"/>
<stop offset="0.325806" stop-color="#D669F4"/>
<stop offset="0.653937" stop-color="#FF5CAA"/>
<stop offset="1" stop-color="#FF9883"/>
</linearGradient>
<linearGradient id="paint1_linear_1102_8258" x1="126.476" y1="54.1674" x2="89.1933" y2="147.396" gradientUnits="userSpaceOnUse">
<stop stop-color="#7F31DA"/>
<stop offset="0.325806" stop-color="#D669F4"/>
<stop offset="0.653937" stop-color="#FF5CAA"/>
<stop offset="1" stop-color="#FF9883"/>
</linearGradient>
<radialGradient id="paint2_radial_1102_8258" cx="0" cy="0" r="1" gradientUnits="userSpaceOnUse" gradientTransform="translate(6.00001 -19.5) rotate(50.7463) scale(338.993 139.14)">
<stop offset="0.204462" stop-color="#FBFBFB"/>
<stop offset="0.572339" stop-color="#DBC8F9" stop-opacity="0.573497"/>
<stop offset="0.676507" stop-color="#7FC0FC" stop-opacity="0.2"/>
<stop offset="0.86826" stop-color="#FBFBFB" stop-opacity="0.57"/>
</radialGradient>
<linearGradient id="paint3_linear_1102_8258" x1="95.6393" y1="73.1755" x2="74.1871" y2="106.505" gradientUnits="userSpaceOnUse">
<stop stop-color="#7F31DA"/>
<stop offset="0.325806" stop-color="#D669F4"/>
<stop offset="0.653937" stop-color="#FF5CAA"/>
<stop offset="1" stop-color="#FF9883"/>
</linearGradient>
</defs>
</svg>
