<svg width="92" height="28" viewBox="0 0 92 28" fill="none" xmlns="http://www.w3.org/2000/svg">
<path d="M19.274 13.0744V4.44166C19.274 3.31929 18.7008 2.07791 15.916 2.07791V1.34289H26.5127V2.07791C23.7307 2.07791 23.1604 3.31929 23.1604 4.44166V23.8761C23.1604 24.9977 23.7307 26.237 26.5127 26.237V26.9727H15.916V26.237C18.7001 26.237 19.274 24.997 19.274 23.8761V14.6606H7.72199V23.8754C7.72199 24.997 8.29231 26.2362 11.0771 26.2362V26.972H0.479004V26.2362C3.26171 26.2362 3.83416 24.9963 3.83416 23.8754V4.44166C3.83416 3.31929 3.26242 2.07791 0.479004 2.07791V1.34289H11.0771V2.07791C8.29302 2.07791 7.72199 3.31929 7.72199 4.44166V13.0744H19.274Z" fill="url(#paint0_linear_885_5552)"/>
<path d="M27.4083 19.192H28.2847C29.4673 22.7928 32.1356 26.0474 36.1769 26.0474C39.2643 26.0474 41.3595 23.3352 40.4852 20.3151C38.9198 14.8944 28.5156 14.6614 28.5156 7.2686C28.5156 3.4348 31.5255 0.801277 35.2621 0.801277C39.3019 0.801277 41.1315 3.66635 42.0477 0.801277H42.8467L43.6855 9.04953H42.7352C41.8573 5.448 39.3403 2.39034 35.7955 2.39034C33.5078 2.39034 31.794 3.66635 31.794 6.108C31.794 8.3513 34.1946 9.93819 35.8338 10.9452C41.0179 14.1211 44.5243 15.7859 44.5243 20.4305C44.5243 23.9159 41.6649 27.5152 36.4837 27.5152C32.5192 27.5152 29.7734 24.692 29.3899 27.5152H28.5525L27.4083 19.192Z" fill="url(#paint1_linear_885_5552)"/>
<path d="M57.1253 12.8039C60.9741 12.8039 63.2241 11.1376 63.2241 8.00425C63.2241 5.05911 61.3953 3.47149 58.7269 2.9709C55.2191 2.73719 53.9981 2.66145 53.9981 4.01537V12.8046L57.1253 12.8039ZM53.9981 23.4887C53.9981 24.8455 54.3426 25.5416 57.1253 25.5416C61.0892 25.5416 64.0253 24.3413 64.0253 19.8122C64.0253 15.2044 59.4876 14.3518 55.9044 14.3518H53.9974L53.9981 23.4887ZM50.1103 4.44166C50.1103 3.31929 49.5386 2.07791 46.4519 2.07791V1.34289H56.6658C62.538 1.34289 67.1127 2.93123 67.1127 7.88811C67.1127 11.1384 64.9756 12.8046 62.0437 13.4624V13.5403C65.3193 14.1578 68.4067 16.2092 68.4067 19.9283C68.4067 24.5743 64.4443 26.9727 58.4591 26.9727H46.4519V26.237C49.5386 26.237 50.1103 24.997 50.1103 23.8761V4.44166Z" fill="url(#paint2_linear_885_5552)"/>
<path d="M91.2869 9.31568H90.3729C89.2685 5.0563 86.4857 2.153 82.1384 2.153C75.85 2.153 73.1432 7.30104 73.1432 14.2697C73.1432 19.6911 75.9245 25.5345 82.1782 25.5345C85.914 25.5345 88.4673 24.296 91.098 21.6646L91.7458 22.4393C89.4212 25.3426 85.4935 27.2801 81.8344 27.2801C74.4018 27.2801 68.722 22.4393 68.722 13.9595C68.722 6.25585 74.0957 0.5625 81.7598 0.5625C86.9815 0.5625 88.8885 3.74062 90.1484 0.603615H90.946L91.2869 9.31568Z" fill="url(#paint3_linear_885_5552)"/>
<defs>
<linearGradient id="paint0_linear_885_5552" x1="9.47892" y1="1.71487" x2="21.9881" y2="36.2527" gradientUnits="userSpaceOnUse">
<stop stop-color="#180223"/>
<stop offset="1" stop-color="#1D0337"/>
</linearGradient>
<linearGradient id="paint1_linear_885_5552" x1="9.47892" y1="1.71487" x2="21.9881" y2="36.2527" gradientUnits="userSpaceOnUse">
<stop stop-color="#180223"/>
<stop offset="1" stop-color="#1D0337"/>
</linearGradient>
<linearGradient id="paint2_linear_885_5552" x1="9.47892" y1="1.71487" x2="21.9881" y2="36.2527" gradientUnits="userSpaceOnUse">
<stop stop-color="#180223"/>
<stop offset="1" stop-color="#1D0337"/>
</linearGradient>
<linearGradient id="paint3_linear_885_5552" x1="9.47892" y1="1.71487" x2="21.9881" y2="36.2527" gradientUnits="userSpaceOnUse">
<stop stop-color="#180223"/>
<stop offset="1" stop-color="#1D0337"/>
</linearGradient>
</defs>
</svg>
