<svg width="150" height="155" viewBox="0 0 150 155" fill="none" xmlns="http://www.w3.org/2000/svg">
<path d="M10 28C6.8934 28 4.33824 30.361 4.03098 33.3865C4.01049 33.5882 4 33.7929 4 34V47H0V34C0 28.4772 4.47715 24 10 24H131C136.523 24 141 28.4772 141 34V145C141 150.523 136.523 155 131 155H10C4.47715 155 0 150.523 0 145V133H4V145C4 148.314 6.68629 151 10 151H131C134.314 151 137 148.314 137 145V34C137 30.6863 134.314 28 131 28H10Z" fill="url(#paint0_linear_1102_8259)"/>
<rect x="29" y="38" width="73" height="99" rx="6" fill="url(#paint1_linear_1102_8259)"/>
<g filter="url(#filter0_f_1102_8259)">
<ellipse cx="93.5" cy="55.5" rx="20.5" ry="19.5" fill="#D669F4"/>
</g>
<g filter="url(#filter1_b_1102_8259)">
<rect x="44" y="142" width="94" height="69" rx="5" transform="rotate(-90 44 142)" fill="url(#paint2_linear_1102_8259)"/>
</g>
<g filter="url(#filter2_d_1102_8259)">
<path d="M55 128.5C55 126.015 57.0147 124 59.5 124H99.5C101.985 124 104 126.015 104 128.5C104 130.985 101.985 133 99.5 133H59.5C57.0147 133 55 130.985 55 128.5Z" fill="white"/>
<path d="M70.6344 75.9688C69.86 73.3438 66.14 73.3438 65.3656 75.9688L65.1781 76.6063C65.0624 76.9992 64.8602 77.3613 64.5864 77.666C64.3125 77.9707 63.9739 78.2102 63.5954 78.367C63.2169 78.5238 62.8082 78.5939 62.3991 78.5721C61.99 78.5503 61.591 78.4373 61.2312 78.2412L60.65 77.9225C58.2444 76.6138 55.6137 79.2444 56.9244 81.6481L57.2413 82.2313C58.0775 83.7688 57.2844 85.6831 55.6063 86.1781L54.9688 86.3656C52.3438 87.14 52.3438 90.86 54.9688 91.6344L55.6063 91.8219C55.9992 91.9376 56.3613 92.1398 56.666 92.4136C56.9707 92.6875 57.2102 93.0261 57.367 93.4046C57.5238 93.7831 57.5939 94.1918 57.5721 94.6009C57.5503 95.01 57.4373 95.409 57.2413 95.7687L56.9225 96.35C55.6137 98.7556 58.2444 101.386 60.6481 100.076L61.2312 99.7588C61.591 99.5627 61.99 99.4497 62.3991 99.4279C62.8082 99.4061 63.2169 99.4762 63.5954 99.633C63.9739 99.7898 64.3125 100.029 64.5864 100.334C64.8602 100.639 65.0624 101.001 65.1781 101.394L65.3656 102.031C66.14 104.656 69.86 104.656 70.6344 102.031L70.8219 101.394C70.9376 101.001 71.1398 100.639 71.4136 100.334C71.6875 100.029 72.0261 99.7898 72.4046 99.633C72.7831 99.4762 73.1918 99.4061 73.6009 99.4279C74.01 99.4497 74.409 99.5627 74.7687 99.7588L75.35 100.077C77.7556 101.386 80.3862 98.7556 79.0756 96.3519L78.7587 95.7687C78.5627 95.409 78.4497 95.01 78.4279 94.6009C78.4061 94.1918 78.4762 93.7831 78.633 93.4046C78.7898 93.0261 79.0293 92.6875 79.334 92.4136C79.6387 92.1398 80.0008 91.9376 80.3937 91.8219L81.0312 91.6344C83.6562 90.86 83.6562 87.14 81.0312 86.3656L80.3937 86.1781C80.0008 86.0624 79.6387 85.8602 79.334 85.5864C79.0293 85.3125 78.7898 84.9739 78.633 84.5954C78.4762 84.2169 78.4061 83.8082 78.4279 83.3991C78.4497 82.99 78.5627 82.591 78.7587 82.2313L79.0775 81.65C80.3862 79.2444 77.7556 76.6138 75.3519 77.9244L74.7687 78.2412C74.409 78.4373 74.01 78.5503 73.6009 78.5721C73.1918 78.5939 72.7831 78.5238 72.4046 78.367C72.0261 78.2102 71.6875 77.9707 71.4136 77.666C71.1398 77.3613 70.9376 76.9992 70.8219 76.6063L70.6344 75.9688ZM68 94.4938C66.543 94.4938 65.1456 93.9149 64.1153 92.8847C63.0851 91.8544 62.5063 90.457 62.5063 89C62.5063 87.543 63.0851 86.1456 64.1153 85.1153C65.1456 84.0851 66.543 83.5063 68 83.5063C69.4565 83.5063 70.8534 84.0849 71.8833 85.1148C72.9133 86.1447 73.4919 87.5416 73.4919 88.9981C73.4919 90.4547 72.9133 91.8515 71.8833 92.8815C70.8534 93.9114 69.4565 94.49 68 94.49V94.4938Z" fill="white"/>
<path d="M68 94.4938C66.543 94.4938 65.1456 93.9149 64.1153 92.8847C63.0851 91.8544 62.5063 90.457 62.5063 89C62.5063 87.543 63.0851 86.1456 64.1153 85.1153C65.1456 84.0851 66.543 83.5063 68 83.5063C69.4565 83.5063 70.8534 84.0849 71.8833 85.1148C72.9133 86.1447 73.4919 87.5416 73.4919 88.9981C73.4919 90.4547 72.9133 91.8515 71.8833 92.8815C70.8534 93.9114 69.4565 94.49 68 94.49V94.4938Z" fill="url(#paint3_linear_1102_8259)"/>
<path d="M93.5806 87.1813C93.116 85.6063 90.884 85.6063 90.4194 87.1813L90.3069 87.5638C90.2375 87.7995 90.1161 88.0168 89.9518 88.1996C89.7875 88.3824 89.5843 88.5261 89.3573 88.6202C89.1302 88.7143 88.8849 88.7563 88.6395 88.7433C88.394 88.7302 88.1546 88.6624 87.9388 88.5448L87.59 88.3535C86.1466 87.5682 84.5683 89.1466 85.3546 90.5889L85.5448 90.9388C86.0465 91.8613 85.5706 93.0099 84.5637 93.3069L84.1812 93.4194C82.6062 93.884 82.6062 96.116 84.1812 96.5806L84.5637 96.6931C84.7995 96.7625 85.0168 96.8839 85.1996 97.0482C85.3824 97.2125 85.5261 97.4157 85.6202 97.6427C85.7143 97.8698 85.7563 98.1151 85.7433 98.3605C85.7302 98.606 85.6624 98.8454 85.5448 99.0612L85.3535 99.41C84.5683 100.853 86.1466 102.432 87.5889 101.645L87.9388 101.455C88.1546 101.338 88.394 101.27 88.6395 101.257C88.8849 101.244 89.1302 101.286 89.3573 101.38C89.5843 101.474 89.7875 101.618 89.9518 101.8C90.1161 101.983 90.2375 102.2 90.3069 102.436L90.4194 102.819C90.884 104.394 93.116 104.394 93.5806 102.819L93.6931 102.436C93.7625 102.2 93.8839 101.983 94.0482 101.8C94.2125 101.618 94.4157 101.474 94.6427 101.38C94.8698 101.286 95.1151 101.244 95.3605 101.257C95.606 101.27 95.8454 101.338 96.0612 101.455L96.41 101.646C97.8534 102.432 99.4317 100.853 98.6454 99.4111L98.4552 99.0612C98.3376 98.8454 98.2698 98.606 98.2567 98.3605C98.2437 98.1151 98.2857 97.8698 98.3798 97.6427C98.4739 97.4157 98.6176 97.2125 98.8004 97.0482C98.9832 96.8839 99.2005 96.7625 99.4362 96.6931L99.8187 96.5806C101.394 96.116 101.394 93.884 99.8187 93.4194L99.4362 93.3069C99.2005 93.2375 98.9832 93.1161 98.8004 92.9518C98.6176 92.7875 98.4739 92.5843 98.3798 92.3573C98.2857 92.1302 98.2437 91.8849 98.2567 91.6395C98.2698 91.394 98.3376 91.1546 98.4552 90.9388L98.6465 90.59C99.4318 89.1466 97.8534 87.5683 96.4111 88.3546L96.0612 88.5448C95.8454 88.6624 95.606 88.7302 95.3605 88.7433C95.1151 88.7563 94.8698 88.7143 94.6427 88.6202C94.4157 88.5261 94.2125 88.3824 94.0482 88.1996C93.8839 88.0168 93.7625 87.7995 93.6931 87.5638L93.5806 87.1813ZM92 98.2962C91.1258 98.2962 90.2874 97.949 89.6692 97.3308C89.051 96.7126 88.7038 95.8742 88.7038 95C88.7038 94.1258 89.051 93.2874 89.6692 92.6692C90.2874 92.051 91.1258 91.7038 92 91.7038C92.8739 91.7038 93.7121 92.0509 94.33 92.6689C94.948 93.2868 95.2951 94.125 95.2951 94.9989C95.2951 95.8728 94.948 96.7109 94.33 97.3289C93.7121 97.9468 92.8739 98.294 92 98.294V98.2962Z" fill="white"/>
<path d="M92 98.2962C91.1258 98.2962 90.2874 97.949 89.6692 97.3308C89.051 96.7126 88.7038 95.8742 88.7038 95C88.7038 94.1258 89.051 93.2874 89.6692 92.6692C90.2874 92.051 91.1258 91.7038 92 91.7038C92.8739 91.7038 93.7121 92.0509 94.33 92.6689C94.948 93.2868 95.2951 94.125 95.2951 94.9989C95.2951 95.8728 94.948 96.7109 94.33 97.3289C93.7121 97.9468 92.8739 98.294 92 98.294V98.2962Z" fill="url(#paint4_linear_1102_8259)"/>
<path d="M89 53.5C89 54.3284 88.3112 55 87.4615 55C86.6119 55 85.9231 54.3284 85.9231 53.5C85.9231 52.6716 86.6119 52 87.4615 52C88.3112 52 89 52.6716 89 53.5Z" fill="white"/>
<path d="M84.3846 53.5C84.3846 54.3284 83.6958 55 82.8462 55L69.5385 55C68.6888 55 68 54.3284 68 53.5C68 52.6716 68.6888 52 69.5385 52L82.8462 52C83.6958 52 84.3846 52.6716 84.3846 53.5Z" fill="white"/>
<path d="M108 60.5C108 61.3284 107.328 62 106.5 62L94.5 62C93.6716 62 93 61.3284 93 60.5C93 59.6716 93.6716 59 94.5 59L106.5 59C107.328 59 108 59.6716 108 60.5Z" fill="white"/>
<path d="M108 65.5C108 66.3284 107.328 67 106.5 67L94.5 67C93.6716 67 93 66.3284 93 65.5C93 64.6716 93.6716 64 94.5 64L106.5 64C107.328 64 108 64.6716 108 65.5Z" fill="white"/>
<path d="M108 70.5C108 71.3284 107.328 72 106.5 72L94.5 72C93.6716 72 93 71.3284 93 70.5C93 69.6716 93.6716 69 94.5 69L106.5 69C107.328 69 108 69.6716 108 70.5Z" fill="white"/>
</g>
<path d="M78.6613 128.376V128.627C78.6613 128.995 78.6055 129.326 78.4939 129.62C78.3823 129.912 78.2237 130.16 78.0183 130.365C77.8128 130.57 77.568 130.727 77.2839 130.836C76.9997 130.945 76.6839 131 76.3364 131C75.9939 131 75.6794 130.945 75.3927 130.836C75.1086 130.727 74.8625 130.57 74.6545 130.365C74.4465 130.16 74.2854 129.912 74.1712 129.62C74.0571 129.326 74 128.995 74 128.627V128.376C74 128.006 74.0571 127.676 74.1712 127.384C74.2854 127.092 74.4452 126.843 74.6507 126.638C74.8562 126.431 75.101 126.273 75.3851 126.164C75.6717 126.055 75.9863 126 76.3288 126C76.6763 126 76.9921 126.055 77.2763 126.164C77.5604 126.273 77.8052 126.431 78.0107 126.638C78.2187 126.843 78.3785 127.092 78.4901 127.384C78.6043 127.676 78.6613 128.006 78.6613 128.376ZM77.6035 128.627V128.37C77.6035 128.105 77.5756 127.872 77.5198 127.671C77.464 127.468 77.3815 127.298 77.2725 127.16C77.1634 127.022 77.0289 126.918 76.8691 126.849C76.7093 126.778 76.5292 126.742 76.3288 126.742C76.1258 126.742 75.9457 126.778 75.7884 126.849C75.6337 126.918 75.5018 127.022 75.3927 127.16C75.2836 127.298 75.1999 127.468 75.1416 127.671C75.0857 127.872 75.0578 128.105 75.0578 128.37V128.627C75.0578 128.89 75.0857 129.123 75.1416 129.326C75.1999 129.528 75.2836 129.7 75.3927 129.84C75.5043 129.978 75.6388 130.083 75.796 130.154C75.9533 130.226 76.1334 130.261 76.3364 130.261C76.5393 130.261 76.7194 130.226 76.8767 130.154C77.034 130.083 77.1659 129.978 77.2725 129.84C77.3815 129.7 77.464 129.528 77.5198 129.326C77.5756 129.123 77.6035 128.89 77.6035 128.627Z" fill="url(#paint5_linear_1102_8259)"/>
<path d="M80.0712 126.067C80.3601 126.067 80.5944 126.301 80.5944 126.59V130.41C80.5944 130.699 80.3601 130.933 80.0712 130.933C79.7822 130.933 79.5479 130.699 79.5479 130.41V126.59C79.5479 126.301 79.7822 126.067 80.0712 126.067ZM82.8442 126.067C83.2525 126.067 83.4637 126.554 83.1847 126.852L81.6979 128.44L80.4269 129.633L80.2405 128.741L81.1233 127.735L82.4989 126.22C82.5873 126.122 82.7127 126.067 82.8442 126.067ZM83.0024 130.933C82.847 130.933 82.7006 130.86 82.6069 130.736L81.032 128.654L81.7778 128L83.3976 130.138C83.6449 130.465 83.412 130.933 83.0024 130.933Z" fill="url(#paint6_linear_1102_8259)"/>
<defs>
<filter id="filter0_f_1102_8259" x="37" y="0" width="113" height="111" filterUnits="userSpaceOnUse" color-interpolation-filters="sRGB">
<feFlood flood-opacity="0" result="BackgroundImageFix"/>
<feBlend mode="normal" in="SourceGraphic" in2="BackgroundImageFix" result="shape"/>
<feGaussianBlur stdDeviation="18" result="effect1_foregroundBlur_1102_8259"/>
</filter>
<filter id="filter1_b_1102_8259" x="38" y="42" width="81" height="106" filterUnits="userSpaceOnUse" color-interpolation-filters="sRGB">
<feFlood flood-opacity="0" result="BackgroundImageFix"/>
<feGaussianBlur in="BackgroundImageFix" stdDeviation="3"/>
<feComposite in2="SourceAlpha" operator="in" result="effect1_backgroundBlur_1102_8259"/>
<feBlend mode="normal" in="SourceGraphic" in2="effect1_backgroundBlur_1102_8259" result="shape"/>
</filter>
<filter id="filter2_d_1102_8259" x="50" y="51" width="61" height="87" filterUnits="userSpaceOnUse" color-interpolation-filters="sRGB">
<feFlood flood-opacity="0" result="BackgroundImageFix"/>
<feColorMatrix in="SourceAlpha" type="matrix" values="0 0 0 0 0 0 0 0 0 0 0 0 0 0 0 0 0 0 127 0" result="hardAlpha"/>
<feOffset dy="2"/>
<feGaussianBlur stdDeviation="1.5"/>
<feComposite in2="hardAlpha" operator="out"/>
<feColorMatrix type="matrix" values="0 0 0 0 0 0 0 0 0 0 0 0 0 0 0 0 0 0 0.25 0"/>
<feBlend mode="normal" in2="BackgroundImageFix" result="effect1_dropShadow_1102_8259"/>
<feBlend mode="normal" in="SourceGraphic" in2="effect1_dropShadow_1102_8259" result="shape"/>
</filter>
<linearGradient id="paint0_linear_1102_8259" x1="133.621" y1="47.7939" x2="64.9335" y2="198.002" gradientUnits="userSpaceOnUse">
<stop stop-color="#7F31DA"/>
<stop offset="0.325806" stop-color="#D669F4"/>
<stop offset="0.653937" stop-color="#FF5CAA"/>
<stop offset="1" stop-color="#FF9883"/>
</linearGradient>
<linearGradient id="paint1_linear_1102_8259" x1="98.1795" y1="55.9816" x2="34.8022" y2="150.931" gradientUnits="userSpaceOnUse">
<stop stop-color="#7F31DA"/>
<stop offset="0.325806" stop-color="#D669F4"/>
<stop offset="0.653937" stop-color="#FF5CAA"/>
<stop offset="1" stop-color="#FF9883"/>
</linearGradient>
<linearGradient id="paint2_linear_1102_8259" x1="162.5" y1="146" x2="60.5" y2="206" gradientUnits="userSpaceOnUse">
<stop stop-color="#FBFBFB"/>
<stop offset="0.841542" stop-color="#DBC8F9" stop-opacity="0.573497"/>
<stop offset="1" stop-color="#7FC0FC" stop-opacity="0.2"/>
</linearGradient>
<linearGradient id="paint3_linear_1102_8259" x1="105.122" y1="67.4388" x2="48.3382" y2="142.089" gradientUnits="userSpaceOnUse">
<stop stop-color="#7F31DA"/>
<stop offset="0.325806" stop-color="#D669F4"/>
<stop offset="0.653937" stop-color="#FF5CAA"/>
<stop offset="1" stop-color="#FF9883"/>
</linearGradient>
<linearGradient id="paint4_linear_1102_8259" x1="105.122" y1="67.4388" x2="48.3382" y2="142.089" gradientUnits="userSpaceOnUse">
<stop stop-color="#7F31DA"/>
<stop offset="0.325806" stop-color="#D669F4"/>
<stop offset="0.653937" stop-color="#FF5CAA"/>
<stop offset="1" stop-color="#FF9883"/>
</linearGradient>
<linearGradient id="paint5_linear_1102_8259" x1="83.4766" y1="126.908" x2="81.8681" y2="133.444" gradientUnits="userSpaceOnUse">
<stop stop-color="#7F31DA"/>
<stop offset="0.325806" stop-color="#D669F4"/>
<stop offset="0.653937" stop-color="#FF5CAA"/>
<stop offset="1" stop-color="#FF9883"/>
</linearGradient>
<linearGradient id="paint6_linear_1102_8259" x1="83.4766" y1="126.908" x2="81.8681" y2="133.444" gradientUnits="userSpaceOnUse">
<stop stop-color="#7F31DA"/>
<stop offset="0.325806" stop-color="#D669F4"/>
<stop offset="0.653937" stop-color="#FF5CAA"/>
<stop offset="1" stop-color="#FF9883"/>
</linearGradient>
</defs>
</svg>
