<svg width="78" height="81" viewBox="0 0 78 81" fill="none" xmlns="http://www.w3.org/2000/svg">
<path d="M11.5708 10.9847C10.0123 10.9847 8.73044 12.1562 8.57629 13.6574C8.56602 13.7575 8.56075 13.8591 8.56075 13.9618V20.4122H6.55408V13.9618C6.55408 11.2215 8.80012 9 11.5708 9H72.2727C75.0433 9 77.2894 11.2215 77.2894 13.9618V69.0382C77.2894 71.7785 75.0433 74 72.2727 74H11.5708C8.80012 74 6.55408 71.7785 6.55408 69.0382V63.084H8.56075V69.0382C8.56075 70.6824 9.90838 72.0153 11.5708 72.0153H72.2727C73.9351 72.0153 75.2827 70.6824 75.2827 69.0382V13.9618C75.2827 12.3176 73.9351 10.9847 72.2727 10.9847H11.5708Z" fill="url(#paint0_linear_505_10467)"/>
<path d="M17.8274 24.0314C17.8274 22.371 19.202 21.0251 20.8976 21.0251H62.8577C64.5534 21.0251 65.928 22.371 65.928 24.0314V57.1005C65.928 58.7608 64.5534 60.1068 62.8577 60.1068H20.8976C19.202 60.1068 17.8274 58.7608 17.8274 57.1005V24.0314Z" fill="url(#paint1_linear_505_10467)"/>
<g filter="url(#filter0_f_505_10467)">
<ellipse cx="27.0386" cy="31.0458" rx="8.69904" ry="8.51781" fill="white" fill-opacity="0.8"/>
</g>
<g filter="url(#filter1_f_505_10467)">
<ellipse cx="42.2613" cy="60.8587" rx="7.26232" ry="6.76414" fill="#D669F4"/>
</g>
<g filter="url(#filter2_f_505_10467)">
<ellipse cx="43.4129" cy="33.0499" rx="9.97831" ry="14.0293" fill="#D669F4"/>
</g>
<g filter="url(#filter3_b_505_10467)">
<path d="M33.6888 20.4763C36.6882 19.6583 39.8756 18.9235 41.7831 18.9235C43.6906 18.9235 46.878 19.6583 49.8774 20.4763C52.9459 21.3081 56.0393 22.2925 57.8583 22.8886C58.6189 23.1405 59.2931 23.6025 59.8036 24.2215C60.3142 24.8405 60.6402 28.3641 60.7444 29.1607C62.392 41.5744 58.5688 50.7745 53.9301 56.8608C51.963 59.4644 49.6175 61.7572 46.972 63.6625C46.0572 64.3218 45.0879 64.9015 44.0748 65.3955C43.3008 65.7615 42.4687 66.0609 41.7831 66.0609C41.0975 66.0609 40.2682 65.7615 39.4914 65.3955C38.4782 64.9016 37.509 64.3218 36.5942 63.6625C33.9487 61.7571 31.6032 59.4644 29.6361 56.8608C24.9974 50.7745 21.1741 41.5744 22.8217 29.1607C22.9259 28.3641 23.252 24.8405 23.7625 24.2215C24.2731 23.6025 24.9473 23.1405 25.7078 22.8886C28.3484 22.0202 31.0095 21.2159 33.6888 20.4763Z" fill="url(#paint2_radial_505_10467)" fill-opacity="0.8"/>
<path d="M33.6888 20.4763C36.6882 19.6583 39.8756 18.9235 41.7831 18.9235C43.6906 18.9235 46.878 19.6583 49.8774 20.4763C52.9459 21.3081 56.0393 22.2925 57.8583 22.8886C58.6189 23.1405 59.2931 23.6025 59.8036 24.2215C60.3142 24.8405 60.6402 28.3641 60.7444 29.1607C62.392 41.5744 58.5688 50.7745 53.9301 56.8608C51.963 59.4644 49.6175 61.7572 46.972 63.6625C46.0572 64.3218 45.0879 64.9015 44.0748 65.3955C43.3008 65.7615 42.4687 66.0609 41.7831 66.0609C41.0975 66.0609 40.2682 65.7615 39.4914 65.3955C38.4782 64.9016 37.509 64.3218 36.5942 63.6625C33.9487 61.7571 31.6032 59.4644 29.6361 56.8608C24.9974 50.7745 21.1741 41.5744 22.8217 29.1607C22.9259 28.3641 23.252 24.8405 23.7625 24.2215C24.2731 23.6025 24.9473 23.1405 25.7078 22.8886C28.3484 22.0202 31.0095 21.2159 33.6888 20.4763Z" fill="white" fill-opacity="0.2"/>
</g>
<g filter="url(#filter4_d_505_10467)">
<path d="M43.1307 22.5282C43.1307 23.0816 42.6821 23.5303 42.1286 23.5303C41.5752 23.5303 41.1265 23.0816 41.1265 22.5282C41.1265 21.9747 41.5752 21.5261 42.1286 21.5261C42.6821 21.5261 43.1307 21.9747 43.1307 22.5282Z" fill="white"/>
<path fill-rule="evenodd" clip-rule="evenodd" d="M42.1283 24.5323C42.6818 24.5323 43.1304 24.981 43.1304 25.5344V31.547L43.1303 31.5646C43.1301 31.5729 43.1299 31.5812 43.1295 31.5895C44.5562 31.7123 45.9086 32.095 47.1391 32.6901V29.5428C47.1391 29.0401 47.5092 28.6239 47.9918 28.5518C48.0406 28.5445 48.0906 28.5407 48.1415 28.5407H49.8151C50.2277 27.373 51.3414 26.5364 52.6504 26.5364C54.3107 26.5364 55.6566 27.8823 55.6566 29.5426C55.6566 31.203 54.3107 32.5489 52.6504 32.5489C51.3415 32.5489 50.2279 31.7124 49.8152 30.5449L49.1433 30.5449V33.927C50.5662 35.0203 51.7267 36.4383 52.5139 38.0702C52.5586 38.0641 52.6042 38.0609 52.6506 38.0609H58.6632V37.3887C57.4956 36.976 56.6591 35.8625 56.6591 34.5536C56.6591 32.8932 58.0051 31.5473 59.6654 31.5473C61.3257 31.5473 62.6717 32.8932 62.6717 34.5536C62.6717 35.8626 61.8351 36.9762 60.6674 37.3888V39.063C60.6674 39.6165 60.2187 40.0651 59.6653 40.0651H53.2565C53.431 40.7127 53.5505 41.3828 53.6096 42.0702L53.6291 42.0696C53.637 42.0694 53.6448 42.0693 53.6527 42.0693L55.6569 42.0693C56.2104 42.0693 56.659 42.5179 56.659 43.0714C56.659 43.6248 56.2104 44.0735 55.6569 44.0735H53.6527C53.6382 44.0735 53.6238 44.0732 53.6095 44.0726C53.5503 44.7599 53.4307 45.4301 53.2562 46.0776H59.6653C60.2187 46.0776 60.6674 46.5263 60.6674 47.0797V48.7539C61.8351 49.1666 62.6717 50.2802 62.6717 51.5892C62.6717 53.2495 61.3257 54.5955 59.6654 54.5955C58.0051 54.5955 56.6591 53.2495 56.6591 51.5892C56.6591 50.2803 57.4956 49.1668 58.6632 48.754V48.0818H52.6506C52.604 48.0818 52.5582 48.0786 52.5133 48.0725C51.7261 49.7039 50.5659 51.1215 49.1433 52.2145V56.0982L49.6856 56.0982C49.9241 54.6764 51.1607 53.5929 52.6504 53.5929C54.3107 53.5929 55.6566 54.9389 55.6566 56.5992C55.6566 58.2595 54.3107 59.6055 52.6504 59.6055C51.5376 59.6055 50.5661 59.001 50.0463 58.1024H48.1576L48.1412 58.1025C47.5877 58.1025 47.1391 57.6539 47.1391 57.1004V53.4514C45.9086 54.0465 44.5562 54.4292 43.1295 54.552C43.1301 54.5662 43.1304 54.5805 43.1304 54.5949V60.6074C43.1304 61.1609 42.6818 61.6095 42.1283 61.6095C41.5749 61.6095 41.1262 61.1609 41.1262 60.6074V54.5949C41.1262 54.5805 41.1265 54.5662 41.1271 54.552C39.7007 54.4292 38.3485 54.0466 37.1181 53.4517V57.1004C37.1181 57.6539 36.6695 58.1025 36.116 58.1025L36.1138 58.1025H34.2106C33.6908 59.001 32.7193 59.6055 31.6066 59.6055C29.9463 59.6055 28.6003 58.2595 28.6003 56.5992C28.6003 54.9389 29.9463 53.5929 31.6066 53.5929C33.0963 53.5929 34.3329 54.6764 34.5714 56.0984H35.1139V52.215C33.6938 51.124 32.535 49.7095 31.7478 48.0818H25.0931V48.754C26.2607 49.1668 27.0972 50.2803 27.0972 51.5892C27.0972 53.2495 25.7512 54.5955 24.0909 54.5955C22.4306 54.5955 21.0846 53.2495 21.0846 51.5892C21.0846 50.2802 21.9212 49.1666 23.0889 48.7539L23.0889 47.0797C23.0889 46.5263 23.5376 46.0776 24.091 46.0776L31.0004 46.0776C30.8258 45.4299 30.7063 44.7595 30.6471 44.0719C30.6329 44.0725 30.6186 44.0729 30.6042 44.0729H28.6C28.0466 44.0729 27.5979 43.6242 27.5979 43.0708C27.5979 42.5173 28.0466 42.0687 28.6 42.0687H30.6042C30.6186 42.0687 30.6329 42.069 30.6471 42.0696C30.7062 41.3824 30.8257 40.7125 31.0001 40.0651H24.091C23.5376 40.0651 23.0889 39.6165 23.0889 39.063V37.3888C21.9212 36.9762 21.0846 35.8626 21.0846 34.5536C21.0846 32.8932 22.4306 31.5473 24.0909 31.5473C25.7512 31.5473 27.0972 32.8932 27.0972 34.5536C27.0972 35.8625 26.2607 36.976 25.0931 37.3887V38.0609H31.7472C32.5344 36.4327 33.6934 35.0178 35.1139 33.9265V30.5449H34.4418C34.029 31.7125 32.9155 32.5489 31.6066 32.5489C29.9463 32.5489 28.6003 31.203 28.6003 29.5426C28.6003 27.8823 29.9463 26.5364 31.6066 26.5364C32.9157 26.5364 34.0293 27.373 34.4419 28.5407H36.116C36.6695 28.5407 37.1181 28.9894 37.1181 29.5428V32.6898C38.3485 32.0949 39.7007 31.7123 41.1271 31.5895C41.1265 31.5754 41.1262 31.5612 41.1262 31.547V25.5344C41.1262 24.981 41.5749 24.5323 42.1283 24.5323ZM52.6504 30.5447C53.2038 30.5447 53.6525 30.0961 53.6525 29.5426C53.6525 28.9892 53.2038 28.5405 52.6504 28.5405C52.0969 28.5405 51.6483 28.9892 51.6483 29.5426C51.6483 30.0961 52.0969 30.5447 52.6504 30.5447ZM53.6525 56.5992C53.6525 57.1527 53.2038 57.6013 52.6504 57.6013C52.0969 57.6013 51.6483 57.1527 51.6483 56.5992C51.6483 56.0458 52.0969 55.5971 52.6504 55.5971C53.2038 55.5971 53.6525 56.0458 53.6525 56.5992ZM31.6066 30.5447C32.1601 30.5447 32.6087 30.0961 32.6087 29.5426C32.6087 28.9892 32.1601 28.5405 31.6066 28.5405C31.0532 28.5405 30.6045 28.9892 30.6045 29.5426C30.6045 30.0961 31.0532 30.5447 31.6066 30.5447ZM24.0909 50.5871C24.6443 50.5871 25.093 51.0358 25.093 51.5892C25.093 52.1426 24.6443 52.5913 24.0909 52.5913C23.5374 52.5913 23.0888 52.1426 23.0888 51.5892C23.0888 51.0358 23.5374 50.5871 24.0909 50.5871ZM25.093 34.5536C25.093 35.107 24.6443 35.5557 24.0909 35.5557C23.5374 35.5557 23.0888 35.107 23.0888 34.5536C23.0888 34.0001 23.5374 33.5515 24.0909 33.5515C24.6443 33.5515 25.093 34.0001 25.093 34.5536ZM59.6654 35.5557C59.112 35.5557 58.6633 35.107 58.6633 34.5536C58.6633 34.0001 59.112 33.5515 59.6654 33.5515C60.2189 33.5515 60.6675 34.0001 60.6675 34.5536C60.6675 35.107 60.2189 35.5557 59.6654 35.5557ZM58.6633 51.5892C58.6633 51.0358 59.112 50.5871 59.6654 50.5871C60.2189 50.5871 60.6675 51.0358 60.6675 51.5892C60.6675 52.1426 60.2189 52.5913 59.6654 52.5913C59.112 52.5913 58.6633 52.1426 58.6633 51.5892ZM32.6087 56.5992C32.6087 57.1527 32.1601 57.6013 31.6066 57.6013C31.0532 57.6013 30.6045 57.1527 30.6045 56.5992C30.6045 56.0458 31.0532 55.5971 31.6066 55.5971C32.1601 55.5971 32.6087 56.0458 32.6087 56.5992Z" fill="white"/>
<path d="M26.5962 43.0709C26.5962 43.6244 26.1475 44.073 25.5941 44.073C25.0406 44.073 24.592 43.6244 24.592 43.0709C24.592 42.5175 25.0406 42.0688 25.5941 42.0688C26.1475 42.0688 26.5962 42.5175 26.5962 43.0709Z" fill="white"/>
<path d="M58.6629 44.073C59.2163 44.073 59.665 43.6244 59.665 43.0709C59.665 42.5175 59.2163 42.0688 58.6629 42.0688C58.1094 42.0688 57.6608 42.5175 57.6608 43.0709C57.6608 43.6244 58.1094 44.073 58.6629 44.073Z" fill="white"/>
<path d="M42.1285 64.6164C42.6819 64.6164 43.1306 64.1677 43.1306 63.6143C43.1306 63.0609 42.6819 62.6122 42.1285 62.6122C41.575 62.6122 41.1264 63.0609 41.1264 63.6143C41.1264 64.1677 41.575 64.6164 42.1285 64.6164Z" fill="white"/>
</g>
<path d="M45.76 42.0282C46.1355 41.4646 46.3528 40.8076 46.3887 40.1278C46.4246 39.448 46.2777 38.7711 45.9637 38.1698C45.6498 37.5685 45.1806 37.0656 44.6068 36.715C44.0329 36.3644 43.3759 36.1794 42.7064 36.1799V35.2427C42.7064 34.9941 42.6093 34.7557 42.4364 34.5799C42.2636 34.4042 42.0291 34.3054 41.7847 34.3054C41.5402 34.3054 41.3058 34.4042 41.1329 34.5799C40.9601 34.7557 40.863 34.9941 40.863 35.2427V36.1799H39.0195V35.2427C39.0195 34.9941 38.9224 34.7557 38.7496 34.5799C38.5767 34.4042 38.3423 34.3054 38.0978 34.3054C37.8533 34.3054 37.6189 34.4042 37.446 34.5799C37.2732 34.7557 37.1761 34.9941 37.1761 35.2427V36.1799H36.2544C36.0099 36.1799 35.7755 36.2786 35.6026 36.4544C35.4298 36.6302 35.3326 36.8686 35.3326 37.1171C35.3326 37.3657 35.4298 37.6041 35.6026 37.7799C35.7755 37.9556 36.0099 38.0544 36.2544 38.0544H37.1761V47.4267H36.2544C36.0099 47.4267 35.7755 47.5255 35.6026 47.7012C35.4298 47.877 35.3326 48.1154 35.3326 48.3639C35.3326 48.6125 35.4298 48.8509 35.6026 49.0267C35.7755 49.2024 36.0099 49.3012 36.2544 49.3012H37.1761V50.2384C37.1761 50.487 37.2732 50.7254 37.446 50.9011C37.6189 51.0769 37.8533 51.1756 38.0978 51.1756C38.3423 51.1756 38.5767 51.0769 38.7496 50.9011C38.9224 50.7254 39.0195 50.487 39.0195 50.2384V49.3012H40.863V50.2384C40.863 50.487 40.9601 50.7254 41.1329 50.9011C41.3058 51.0769 41.5402 51.1756 41.7847 51.1756C42.0291 51.1756 42.2636 51.0769 42.4364 50.9011C42.6093 50.7254 42.7064 50.487 42.7064 50.2384V49.3012H44.5498C45.4198 49.3026 46.2622 48.9903 46.9272 48.4199C47.5922 47.8494 48.0367 47.0578 48.1819 46.1855C48.327 45.3132 48.1633 44.4169 47.7199 43.6557C47.2765 42.8946 46.5821 42.3179 45.76 42.0282ZM44.5498 39.9288C44.5493 40.4258 44.355 40.9023 44.0094 41.2537C43.6638 41.6052 43.1951 41.8028 42.7064 41.8033H39.0195V38.0544H42.7064C43.1951 38.0549 43.6638 38.2525 44.0094 38.6039C44.355 38.9554 44.5493 39.4318 44.5498 39.9288ZM44.5498 47.4267H39.0195V43.6778H44.5498C45.0387 43.6778 45.5076 43.8753 45.8533 44.2268C46.199 44.5783 46.3933 45.0551 46.3933 45.5522C46.3933 46.0494 46.199 46.5262 45.8533 46.8777C45.5076 47.2292 45.0387 47.4267 44.5498 47.4267Z" fill="url(#paint3_linear_505_10467)"/>
<defs>
<filter id="filter0_f_505_10467" x="0.30188" y="4.49023" width="53.4735" height="53.1111" filterUnits="userSpaceOnUse" color-interpolation-filters="sRGB">
<feFlood flood-opacity="0" result="BackgroundImageFix"/>
<feBlend mode="normal" in="SourceGraphic" in2="BackgroundImageFix" result="shape"/>
<feGaussianBlur stdDeviation="9.01886" result="effect1_foregroundBlur_505_10467"/>
</filter>
<filter id="filter1_f_505_10467" x="22.5114" y="41.6069" width="39.5" height="38.5036" filterUnits="userSpaceOnUse" color-interpolation-filters="sRGB">
<feFlood flood-opacity="0" result="BackgroundImageFix"/>
<feBlend mode="normal" in="SourceGraphic" in2="BackgroundImageFix" result="shape"/>
<feGaussianBlur stdDeviation="6.24383" result="effect1_foregroundBlur_505_10467"/>
</filter>
<filter id="filter2_f_505_10467" x="15.3969" y="0.982849" width="56.032" height="64.1341" filterUnits="userSpaceOnUse" color-interpolation-filters="sRGB">
<feFlood flood-opacity="0" result="BackgroundImageFix"/>
<feBlend mode="normal" in="SourceGraphic" in2="BackgroundImageFix" result="shape"/>
<feGaussianBlur stdDeviation="9.01886" result="effect1_foregroundBlur_505_10467"/>
</filter>
<filter id="filter3_b_505_10467" x="20.9288" y="17.4204" width="41.7086" height="50.1437" filterUnits="userSpaceOnUse" color-interpolation-filters="sRGB">
<feFlood flood-opacity="0" result="BackgroundImageFix"/>
<feGaussianBlur in="BackgroundImageFix" stdDeviation="0.751572"/>
<feComposite in2="SourceAlpha" operator="in" result="effect1_backgroundBlur_505_10467"/>
<feBlend mode="normal" in="SourceGraphic" in2="effect1_backgroundBlur_505_10467" result="shape"/>
</filter>
<filter id="filter4_d_505_10467" x="19.0916" y="21.5261" width="45.5731" height="47.0764" filterUnits="userSpaceOnUse" color-interpolation-filters="sRGB">
<feFlood flood-opacity="0" result="BackgroundImageFix"/>
<feColorMatrix in="SourceAlpha" type="matrix" values="0 0 0 0 0 0 0 0 0 0 0 0 0 0 0 0 0 0 127 0" result="hardAlpha"/>
<feOffset dy="1.99302"/>
<feGaussianBlur stdDeviation="0.996511"/>
<feComposite in2="hardAlpha" operator="out"/>
<feColorMatrix type="matrix" values="0 0 0 0 0 0 0 0 0 0 0 0 0 0 0 0 0 0 0.25 0"/>
<feBlend mode="normal" in2="BackgroundImageFix" result="effect1_dropShadow_505_10467"/>
<feBlend mode="normal" in="SourceGraphic" in2="effect1_dropShadow_505_10467" result="shape"/>
</filter>
<linearGradient id="paint0_linear_505_10467" x1="73.5874" y1="20.8061" x2="39.7514" y2="95.6181" gradientUnits="userSpaceOnUse">
<stop stop-color="#7F31DA"/>
<stop offset="0.325806" stop-color="#D669F4"/>
<stop offset="0.653937" stop-color="#FF5CAA"/>
<stop offset="1" stop-color="#FF9883"/>
</linearGradient>
<linearGradient id="paint1_linear_505_10467" x1="73.5874" y1="20.8061" x2="39.7514" y2="95.6181" gradientUnits="userSpaceOnUse">
<stop stop-color="#7F31DA"/>
<stop offset="0.325806" stop-color="#D669F4"/>
<stop offset="0.653937" stop-color="#FF5CAA"/>
<stop offset="1" stop-color="#FF9883"/>
</linearGradient>
<radialGradient id="paint2_radial_505_10467" cx="0" cy="0" r="1" gradientUnits="userSpaceOnUse" gradientTransform="translate(3.0808 -8.61464) rotate(50.7463) scale(168.203 69.0388)">
<stop offset="0.204462" stop-color="#FBFBFB"/>
<stop offset="0.572339" stop-color="#DBC8F9" stop-opacity="0.573497"/>
<stop offset="0.676507" stop-color="#7FC0FC" stop-opacity="0.2"/>
<stop offset="0.86826" stop-color="#FBFBFB" stop-opacity="0.57"/>
</radialGradient>
<linearGradient id="paint3_linear_505_10467" x1="47.5582" y1="37.3696" x2="36.914" y2="53.9074" gradientUnits="userSpaceOnUse">
<stop stop-color="#7F31DA"/>
<stop offset="0.325806" stop-color="#D669F4"/>
<stop offset="0.653937" stop-color="#FF5CAA"/>
<stop offset="1" stop-color="#FF9883"/>
</linearGradient>
</defs>
</svg>
