<svg width="32" height="32" viewBox="0 0 32 32" fill="none" xmlns="http://www.w3.org/2000/svg">
<path fill-rule="evenodd" clip-rule="evenodd" d="M24.1849 24H9.81514C7.97996 24 7 23.027 7 21.1802V20H6C5.44772 20 5 19.5523 5 19C5 18.4477 5.44772 18 6 18H7V14H6C5.44772 14 5 13.5523 5 13C5 12.4477 5.44772 12 6 12H7V10.8198C7 8.97297 7.97996 8 9.81514 8H24.1849C26.0379 8 27 8.97297 27 10.8198V21.1802C27 23.027 26.0379 24 24.1849 24ZM8.78174 18V14H9C9.55228 14 10 13.5523 10 13C10 12.4477 9.55228 12 9 12H8.78174V10.991C8.78174 10.1892 9.19154 9.8018 9.94877 9.8018H24.0512C24.7996 9.8018 25.2183 10.1892 25.2183 10.991V21C25.2183 21.8108 24.7996 22.1982 24.0512 22.1982H9.94877C9.19154 22.1982 8.78174 21.8108 8.78174 21V20H9C9.55228 20 10 19.5523 10 19C10 18.4477 9.55228 18 9 18H8.78174ZM19.1763 20.7174C18.6942 20.9192 17.9366 21 17.1102 21C14.0386 21 12 19.0081 12 16.0202C12 13.0323 14.0523 11 17.0689 11C19.9752 11 22 12.8439 22 15.4953C22 17.4468 21.0634 18.7254 19.6446 18.7254C19.0386 18.7254 18.5152 18.4697 18.2259 18.039C17.8678 18.4832 17.3444 18.7254 16.7658 18.7254C15.3884 18.7254 14.4518 17.6353 14.4518 16.0202C14.4518 14.4724 15.4022 13.3419 16.7245 13.3419C17.2755 13.3419 17.6887 13.5303 18.0055 13.8533V13.7725C18.0882 13.5303 18.3499 13.3419 18.6253 13.3419C19.011 13.3419 19.3003 13.638 19.3003 14.0283V17.0027C19.3003 17.3392 19.438 17.4738 19.7686 17.4738C20.3333 17.4738 20.6915 16.747 20.6915 15.576C20.6915 13.5976 19.2314 12.2651 17.0689 12.2651C14.8926 12.2651 13.405 13.7995 13.405 16.0336C13.405 18.3082 14.865 19.6945 17.2617 19.6945C17.8043 19.6945 18.1424 19.6212 18.4294 19.559C18.5505 19.5328 18.6625 19.5086 18.7769 19.4926C18.8085 19.487 18.8383 19.4814 18.8668 19.476L18.8668 19.476C18.975 19.4556 19.0644 19.4388 19.1625 19.4388C19.5069 19.4388 19.7548 19.6945 19.7548 20.031C19.7548 20.354 19.5344 20.5693 19.1763 20.7174ZM16.9725 17.4065C16.3251 17.4065 15.9394 16.895 15.9394 15.9933C15.9394 15.1184 16.3251 14.607 16.9862 14.607C17.6336 14.607 18.0331 15.1319 18.0331 15.9798C18.0331 16.8681 17.6198 17.4065 16.9725 17.4065Z" fill="url(#paint0_linear_919_5060)"/>
<defs>
<linearGradient id="paint0_linear_919_5060" x1="25.8486" y1="10.9061" x2="18.8102" y2="30.5689" gradientUnits="userSpaceOnUse">
<stop stop-color="#7F31DA"/>
<stop offset="0.325806" stop-color="#D669F4"/>
<stop offset="0.653937" stop-color="#FF5CAA"/>
<stop offset="1" stop-color="#FF9883"/>
</linearGradient>
</defs>
</svg>
