<svg width="75" height="75" viewBox="0 0 75 75" fill="none" xmlns="http://www.w3.org/2000/svg">
<path d="M5.88156 11.9847C4.32307 11.9847 3.04123 13.1562 2.88708 14.6574C2.87681 14.7575 2.87154 14.8591 2.87154 14.9618V21.4122H0.864868V14.9618C0.864868 12.2215 3.11092 10 5.88156 10H66.5835C69.3541 10 71.6002 12.2215 71.6002 14.9618V70.0382C71.6002 72.7785 69.3541 75 66.5835 75H5.88155C3.11091 75 0.864868 72.7785 0.864868 70.0382V64.084H2.87154V70.0382C2.87154 71.6824 4.21917 73.0153 5.88155 73.0153H66.5835C68.2459 73.0153 69.5935 71.6824 69.5935 70.0382V14.9618C69.5935 13.3176 68.2459 11.9847 66.5835 11.9847H5.88156Z" fill="url(#paint0_linear_505_10468)"/>
<path d="M15.3145 19.9651C15.3145 18.314 16.653 16.9756 18.304 16.9756H48.6976C50.3487 16.9756 51.6872 18.314 51.6872 19.9651V63.3134C51.6872 64.9644 50.3487 66.3029 48.6976 66.3029H18.304C16.653 66.3029 15.3145 64.9644 15.3145 63.3133V19.9651Z" fill="url(#paint1_linear_505_10468)"/>
<g filter="url(#filter0_f_505_10468)">
<ellipse cx="49.2962" cy="25.6128" rx="7.64706" ry="7.32843" fill="#D669F4"/>
</g>
<g filter="url(#filter1_b_505_10468)">
<rect x="22.7885" y="68.7943" width="46.836" height="34.3796" rx="2.49128" transform="rotate(-90 22.7885 68.7943)" fill="url(#paint2_linear_505_10468)"/>
</g>
<g filter="url(#filter2_d_505_10468)">
<path d="M28.2693 62.0675C28.2693 60.8292 29.2732 59.8254 30.5115 59.8254H50.4417C51.68 59.8254 52.6838 60.8292 52.6838 62.0675C52.6838 63.3058 51.68 64.3097 50.4417 64.3097H30.5115C29.2732 64.3097 28.2693 63.3058 28.2693 62.0675Z" fill="white"/>
<path d="M36.0404 35.7144C35.6528 34.414 33.791 34.414 33.4034 35.7144L33.3095 36.0302C33.2516 36.2249 33.1504 36.4043 33.0134 36.5552C32.8763 36.7062 32.7068 36.8248 32.5174 36.9025C32.328 36.9802 32.1234 37.0149 31.9187 37.0041C31.7139 36.9933 31.5142 36.9373 31.3342 36.8402L31.0432 36.6823C29.8392 36.0339 28.5226 37.3371 29.1786 38.528L29.3372 38.8168C29.7557 39.5785 29.3588 40.5269 28.5189 40.7721L28.1998 40.865C26.886 41.2486 26.886 43.0915 28.1998 43.4752L28.5189 43.568C28.7156 43.6254 28.8968 43.7255 29.0493 43.8612C29.2018 43.9969 29.3217 44.1646 29.4001 44.3521C29.4786 44.5396 29.5137 44.7421 29.5028 44.9448C29.4919 45.1474 29.4353 45.3451 29.3372 45.5233L29.1777 45.8113C28.5226 47.003 29.8392 48.3062 31.0423 47.657L31.3342 47.5C31.5142 47.4029 31.7139 47.3469 31.9187 47.3361C32.1234 47.3253 32.328 47.36 32.5174 47.4377C32.7068 47.5154 32.8763 47.634 33.0134 47.7849C33.1504 47.9359 33.2516 48.1153 33.3095 48.31L33.4034 48.6258C33.791 49.9262 35.6528 49.9262 36.0404 48.6258L36.1342 48.31C36.1921 48.1153 36.2933 47.9359 36.4304 47.7849C36.5674 47.634 36.7369 47.5154 36.9263 47.4377C37.1158 47.36 37.3203 47.3253 37.5251 47.3361C37.7298 47.3469 37.9295 47.4029 38.1096 47.5L38.4005 47.6579C39.6045 48.3062 40.9211 47.003 40.2651 45.8122L40.1065 45.5233C40.0084 45.3451 39.9518 45.1474 39.941 44.9448C39.9301 44.7421 39.9651 44.5396 40.0436 44.3521C40.1221 44.1646 40.242 43.9969 40.3944 43.8612C40.5469 43.7255 40.7282 43.6254 40.9249 43.568L41.2439 43.4752C42.5577 43.0915 42.5577 41.2486 41.2439 40.865L40.9249 40.7721C40.7282 40.7148 40.5469 40.6146 40.3944 40.479C40.242 40.3433 40.1221 40.1756 40.0436 39.9881C39.9651 39.8006 39.9301 39.5981 39.941 39.3954C39.9518 39.1927 40.0084 38.995 40.1065 38.8168L40.2661 38.5289C40.9211 37.3371 39.6045 36.0339 38.4014 36.6832L38.1096 36.8402C37.9295 36.9373 37.7298 36.9933 37.5251 37.0041C37.3203 37.0149 37.1158 36.9802 36.9263 36.9025C36.7369 36.8248 36.5674 36.7062 36.4304 36.5552C36.2933 36.4043 36.1921 36.2249 36.1342 36.0302L36.0404 35.7144ZM34.7219 44.8917C33.9926 44.8917 33.2933 44.605 32.7776 44.0946C32.262 43.5842 31.9723 42.8919 31.9723 42.1701C31.9723 41.4483 32.262 40.756 32.7776 40.2456C33.2933 39.7352 33.9926 39.4485 34.7219 39.4485C35.4509 39.4485 36.15 39.7351 36.6655 40.2453C37.1809 40.7556 37.4705 41.4476 37.4705 42.1692C37.4705 42.8907 37.1809 43.5827 36.6655 44.093C36.15 44.6032 35.4509 44.8898 34.7219 44.8898V44.8917Z" fill="white"/>
<path d="M34.7219 44.8917C33.9926 44.8917 33.2933 44.605 32.7776 44.0946C32.262 43.5842 31.9723 42.8919 31.9723 42.1701C31.9723 41.4483 32.262 40.756 32.7776 40.2456C33.2933 39.7352 33.9926 39.4485 34.7219 39.4485C35.4509 39.4485 36.15 39.7351 36.6655 40.2453C37.1809 40.7556 37.4705 41.4476 37.4705 42.1692C37.4705 42.8907 37.1809 43.5827 36.6655 44.093C36.15 44.6032 35.4509 44.8898 34.7219 44.8898V44.8917Z" fill="url(#paint3_linear_505_10468)"/>
<path d="M47.5247 41.2693C47.2922 40.489 46.1751 40.489 45.9425 41.2693L45.8862 41.4588C45.8515 41.5756 45.7907 41.6832 45.7085 41.7738C45.6263 41.8643 45.5246 41.9355 45.4109 41.9821C45.2973 42.0287 45.1745 42.0496 45.0517 42.0431C44.9288 42.0366 44.809 42.003 44.701 41.9448L44.5264 41.85C43.804 41.461 43.0141 42.2429 43.4076 42.9574L43.5028 43.1308C43.7539 43.5878 43.5158 44.1568 43.0118 44.3039L42.8204 44.3597C42.0321 44.5898 42.0321 45.6956 42.8204 45.9257L43.0118 45.9815C43.1298 46.0159 43.2386 46.076 43.3301 46.1574C43.4216 46.2388 43.4935 46.3394 43.5406 46.4519C43.5876 46.5644 43.6087 46.6859 43.6022 46.8075C43.5956 46.9291 43.5617 47.0477 43.5028 47.1546L43.4071 47.3274C43.0141 48.0425 43.804 48.8244 44.5259 48.4348L44.701 48.3406C44.809 48.2824 44.9288 48.2488 45.0517 48.2423C45.1745 48.2358 45.2973 48.2567 45.4109 48.3033C45.5246 48.3499 45.6263 48.4211 45.7085 48.5116C45.7907 48.6022 45.8515 48.7098 45.8862 48.8266L45.9425 49.0161C46.1751 49.7964 47.2922 49.7964 47.5247 49.0161L47.581 48.8266C47.6158 48.7098 47.6765 48.6022 47.7587 48.5116C47.841 48.4211 47.9426 48.3499 48.0563 48.3033C48.1699 48.2567 48.2927 48.2358 48.4155 48.2423C48.5384 48.2488 48.6582 48.2824 48.7662 48.3406L48.9408 48.4354C49.6632 48.8244 50.4531 48.0425 50.0596 47.328L49.9644 47.1546C49.9055 47.0477 49.8716 46.9291 49.8651 46.8075C49.8585 46.6859 49.8796 46.5644 49.9267 46.4519C49.9737 46.3394 50.0457 46.2388 50.1372 46.1574C50.2286 46.076 50.3374 46.0159 50.4554 45.9815L50.6468 45.9257C51.4351 45.6956 51.4351 44.5898 50.6468 44.3597L50.4554 44.3039C50.3374 44.2695 50.2286 44.2094 50.1372 44.128C50.0457 44.0466 49.9737 43.946 49.9267 43.8335C49.8796 43.721 49.8585 43.5995 49.8651 43.4779C49.8716 43.3563 49.9055 43.2377 49.9644 43.1308L50.0601 42.958C50.4531 42.2429 49.6632 41.461 48.9413 41.8506L48.7662 41.9448C48.6582 42.003 48.5384 42.0366 48.4155 42.0431C48.2927 42.0496 48.1699 42.0287 48.0563 41.9821C47.9426 41.9355 47.841 41.8643 47.7587 41.7738C47.6765 41.6832 47.6158 41.5756 47.581 41.4588L47.5247 41.2693ZM46.7336 46.7757C46.2961 46.7757 45.8764 46.6036 45.5671 46.2974C45.2577 45.9911 45.0839 45.5758 45.0839 45.1427C45.0839 44.7096 45.2577 44.2943 45.5671 43.988C45.8764 43.6818 46.2961 43.5097 46.7336 43.5097C47.171 43.5097 47.5905 43.6817 47.8998 43.9879C48.209 44.294 48.3828 44.7092 48.3828 45.1421C48.3828 45.5751 48.209 45.9903 47.8998 46.2964C47.5905 46.6026 47.171 46.7745 46.7336 46.7745V46.7757Z" fill="white"/>
<path d="M46.7336 46.7757C46.2961 46.7757 45.8764 46.6036 45.5671 46.2974C45.2577 45.9911 45.0839 45.5758 45.0839 45.1427C45.0839 44.7096 45.2577 44.2943 45.5671 43.988C45.8764 43.6818 46.2961 43.5097 46.7336 43.5097C47.171 43.5097 47.5905 43.6817 47.8998 43.9879C48.209 44.294 48.3828 44.7092 48.3828 45.1421C48.3828 45.5751 48.209 45.9903 47.8998 46.2964C47.5905 46.6026 47.171 46.7745 46.7336 46.7745V46.7757Z" fill="url(#paint4_linear_505_10468)"/>
<path d="M45.2098 24.6986C45.2098 25.1113 44.8666 25.4459 44.4432 25.4459C44.0199 25.4459 43.6767 25.1113 43.6767 24.6986C43.6767 24.2858 44.0199 23.9512 44.4432 23.9512C44.8666 23.9512 45.2098 24.2858 45.2098 24.6986Z" fill="white"/>
<path d="M42.9101 24.6986C42.9101 25.1113 42.5669 25.4459 42.1436 25.4459L35.513 25.4459C35.0896 25.4459 34.7464 25.1113 34.7464 24.6986C34.7464 24.2858 35.0896 23.9512 35.513 23.9512L42.1436 23.9512C42.5669 23.9512 42.9101 24.2858 42.9101 24.6986Z" fill="white"/>
<path d="M54.6766 28.1865C54.6766 28.5993 54.342 28.9339 53.9292 28.9339L47.9502 28.9339C47.5374 28.9339 47.2028 28.5993 47.2028 28.1865C47.2028 27.7737 47.5374 27.4391 47.9502 27.4391L53.9292 27.4391C54.342 27.4391 54.6766 27.7737 54.6766 28.1865Z" fill="white"/>
<path d="M54.6766 30.6778C54.6766 31.0905 54.342 31.4252 53.9292 31.4252L47.9502 31.4252C47.5374 31.4252 47.2028 31.0905 47.2028 30.6778C47.2028 30.265 47.5374 29.9304 47.9502 29.9304L53.9292 29.9304C54.342 29.9304 54.6766 30.265 54.6766 30.6778Z" fill="white"/>
<path d="M54.6766 33.1691C54.6766 33.5819 54.342 33.9165 53.9292 33.9165L47.9502 33.9165C47.5374 33.9165 47.2028 33.5819 47.2028 33.1691C47.2028 32.7563 47.5374 32.4217 47.9502 32.4217L53.9292 32.4217C54.342 32.4217 54.6766 32.7563 54.6766 33.1691Z" fill="white"/>
<path d="M34.6394 66.7157C34.6394 66.3638 34.9247 66.0784 35.2766 66.0784H44.8354C45.1874 66.0784 45.4727 66.3638 45.4727 66.7157C45.4727 67.0677 45.1874 67.353 44.8354 67.353H35.2766C34.9247 67.353 34.6394 67.0677 34.6394 66.7157Z" fill="white"/>
</g>
<path d="M40.0586 62.0063V62.1312C40.0586 62.3144 40.0308 62.4793 39.9751 62.6258C39.9195 62.7713 39.8405 62.8951 39.7381 62.9972C39.6358 63.0993 39.5138 63.1776 39.3722 63.232C39.2307 63.2864 39.0733 63.3136 38.9001 63.3136C38.7295 63.3136 38.5728 63.2864 38.4299 63.232C38.2884 63.1776 38.1658 63.0993 38.0621 62.9972C37.9585 62.8951 37.8782 62.7713 37.8213 62.6258C37.7645 62.4793 37.736 62.3144 37.736 62.1312V62.0063C37.736 61.8221 37.7645 61.6572 37.8213 61.5118C37.8782 61.3663 37.9578 61.2425 38.0602 61.1404C38.1626 61.0371 38.2846 60.9583 38.4261 60.9039C38.569 60.8495 38.7257 60.8223 38.8963 60.8223C39.0695 60.8223 39.2269 60.8495 39.3684 60.9039C39.51 60.9583 39.632 61.0371 39.7344 61.1404C39.838 61.2425 39.9176 61.3663 39.9732 61.5118C40.0301 61.6572 40.0586 61.8221 40.0586 62.0063ZM39.5315 62.1312V62.003C39.5315 61.8709 39.5176 61.7549 39.4898 61.655C39.462 61.5539 39.4209 61.469 39.3665 61.4002C39.3122 61.3314 39.2452 61.2797 39.1656 61.2453C39.0859 61.2098 38.9962 61.192 38.8963 61.192C38.7952 61.192 38.7055 61.2098 38.6271 61.2453C38.55 61.2797 38.4843 61.3314 38.4299 61.4002C38.3756 61.469 38.3339 61.5539 38.3048 61.655C38.277 61.7549 38.2631 61.8709 38.2631 62.003V62.1312C38.2631 62.2622 38.277 62.3783 38.3048 62.4793C38.3339 62.5803 38.3756 62.6658 38.4299 62.7357C38.4856 62.8046 38.5525 62.8568 38.6309 62.8923C38.7093 62.9278 38.799 62.9456 38.9001 62.9456C39.0013 62.9456 39.091 62.9278 39.1694 62.8923C39.2477 62.8568 39.3135 62.8046 39.3665 62.7357C39.4209 62.6658 39.462 62.5803 39.4898 62.4793C39.5176 62.3783 39.5315 62.2622 39.5315 62.1312Z" fill="url(#paint5_linear_505_10468)"/>
<path d="M40.761 60.8556C40.905 60.8556 41.0217 60.9723 41.0217 61.1163V63.0196C41.0217 63.1636 40.905 63.2803 40.761 63.2803C40.617 63.2803 40.5003 63.1636 40.5003 63.0196V61.1163C40.5003 60.9723 40.617 60.8556 40.761 60.8556ZM42.1427 60.8556C42.3461 60.8556 42.4514 61.0984 42.3124 61.2469L41.5715 62.038L40.9383 62.6325L40.8454 62.1879L41.2852 61.6866L41.9707 60.9318C42.0147 60.8833 42.0772 60.8556 42.1427 60.8556ZM42.2215 63.2803C42.1441 63.2803 42.0712 63.244 42.0245 63.1823L41.2397 62.1446L41.6113 61.8188L42.4184 62.8841C42.5417 63.0468 42.4256 63.2803 42.2215 63.2803Z" fill="url(#paint6_linear_505_10468)"/>
<defs>
<filter id="filter0_f_505_10468" x="23.7119" y="0.34716" width="51.1685" height="50.5313" filterUnits="userSpaceOnUse" color-interpolation-filters="sRGB">
<feFlood flood-opacity="0" result="BackgroundImageFix"/>
<feBlend mode="normal" in="SourceGraphic" in2="BackgroundImageFix" result="shape"/>
<feGaussianBlur stdDeviation="8.9686" result="effect1_foregroundBlur_505_10468"/>
</filter>
<filter id="filter1_b_505_10468" x="19.799" y="18.9687" width="40.3587" height="52.8151" filterUnits="userSpaceOnUse" color-interpolation-filters="sRGB">
<feFlood flood-opacity="0" result="BackgroundImageFix"/>
<feGaussianBlur in="BackgroundImageFix" stdDeviation="1.49477"/>
<feComposite in2="SourceAlpha" operator="in" result="effect1_backgroundBlur_505_10468"/>
<feBlend mode="normal" in="SourceGraphic" in2="effect1_backgroundBlur_505_10468" result="shape"/>
</filter>
<filter id="filter2_d_505_10468" x="25.2215" y="23.9512" width="31.4482" height="47.3878" filterUnits="userSpaceOnUse" color-interpolation-filters="sRGB">
<feFlood flood-opacity="0" result="BackgroundImageFix"/>
<feColorMatrix in="SourceAlpha" type="matrix" values="0 0 0 0 0 0 0 0 0 0 0 0 0 0 0 0 0 0 127 0" result="hardAlpha"/>
<feOffset dy="1.99302"/>
<feGaussianBlur stdDeviation="0.996511"/>
<feComposite in2="hardAlpha" operator="out"/>
<feColorMatrix type="matrix" values="0 0 0 0 0 0 0 0 0 0 0 0 0 0 0 0 0 0 0.25 0"/>
<feBlend mode="normal" in2="BackgroundImageFix" result="effect1_dropShadow_505_10468"/>
<feBlend mode="normal" in="SourceGraphic" in2="effect1_dropShadow_505_10468" result="shape"/>
</filter>
<linearGradient id="paint0_linear_505_10468" x1="67.8982" y1="21.8061" x2="34.0622" y2="96.6181" gradientUnits="userSpaceOnUse">
<stop stop-color="#7F31DA"/>
<stop offset="0.325806" stop-color="#D669F4"/>
<stop offset="0.653937" stop-color="#FF5CAA"/>
<stop offset="1" stop-color="#FF9883"/>
</linearGradient>
<linearGradient id="paint1_linear_505_10468" x1="67.8982" y1="21.8061" x2="34.0622" y2="96.6181" gradientUnits="userSpaceOnUse">
<stop stop-color="#7F31DA"/>
<stop offset="0.325806" stop-color="#D669F4"/>
<stop offset="0.653937" stop-color="#FF5CAA"/>
<stop offset="1" stop-color="#FF9883"/>
</linearGradient>
<linearGradient id="paint2_linear_505_10468" x1="81.8318" y1="70.7873" x2="31.0097" y2="100.683" gradientUnits="userSpaceOnUse">
<stop stop-color="#FBFBFB"/>
<stop offset="0.841542" stop-color="#DBC8F9" stop-opacity="0.573497"/>
<stop offset="1" stop-color="#7FC0FC" stop-opacity="0.2"/>
</linearGradient>
<linearGradient id="paint3_linear_505_10468" x1="53.2394" y1="31.8344" x2="24.0784" y2="69.3228" gradientUnits="userSpaceOnUse">
<stop stop-color="#7F31DA"/>
<stop offset="0.325806" stop-color="#D669F4"/>
<stop offset="0.653937" stop-color="#FF5CAA"/>
<stop offset="1" stop-color="#FF9883"/>
</linearGradient>
<linearGradient id="paint4_linear_505_10468" x1="53.2394" y1="31.8344" x2="24.0784" y2="69.3228" gradientUnits="userSpaceOnUse">
<stop stop-color="#7F31DA"/>
<stop offset="0.325806" stop-color="#D669F4"/>
<stop offset="0.653937" stop-color="#FF5CAA"/>
<stop offset="1" stop-color="#FF9883"/>
</linearGradient>
<linearGradient id="paint5_linear_505_10468" x1="42.4578" y1="61.2748" x2="41.6564" y2="64.5315" gradientUnits="userSpaceOnUse">
<stop stop-color="#7F31DA"/>
<stop offset="0.325806" stop-color="#D669F4"/>
<stop offset="0.653937" stop-color="#FF5CAA"/>
<stop offset="1" stop-color="#FF9883"/>
</linearGradient>
<linearGradient id="paint6_linear_505_10468" x1="42.4578" y1="61.2748" x2="41.6564" y2="64.5315" gradientUnits="userSpaceOnUse">
<stop stop-color="#7F31DA"/>
<stop offset="0.325806" stop-color="#D669F4"/>
<stop offset="0.653937" stop-color="#FF5CAA"/>
<stop offset="1" stop-color="#FF9883"/>
</linearGradient>
</defs>
</svg>
