<svg width="91" height="73" viewBox="0 0 91 73" fill="none" xmlns="http://www.w3.org/2000/svg">
<path d="M22.3924 20.5563C22.3924 18.575 23.7309 16.9689 25.382 16.9689H66.2389C67.89 16.9689 69.2285 18.575 69.2285 20.5563V60.0182C69.2285 61.9994 67.89 63.6056 66.2389 63.6056H25.382C23.7309 63.6056 22.3924 61.9994 22.3924 60.0182V20.5563Z" fill="url(#paint0_linear_505_10465)"/>
<path d="M15.9491 9.98473C14.3906 9.98473 13.1088 11.1562 12.9546 12.6574C12.9444 12.7575 12.9391 12.8591 12.9391 12.9618V19.4122H10.9324V12.9618C10.9324 10.2215 13.1785 8 15.9491 8H76.651C79.4217 8 81.6677 10.2215 81.6677 12.9618V68.0382C81.6677 70.7785 79.4217 73 76.651 73H15.9491C13.1785 73 10.9324 70.7785 10.9324 68.0382V62.084H12.9391V68.0382C12.9391 69.6824 14.2867 71.0153 15.9491 71.0153H76.651C78.3134 71.0153 79.6611 69.6824 79.6611 68.0382V12.9618C79.6611 11.3176 78.3134 9.98473 76.651 9.98473H15.9491Z" fill="url(#paint1_linear_505_10465)"/>
<g filter="url(#filter0_f_505_10465)">
<ellipse cx="31.3606" cy="28.9268" rx="8.47035" ry="10.1644" fill="white" fill-opacity="0.8"/>
</g>
<g filter="url(#filter1_f_505_10465)">
<ellipse cx="62.5017" cy="37.6457" rx="10.2142" ry="9.71599" fill="#D669F4"/>
</g>
<g filter="url(#filter2_f_505_10465)">
<ellipse cx="28.2142" cy="40.716" rx="10.2142" ry="9.71599" fill="#D669F4"/>
</g>
<g opacity="0.75" filter="url(#filter3_b_505_10465)">
<path d="M53.0678 23.5057C54.093 20.0324 59.0178 20.0324 60.043 23.5057L60.2912 24.3492C60.4444 24.8692 60.7121 25.3483 61.0747 25.7515C61.4372 26.1546 61.8855 26.4715 62.3865 26.679C62.8876 26.8864 63.4288 26.9792 63.9703 26.9504C64.5119 26.9216 65.0402 26.772 65.5164 26.5126L66.2884 26.0933C69.4707 24.3592 72.9533 27.8399 71.2207 31.0229L70.7987 31.792C70.5391 32.2679 70.3895 32.7959 70.3607 33.3372C70.3319 33.8785 70.4246 34.4194 70.6322 34.9202C70.8398 35.4209 71.1569 35.8689 71.5602 36.2313C71.9636 36.5937 72.4429 36.8612 72.9632 37.0143L73.8072 37.2624C77.2824 38.287 77.2824 43.2091 73.8072 44.2338L72.9632 44.4819C72.4429 44.635 71.9636 44.9025 71.5602 45.2649C71.1569 45.6272 70.8398 46.0752 70.6322 46.576C70.4246 47.0768 70.3319 47.6177 70.3607 48.159C70.3895 48.7003 70.5391 49.2282 70.7987 49.7042L71.2182 50.4758C72.9533 53.6563 69.4707 57.137 66.2859 55.4053L65.5164 54.9836C65.0402 54.7242 64.5119 54.5746 63.9703 54.5458C63.4288 54.517 62.8876 54.6097 62.3865 54.8172C61.8855 55.0246 61.4372 55.3416 61.0747 55.7447C60.7121 56.1478 60.4444 56.6269 60.2912 57.1469L60.043 57.9904C59.0178 61.4637 54.093 61.4637 53.0678 57.9904L52.8196 57.1469C52.6664 56.6269 52.3987 56.1478 52.0362 55.7447C51.6736 55.3416 51.2254 55.0246 50.7243 54.8172C50.2232 54.6097 49.6821 54.517 49.1405 54.5458C48.8997 54.5586 48.6616 54.5953 48.4295 54.6549C47.6822 55.4744 46.5776 55.9676 45.4018 55.8486C44.233 55.9621 43.1357 55.4703 42.3918 54.6549C42.1597 54.5953 41.9215 54.5586 41.6807 54.5458C41.1391 54.5171 40.598 54.6098 40.0969 54.8172C39.5959 55.0247 39.1476 55.3416 38.7851 55.7447C38.4225 56.1479 38.1548 56.627 38.0016 57.147L37.7534 57.9905C36.7282 61.4638 31.8034 61.4638 30.7782 57.9905L30.53 57.147C30.3768 56.627 30.1091 56.1479 29.7466 55.7447C29.384 55.3416 28.9358 55.0247 28.4347 54.8172C27.9336 54.6098 27.3925 54.5171 26.8509 54.5458C26.3093 54.5746 25.781 54.7242 25.3048 54.9836L24.5328 55.4029C21.3506 57.1371 17.8679 53.6563 19.6006 50.4733L20.0225 49.7042C20.2821 49.2283 20.4318 48.7003 20.4606 48.159C20.4894 47.6177 20.3966 47.0768 20.189 46.5761C19.9815 46.0753 19.6644 45.6273 19.261 45.2649C18.8577 44.9025 18.3783 44.635 17.858 44.4819L17.014 44.2338C13.5389 43.2092 13.5389 38.2871 17.014 37.2624L17.858 37.0143C20.0796 36.3594 21.1296 33.8264 20.0225 31.792L19.603 31.0205C17.8679 27.8399 21.3506 24.3592 24.5353 26.0909L25.3048 26.5126C25.781 26.772 26.3093 26.9216 26.8509 26.9504C27.3925 26.9792 27.9336 26.8865 28.4347 26.679C28.9358 26.4716 29.384 26.1547 29.7466 25.7515C30.1091 25.3484 30.3768 24.8693 30.53 24.3493L30.7782 23.5058C31.8034 20.0325 36.7282 20.0325 37.7534 23.5058L38.0016 24.3493C38.1548 24.8693 38.4225 25.3484 38.7851 25.7515C39.1476 26.1547 39.5959 26.4716 40.0969 26.679C40.598 26.8865 41.1391 26.9792 41.6807 26.9504C41.9215 26.9376 42.1596 26.9009 42.3918 26.8414C43.1391 26.0218 44.2436 25.5287 45.4194 25.6476C46.5882 25.5341 47.6855 26.0259 48.4294 26.8413C48.6616 26.9009 48.8997 26.9376 49.1405 26.9504C49.6821 26.9792 50.2232 26.8864 50.7243 26.679C51.2254 26.4715 51.6736 26.1546 52.0362 25.7515C52.3987 25.3483 52.6664 24.8692 52.8196 24.3492L53.0678 23.5057Z" fill="url(#paint2_linear_505_10465)"/>
</g>
<g filter="url(#filter4_d_505_10465)">
<path d="M67.5285 40.5011C67.5267 42.6099 66.9127 44.6708 65.7642 46.4236C64.6156 48.1763 62.9839 49.5423 61.0752 50.3491C59.1666 51.1558 57.0665 51.3671 55.0402 50.9562C53.014 50.5453 51.1525 49.5307 49.6908 48.0405L49.6037 47.9516L39.1694 35.9313C38.2876 35.0484 37.1701 34.451 35.9569 34.2139C34.7438 33.9769 33.4891 34.1108 32.3503 34.5989C31.2114 35.087 30.2392 35.9076 29.5554 36.9576C28.8717 38.0076 28.5069 39.2403 28.5069 40.5011C28.5069 41.762 28.8717 42.9947 29.5554 44.0447C30.2392 45.0947 31.2114 45.9152 32.3503 46.4033C33.4891 46.8914 34.7438 47.0254 35.9569 46.7884C37.1701 46.5513 38.2876 45.9539 39.1694 45.071L39.7094 44.4486C40.0767 44.0242 40.5941 43.7661 41.1478 43.7311C41.7015 43.6961 42.2462 43.887 42.662 44.2619C43.0778 44.6369 43.3307 45.165 43.365 45.7303C43.3993 46.2955 43.2122 46.8515 42.8449 47.2759L42.2526 47.9516L42.1656 48.0405C41.1963 49.0319 40.0451 49.8185 38.7777 50.3551C37.5103 50.8918 36.1517 51.168 34.7796 51.168C33.4075 51.168 32.0489 50.8918 30.7815 50.3551C29.5141 49.8185 28.3629 49.0319 27.3937 48.0405C25.9338 46.5485 24.9399 44.6483 24.5374 42.58C24.1348 40.5116 24.3418 38.3679 25.1321 36.4196C25.9224 34.4713 27.2606 32.8057 28.9777 31.6333C30.6948 30.4608 32.7138 29.8341 34.7796 29.8322C36.1527 29.8266 37.5131 30.1005 38.7813 30.6378C40.0495 31.1752 41.2 31.9652 42.1656 32.9618L42.2526 33.0507L52.687 45.071C53.5688 45.9539 54.6863 46.5513 55.8994 46.7884C57.1126 47.0254 58.3673 46.8914 59.5061 46.4033C60.6449 45.9152 61.6172 45.0947 62.301 44.0447C62.9847 42.9947 63.3494 41.762 63.3494 40.5011C63.3494 39.2403 62.9847 38.0076 62.301 36.9576C61.6172 35.9076 60.6449 35.087 59.5061 34.5989C58.3673 34.1108 57.1126 33.9769 55.8994 34.2139C54.6863 34.451 53.5688 35.0484 52.687 35.9313L52.147 36.5536C51.7797 36.9781 51.2623 37.2362 50.7086 37.2712C50.1548 37.3062 49.6102 37.1153 49.1944 36.7404C48.7786 36.3654 48.5257 35.8373 48.4914 35.272C48.4571 34.7068 48.6442 34.1508 49.0115 33.7264L49.6037 33.0507L49.6908 32.9618C51.1525 31.4716 53.014 30.457 55.0402 30.0461C57.0665 29.6352 59.1666 29.8465 61.0752 30.6532C62.9839 31.4599 64.6156 32.826 65.7642 34.5787C66.9127 36.3315 67.5267 38.3924 67.5285 40.5011Z" fill="white"/>
</g>
<path d="M33.5738 42.8986H32.4941L32.5009 42.1016H33.5738C33.8418 42.1016 34.0677 42.0414 34.2516 41.9211C34.4356 41.7985 34.5741 41.6202 34.6672 41.3863C34.7625 41.1525 34.8102 40.8698 34.8102 40.5382V40.2964C34.8102 40.0421 34.783 39.8184 34.7285 39.6254C34.6763 39.4324 34.5979 39.27 34.4935 39.1383C34.389 39.0066 34.2607 38.9079 34.1086 38.842C33.9564 38.7739 33.7816 38.7398 33.584 38.7398H32.4737V37.9394H33.584C33.9156 37.9394 34.2187 37.9962 34.4935 38.1097C34.7705 38.221 35.01 38.3811 35.2121 38.59C35.4142 38.7989 35.5698 39.0487 35.6788 39.3393C35.79 39.6277 35.8457 39.949 35.8457 40.3032V40.5382C35.8457 40.8902 35.79 41.2115 35.6788 41.5021C35.5698 41.7928 35.4142 42.0426 35.2121 42.2515C35.0123 42.4581 34.7728 42.6182 34.4935 42.7317C34.2164 42.843 33.9099 42.8986 33.5738 42.8986ZM33.0731 37.9394V42.8986H32.0513V37.9394H33.0731ZM39.9159 42.1016V42.8986H37.2762V42.1016H39.9159ZM37.61 37.9394V42.8986H36.5882V37.9394H37.61ZM39.5719 39.9592V40.7358H37.2762V39.9592H39.5719ZM39.9125 37.9394V38.7398H37.2762V37.9394H39.9125ZM42.3001 41.8632L43.4684 37.9394H44.606L42.8791 42.8986H42.1298L42.3001 41.8632ZM41.2238 37.9394L42.3887 41.8632L42.5658 42.8986H41.8096L40.093 37.9394H41.2238ZM50.8799 40.3032V40.5382C50.8799 40.9152 50.8288 41.2535 50.7267 41.5532C50.6245 41.853 50.4803 42.1084 50.2941 42.3196C50.1079 42.5285 49.8854 42.6886 49.6265 42.7998C49.3699 42.9111 49.085 42.9667 48.7716 42.9667C48.4605 42.9667 48.1755 42.9111 47.9167 42.7998C47.6601 42.6886 47.4376 42.5285 47.2491 42.3196C47.0606 42.1084 46.9142 41.853 46.8097 41.5532C46.7075 41.2535 46.6564 40.9152 46.6564 40.5382V40.3032C46.6564 39.924 46.7075 39.5857 46.8097 39.2882C46.9119 38.9885 47.0561 38.733 47.2423 38.5219C47.4308 38.3107 47.6533 38.1495 47.9099 38.0382C48.1687 37.9269 48.4537 37.8713 48.7648 37.8713C49.0781 37.8713 49.3631 37.9269 49.6197 38.0382C49.8786 38.1495 50.1011 38.3107 50.2873 38.5219C50.4758 38.733 50.6211 38.9885 50.7233 39.2882C50.8277 39.5857 50.8799 39.924 50.8799 40.3032ZM49.8479 40.5382V40.2964C49.8479 40.033 49.8241 39.8014 49.7764 39.6016C49.7287 39.4017 49.6583 39.2337 49.5652 39.0975C49.4721 38.9612 49.3586 38.8591 49.2246 38.7909C49.0906 38.7205 48.9374 38.6853 48.7648 38.6853C48.5922 38.6853 48.4389 38.7205 48.305 38.7909C48.1733 38.8591 48.0609 38.9612 47.9678 39.0975C47.8769 39.2337 47.8077 39.4017 47.76 39.6016C47.7123 39.8014 47.6885 40.033 47.6885 40.2964V40.5382C47.6885 40.7994 47.7123 41.031 47.76 41.2331C47.8077 41.4329 47.8781 41.6021 47.9712 41.7406C48.0643 41.8768 48.1778 41.9801 48.3118 42.0505C48.4458 42.1209 48.599 42.1561 48.7716 42.1561C48.9442 42.1561 49.0974 42.1209 49.2314 42.0505C49.3654 41.9801 49.4778 41.8768 49.5686 41.7406C49.6594 41.6021 49.7287 41.4329 49.7764 41.2331C49.8241 41.031 49.8479 40.7994 49.8479 40.5382ZM53.5469 41.1309H52.2832V40.3339H53.5469C53.7422 40.3339 53.9011 40.3021 54.0237 40.2385C54.1463 40.1726 54.236 40.0818 54.2928 39.966C54.3496 39.8502 54.3779 39.7196 54.3779 39.5743C54.3779 39.4267 54.3496 39.2893 54.2928 39.1622C54.236 39.035 54.1463 38.9328 54.0237 38.8556C53.9011 38.7784 53.7422 38.7398 53.5469 38.7398H52.6375V42.8986H51.6156V37.9394H53.5469C53.9352 37.9394 54.2678 38.0098 54.5448 38.1506C54.8241 38.2891 55.0376 38.481 55.1852 38.7262C55.3328 38.9715 55.4066 39.2519 55.4066 39.5675C55.4066 39.8877 55.3328 40.1647 55.1852 40.3986C55.0376 40.6325 54.8241 40.813 54.5448 40.9401C54.2678 41.0673 53.9352 41.1309 53.5469 41.1309ZM58.6934 41.6009C58.6934 41.5124 58.6798 41.4329 58.6525 41.3625C58.6276 41.2898 58.5799 41.224 58.5095 41.1649C58.4391 41.1036 58.3403 41.0435 58.2132 40.9844C58.086 40.9254 57.9214 40.8641 57.7193 40.8005C57.4945 40.7278 57.281 40.6461 57.0789 40.5553C56.8791 40.4644 56.702 40.3588 56.5476 40.2385C56.3955 40.1159 56.2751 39.974 56.1866 39.8127C56.1003 39.6515 56.0571 39.4642 56.0571 39.2507C56.0571 39.0441 56.1025 38.8568 56.1934 38.6887C56.2842 38.5184 56.4114 38.3731 56.5748 38.2528C56.7383 38.1302 56.9313 38.0359 57.1539 37.9701C57.3787 37.9042 57.625 37.8713 57.893 37.8713C58.2586 37.8713 58.5776 37.9371 58.8501 38.0688C59.1226 38.2006 59.3337 38.3811 59.4836 38.6104C59.6357 38.8398 59.7118 39.102 59.7118 39.3972H58.6968C58.6968 39.2519 58.6662 39.1247 58.6048 39.0157C58.5458 38.9045 58.455 38.817 58.3324 38.7535C58.212 38.6899 58.0599 38.6581 57.876 38.6581C57.6988 38.6581 57.5512 38.6853 57.4332 38.7398C57.3151 38.7921 57.2265 38.8636 57.1675 38.9544C57.1085 39.043 57.0789 39.1429 57.0789 39.2542C57.0789 39.3382 57.0994 39.4142 57.1402 39.4824C57.1834 39.5505 57.247 39.6141 57.331 39.6731C57.415 39.7321 57.5183 39.7878 57.6409 39.84C57.7636 39.8922 57.9055 39.9433 58.0667 39.9933C58.3369 40.075 58.5742 40.167 58.7786 40.2692C58.9852 40.3713 59.1578 40.486 59.2963 40.6132C59.4348 40.7403 59.5392 40.8845 59.6096 41.0457C59.68 41.207 59.7152 41.3897 59.7152 41.5941C59.7152 41.8098 59.6732 42.0028 59.5892 42.1731C59.5052 42.3434 59.3837 42.4876 59.2247 42.6057C59.0658 42.7238 58.8762 42.8135 58.6559 42.8748C58.4357 42.9361 58.1893 42.9667 57.9168 42.9667C57.6716 42.9667 57.4298 42.935 57.1913 42.8714C56.9529 42.8055 56.7361 42.7067 56.5408 42.575C56.3478 42.4433 56.1934 42.2753 56.0776 42.071C55.9618 41.8666 55.9039 41.6248 55.9039 41.3455H56.9291C56.9291 41.4999 56.9529 41.6304 57.0006 41.7372C57.0483 41.8439 57.1153 41.9302 57.2016 41.996C57.2901 42.0619 57.3946 42.1096 57.5149 42.1391C57.6375 42.1686 57.7715 42.1834 57.9168 42.1834C58.0939 42.1834 58.2393 42.1584 58.3528 42.1084C58.4686 42.0585 58.5538 41.9892 58.6083 41.9006C58.665 41.8121 58.6934 41.7122 58.6934 41.6009Z" fill="url(#paint3_linear_505_10465)"/>
<defs>
<filter id="filter0_f_505_10465" x="4.95306" y="0.825188" width="52.8151" height="56.2033" filterUnits="userSpaceOnUse" color-interpolation-filters="sRGB">
<feFlood flood-opacity="0" result="BackgroundImageFix"/>
<feBlend mode="normal" in="SourceGraphic" in2="BackgroundImageFix" result="shape"/>
<feGaussianBlur stdDeviation="8.9686" result="effect1_foregroundBlur_505_10465"/>
</filter>
<filter id="filter1_f_505_10465" x="34.3502" y="9.99255" width="56.3029" height="55.3064" filterUnits="userSpaceOnUse" color-interpolation-filters="sRGB">
<feFlood flood-opacity="0" result="BackgroundImageFix"/>
<feBlend mode="normal" in="SourceGraphic" in2="BackgroundImageFix" result="shape"/>
<feGaussianBlur stdDeviation="8.9686" result="effect1_foregroundBlur_505_10465"/>
</filter>
<filter id="filter2_f_505_10465" x="0.0627975" y="13.0628" width="56.3029" height="55.3064" filterUnits="userSpaceOnUse" color-interpolation-filters="sRGB">
<feFlood flood-opacity="0" result="BackgroundImageFix"/>
<feBlend mode="normal" in="SourceGraphic" in2="BackgroundImageFix" result="shape"/>
<feGaussianBlur stdDeviation="8.9686" result="effect1_foregroundBlur_505_10465"/>
</filter>
<filter id="filter3_b_505_10465" x="12.4146" y="18.9077" width="65.992" height="43.6807" filterUnits="userSpaceOnUse" color-interpolation-filters="sRGB">
<feFlood flood-opacity="0" result="BackgroundImageFix"/>
<feGaussianBlur in="BackgroundImageFix" stdDeviation="0.996511"/>
<feComposite in2="SourceAlpha" operator="in" result="effect1_backgroundBlur_505_10465"/>
<feBlend mode="normal" in="SourceGraphic" in2="effect1_backgroundBlur_505_10465" result="shape"/>
</filter>
<filter id="filter4_d_505_10465" x="22.344" y="29.8322" width="47.1776" height="25.3219" filterUnits="userSpaceOnUse" color-interpolation-filters="sRGB">
<feFlood flood-opacity="0" result="BackgroundImageFix"/>
<feColorMatrix in="SourceAlpha" type="matrix" values="0 0 0 0 0 0 0 0 0 0 0 0 0 0 0 0 0 0 127 0" result="hardAlpha"/>
<feOffset dy="1.99302"/>
<feGaussianBlur stdDeviation="0.996511"/>
<feComposite in2="hardAlpha" operator="out"/>
<feColorMatrix type="matrix" values="0 0 0 0 0 0 0 0 0 0 0 0 0 0 0 0 0 0 0.25 0"/>
<feBlend mode="normal" in2="BackgroundImageFix" result="effect1_dropShadow_505_10465"/>
<feBlend mode="normal" in="SourceGraphic" in2="effect1_dropShadow_505_10465" result="shape"/>
</filter>
<linearGradient id="paint0_linear_505_10465" x1="77.9658" y1="19.8061" x2="44.1297" y2="94.6181" gradientUnits="userSpaceOnUse">
<stop stop-color="#7F31DA"/>
<stop offset="0.325806" stop-color="#D669F4"/>
<stop offset="0.653937" stop-color="#FF5CAA"/>
<stop offset="1" stop-color="#FF9883"/>
</linearGradient>
<linearGradient id="paint1_linear_505_10465" x1="77.9658" y1="19.8061" x2="44.1297" y2="94.6181" gradientUnits="userSpaceOnUse">
<stop stop-color="#7F31DA"/>
<stop offset="0.325806" stop-color="#D669F4"/>
<stop offset="0.653937" stop-color="#FF5CAA"/>
<stop offset="1" stop-color="#FF9883"/>
</linearGradient>
<linearGradient id="paint2_linear_505_10465" x1="45.4106" y1="39.0745" x2="45.4106" y2="61.4364" gradientUnits="userSpaceOnUse">
<stop stop-color="white"/>
<stop offset="1" stop-color="#F0EAF8"/>
</linearGradient>
<linearGradient id="paint3_linear_505_10465" x1="58.7702" y1="38.3517" x2="57.2915" y2="49.242" gradientUnits="userSpaceOnUse">
<stop stop-color="#7F31DA"/>
<stop offset="0.325806" stop-color="#D669F4"/>
<stop offset="0.653937" stop-color="#FF5CAA"/>
<stop offset="1" stop-color="#FF9883"/>
</linearGradient>
</defs>
</svg>
