<svg width="183" height="146" viewBox="0 0 183 146" fill="none" xmlns="http://www.w3.org/2000/svg">
<path d="M46 40.2C46 36.2235 48.6863 33 52 33H134C137.314 33 140 36.2235 140 40.2V119.4C140 123.376 137.314 126.6 134 126.6H52C48.6863 126.6 46 123.376 46 119.4V40.2Z" fill="url(#paint0_linear_1102_8261)"/>
<g filter="url(#filter0_f_1102_8261)">
<ellipse cx="64" cy="57" rx="17" ry="20.4" fill="white" fill-opacity="0.8"/>
</g>
<g filter="url(#filter1_f_1102_8261)">
<ellipse cx="126.5" cy="74.5" rx="20.5" ry="19.5" fill="#D669F4"/>
</g>
<g filter="url(#filter2_f_1102_8261)">
<ellipse cx="56.5" cy="74.5" rx="20.5" ry="19.5" fill="#D669F4"/>
</g>
<path d="M33 19C29.8934 19 27.3382 21.361 27.031 24.3865C27.0105 24.5882 27 24.7929 27 25V38H23V25C23 19.4772 27.4772 15 33 15H154C159.523 15 164 19.4772 164 25V136C164 141.523 159.523 146 154 146H33C27.4771 146 23 141.523 23 136V124H27V136C27 139.314 29.6863 142 33 142H154C157.314 142 160 139.314 160 136V25C160 21.6863 157.314 19 154 19H33Z" fill="url(#paint1_linear_1102_8261)"/>
<g opacity="0.75" filter="url(#filter3_b_1102_8261)">
<path fill-rule="evenodd" clip-rule="evenodd" d="M107.873 46.25C109.938 39.25 119.858 39.25 121.923 46.25L122.423 47.95C122.731 48.998 123.271 49.9636 124.001 50.7761C124.731 51.5885 125.634 52.2272 126.643 52.6453C127.653 53.0634 128.743 53.2503 129.834 53.1923C130.925 53.1343 131.989 52.8328 132.948 52.31L134.503 51.465C140.913 47.97 147.928 54.985 144.438 61.4L143.588 62.95C143.065 63.9092 142.764 64.9733 142.706 66.0642C142.648 67.1551 142.835 68.2452 143.253 69.2545C143.671 70.2638 144.309 71.1667 145.122 71.897C145.934 72.6273 146.9 73.1665 147.948 73.475L149.648 73.975C156.648 76.04 156.648 85.96 149.648 88.025L147.948 88.525C146.9 88.8335 145.934 89.3727 145.122 90.103C144.309 90.8334 143.671 91.7362 143.253 92.7455C142.835 93.7548 142.648 94.8449 142.706 95.9358C142.764 97.0267 143.065 98.0908 143.588 99.05L144.433 100.605C147.928 107.015 140.913 114.03 134.498 110.54L132.948 109.69C131.989 109.167 130.925 108.866 129.834 108.808C128.743 108.75 127.653 108.937 126.643 109.355C125.634 109.773 124.731 110.411 124.001 111.224C123.271 112.036 122.731 113.002 122.423 114.05L121.923 115.75C119.858 122.75 109.938 122.75 107.873 115.75L107.373 114.05C107.064 113.002 106.525 112.036 105.795 111.224C105.065 110.411 104.162 109.773 103.152 109.355C102.143 108.937 101.053 108.75 99.9622 108.808C99.477 108.834 98.9972 108.907 98.5295 109.028C97.0243 110.679 94.7996 111.673 92.4314 111.433C90.0771 111.662 87.8669 110.671 86.3684 109.028C85.9007 108.908 85.4209 108.834 84.9358 108.808C83.8449 108.75 82.7548 108.937 81.7455 109.355C80.7362 109.773 79.8334 110.412 79.103 111.224C78.3727 112.036 77.8335 113.002 77.525 114.05L77.025 115.75C74.96 122.75 65.04 122.75 62.975 115.75L62.475 114.05C62.1665 113.002 61.6273 112.036 60.897 111.224C60.1667 110.412 59.2638 109.773 58.2545 109.355C57.2452 108.937 56.1551 108.75 55.0642 108.808C53.9733 108.866 52.9092 109.167 51.95 109.69L50.395 110.535C43.985 114.03 36.97 107.015 40.46 100.6L41.31 99.0501C41.8328 98.0908 42.1343 97.0267 42.1923 95.9358C42.2503 94.8449 42.0634 93.7549 41.6453 92.7456C41.2272 91.7363 40.5885 90.8334 39.7761 90.1031C38.9636 89.3728 37.998 88.8336 36.95 88.5251L35.25 88.0251C28.25 85.9601 28.25 76.0401 35.25 73.9751L36.95 73.4751C41.425 72.1551 43.54 67.0501 41.31 62.9501L40.465 61.3951C36.97 54.9851 43.985 47.9701 50.4 51.4601L51.95 52.3101C52.9092 52.8329 53.9733 53.1343 55.0642 53.1923C56.1551 53.2504 57.2452 53.0635 58.2545 52.6454C59.2638 52.2273 60.1667 51.5886 60.897 50.7761C61.6273 49.9637 62.1665 48.998 62.475 47.9501L62.975 46.2501C65.04 39.2501 74.96 39.2501 77.025 46.2501L77.525 47.9501C77.8335 48.998 78.3727 49.9637 79.103 50.7761C79.8334 51.5886 80.7362 52.2273 81.7455 52.6454C82.7548 53.0635 83.8449 53.2504 84.9358 53.1923C85.4209 53.1665 85.9007 53.0926 86.3684 52.9724C87.8736 51.321 90.0983 50.3271 92.4665 50.5667C94.8208 50.338 97.0311 51.3291 98.5295 52.9724C98.9972 53.0925 99.477 53.1665 99.9622 53.1923C101.053 53.2503 102.143 53.0634 103.152 52.6453C104.162 52.2272 105.065 51.5885 105.795 50.7761C106.525 49.9636 107.064 48.998 107.373 47.95L107.873 46.25Z" fill="url(#paint2_linear_1102_8261)"/>
</g>
<g filter="url(#filter4_bd_1102_8261)">
<path d="M137 80.5021C136.996 84.7521 135.76 88.9056 133.446 92.4381C131.132 95.9706 127.846 98.7236 124.001 100.349C120.157 101.975 115.926 102.401 111.845 101.573C107.764 100.745 104.014 98.7001 101.07 95.6968L100.894 95.5176L79.8766 71.2921C78.1004 69.5127 75.8494 68.3087 73.4058 67.831C70.9622 67.3533 68.4349 67.6232 66.141 68.6069C63.847 69.5906 61.8886 71.2443 60.5113 73.3605C59.1341 75.4767 58.3994 77.9611 58.3994 80.5021C58.3994 83.0431 59.1341 85.5276 60.5113 87.6438C61.8886 89.7599 63.847 91.4136 66.141 92.3973C68.4349 93.381 70.9622 93.651 73.4058 93.1733C75.8494 92.6956 78.1004 91.4915 79.8766 89.7121L80.9643 88.4578C81.7041 87.6024 82.7463 87.0822 83.8617 87.0117C84.9771 86.9411 86.0742 87.326 86.9117 88.0816C87.7493 88.8372 88.2586 89.9016 88.3277 91.0408C88.3968 92.1799 88.02 93.3005 87.2802 94.1559L86.0872 95.5176L85.9117 95.6968C83.9595 97.6949 81.6405 99.2801 79.0877 100.362C76.5348 101.443 73.7982 102 71.0344 102C68.2706 102 65.5339 101.443 62.981 100.362C60.4282 99.2801 58.1093 97.6949 56.157 95.6968C53.2164 92.6898 51.2143 88.8602 50.4035 84.6917C49.5927 80.5233 50.0096 76.2029 51.6015 72.2762C53.1934 68.3496 55.889 64.9928 59.3477 62.6299C62.8064 60.267 66.8732 59.0039 71.0344 59.0002C73.8001 58.9888 76.5404 59.5408 79.0949 60.6238C81.6494 61.7067 83.9668 63.299 85.9117 65.3074L86.0872 65.4866L107.105 89.7121C108.881 91.4915 111.132 92.6956 113.576 93.1733C116.019 93.651 118.547 93.381 120.841 92.3973C123.134 91.4136 125.093 89.7599 126.47 87.6438C127.847 85.5276 128.582 83.0431 128.582 80.5021C128.582 77.9611 127.847 75.4767 126.47 73.3605C125.093 71.2443 123.134 69.5906 120.841 68.6069C118.547 67.6232 116.019 67.3533 113.576 67.831C111.132 68.3087 108.881 69.5127 107.105 71.2921L106.017 72.5464C105.277 73.4018 104.235 73.922 103.12 73.9926C102.004 74.0631 100.907 73.6783 100.07 72.9227C99.2322 72.1671 98.7229 71.1026 98.6538 69.9635C98.5847 68.8243 98.9615 67.7038 99.7013 66.8484L100.894 65.4866L101.07 65.3074C104.014 62.3041 107.764 60.2593 111.845 59.4312C115.926 58.6031 120.157 59.0289 124.001 60.6548C127.846 62.2806 131.132 65.0337 133.446 68.5662C135.76 72.0987 136.996 76.2522 137 80.5021Z" fill="white"/>
</g>
<path d="M68.9863 86H66.8193L66.833 84.4004H68.9863C69.5241 84.4004 69.9775 84.2796 70.3467 84.0381C70.7158 83.792 70.9938 83.4342 71.1807 82.9648C71.3721 82.4954 71.4678 81.9281 71.4678 81.2627V80.7773C71.4678 80.2669 71.4131 79.818 71.3037 79.4307C71.1989 79.0433 71.0417 78.7174 70.832 78.4531C70.6224 78.1888 70.3649 77.9906 70.0596 77.8584C69.7542 77.7217 69.4033 77.6533 69.0068 77.6533H66.7783V76.0469H69.0068C69.6722 76.0469 70.2806 76.1608 70.832 76.3887C71.388 76.612 71.8688 76.9333 72.2744 77.3525C72.68 77.7718 72.9922 78.2731 73.2109 78.8564C73.4342 79.4352 73.5459 80.0801 73.5459 80.791V81.2627C73.5459 81.9691 73.4342 82.6139 73.2109 83.1973C72.9922 83.7806 72.68 84.2819 72.2744 84.7012C71.8734 85.1159 71.3926 85.4372 70.832 85.665C70.276 85.8883 69.6608 86 68.9863 86ZM67.9814 76.0469V86H65.9307V76.0469H67.9814ZM81.7148 84.4004V86H76.417V84.4004H81.7148ZM77.0869 76.0469V86H75.0361V76.0469H77.0869ZM81.0244 80.1006V81.6592H76.417V80.1006H81.0244ZM81.708 76.0469V77.6533H76.417V76.0469H81.708ZM86.5 83.9219L88.8447 76.0469H91.1279L87.6621 86H86.1582L86.5 83.9219ZM84.3398 76.0469L86.6777 83.9219L87.0332 86H85.5156L82.0703 76.0469H84.3398ZM103.72 80.791V81.2627C103.72 82.0192 103.617 82.6982 103.412 83.2998C103.207 83.9014 102.918 84.4141 102.544 84.8379C102.17 85.2572 101.724 85.5785 101.204 85.8018C100.689 86.0251 100.117 86.1367 99.4883 86.1367C98.8639 86.1367 98.292 86.0251 97.7725 85.8018C97.2575 85.5785 96.8109 85.2572 96.4326 84.8379C96.0544 84.4141 95.7604 83.9014 95.5508 83.2998C95.3457 82.6982 95.2432 82.0192 95.2432 81.2627V80.791C95.2432 80.0299 95.3457 79.3509 95.5508 78.7539C95.7559 78.1523 96.0452 77.6396 96.4189 77.2158C96.7972 76.792 97.2438 76.4684 97.7588 76.2451C98.2783 76.0218 98.8503 75.9102 99.4746 75.9102C100.104 75.9102 100.675 76.0218 101.19 76.2451C101.71 76.4684 102.157 76.792 102.53 77.2158C102.909 77.6396 103.2 78.1523 103.405 78.7539C103.615 79.3509 103.72 80.0299 103.72 80.791ZM101.648 81.2627V80.7773C101.648 80.2487 101.601 79.7839 101.505 79.3828C101.409 78.9818 101.268 78.6445 101.081 78.3711C100.894 78.0977 100.666 77.8926 100.397 77.7559C100.129 77.6146 99.821 77.5439 99.4746 77.5439C99.1283 77.5439 98.8206 77.6146 98.5518 77.7559C98.2874 77.8926 98.0618 78.0977 97.875 78.3711C97.6927 78.6445 97.5537 78.9818 97.458 79.3828C97.3623 79.7839 97.3145 80.2487 97.3145 80.7773V81.2627C97.3145 81.7868 97.3623 82.2516 97.458 82.6572C97.5537 83.0583 97.695 83.3978 97.8818 83.6758C98.0687 83.9492 98.2965 84.1566 98.5654 84.2979C98.8343 84.4391 99.1419 84.5098 99.4883 84.5098C99.8346 84.5098 100.142 84.4391 100.411 84.2979C100.68 84.1566 100.906 83.9492 101.088 83.6758C101.27 83.3978 101.409 83.0583 101.505 82.6572C101.601 82.2516 101.648 81.7868 101.648 81.2627ZM109.072 82.4521H106.536V80.8525H109.072C109.464 80.8525 109.783 80.7887 110.029 80.6611C110.275 80.529 110.455 80.3467 110.569 80.1143C110.683 79.8818 110.74 79.6198 110.74 79.3281C110.74 79.0319 110.683 78.7562 110.569 78.501C110.455 78.2458 110.275 78.0407 110.029 77.8857C109.783 77.7308 109.464 77.6533 109.072 77.6533H107.247V86H105.196V76.0469H109.072C109.852 76.0469 110.519 76.1882 111.075 76.4707C111.636 76.7487 112.064 77.1338 112.36 77.626C112.657 78.1182 112.805 78.681 112.805 79.3145C112.805 79.957 112.657 80.513 112.36 80.9824C112.064 81.4518 111.636 81.8141 111.075 82.0693C110.519 82.3245 109.852 82.4521 109.072 82.4521ZM119.401 83.3955C119.401 83.2178 119.374 83.0583 119.319 82.917C119.269 82.7712 119.174 82.639 119.032 82.5205C118.891 82.3975 118.693 82.2767 118.438 82.1582C118.182 82.0397 117.852 81.9167 117.446 81.7891C116.995 81.6432 116.567 81.4792 116.161 81.2969C115.76 81.1146 115.405 80.9027 115.095 80.6611C114.789 80.415 114.548 80.1302 114.37 79.8066C114.197 79.4831 114.11 79.1071 114.11 78.6787C114.11 78.264 114.201 77.888 114.384 77.5508C114.566 77.209 114.821 76.9173 115.149 76.6758C115.478 76.4297 115.865 76.2406 116.312 76.1084C116.763 75.9762 117.257 75.9102 117.795 75.9102C118.529 75.9102 119.169 76.0423 119.716 76.3066C120.263 76.571 120.687 76.9333 120.987 77.3936C121.293 77.8538 121.445 78.3802 121.445 78.9727H119.408C119.408 78.681 119.347 78.4258 119.224 78.207C119.105 77.9837 118.923 77.8083 118.677 77.6807C118.435 77.5531 118.13 77.4893 117.761 77.4893C117.405 77.4893 117.109 77.5439 116.872 77.6533C116.635 77.7581 116.457 77.9017 116.339 78.084C116.22 78.2617 116.161 78.4622 116.161 78.6855C116.161 78.8542 116.202 79.0068 116.284 79.1436C116.371 79.2803 116.498 79.4079 116.667 79.5264C116.836 79.6449 117.043 79.7565 117.289 79.8613C117.535 79.9661 117.82 80.0687 118.144 80.1689C118.686 80.333 119.162 80.5176 119.572 80.7227C119.987 80.9277 120.333 81.1579 120.611 81.4131C120.889 81.6683 121.099 81.9577 121.24 82.2812C121.382 82.6048 121.452 82.9717 121.452 83.3818C121.452 83.8148 121.368 84.2021 121.199 84.5439C121.031 84.8857 120.787 85.1751 120.468 85.4121C120.149 85.6491 119.768 85.8291 119.326 85.9521C118.884 86.0752 118.39 86.1367 117.843 86.1367C117.351 86.1367 116.865 86.0729 116.387 85.9453C115.908 85.8132 115.473 85.6149 115.081 85.3506C114.694 85.0863 114.384 84.749 114.151 84.3389C113.919 83.9287 113.803 83.4434 113.803 82.8828H115.86C115.86 83.1927 115.908 83.4548 116.004 83.6689C116.1 83.8831 116.234 84.0563 116.407 84.1885C116.585 84.3206 116.795 84.4163 117.036 84.4756C117.282 84.5348 117.551 84.5645 117.843 84.5645C118.198 84.5645 118.49 84.5143 118.718 84.4141C118.95 84.3138 119.121 84.1748 119.23 83.9971C119.344 83.8193 119.401 83.6188 119.401 83.3955Z" fill="url(#paint3_linear_1102_8261)"/>
<defs>
<filter id="filter0_f_1102_8261" x="11" y="0.600037" width="106" height="112.8" filterUnits="userSpaceOnUse" color-interpolation-filters="sRGB">
<feFlood flood-opacity="0" result="BackgroundImageFix"/>
<feBlend mode="normal" in="SourceGraphic" in2="BackgroundImageFix" result="shape"/>
<feGaussianBlur stdDeviation="18" result="effect1_foregroundBlur_1102_8261"/>
</filter>
<filter id="filter1_f_1102_8261" x="70" y="19" width="113" height="111" filterUnits="userSpaceOnUse" color-interpolation-filters="sRGB">
<feFlood flood-opacity="0" result="BackgroundImageFix"/>
<feBlend mode="normal" in="SourceGraphic" in2="BackgroundImageFix" result="shape"/>
<feGaussianBlur stdDeviation="18" result="effect1_foregroundBlur_1102_8261"/>
</filter>
<filter id="filter2_f_1102_8261" x="0" y="19" width="113" height="111" filterUnits="userSpaceOnUse" color-interpolation-filters="sRGB">
<feFlood flood-opacity="0" result="BackgroundImageFix"/>
<feBlend mode="normal" in="SourceGraphic" in2="BackgroundImageFix" result="shape"/>
<feGaussianBlur stdDeviation="18" result="effect1_foregroundBlur_1102_8261"/>
</filter>
<filter id="filter3_b_1102_8261" x="26" y="37" width="132.898" height="88.0001" filterUnits="userSpaceOnUse" color-interpolation-filters="sRGB">
<feFlood flood-opacity="0" result="BackgroundImageFix"/>
<feGaussianBlur in="BackgroundImageFix" stdDeviation="2"/>
<feComposite in2="SourceAlpha" operator="in" result="effect1_backgroundBlur_1102_8261"/>
<feBlend mode="normal" in="SourceGraphic" in2="effect1_backgroundBlur_1102_8261" result="shape"/>
</filter>
<filter id="filter4_bd_1102_8261" x="45" y="54" width="97" height="56" filterUnits="userSpaceOnUse" color-interpolation-filters="sRGB">
<feFlood flood-opacity="0" result="BackgroundImageFix"/>
<feGaussianBlur in="BackgroundImageFix" stdDeviation="2.5"/>
<feComposite in2="SourceAlpha" operator="in" result="effect1_backgroundBlur_1102_8261"/>
<feColorMatrix in="SourceAlpha" type="matrix" values="0 0 0 0 0 0 0 0 0 0 0 0 0 0 0 0 0 0 127 0" result="hardAlpha"/>
<feOffset dy="4"/>
<feGaussianBlur stdDeviation="2"/>
<feComposite in2="hardAlpha" operator="out"/>
<feColorMatrix type="matrix" values="0 0 0 0 0 0 0 0 0 0 0 0 0 0 0 0 0 0 0.25 0"/>
<feBlend mode="normal" in2="effect1_backgroundBlur_1102_8261" result="effect2_dropShadow_1102_8261"/>
<feBlend mode="normal" in="SourceGraphic" in2="effect2_dropShadow_1102_8261" result="shape"/>
</filter>
<linearGradient id="paint0_linear_1102_8261" x1="135.08" y1="50.0008" x2="83.8001" y2="154.635" gradientUnits="userSpaceOnUse">
<stop stop-color="#7F31DA"/>
<stop offset="0.325806" stop-color="#D669F4"/>
<stop offset="0.653937" stop-color="#FF5CAA"/>
<stop offset="1" stop-color="#FF9883"/>
</linearGradient>
<linearGradient id="paint1_linear_1102_8261" x1="156.621" y1="38.7939" x2="87.9335" y2="189.002" gradientUnits="userSpaceOnUse">
<stop stop-color="#7F31DA"/>
<stop offset="0.325806" stop-color="#D669F4"/>
<stop offset="0.653937" stop-color="#FF5CAA"/>
<stop offset="1" stop-color="#FF9883"/>
</linearGradient>
<linearGradient id="paint2_linear_1102_8261" x1="92.449" y1="77.6271" x2="92.449" y2="122.695" gradientUnits="userSpaceOnUse">
<stop stop-color="white"/>
<stop offset="1" stop-color="#F0EAF8"/>
</linearGradient>
<linearGradient id="paint3_linear_1102_8261" x1="119.017" y1="75.9061" x2="116.01" y2="97.6729" gradientUnits="userSpaceOnUse">
<stop stop-color="#7F31DA"/>
<stop offset="0.325806" stop-color="#D669F4"/>
<stop offset="0.653937" stop-color="#FF5CAA"/>
<stop offset="1" stop-color="#FF9883"/>
</linearGradient>
</defs>
</svg>
