<svg width="92" height="70" viewBox="0 0 92 70" fill="none" xmlns="http://www.w3.org/2000/svg">
<path d="M17.7742 19.8858C17.7742 18.2416 19.1097 16.9087 20.7571 16.9087H61.5233C63.1707 16.9087 64.5062 18.2416 64.5062 19.8858V52.6339C64.5062 54.2781 63.1707 55.611 61.5233 55.611H20.7571C19.1097 55.611 17.7742 54.2781 17.7742 52.6339V19.8858Z" fill="url(#paint0_linear_505_10463)"/>
<path d="M16.3275 6.98473C14.769 6.98473 13.4871 8.15622 13.333 9.65744C13.3227 9.75752 13.3175 9.85907 13.3175 9.96183V16.4122H11.3108V9.96183C11.3108 7.22149 13.5568 5 16.3275 5H77.0294C79.8 5 82.0461 7.22149 82.0461 9.96183V65.0382C82.0461 67.7785 79.8 70 77.0294 70H16.3275C13.5568 70 11.3108 67.7785 11.3108 65.0382V59.084H13.3175V65.0382C13.3175 66.6824 14.6651 68.0153 16.3275 68.0153H77.0294C78.6918 68.0153 80.0394 66.6824 80.0394 65.0382V9.96183C80.0394 8.31762 78.6918 6.98473 77.0294 6.98473H16.3275Z" fill="url(#paint1_linear_505_10463)"/>
<g filter="url(#filter0_f_505_10463)">
<ellipse cx="26.7223" cy="26.8324" rx="8.45154" ry="8.43511" fill="white" fill-opacity="0.8"/>
</g>
<g filter="url(#filter1_f_505_10463)">
<ellipse cx="63.7603" cy="34.5232" rx="10.1916" ry="9.67557" fill="#D669F4"/>
</g>
<path d="M26.0381 24.1645C26.2769 23.9361 26.2888 23.5542 26.0647 23.3114C26.0506 23.296 26.0358 23.2816 26.0205 23.2681L23.3061 20.5545C23.0729 20.3213 22.6982 20.3248 22.4693 20.5622C22.2404 20.7996 22.2439 21.1811 22.4771 21.4142L24.7781 23.7145L22.4352 25.9557C22.1965 26.1841 22.1845 26.566 22.4086 26.8088C22.6326 27.0516 23.0078 27.0633 23.2466 26.8349L26.0381 24.1645Z" fill="white"/>
<path d="M28.2139 26.0879C28.2139 25.6769 28.5477 25.3437 28.9596 25.3437H32.4396C32.8515 25.3437 33.1854 25.6769 33.1854 26.0879C33.1854 26.499 32.8515 26.8322 32.4396 26.8322H28.9596C28.5477 26.8322 28.2139 26.499 28.2139 26.0879Z" fill="white"/>
<g filter="url(#filter2_d_505_10463)">
<path d="M44.995 33.1085H39.7077C39.2403 33.1085 38.792 33.2941 38.4615 33.6244C38.131 33.9548 37.9453 34.4028 37.9453 34.87C37.9453 35.3371 38.131 35.7852 38.4615 36.1155C38.792 36.4458 39.2403 36.6314 39.7077 36.6314H44.995C45.4624 36.6314 45.9107 36.4458 46.2412 36.1155C46.5717 35.7852 46.7574 35.3371 46.7574 34.87C46.7574 34.4028 46.5717 33.9548 46.2412 33.6244C45.9107 33.2941 45.4624 33.1085 44.995 33.1085Z" fill="url(#paint2_linear_505_10463)" shape-rendering="crispEdges"/>
<path d="M44.995 43.6772H39.7077C39.2403 43.6772 38.792 43.8628 38.4615 44.1931C38.131 44.5235 37.9453 44.9715 37.9453 45.4387C37.9453 45.9058 38.131 46.3539 38.4615 46.6842C38.792 47.0145 39.2403 47.2001 39.7077 47.2001H44.995C45.4624 47.2001 45.9107 47.0145 46.2412 46.6842C46.5717 46.3539 46.7574 45.9058 46.7574 45.4387C46.7574 44.9715 46.5717 44.5235 46.2412 44.1931C45.9107 43.8628 45.4624 43.6772 44.995 43.6772Z" fill="url(#paint3_linear_505_10463)" shape-rendering="crispEdges"/>
<path d="M66.3177 33.1085C65.9691 33.1085 65.6283 33.2118 65.3385 33.4054C65.0487 33.5989 64.8228 33.874 64.6894 34.1959C64.556 34.5177 64.5211 34.8719 64.5891 35.2136C64.6571 35.5553 64.825 35.8691 65.0714 36.1155C65.3179 36.3618 65.6319 36.5296 65.9738 36.5976C66.3157 36.6655 66.6701 36.6306 66.9921 36.4973C67.3141 36.364 67.5894 36.1382 67.783 35.8486C67.9767 35.5589 68.0801 35.2183 68.0801 34.87C68.0801 34.4028 67.8944 33.9548 67.5639 33.6244C67.2334 33.2941 66.7851 33.1085 66.3177 33.1085Z" fill="url(#paint4_linear_505_10463)" shape-rendering="crispEdges"/>
<path d="M61.0304 33.1085C60.6818 33.1085 60.3411 33.2118 60.0513 33.4054C59.7614 33.5989 59.5356 33.874 59.4022 34.1959C59.2688 34.5177 59.2339 34.8719 59.3019 35.2136C59.3699 35.5553 59.5377 35.8691 59.7842 36.1155C60.0307 36.3618 60.3447 36.5296 60.6866 36.5976C61.0285 36.6655 61.3828 36.6306 61.7049 36.4973C62.0269 36.364 62.3022 36.1382 62.4958 35.8486C62.6895 35.5589 62.7928 35.2183 62.7928 34.87C62.7928 34.4028 62.6071 33.9548 62.2766 33.6244C61.9461 33.2941 61.4978 33.1085 61.0304 33.1085Z" fill="url(#paint5_linear_505_10463)" shape-rendering="crispEdges"/>
<path d="M61.0304 43.6772C60.6818 43.6772 60.3411 43.7805 60.0513 43.9741C59.7614 44.1676 59.5356 44.4427 59.4022 44.7646C59.2688 45.0864 59.2339 45.4406 59.3019 45.7823C59.3699 46.124 59.5377 46.4379 59.7842 46.6842C60.0307 46.9305 60.3447 47.0983 60.6866 47.1663C61.0285 47.2342 61.3828 47.1994 61.7049 47.066C62.0269 46.9327 62.3022 46.7069 62.4958 46.4173C62.6895 46.1276 62.7928 45.787 62.7928 45.4387C62.7928 44.9715 62.6071 44.5235 62.2766 44.1931C61.9461 43.8628 61.4978 43.6772 61.0304 43.6772Z" fill="url(#paint6_linear_505_10463)" shape-rendering="crispEdges"/>
<path d="M66.3177 43.6772C65.9691 43.6772 65.6283 43.7805 65.3385 43.9741C65.0487 44.1676 64.8228 44.4427 64.6894 44.7646C64.556 45.0864 64.5211 45.4406 64.5891 45.7823C64.6571 46.124 64.825 46.4379 65.0714 46.6842C65.3179 46.9305 65.6319 47.0983 65.9738 47.1663C66.3157 47.2342 66.6701 47.1994 66.9921 47.066C67.3141 46.9327 67.5894 46.7069 67.783 46.4173C67.9767 46.1276 68.0801 45.787 68.0801 45.4387C68.0801 44.9715 67.8944 44.5235 67.5639 44.1931C67.2334 43.8628 66.7851 43.6772 66.3177 43.6772Z" fill="url(#paint7_linear_505_10463)" shape-rendering="crispEdges"/>
<path d="M44.995 54.2459H39.7077C39.2403 54.2459 38.792 54.4315 38.4615 54.7618C38.131 55.0922 37.9453 55.5402 37.9453 56.0074C37.9453 56.4745 38.131 56.9226 38.4615 57.2529C38.792 57.5832 39.2403 57.7688 39.7077 57.7688H44.995C45.4624 57.7688 45.9107 57.5832 46.2412 57.2529C46.5717 56.9226 46.7574 56.4745 46.7574 56.0074C46.7574 55.5402 46.5717 55.0922 46.2412 54.7618C45.9107 54.4315 45.4624 54.2459 44.995 54.2459Z" fill="url(#paint8_linear_505_10463)" shape-rendering="crispEdges"/>
<path d="M61.0304 54.2459C60.6818 54.2459 60.3411 54.3492 60.0513 54.5428C59.7614 54.7363 59.5356 55.0114 59.4022 55.3333C59.2688 55.6552 59.2339 56.0093 59.3019 56.351C59.3699 56.6927 59.5377 57.0066 59.7842 57.2529C60.0307 57.4992 60.3447 57.667 60.6866 57.735C61.0285 57.8029 61.3828 57.7681 61.7049 57.6347C62.0269 57.5014 62.3022 57.2756 62.4958 56.986C62.6895 56.6963 62.7928 56.3557 62.7928 56.0074C62.7928 55.5402 62.6071 55.0922 62.2766 54.7618C61.9461 54.4315 61.4978 54.2459 61.0304 54.2459Z" fill="url(#paint9_linear_505_10463)" shape-rendering="crispEdges"/>
<path fill-rule="evenodd" clip-rule="evenodd" d="M71.8187 29.3719C72.8103 30.3629 73.3673 31.707 73.3673 33.1085V36.6314C73.3595 37.935 72.8699 39.1897 71.9926 40.1543C72.8699 41.1189 73.3595 42.3736 73.3673 43.6772V47.2001C73.3595 48.5037 72.8699 49.7584 71.9926 50.723C72.8699 51.6876 73.3595 52.9423 73.3673 54.2459V57.7688C73.3673 59.1703 72.8103 60.5144 71.8187 61.5054C70.8272 62.4964 69.4823 63.0532 68.0801 63.0532H37.4489C36.0466 63.0532 34.7018 62.4964 33.7102 61.5054C32.7187 60.5144 32.1616 59.1703 32.1616 57.7688V54.2459C32.1694 52.9423 32.659 51.6876 33.5363 50.723C32.659 49.7584 32.1694 48.5037 32.1616 47.2001V43.6772C32.1694 42.3736 32.659 41.1189 33.5363 40.1543C32.659 39.1897 32.1694 37.935 32.1616 36.6314V33.1085C32.1616 31.707 32.7187 30.3629 33.7102 29.3719C34.7018 28.3809 36.0466 27.8242 37.4489 27.8242H68.0801C69.4823 27.8242 70.8272 28.3809 71.8187 29.3719ZM69.3263 59.0144C69.6568 58.684 69.8425 58.236 69.8425 57.7688V54.2459C69.8425 53.7787 69.6568 53.3307 69.3263 53.0004C68.9958 52.67 68.5475 52.4845 68.0801 52.4845H37.4489C36.9814 52.4845 36.5332 52.67 36.2026 53.0004C35.8721 53.3307 35.6864 53.7787 35.6864 54.2459V57.7688C35.6864 58.236 35.8721 58.684 36.2026 59.0144C36.5332 59.3447 36.9814 59.5303 37.4489 59.5303H68.0801C68.5475 59.5303 68.9958 59.3447 69.3263 59.0144ZM69.3263 48.4456C69.6568 48.1153 69.8425 47.6673 69.8425 47.2001V43.6772C69.8425 43.21 69.6568 42.762 69.3263 42.4317C68.9958 42.1013 68.5475 41.9158 68.0801 41.9158H37.4489C36.9814 41.9158 36.5332 42.1013 36.2026 42.4317C35.8721 42.762 35.6864 43.21 35.6864 43.6772V47.2001C35.6864 47.6673 35.8721 48.1153 36.2026 48.4456C36.5332 48.776 36.9814 48.9616 37.4489 48.9616H68.0801C68.5475 48.9616 68.9958 48.776 69.3263 48.4456ZM69.3263 37.8769C69.6568 37.5466 69.8425 37.0986 69.8425 36.6314V33.1085C69.8425 32.6413 69.6568 32.1933 69.3263 31.863C68.9958 31.5326 68.5475 31.3471 68.0801 31.3471H37.4489C36.9814 31.3471 36.5332 31.5326 36.2026 31.863C35.8721 32.1933 35.6864 32.6413 35.6864 33.1085V36.6314C35.6864 37.0986 35.8721 37.5466 36.2026 37.8769C36.5332 38.2073 36.9814 38.3929 37.4489 38.3929H68.0801C68.5475 38.3929 68.9958 38.2073 69.3263 37.8769Z" fill="url(#paint10_linear_505_10463)" fill-opacity="0.9" shape-rendering="crispEdges"/>
<path d="M66.3177 54.2459C65.9691 54.2459 65.6283 54.3492 65.3385 54.5428C65.0487 54.7363 64.8228 55.0114 64.6894 55.3333C64.556 55.6552 64.5211 56.0093 64.5891 56.351C64.6571 56.6927 64.825 57.0066 65.0714 57.2529C65.3179 57.4992 65.6319 57.667 65.9738 57.735C66.3157 57.8029 66.6701 57.7681 66.9921 57.6347C67.3141 57.5014 67.5894 57.2756 67.783 56.986C67.9767 56.6963 68.0801 56.3557 68.0801 56.0074C68.0801 55.5402 67.8944 55.0922 67.5639 54.7618C67.2334 54.4315 66.7851 54.2459 66.3177 54.2459Z" fill="url(#paint11_linear_505_10463)" shape-rendering="crispEdges"/>
<path fill-rule="evenodd" clip-rule="evenodd" d="M69.8425 36.6314C69.8425 37.0986 69.6568 37.5466 69.3263 37.8769C68.9958 38.2073 68.5475 38.3929 68.0801 38.3929H37.4489C36.9814 38.3929 36.5332 38.2073 36.2026 37.8769C35.8721 37.5466 35.6864 37.0986 35.6864 36.6314V33.1085C35.6864 32.6413 35.8721 32.1933 36.2026 31.863C36.5332 31.5326 36.9814 31.3471 37.4489 31.3471H68.0801C68.5475 31.3471 68.9958 31.5326 69.3263 31.863C69.6568 32.1933 69.8425 32.6413 69.8425 33.1085V36.6314ZM65.3385 33.4054C65.6283 33.2118 65.9691 33.1085 66.3177 33.1085C66.7851 33.1085 67.2334 33.2941 67.5639 33.6244C67.8944 33.9548 68.0801 34.4028 68.0801 34.87C68.0801 35.2183 67.9767 35.5589 67.783 35.8486C67.5894 36.1382 67.3141 36.364 66.9921 36.4973C66.6701 36.6306 66.3157 36.6655 65.9738 36.5976C65.6319 36.5296 65.3179 36.3618 65.0714 36.1155C64.825 35.8691 64.6571 35.5553 64.5891 35.2136C64.5211 34.8719 64.556 34.5177 64.6894 34.1959C64.8228 33.874 65.0487 33.5989 65.3385 33.4054ZM60.0513 33.4054C60.3411 33.2118 60.6818 33.1085 61.0304 33.1085C61.4978 33.1085 61.9461 33.2941 62.2766 33.6244C62.6071 33.9548 62.7928 34.4028 62.7928 34.87C62.7928 35.2183 62.6895 35.5589 62.4958 35.8486C62.3022 36.1382 62.0269 36.364 61.7049 36.4973C61.3828 36.6306 61.0285 36.6655 60.6866 36.5976C60.3447 36.5296 60.0307 36.3618 59.7842 36.1155C59.5377 35.8691 59.3699 35.5553 59.3019 35.2136C59.2339 34.8719 59.2688 34.5177 59.4022 34.1959C59.5356 33.874 59.7614 33.5989 60.0513 33.4054ZM39.7077 33.1085H44.995C45.4624 33.1085 45.9107 33.2941 46.2412 33.6244C46.5717 33.9548 46.7574 34.4028 46.7574 34.87C46.7574 35.3371 46.5717 35.7852 46.2412 36.1155C45.9107 36.4458 45.4624 36.6314 44.995 36.6314H39.7077C39.2403 36.6314 38.792 36.4458 38.4615 36.1155C38.131 35.7852 37.9453 35.3371 37.9453 34.87C37.9453 34.4028 38.131 33.9548 38.4615 33.6244C38.792 33.2941 39.2403 33.1085 39.7077 33.1085Z" fill="white" shape-rendering="crispEdges"/>
<path fill-rule="evenodd" clip-rule="evenodd" d="M69.8425 47.2001C69.8425 47.6673 69.6568 48.1153 69.3263 48.4456C68.9958 48.776 68.5475 48.9616 68.0801 48.9616H37.4489C36.9814 48.9616 36.5332 48.776 36.2026 48.4456C35.8721 48.1153 35.6864 47.6673 35.6864 47.2001V43.6772C35.6864 43.21 35.8721 42.762 36.2026 42.4317C36.5332 42.1013 36.9814 41.9158 37.4489 41.9158H68.0801C68.5475 41.9158 68.9958 42.1013 69.3263 42.4317C69.6568 42.762 69.8425 43.21 69.8425 43.6772V47.2001ZM60.0513 43.9741C60.3411 43.7805 60.6818 43.6772 61.0304 43.6772C61.4978 43.6772 61.9461 43.8628 62.2766 44.1931C62.6071 44.5235 62.7928 44.9715 62.7928 45.4387C62.7928 45.787 62.6895 46.1276 62.4958 46.4173C62.3022 46.7069 62.0269 46.9327 61.7049 47.066C61.3828 47.1994 61.0285 47.2342 60.6866 47.1663C60.3447 47.0983 60.0307 46.9305 59.7842 46.6842C59.5377 46.4379 59.3699 46.124 59.3019 45.7823C59.2339 45.4406 59.2688 45.0864 59.4022 44.7646C59.5356 44.4427 59.7614 44.1676 60.0513 43.9741ZM39.7077 43.6772H44.995C45.4624 43.6772 45.9107 43.8628 46.2412 44.1931C46.5717 44.5235 46.7574 44.9715 46.7574 45.4387C46.7574 45.9058 46.5717 46.3539 46.2412 46.6842C45.9107 47.0145 45.4624 47.2001 44.995 47.2001H39.7077C39.2403 47.2001 38.792 47.0145 38.4615 46.6842C38.131 46.3539 37.9453 45.9058 37.9453 45.4387C37.9453 44.9715 38.131 44.5235 38.4615 44.1931C38.792 43.8628 39.2403 43.6772 39.7077 43.6772ZM65.3385 43.9741C65.6283 43.7805 65.9691 43.6772 66.3177 43.6772C66.7851 43.6772 67.2334 43.8628 67.5639 44.1931C67.8944 44.5235 68.0801 44.9715 68.0801 45.4387C68.0801 45.787 67.9767 46.1276 67.783 46.4173C67.5894 46.7069 67.3141 46.9327 66.9921 47.066C66.6701 47.1994 66.3157 47.2342 65.9738 47.1663C65.6319 47.0983 65.3179 46.9305 65.0714 46.6842C64.825 46.4379 64.6571 46.124 64.5891 45.7823C64.5211 45.4406 64.556 45.0864 64.6894 44.7646C64.8228 44.4427 65.0487 44.1676 65.3385 43.9741Z" fill="white" shape-rendering="crispEdges"/>
<path fill-rule="evenodd" clip-rule="evenodd" d="M69.8425 57.7688C69.8425 58.236 69.6568 58.684 69.3263 59.0144C68.9958 59.3447 68.5475 59.5303 68.0801 59.5303H37.4489C36.9814 59.5303 36.5332 59.3447 36.2026 59.0144C35.8721 58.684 35.6864 58.236 35.6864 57.7688V54.2459C35.6864 53.7787 35.8721 53.3307 36.2026 53.0004C36.5332 52.67 36.9814 52.4845 37.4489 52.4845H68.0801C68.5475 52.4845 68.9958 52.67 69.3263 53.0004C69.6568 53.3307 69.8425 53.7787 69.8425 54.2459V57.7688ZM60.0513 54.5428C60.3411 54.3492 60.6818 54.2459 61.0304 54.2459C61.4978 54.2459 61.9461 54.4315 62.2766 54.7618C62.6071 55.0922 62.7928 55.5402 62.7928 56.0074C62.7928 56.3557 62.6895 56.6963 62.4958 56.986C62.3022 57.2756 62.0269 57.5014 61.7049 57.6347C61.3828 57.7681 61.0285 57.8029 60.6866 57.735C60.3447 57.667 60.0307 57.4992 59.7842 57.2529C59.5377 57.0066 59.3699 56.6927 59.3019 56.351C59.2339 56.0093 59.2688 55.6552 59.4022 55.3333C59.5356 55.0114 59.7614 54.7363 60.0513 54.5428ZM39.7077 54.2459H44.995C45.4624 54.2459 45.9107 54.4315 46.2412 54.7618C46.5717 55.0922 46.7574 55.5402 46.7574 56.0074C46.7574 56.4745 46.5717 56.9226 46.2412 57.2529C45.9107 57.5832 45.4624 57.7688 44.995 57.7688H39.7077C39.2403 57.7688 38.792 57.5832 38.4615 57.2529C38.131 56.9226 37.9453 56.4745 37.9453 56.0074C37.9453 55.5402 38.131 55.0922 38.4615 54.7618C38.792 54.4315 39.2403 54.2459 39.7077 54.2459ZM65.3385 54.5428C65.6283 54.3492 65.9691 54.2459 66.3177 54.2459C66.7851 54.2459 67.2334 54.4315 67.5639 54.7618C67.8944 55.0922 68.0801 55.5402 68.0801 56.0074C68.0801 56.3557 67.9767 56.6963 67.783 56.986C67.5894 57.2756 67.3141 57.5014 66.9921 57.6347C66.6701 57.7681 66.3157 57.8029 65.9738 57.735C65.6319 57.667 65.3179 57.4992 65.0714 57.2529C64.825 57.0066 64.6571 56.6927 64.5891 56.351C64.5211 56.0093 64.556 55.6552 64.6894 55.3333C64.8228 55.0114 65.0487 54.7363 65.3385 54.5428Z" fill="white" shape-rendering="crispEdges"/>
</g>
<defs>
<filter id="filter0_f_505_10463" x="0.333549" y="0.460075" width="52.7775" height="52.7446" filterUnits="userSpaceOnUse" color-interpolation-filters="sRGB">
<feFlood flood-opacity="0" result="BackgroundImageFix"/>
<feBlend mode="normal" in="SourceGraphic" in2="BackgroundImageFix" result="shape"/>
<feGaussianBlur stdDeviation="8.9686" result="effect1_foregroundBlur_505_10463"/>
</filter>
<filter id="filter1_f_505_10463" x="35.6316" y="6.91045" width="56.2575" height="55.2255" filterUnits="userSpaceOnUse" color-interpolation-filters="sRGB">
<feFlood flood-opacity="0" result="BackgroundImageFix"/>
<feBlend mode="normal" in="SourceGraphic" in2="BackgroundImageFix" result="shape"/>
<feGaussianBlur stdDeviation="8.9686" result="effect1_foregroundBlur_505_10463"/>
</filter>
<filter id="filter2_d_505_10463" x="30.1686" y="27.8242" width="45.1917" height="39.215" filterUnits="userSpaceOnUse" color-interpolation-filters="sRGB">
<feFlood flood-opacity="0" result="BackgroundImageFix"/>
<feColorMatrix in="SourceAlpha" type="matrix" values="0 0 0 0 0 0 0 0 0 0 0 0 0 0 0 0 0 0 127 0" result="hardAlpha"/>
<feOffset dy="1.99302"/>
<feGaussianBlur stdDeviation="0.996511"/>
<feComposite in2="hardAlpha" operator="out"/>
<feColorMatrix type="matrix" values="0 0 0 0 0 0 0 0 0 0 0 0 0 0 0 0 0 0 0.25 0"/>
<feBlend mode="normal" in2="BackgroundImageFix" result="effect1_dropShadow_505_10463"/>
<feBlend mode="normal" in="SourceGraphic" in2="effect1_dropShadow_505_10463" result="shape"/>
</filter>
<linearGradient id="paint0_linear_505_10463" x1="78.3441" y1="16.8061" x2="44.5081" y2="91.6181" gradientUnits="userSpaceOnUse">
<stop stop-color="#7F31DA"/>
<stop offset="0.325806" stop-color="#D669F4"/>
<stop offset="0.653937" stop-color="#FF5CAA"/>
<stop offset="1" stop-color="#FF9883"/>
</linearGradient>
<linearGradient id="paint1_linear_505_10463" x1="78.3441" y1="16.8061" x2="44.5081" y2="91.6181" gradientUnits="userSpaceOnUse">
<stop stop-color="#7F31DA"/>
<stop offset="0.325806" stop-color="#D669F4"/>
<stop offset="0.653937" stop-color="#FF5CAA"/>
<stop offset="1" stop-color="#FF9883"/>
</linearGradient>
<linearGradient id="paint2_linear_505_10463" x1="71.2108" y1="34.2229" x2="53.7503" y2="75.7167" gradientUnits="userSpaceOnUse">
<stop stop-color="#7F31DA"/>
<stop offset="0.325806" stop-color="#D669F4"/>
<stop offset="0.653937" stop-color="#FF5CAA"/>
<stop offset="1" stop-color="#FF9883"/>
</linearGradient>
<linearGradient id="paint3_linear_505_10463" x1="71.2108" y1="34.2229" x2="53.7503" y2="75.7167" gradientUnits="userSpaceOnUse">
<stop stop-color="#7F31DA"/>
<stop offset="0.325806" stop-color="#D669F4"/>
<stop offset="0.653937" stop-color="#FF5CAA"/>
<stop offset="1" stop-color="#FF9883"/>
</linearGradient>
<linearGradient id="paint4_linear_505_10463" x1="71.2108" y1="34.2229" x2="53.7503" y2="75.7167" gradientUnits="userSpaceOnUse">
<stop stop-color="#7F31DA"/>
<stop offset="0.325806" stop-color="#D669F4"/>
<stop offset="0.653937" stop-color="#FF5CAA"/>
<stop offset="1" stop-color="#FF9883"/>
</linearGradient>
<linearGradient id="paint5_linear_505_10463" x1="71.2108" y1="34.2229" x2="53.7503" y2="75.7167" gradientUnits="userSpaceOnUse">
<stop stop-color="#7F31DA"/>
<stop offset="0.325806" stop-color="#D669F4"/>
<stop offset="0.653937" stop-color="#FF5CAA"/>
<stop offset="1" stop-color="#FF9883"/>
</linearGradient>
<linearGradient id="paint6_linear_505_10463" x1="71.2108" y1="34.2229" x2="53.7503" y2="75.7167" gradientUnits="userSpaceOnUse">
<stop stop-color="#7F31DA"/>
<stop offset="0.325806" stop-color="#D669F4"/>
<stop offset="0.653937" stop-color="#FF5CAA"/>
<stop offset="1" stop-color="#FF9883"/>
</linearGradient>
<linearGradient id="paint7_linear_505_10463" x1="71.2108" y1="34.2229" x2="53.7503" y2="75.7167" gradientUnits="userSpaceOnUse">
<stop stop-color="#7F31DA"/>
<stop offset="0.325806" stop-color="#D669F4"/>
<stop offset="0.653937" stop-color="#FF5CAA"/>
<stop offset="1" stop-color="#FF9883"/>
</linearGradient>
<linearGradient id="paint8_linear_505_10463" x1="71.2108" y1="34.2229" x2="53.7503" y2="75.7167" gradientUnits="userSpaceOnUse">
<stop stop-color="#7F31DA"/>
<stop offset="0.325806" stop-color="#D669F4"/>
<stop offset="0.653937" stop-color="#FF5CAA"/>
<stop offset="1" stop-color="#FF9883"/>
</linearGradient>
<linearGradient id="paint9_linear_505_10463" x1="71.2108" y1="34.2229" x2="53.7503" y2="75.7167" gradientUnits="userSpaceOnUse">
<stop stop-color="#7F31DA"/>
<stop offset="0.325806" stop-color="#D669F4"/>
<stop offset="0.653937" stop-color="#FF5CAA"/>
<stop offset="1" stop-color="#FF9883"/>
</linearGradient>
<linearGradient id="paint10_linear_505_10463" x1="55.7432" y1="27.8242" x2="55.7432" y2="63.0532" gradientUnits="userSpaceOnUse">
<stop stop-color="#FBFBFB"/>
<stop offset="0.530671" stop-color="#DBC8F9" stop-opacity="0.573497"/>
<stop offset="1" stop-color="#7FC0FC" stop-opacity="0.2"/>
</linearGradient>
<linearGradient id="paint11_linear_505_10463" x1="71.2108" y1="34.2229" x2="53.7503" y2="75.7167" gradientUnits="userSpaceOnUse">
<stop stop-color="#7F31DA"/>
<stop offset="0.325806" stop-color="#D669F4"/>
<stop offset="0.653937" stop-color="#FF5CAA"/>
<stop offset="1" stop-color="#FF9883"/>
</linearGradient>
</defs>
</svg>
