<svg width="113" height="105" viewBox="0 0 113 105" fill="none" xmlns="http://www.w3.org/2000/svg">
<g clip-path="url(#clip0_1_2)">
<path d="M61.4046 63.2821H40.7209C40.007 63.2821 39.4282 63.8609 39.4282 64.5748V67.1603C39.4282 67.8742 40.007 68.453 40.7209 68.453H61.4046C62.1185 68.453 62.6973 67.8742 62.6973 67.1603V64.5748C62.6973 63.8609 62.1185 63.2821 61.4046 63.2821Z" fill="#5F1BAB"/>
<path d="M39.4276 26.4391C39.4276 25.7251 40.0064 25.1464 40.7203 25.1464H70.453C71.167 25.1464 71.7457 25.7251 71.7457 26.4391C71.7457 27.153 71.167 27.7318 70.453 27.7318H40.7203C40.0064 27.7318 39.4276 27.153 39.4276 26.4391Z" fill="#606060"/>
<path fill-rule="evenodd" clip-rule="evenodd" d="M40.7203 31.61C40.0064 31.61 39.4276 32.1888 39.4276 32.9027V35.4882C39.4276 36.2021 40.0064 36.7809 40.7203 36.7809H80.7948C81.5088 36.7809 82.0875 36.2021 82.0875 35.4882V32.9027C82.0875 32.1888 81.5088 31.61 80.7948 31.61H40.7203ZM80.7948 32.9027H40.7203V35.4882H80.7948V32.9027Z" fill="#606060"/>
<path fill-rule="evenodd" clip-rule="evenodd" d="M39.4276 41.9518C39.4276 41.2378 40.0064 40.6591 40.7203 40.6591H80.7948C81.5088 40.6591 82.0875 41.2378 82.0875 41.9518V44.5372C82.0875 45.2512 81.5088 45.83 80.7948 45.83H40.7203C40.0064 45.83 39.4276 45.2512 39.4276 44.5372V41.9518ZM40.7203 41.9518H80.7948V44.5372H40.7203V41.9518Z" fill="#606060"/>
<path fill-rule="evenodd" clip-rule="evenodd" d="M40.7203 49.7081C40.0064 49.7081 39.4276 50.2869 39.4276 51.0009V56.1718C39.4276 56.8857 40.0064 57.4645 40.7203 57.4645H80.7948C81.5088 57.4645 82.0875 56.8857 82.0875 56.1718V51.0009C82.0875 50.2869 81.5088 49.7081 80.7948 49.7081H40.7203ZM80.7948 51.0009H40.7203V56.1718H80.7948V51.0009Z" fill="#606060"/>
<path fill-rule="evenodd" clip-rule="evenodd" d="M80.7948 66.5136C80.7948 69.7264 78.1903 72.3308 74.9776 72.3308C71.7648 72.3308 69.1603 69.7264 69.1603 66.5136C69.1603 63.3008 71.7648 60.6963 74.9776 60.6963C78.1903 60.6963 80.7948 63.3008 80.7948 66.5136ZM79.5021 66.5136C79.5021 69.0124 77.4764 71.0381 74.9776 71.0381C72.4787 71.0381 70.453 69.0124 70.453 66.5136C70.453 64.0147 72.4787 61.989 74.9776 61.989C77.4764 61.989 79.5021 64.0147 79.5021 66.5136Z" fill="#606060"/>
<path fill-rule="evenodd" clip-rule="evenodd" d="M33.6104 21.2682C33.6104 18.7694 35.6361 16.7437 38.1349 16.7437H83.3803C85.8791 16.7437 87.9048 18.7694 87.9048 21.2682V83.319C87.9048 85.8178 85.8791 87.8435 83.3803 87.8435H38.1349C35.6361 87.8435 33.6104 85.8178 33.6104 83.319V21.2682ZM38.1349 18.0364C36.35 18.0364 34.9031 19.4833 34.9031 21.2682V83.319C34.9031 85.1039 36.35 86.5508 38.1349 86.5508H83.3803C85.1651 86.5508 86.6121 85.1039 86.6121 83.319V21.2682C86.6121 19.4833 85.1651 18.0364 83.3803 18.0364H38.1349Z" fill="#606060"/>
<path d="M72.9253 66.5136L74.6363 68.2246L77.3738 65.4871" stroke="#18A75A" stroke-width="1.29273" stroke-linecap="round" stroke-linejoin="round"/>
<path fill-rule="evenodd" clip-rule="evenodd" d="M60.8724 102.232C88.3891 102.232 110.696 79.925 110.696 52.4083C110.696 24.8915 88.3891 2.58472 60.8724 2.58472C48.5775 2.58472 37.3263 7.03573 28.6361 14.4172C30.2176 16.9895 31.1303 20.0188 31.1303 23.2574C31.1303 32.5906 23.5643 40.1567 14.2311 40.1567C13.6765 40.1567 13.1277 40.1299 12.586 40.0775C11.5826 44.0191 11.0488 48.15 11.0488 52.4083C11.0488 79.925 33.3556 102.232 60.8724 102.232ZM11.1267 37.8328C12.128 38.045 13.1665 38.1567 14.2311 38.1567C22.4597 38.1567 29.1303 31.4861 29.1303 23.2574C29.1303 19.8011 27.9534 16.6197 25.9785 14.092C35.1873 5.70093 47.4324 0.584717 60.8724 0.584717C89.4937 0.584717 112.696 23.7869 112.696 52.4083C112.696 81.0296 89.4937 104.232 60.8724 104.232C32.251 104.232 9.04883 81.0296 9.04883 52.4083C9.04883 47.3476 9.77421 42.4563 11.1267 37.8328Z" fill="url(#paint0_linear_1_2)"/>
<path fill-rule="evenodd" clip-rule="evenodd" d="M13.5736 34.1347C19.9655 34.1347 25.1472 28.953 25.1472 22.561C25.1472 16.1691 19.9655 10.9874 13.5736 10.9874C7.18168 10.9874 2 16.1691 2 22.561C2 28.953 7.18168 34.1347 13.5736 34.1347ZM13.5736 36.1347C21.0701 36.1347 27.1472 30.0575 27.1472 22.561C27.1472 15.0645 21.0701 8.98743 13.5736 8.98743C6.07711 8.98743 0 15.0645 0 22.561C0 30.0575 6.07711 36.1347 13.5736 36.1347Z" fill="url(#paint1_linear_1_2)"/>
<path d="M15.6146 15.7078V29.9265H12.3236V19.4187L9.08136 20.366V17.866L15.3118 15.7078H15.6146Z" fill="#8435DC"/>
</g>
<defs>
<linearGradient id="paint0_linear_1_2" x1="107.271" y1="19.4104" x2="50.3384" y2="135.084" gradientUnits="userSpaceOnUse">
<stop stop-color="#7F31DA"/>
<stop offset="0.325806" stop-color="#D669F4"/>
<stop offset="0.653937" stop-color="#FF5CAA"/>
<stop offset="1" stop-color="#FF9883"/>
</linearGradient>
<linearGradient id="paint1_linear_1_2" x1="25.7265" y1="13.9183" x2="10.8146" y2="44.2154" gradientUnits="userSpaceOnUse">
<stop stop-color="#7F31DA"/>
<stop offset="0.325806" stop-color="#D669F4"/>
<stop offset="0.653937" stop-color="#FF5CAA"/>
<stop offset="1" stop-color="#FF9883"/>
</linearGradient>
<clipPath id="clip0_1_2">
<rect width="113" height="105" fill="white"/>
</clipPath>
</defs>
</svg>
