<svg width="168" height="146" viewBox="0 0 168 146" fill="none" xmlns="http://www.w3.org/2000/svg">
<path fill-rule="evenodd" clip-rule="evenodd" d="M84.3748 102.232C111.892 102.232 134.198 79.925 134.198 52.4083C134.198 24.8915 111.892 2.58472 84.3748 2.58472C72.08 2.58472 60.8289 7.03568 52.1387 14.4171C53.7203 16.9895 54.6331 20.0188 54.6331 23.2575C54.6331 32.5908 47.067 40.1568 37.7338 40.1568C37.1791 40.1568 36.6302 40.13 36.0884 40.0776C35.085 44.0191 34.5513 48.15 34.5513 52.4083C34.5513 79.925 56.858 102.232 84.3748 102.232ZM34.6291 37.8329C35.6305 38.0451 36.6691 38.1568 37.7338 38.1568C45.9624 38.1568 52.6331 31.4862 52.6331 23.2575C52.6331 19.8011 51.4561 16.6196 49.4811 14.0919C58.6898 5.70088 70.9348 0.584717 84.3748 0.584717C112.996 0.584717 136.198 23.7869 136.198 52.4083C136.198 81.0296 112.996 104.232 84.3748 104.232C55.7535 104.232 32.5513 81.0296 32.5513 52.4083C32.5513 47.3476 33.2766 42.4564 34.6291 37.8329Z" fill="url(#paint0_linear_1099_7981)"/>
<path fill-rule="evenodd" clip-rule="evenodd" d="M37.0761 34.1347C43.468 34.1347 48.6497 28.953 48.6497 22.561C48.6497 16.1691 43.468 10.9874 37.0761 10.9874C30.6841 10.9874 25.5024 16.1691 25.5024 22.561C25.5024 28.953 30.6841 34.1347 37.0761 34.1347ZM37.0761 36.1347C44.5726 36.1347 50.6497 30.0575 50.6497 22.561C50.6497 15.0645 44.5726 8.98743 37.0761 8.98743C29.5796 8.98743 23.5024 15.0645 23.5024 22.561C23.5024 30.0575 29.5796 36.1347 37.0761 36.1347Z" fill="url(#paint1_linear_1099_7981)"/>
<path d="M41.7527 26.3876V28.9266H31.8309V26.7782L36.4012 21.9735C36.8048 21.5113 37.1304 21.0979 37.3777 20.7333C37.6251 20.3622 37.8042 20.0269 37.9149 19.7274C38.032 19.4279 38.0906 19.1578 38.0906 18.9169C38.0906 18.5067 38.0288 18.1649 37.9051 17.8915C37.7879 17.6115 37.6121 17.3999 37.3777 17.2567C37.1499 17.1135 36.8667 17.0419 36.5281 17.0419C36.1896 17.0419 35.8934 17.1395 35.6395 17.3348C35.3856 17.5302 35.187 17.7971 35.0438 18.1356C34.907 18.4742 34.8387 18.855 34.8387 19.2782H31.5379C31.5379 18.4058 31.7495 17.6083 32.1727 16.8856C32.6024 16.163 33.1981 15.5868 33.9598 15.1571C34.7215 14.7209 35.6037 14.5028 36.6063 14.5028C37.6544 14.5028 38.5333 14.6656 39.243 14.9911C39.9526 15.3166 40.4865 15.7886 40.8445 16.4071C41.2091 17.0191 41.3914 17.758 41.3914 18.6239C41.3914 19.1187 41.3133 19.594 41.157 20.0497C41.0008 20.5054 40.7762 20.9579 40.4832 21.4071C40.1902 21.8498 39.8322 22.3055 39.409 22.7743C38.9923 23.243 38.5171 23.7411 37.9832 24.2684L36.1473 26.3876H41.7527Z" fill="#8435DC"/>
<path d="M81.3746 20.6973C80.7018 20.5267 79.9979 20.5991 79.4459 20.908C78.8842 21.2222 78.4899 21.7793 78.4705 22.5246C78.4401 23.6893 78.7097 25.2516 79.78 27.0873C80.8368 28.8984 82.0035 29.9843 82.9718 30.6293C83.5832 31.0372 84.2587 31.0482 84.8359 30.7825C85.404 30.5207 85.8662 29.9978 86.106 29.3495C86.2262 29.0231 86.1984 28.6605 86.0284 28.3567L85.5081 27.4292C85.4033 27.242 85.2622 27.0776 85.0931 26.9456C84.9241 26.8135 84.7304 26.7164 84.5234 26.66C84.3165 26.6035 84.1003 26.5889 83.8876 26.6168C83.675 26.6448 83.47 26.7149 83.2846 26.8229L83.0022 26.9877C82.7772 27.1189 82.5471 27.0879 82.4217 26.956C82.0003 26.5152 81.617 25.8715 81.4438 25.291C81.3953 25.1288 81.4729 24.9239 81.6842 24.7901L82.1948 24.4656C82.546 24.2427 82.7977 23.8929 82.8975 23.4891C82.9973 23.0853 82.9376 22.6586 82.7307 22.2977L82.1503 21.2855C81.9822 20.9927 81.7023 20.7801 81.3746 20.6973Z" fill="#18A75A"/>
<path d="M85.1415 20.6341C85.2239 20.6106 85.3123 20.6208 85.3872 20.6624L85.6348 20.8001C86.5016 21.2815 87.2389 21.9657 87.7837 22.7942C88.3285 23.6226 88.6646 24.5707 88.7632 25.5573L88.7832 25.7603C88.7895 25.8035 88.787 25.8475 88.7758 25.8897C88.7646 25.9319 88.745 25.9713 88.7181 26.0057C88.6913 26.0402 88.6577 26.0688 88.6195 26.0898C88.5813 26.1109 88.5392 26.124 88.4958 26.1284C88.4523 26.1328 88.4085 26.1283 88.3668 26.1153C88.3252 26.1022 88.2866 26.0809 88.2534 26.0525C88.2202 26.0241 88.1932 25.9894 88.1738 25.9502C88.1544 25.9111 88.1432 25.8685 88.1407 25.8249L88.1201 25.6213C88.0317 24.7387 87.731 23.8906 87.2436 23.1496C86.7563 22.4085 86.0967 21.7964 85.3213 21.3657L85.0731 21.2273C84.9982 21.1857 84.9429 21.116 84.9194 21.0335C84.8959 20.9511 84.9061 20.8627 84.9477 20.7878C84.9894 20.7129 85.0591 20.6576 85.1415 20.6341Z" fill="#18A75A"/>
<path d="M84.8285 22.2476C84.7454 22.2683 84.6738 22.3212 84.6297 22.3947C84.6079 22.4311 84.5941 22.4714 84.5879 22.5134C84.5816 22.5554 84.5838 22.5982 84.5941 22.6394C84.6044 22.6806 84.6227 22.7193 84.648 22.7534C84.6733 22.7875 84.7051 22.8163 84.7415 22.8381L84.8217 22.8859C85.263 23.1508 85.6416 23.5084 85.9311 23.9339C86.2207 24.3594 86.4145 24.8427 86.499 25.3505L86.5281 25.5224C86.5339 25.5653 86.5482 25.6065 86.5703 25.6438C86.5923 25.681 86.6216 25.7134 86.6564 25.7391C86.6913 25.7648 86.7309 25.7832 86.7729 25.7933C86.815 25.8034 86.8587 25.8049 86.9013 25.7978C86.944 25.7907 86.9848 25.7751 87.0214 25.752C87.0579 25.7288 87.0894 25.6985 87.114 25.663C87.1387 25.6274 87.1559 25.5872 87.1647 25.5449C87.1735 25.5025 87.1738 25.4589 87.1654 25.4164L87.1369 25.2438C87.0368 24.6438 86.8076 24.0727 86.4651 23.5699C86.1226 23.0672 85.675 22.6448 85.1533 22.332L85.0731 22.2841C84.9996 22.24 84.9117 22.2269 84.8285 22.2476Z" fill="#18A75A"/>
<path d="M93.1204 55.0689C93.3728 55.3213 93.3728 55.7305 93.1204 55.983L91.5045 57.5989C91.3772 57.7262 91.2025 57.7946 91.0226 57.7877C90.8427 57.7808 90.6738 57.6992 90.5567 57.5625L89.5871 56.4313C89.3548 56.1603 89.3862 55.7523 89.6572 55.5199C89.9283 55.2876 90.3363 55.319 90.5686 55.59L91.0839 56.1912L92.2063 55.0689C92.4587 54.8165 92.868 54.8165 93.1204 55.0689Z" fill="#18A75A"/>
<path d="M93.1204 77.0452C93.3728 77.2976 93.3728 77.7069 93.1204 77.9593L91.5045 79.5752C91.3772 79.7025 91.2025 79.771 91.0226 79.764C90.8427 79.7571 90.6738 79.6755 90.5567 79.5388L89.5871 78.4077C89.3548 78.1366 89.3862 77.7286 89.6572 77.4963C89.9283 77.264 90.3363 77.2953 90.5686 77.5664L91.0839 78.1676L92.2063 77.0452C92.4587 76.7928 92.868 76.7928 93.1204 77.0452Z" fill="#18A75A"/>
<path d="M58.2613 71.5645C53.6887 71.5645 52.082 73.9045 52.082 75.4645V77.8045H64.4407V75.4645C64.4407 73.9045 62.834 71.5645 58.2613 71.5645Z" fill="#5F1BAB"/>
<path d="M58.2613 70.7845C60.181 70.7845 61.7372 69.213 61.7372 67.2745C61.7372 65.336 60.181 63.7645 58.2613 63.7645C56.3416 63.7645 54.7854 65.336 54.7854 67.2745C54.7854 69.213 56.3416 70.7845 58.2613 70.7845Z" fill="#5F1BAB"/>
<path d="M108.468 71.5645C103.895 71.5645 102.289 73.9045 102.289 75.4645V77.8045H114.647V75.4645C114.647 73.9045 113.041 71.5645 108.468 71.5645Z" fill="#5F1BAB"/>
<path d="M108.468 70.7845C110.388 70.7845 111.944 69.213 111.944 67.2745C111.944 65.336 110.388 63.7645 108.468 63.7645C106.549 63.7645 104.992 65.336 104.992 67.2745C104.992 69.213 106.549 70.7845 108.468 70.7845Z" fill="#5F1BAB"/>
<path fill-rule="evenodd" clip-rule="evenodd" d="M83.6133 14.1586C89.822 14.1586 94.8948 19.0218 95.2302 25.1467H95.8942C96.2512 25.1467 96.5405 25.4361 96.5405 25.7931C96.5405 26.1501 96.2512 26.4395 95.8942 26.4395H95.2302C94.8948 32.5644 89.822 37.4276 83.6133 37.4276C77.4046 37.4276 72.3318 32.5644 71.9964 26.4395H71.3324C70.9754 26.4395 70.686 26.1501 70.686 25.7931C70.686 25.4361 70.9754 25.1467 71.3324 25.1467H71.9964C72.3318 19.0218 77.4046 14.1586 83.6133 14.1586ZM83.6133 36.1349C89.3249 36.1349 93.9551 31.5047 93.9551 25.7931C93.9551 20.0815 89.3249 15.4513 83.6133 15.4513C77.9017 15.4513 73.2715 20.0815 73.2715 25.7931C73.2715 31.5047 77.9017 36.1349 83.6133 36.1349Z" fill="#606060"/>
<path d="M61.0464 26.6844C61.4266 26.5268 61.8439 26.4395 62.2833 26.4395H63.5761C63.933 26.4395 64.2224 26.1501 64.2224 25.7931C64.2224 25.4361 63.933 25.1467 63.5761 25.1467H62.2833C61.671 25.1467 61.0856 25.2687 60.5512 25.4903C60.2215 25.6271 60.065 26.0052 60.2017 26.335C60.3385 26.6647 60.7167 26.8212 61.0464 26.6844Z" fill="#606060"/>
<path d="M66.1615 25.1467C65.8045 25.1467 65.5151 25.4361 65.5151 25.7931C65.5151 26.1501 65.8045 26.4395 66.1615 26.4395H68.747C69.1039 26.4395 69.3933 26.1501 69.3933 25.7931C69.3933 25.4361 69.1039 25.1467 68.747 25.1467H66.1615Z" fill="#606060"/>
<path d="M59.2965 28.4343C59.4332 28.1046 59.2768 27.7264 58.947 27.5897C58.6173 27.4529 58.2391 27.6094 58.1024 27.9392C57.8808 28.4735 57.7588 29.059 57.7588 29.6713V30.964C57.7588 31.321 58.0482 31.6104 58.4052 31.6104C58.7621 31.6104 59.0515 31.321 59.0515 30.964V29.6713C59.0515 29.2319 59.1388 28.8145 59.2965 28.4343Z" fill="#606060"/>
<path d="M59.0515 33.5494C59.0515 33.1925 58.7621 32.9031 58.4052 32.9031C58.0482 32.9031 57.7588 33.1925 57.7588 33.5494V36.1349C57.7588 36.4919 58.0482 36.7813 58.4052 36.7813C58.7621 36.7813 59.0515 36.4919 59.0515 36.1349V33.5494Z" fill="#606060"/>
<path d="M59.0515 38.7203C59.0515 38.3634 58.7621 38.074 58.4052 38.074C58.0482 38.074 57.7588 38.3634 57.7588 38.7203V41.3058C57.7588 41.6628 58.0482 41.9522 58.4052 41.9522C58.7621 41.9522 59.0515 41.6628 59.0515 41.3058V38.7203Z" fill="#606060"/>
<path d="M59.0515 43.8912C59.0515 43.5343 58.7621 43.2449 58.4052 43.2449C58.0482 43.2449 57.7588 43.5343 57.7588 43.8912V46.4767C57.7588 46.8337 58.0482 47.1231 58.4052 47.1231C58.7621 47.1231 59.0515 46.8337 59.0515 46.4767V43.8912Z" fill="#606060"/>
<path d="M59.0515 49.0621C59.0515 48.7052 58.7621 48.4158 58.4052 48.4158C58.0482 48.4158 57.7588 48.7052 57.7588 49.0621V51.6476C57.7588 52.0046 58.0482 52.294 58.4052 52.294C58.7621 52.294 59.0515 52.0046 59.0515 51.6476V49.0621Z" fill="#606060"/>
<path d="M59.0515 54.233C59.0515 53.8761 58.7621 53.5867 58.4052 53.5867C58.0482 53.5867 57.7588 53.8761 57.7588 54.233V56.8185C57.7588 57.1755 58.0482 57.4649 58.4052 57.4649C58.7621 57.4649 59.0515 57.1755 59.0515 56.8185V54.233Z" fill="#606060"/>
<path d="M59.0515 59.4039C59.0515 59.047 58.7621 58.7576 58.4052 58.7576C58.0482 58.7576 57.7588 59.047 57.7588 59.4039V60.6967C57.7588 61.0536 58.0482 61.343 58.4052 61.343C58.7621 61.343 59.0515 61.0536 59.0515 60.6967V59.4039Z" fill="#606060"/>
<path d="M106.18 26.6844C105.8 26.5268 105.383 26.4395 104.943 26.4395H103.651C103.294 26.4395 103.004 26.1501 103.004 25.7931C103.004 25.4361 103.294 25.1467 103.651 25.1467H104.943C105.556 25.1467 106.141 25.2687 106.675 25.4903C107.005 25.6271 107.162 26.0052 107.025 26.335C106.888 26.6647 106.51 26.8212 106.18 26.6844Z" fill="#606060"/>
<path d="M101.065 25.1467C101.422 25.1467 101.711 25.4361 101.711 25.7931C101.711 26.1501 101.422 26.4395 101.065 26.4395H98.4796C98.1227 26.4395 97.8333 26.1501 97.8333 25.7931C97.8333 25.4361 98.1227 25.1467 98.4796 25.1467H101.065Z" fill="#606060"/>
<path d="M107.93 28.4343C107.793 28.1046 107.95 27.7264 108.28 27.5897C108.609 27.4529 108.987 27.6094 109.124 27.9392C109.346 28.4735 109.468 29.059 109.468 29.6713V30.964C109.468 31.321 109.178 31.6104 108.821 31.6104C108.464 31.6104 108.175 31.321 108.175 30.964V29.6713C108.175 29.2319 108.088 28.8145 107.93 28.4343Z" fill="#606060"/>
<path d="M108.175 33.5494C108.175 33.1925 108.464 32.9031 108.821 32.9031C109.178 32.9031 109.468 33.1925 109.468 33.5494V36.1349C109.468 36.4919 109.178 36.7813 108.821 36.7813C108.464 36.7813 108.175 36.4919 108.175 36.1349V33.5494Z" fill="#606060"/>
<path d="M108.175 38.7203C108.175 38.3634 108.464 38.074 108.821 38.074C109.178 38.074 109.468 38.3634 109.468 38.7203V41.3058C109.468 41.6628 109.178 41.9522 108.821 41.9522C108.464 41.9522 108.175 41.6628 108.175 41.3058V38.7203Z" fill="#606060"/>
<path d="M108.175 43.8912C108.175 43.5343 108.464 43.2449 108.821 43.2449C109.178 43.2449 109.468 43.5343 109.468 43.8912V46.4767C109.468 46.8337 109.178 47.1231 108.821 47.1231C108.464 47.1231 108.175 46.8337 108.175 46.4767V43.8912Z" fill="#606060"/>
<path d="M108.175 49.0621C108.175 48.7052 108.464 48.4158 108.821 48.4158C109.178 48.4158 109.468 48.7052 109.468 49.0621V51.6476C109.468 52.0046 109.178 52.294 108.821 52.294C108.464 52.294 108.175 52.0046 108.175 51.6476V49.0621Z" fill="#606060"/>
<path d="M108.175 54.233C108.175 53.8761 108.464 53.5867 108.821 53.5867C109.178 53.5867 109.468 53.8761 109.468 54.233V56.8185C109.468 57.1755 109.178 57.4649 108.821 57.4649C108.464 57.4649 108.175 57.1755 108.175 56.8185V54.233Z" fill="#606060"/>
<path d="M108.175 59.4039C108.175 59.047 108.464 58.7576 108.821 58.7576C109.178 58.7576 109.468 59.047 109.468 59.4039V60.6967C109.468 61.0536 109.178 61.343 108.821 61.343C108.464 61.343 108.175 61.0536 108.175 60.6967V59.4039Z" fill="#606060"/>
<path fill-rule="evenodd" clip-rule="evenodd" d="M89.4306 52.294H93.3087C94.3797 52.294 95.2478 53.1621 95.2478 54.233V58.1112C95.2478 59.1821 94.3797 60.0503 93.3087 60.0503H89.4306C88.3596 60.0503 87.4915 59.1821 87.4915 58.1112V54.233C87.4915 53.1621 88.3596 52.294 89.4306 52.294ZM89.4306 53.5867C89.0736 53.5867 88.7842 53.8761 88.7842 54.233V58.1112C88.7842 58.4682 89.0736 58.7576 89.4306 58.7576H93.3087C93.6657 58.7576 93.9551 58.4682 93.9551 58.1112V54.233C93.9551 53.8761 93.6657 53.5867 93.3087 53.5867H89.4306Z" fill="#606060"/>
<path d="M72.6251 54.8794C72.2682 54.8794 71.9788 55.1688 71.9788 55.5258C71.9788 55.8827 72.2682 56.1721 72.6251 56.1721H84.2597C84.6166 56.1721 84.906 55.8827 84.906 55.5258C84.906 55.1688 84.6166 54.8794 84.2597 54.8794H72.6251Z" fill="#606060"/>
<path d="M72.6251 56.8185C72.2682 56.8185 71.9788 57.1079 71.9788 57.4649C71.9788 57.8218 72.2682 58.1112 72.6251 58.1112H79.7351C80.0921 58.1112 80.3815 57.8218 80.3815 57.4649C80.3815 57.1079 80.0921 56.8185 79.7351 56.8185H72.6251Z" fill="#606060"/>
<path fill-rule="evenodd" clip-rule="evenodd" d="M90.0769 63.9285H92.6624C93.7333 63.9285 94.6015 64.7966 94.6015 65.8676V68.453C94.6015 69.5239 93.7333 70.3921 92.6624 70.3921H90.0769C89.006 70.3921 88.1378 69.5239 88.1378 68.453V65.8676C88.1378 64.7966 89.006 63.9285 90.0769 63.9285ZM90.0769 65.2212C89.7199 65.2212 89.4306 65.5106 89.4306 65.8676V68.453C89.4306 68.81 89.7199 69.0994 90.0769 69.0994H92.6624C93.0193 69.0994 93.3087 68.81 93.3087 68.453V65.8676C93.3087 65.5106 93.0193 65.2212 92.6624 65.2212H90.0769Z" fill="#606060"/>
<path d="M72.6251 65.8676C72.2682 65.8676 71.9788 66.157 71.9788 66.5139C71.9788 66.8709 72.2682 67.1603 72.6251 67.1603H84.2597C84.6166 67.1603 84.906 66.8709 84.906 66.5139C84.906 66.157 84.6166 65.8676 84.2597 65.8676H72.6251Z" fill="#606060"/>
<path d="M72.6251 67.8067C72.2682 67.8067 71.9788 68.096 71.9788 68.453C71.9788 68.81 72.2682 69.0994 72.6251 69.0994H84.2597C84.6166 69.0994 84.906 68.81 84.906 68.453C84.906 68.096 84.6166 67.8067 84.2597 67.8067H72.6251Z" fill="#606060"/>
<path fill-rule="evenodd" clip-rule="evenodd" d="M89.4306 74.2703H93.3087C94.3797 74.2703 95.2478 75.1384 95.2478 76.2094V80.0875C95.2478 81.1585 94.3797 82.0266 93.3087 82.0266H89.4306C88.3596 82.0266 87.4915 81.1585 87.4915 80.0875V76.2094C87.4915 75.1384 88.3596 74.2703 89.4306 74.2703ZM89.4306 75.563C89.0736 75.563 88.7842 75.8524 88.7842 76.2094V80.0875C88.7842 80.4445 89.0736 80.7339 89.4306 80.7339H93.3087C93.6657 80.7339 93.9551 80.4445 93.9551 80.0875V76.2094C93.9551 75.8524 93.6657 75.563 93.3087 75.563H89.4306Z" fill="#606060"/>
<path d="M71.9788 78.1485C71.9788 77.7915 72.2682 77.5021 72.6251 77.5021H84.2597C84.6166 77.5021 84.906 77.7915 84.906 78.1485C84.906 78.5054 84.6166 78.7948 84.2597 78.7948H72.6251C72.2682 78.7948 71.9788 78.5054 71.9788 78.1485Z" fill="#606060"/>
<path fill-rule="evenodd" clip-rule="evenodd" d="M68.1006 49.7085C68.1006 48.2806 69.2581 47.1231 70.686 47.1231H96.5405C97.9685 47.1231 99.126 48.2806 99.126 49.7085V84.6121C99.126 86.04 97.9685 87.1975 96.5405 87.1975H70.686C69.2581 87.1975 68.1006 86.04 68.1006 84.6121V49.7085ZM70.686 48.4158C69.9721 48.4158 69.3933 48.9946 69.3933 49.7085V84.6121C69.3933 85.326 69.9721 85.9048 70.686 85.9048H96.5405C97.2545 85.9048 97.8333 85.326 97.8333 84.6121V49.7085C97.8333 48.9946 97.2545 48.4158 96.5405 48.4158H70.686Z" fill="#606060"/>
<path d="M6.47461 126.193H8.08594C8.04297 126.764 7.88477 127.27 7.61133 127.711C7.33789 128.148 6.95703 128.492 6.46875 128.742C5.98047 128.992 5.38867 129.117 4.69336 129.117C4.1582 129.117 3.67578 129.023 3.24609 128.836C2.82031 128.645 2.45508 128.373 2.15039 128.021C1.84961 127.666 1.61914 127.24 1.45898 126.744C1.29883 126.244 1.21875 125.684 1.21875 125.062V124.412C1.21875 123.791 1.30078 123.23 1.46484 122.73C1.62891 122.23 1.86328 121.805 2.16797 121.453C2.47656 121.098 2.8457 120.824 3.27539 120.633C3.70898 120.441 4.19336 120.346 4.72852 120.346C5.42383 120.346 6.01172 120.475 6.49219 120.732C6.97266 120.986 7.3457 121.336 7.61133 121.781C7.87695 122.227 8.03711 122.738 8.0918 123.316H6.48047C6.44922 122.957 6.37109 122.652 6.24609 122.402C6.125 122.152 5.94141 121.963 5.69531 121.834C5.45312 121.701 5.13086 121.635 4.72852 121.635C4.41602 121.635 4.14062 121.693 3.90234 121.811C3.66797 121.928 3.47266 122.104 3.31641 122.338C3.16016 122.568 3.04297 122.857 2.96484 123.205C2.88672 123.549 2.84766 123.947 2.84766 124.4V125.062C2.84766 125.496 2.88281 125.885 2.95312 126.229C3.02344 126.572 3.13281 126.863 3.28125 127.102C3.42969 127.34 3.62109 127.521 3.85547 127.646C4.08984 127.771 4.36914 127.834 4.69336 127.834C5.08789 127.834 5.4082 127.771 5.6543 127.646C5.9043 127.521 6.09375 127.338 6.22266 127.096C6.35547 126.854 6.43945 126.553 6.47461 126.193ZM15.3223 126.316H13.3125L13.3008 125.268H14.9531C15.1992 125.268 15.4004 125.242 15.5566 125.191C15.7129 125.141 15.8281 125.064 15.9023 124.963C15.9805 124.861 16.0195 124.738 16.0195 124.594C16.0195 124.469 15.9961 124.361 15.9492 124.271C15.9023 124.178 15.832 124.102 15.7383 124.043C15.6484 123.984 15.5332 123.941 15.3926 123.914C15.2559 123.883 15.0957 123.867 14.9121 123.867H13.8633V129H12.3105V122.66H14.9121C15.3223 122.66 15.6914 122.697 16.0195 122.771C16.3477 122.842 16.627 122.949 16.8574 123.094C17.0879 123.238 17.2637 123.422 17.3848 123.645C17.5098 123.863 17.5723 124.121 17.5723 124.418C17.5723 124.613 17.5293 124.797 17.4434 124.969C17.3574 125.141 17.2305 125.293 17.0625 125.426C16.8945 125.559 16.6875 125.668 16.4414 125.754C16.1953 125.836 15.9141 125.887 15.5977 125.906L15.3223 126.316ZM15.3223 129H12.8965L13.4707 127.793H15.3223C15.5488 127.793 15.7363 127.766 15.8848 127.711C16.0332 127.652 16.1426 127.568 16.2129 127.459C16.2871 127.35 16.3242 127.217 16.3242 127.061C16.3242 126.908 16.2891 126.777 16.2188 126.668C16.1523 126.555 16.0449 126.469 15.8965 126.41C15.752 126.348 15.5605 126.316 15.3223 126.316H13.7227L13.7344 125.268H15.5918L16.002 125.684C16.4238 125.711 16.7734 125.797 17.0508 125.941C17.3281 126.082 17.5352 126.262 17.6719 126.48C17.8086 126.695 17.877 126.932 17.877 127.189C17.877 127.49 17.8203 127.754 17.707 127.98C17.5938 128.207 17.4277 128.396 17.209 128.549C16.9902 128.697 16.7227 128.811 16.4062 128.889C16.0898 128.963 15.7285 129 15.3223 129ZM22.4941 127.652V124.729C22.4941 124.514 22.457 124.328 22.3828 124.172C22.3086 124.016 22.1953 123.895 22.043 123.809C21.8906 123.723 21.6973 123.68 21.4629 123.68C21.2559 123.68 21.0742 123.715 20.918 123.785C20.7656 123.855 20.6484 123.955 20.5664 124.084C20.4844 124.209 20.4434 124.354 20.4434 124.518H18.8906C18.8906 124.256 18.9531 124.008 19.0781 123.773C19.2031 123.535 19.3809 123.324 19.6113 123.141C19.8457 122.953 20.125 122.807 20.4492 122.701C20.7773 122.596 21.1445 122.543 21.5508 122.543C22.0312 122.543 22.459 122.625 22.834 122.789C23.2129 122.949 23.5098 123.191 23.7246 123.516C23.9434 123.84 24.0527 124.248 24.0527 124.74V127.506C24.0527 127.822 24.0723 128.094 24.1113 128.32C24.1543 128.543 24.2168 128.736 24.2988 128.9V129H22.7227C22.6484 128.84 22.5918 128.637 22.5527 128.391C22.5137 128.141 22.4941 127.895 22.4941 127.652ZM22.7109 125.139L22.7227 126.059H21.7441C21.502 126.059 21.2891 126.084 21.1055 126.135C20.9219 126.182 20.7715 126.252 20.6543 126.346C20.5371 126.436 20.4492 126.545 20.3906 126.674C20.332 126.799 20.3027 126.941 20.3027 127.102C20.3027 127.258 20.3379 127.398 20.4082 127.523C20.4824 127.648 20.5879 127.748 20.7246 127.822C20.8652 127.893 21.0293 127.928 21.2168 127.928C21.4902 127.928 21.7285 127.873 21.9316 127.764C22.1348 127.65 22.293 127.514 22.4062 127.354C22.5195 127.193 22.5801 127.041 22.5879 126.896L23.0332 127.564C22.9785 127.725 22.8965 127.895 22.7871 128.074C22.6777 128.254 22.5371 128.422 22.3652 128.578C22.1934 128.734 21.9863 128.863 21.7441 128.965C21.502 129.066 21.2207 129.117 20.9004 129.117C20.4902 129.117 20.123 129.035 19.7988 128.871C19.4746 128.707 19.2188 128.482 19.0312 128.197C18.8438 127.912 18.75 127.588 18.75 127.225C18.75 126.889 18.8125 126.592 18.9375 126.334C19.0625 126.076 19.248 125.859 19.4941 125.684C19.7402 125.504 20.0449 125.369 20.4082 125.279C20.7754 125.186 21.1953 125.139 21.668 125.139H22.7109ZM29.25 127.172L31.0312 122.66H32.3262L29.7773 129H28.7285L26.1855 122.66H27.4863L29.25 127.172ZM27.1055 122.66V129H25.5527V122.66H27.1055ZM31.4238 129V122.66H32.9766V129H31.4238ZM36.082 126.791L38.3906 122.66H39.9434V129H38.3906V124.863L36.082 129H34.5293V122.66H36.082V126.791ZM46.9395 127.898C47.1582 127.898 47.3535 127.855 47.5254 127.77C47.6973 127.684 47.834 127.562 47.9355 127.406C48.041 127.25 48.0977 127.068 48.1055 126.861H49.5645C49.5566 127.291 49.4355 127.676 49.2012 128.016C48.9668 128.355 48.6543 128.625 48.2637 128.824C47.877 129.02 47.4434 129.117 46.9629 129.117C46.4746 129.117 46.0488 129.035 45.6855 128.871C45.3223 128.707 45.0195 128.479 44.7773 128.186C44.5391 127.893 44.3594 127.553 44.2383 127.166C44.1211 126.779 44.0625 126.365 44.0625 125.924V125.736C44.0625 125.295 44.1211 124.881 44.2383 124.494C44.3594 124.107 44.5391 123.768 44.7773 123.475C45.0195 123.182 45.3223 122.953 45.6855 122.789C46.0488 122.625 46.4727 122.543 46.957 122.543C47.4688 122.543 47.918 122.643 48.3047 122.842C48.6953 123.041 49 123.322 49.2188 123.686C49.4414 124.049 49.5566 124.477 49.5645 124.969H48.1055C48.0977 124.742 48.0469 124.539 47.9531 124.359C47.8594 124.18 47.7266 124.035 47.5547 123.926C47.3828 123.816 47.1738 123.762 46.9277 123.762C46.666 123.762 46.4473 123.816 46.2715 123.926C46.0996 124.035 45.9648 124.186 45.8672 124.377C45.7734 124.564 45.707 124.775 45.668 125.01C45.6328 125.24 45.6152 125.482 45.6152 125.736V125.924C45.6152 126.182 45.6328 126.428 45.668 126.662C45.707 126.896 45.7734 127.107 45.8672 127.295C45.9648 127.479 46.0996 127.625 46.2715 127.734C46.4473 127.844 46.6699 127.898 46.9395 127.898ZM53.7129 126.316H51.7031L51.6914 125.268H53.3438C53.5898 125.268 53.791 125.242 53.9473 125.191C54.1035 125.141 54.2188 125.064 54.293 124.963C54.3711 124.861 54.4102 124.738 54.4102 124.594C54.4102 124.469 54.3867 124.361 54.3398 124.271C54.293 124.178 54.2227 124.102 54.1289 124.043C54.0391 123.984 53.9238 123.941 53.7832 123.914C53.6465 123.883 53.4863 123.867 53.3027 123.867H52.2539V129H50.7012V122.66H53.3027C53.7129 122.66 54.082 122.697 54.4102 122.771C54.7383 122.842 55.0176 122.949 55.248 123.094C55.4785 123.238 55.6543 123.422 55.7754 123.645C55.9004 123.863 55.9629 124.121 55.9629 124.418C55.9629 124.613 55.9199 124.797 55.834 124.969C55.748 125.141 55.6211 125.293 55.4531 125.426C55.2852 125.559 55.0781 125.668 54.832 125.754C54.5859 125.836 54.3047 125.887 53.9883 125.906L53.7129 126.316ZM53.7129 129H51.2871L51.8613 127.793H53.7129C53.9395 127.793 54.127 127.766 54.2754 127.711C54.4238 127.652 54.5332 127.568 54.6035 127.459C54.6777 127.35 54.7148 127.217 54.7148 127.061C54.7148 126.908 54.6797 126.777 54.6094 126.668C54.543 126.555 54.4355 126.469 54.2871 126.41C54.1426 126.348 53.9512 126.316 53.7129 126.316H52.1133L52.125 125.268H53.9824L54.3926 125.684C54.8145 125.711 55.1641 125.797 55.4414 125.941C55.7188 126.082 55.9258 126.262 56.0625 126.48C56.1992 126.695 56.2676 126.932 56.2676 127.189C56.2676 127.49 56.2109 127.754 56.0977 127.98C55.9844 128.207 55.8184 128.396 55.5996 128.549C55.3809 128.697 55.1133 128.811 54.7969 128.889C54.4805 128.963 54.1191 129 53.7129 129ZM58.7402 125.871H60.3281L58.5469 129H56.959L58.7402 125.871ZM59.8184 122.66H62.5723V129H61.0254V123.867H59.8184C59.5723 123.867 59.3672 123.912 59.2031 124.002C59.043 124.092 58.9238 124.207 58.8457 124.348C58.7676 124.484 58.7285 124.625 58.7285 124.77C58.7285 124.91 58.7656 125.047 58.8398 125.18C58.9141 125.312 59.0273 125.422 59.1797 125.508C59.3359 125.594 59.5312 125.637 59.7656 125.637H61.5762V126.727H59.7656C59.3633 126.727 59.002 126.678 58.6816 126.58C58.3652 126.479 58.0938 126.338 57.8672 126.158C57.6445 125.979 57.4746 125.768 57.3574 125.525C57.2402 125.279 57.1816 125.012 57.1816 124.723C57.1816 124.426 57.2402 124.152 57.3574 123.902C57.4785 123.652 57.6523 123.434 57.8789 123.246C58.1094 123.059 58.3867 122.914 58.7109 122.812C59.0391 122.711 59.4082 122.66 59.8184 122.66ZM66.2461 126.527L63.668 122.66H65.5781L66.9902 125.104H68.2148L68.0215 126.527H66.2461ZM67.0195 126.281L65.4844 129H63.6035L65.8008 125.473L67.0195 126.281ZM69.1875 122.66V129H67.6406V122.66H69.1875ZM73.1777 122.66L70.5938 126.527H68.8184L68.625 125.104H69.8496L71.2617 122.66H73.1777ZM71.3555 129L69.8203 126.281L71.0801 125.473L73.2715 129H71.3555ZM76.8574 129.117C76.377 129.117 75.9453 129.039 75.5625 128.883C75.1797 128.727 74.8535 128.51 74.584 128.232C74.3184 127.951 74.1133 127.625 73.9688 127.254C73.8281 126.879 73.7578 126.477 73.7578 126.047V125.812C73.7578 125.324 73.8281 124.881 73.9688 124.482C74.1094 124.08 74.3086 123.734 74.5664 123.445C74.8242 123.156 75.1328 122.934 75.4922 122.777C75.8516 122.621 76.248 122.543 76.6816 122.543C77.1309 122.543 77.5273 122.619 77.8711 122.771C78.2148 122.92 78.502 123.131 78.7324 123.404C78.9629 123.678 79.1367 124.006 79.2539 124.389C79.3711 124.768 79.4297 125.188 79.4297 125.648V126.299H74.4609V125.232H77.9062V125.115C77.8984 124.869 77.8516 124.645 77.7656 124.441C77.6797 124.234 77.5469 124.07 77.3672 123.949C77.1875 123.824 76.9551 123.762 76.6699 123.762C76.4395 123.762 76.2383 123.812 76.0664 123.914C75.8984 124.012 75.7578 124.152 75.6445 124.336C75.5352 124.516 75.4531 124.73 75.3984 124.98C75.3438 125.23 75.3164 125.508 75.3164 125.812V126.047C75.3164 126.312 75.3516 126.559 75.4219 126.785C75.4961 127.012 75.6035 127.209 75.7441 127.377C75.8887 127.541 76.0605 127.67 76.2598 127.764C76.4629 127.854 76.6934 127.898 76.9512 127.898C77.2754 127.898 77.5684 127.836 77.8301 127.711C78.0957 127.582 78.3262 127.393 78.5215 127.143L79.3008 127.951C79.168 128.146 78.9883 128.334 78.7617 128.514C78.5391 128.693 78.2695 128.84 77.9531 128.953C77.6367 129.062 77.2715 129.117 76.8574 129.117ZM83.4727 122.66V129H81.9199V122.66H83.4727ZM85.5352 122.66V123.867H79.8926V122.66H85.5352ZM88.623 127.898C88.8418 127.898 89.0371 127.855 89.209 127.77C89.3809 127.684 89.5176 127.562 89.6191 127.406C89.7246 127.25 89.7812 127.068 89.7891 126.861H91.248C91.2402 127.291 91.1191 127.676 90.8848 128.016C90.6504 128.355 90.3379 128.625 89.9473 128.824C89.5605 129.02 89.127 129.117 88.6465 129.117C88.1582 129.117 87.7324 129.035 87.3691 128.871C87.0059 128.707 86.7031 128.479 86.4609 128.186C86.2227 127.893 86.043 127.553 85.9219 127.166C85.8047 126.779 85.7461 126.365 85.7461 125.924V125.736C85.7461 125.295 85.8047 124.881 85.9219 124.494C86.043 124.107 86.2227 123.768 86.4609 123.475C86.7031 123.182 87.0059 122.953 87.3691 122.789C87.7324 122.625 88.1562 122.543 88.6406 122.543C89.1523 122.543 89.6016 122.643 89.9883 122.842C90.3789 123.041 90.6836 123.322 90.9023 123.686C91.125 124.049 91.2402 124.477 91.248 124.969H89.7891C89.7812 124.742 89.7305 124.539 89.6367 124.359C89.543 124.18 89.4102 124.035 89.2383 123.926C89.0664 123.816 88.8574 123.762 88.6113 123.762C88.3496 123.762 88.1309 123.816 87.9551 123.926C87.7832 124.035 87.6484 124.186 87.5508 124.377C87.457 124.564 87.3906 124.775 87.3516 125.01C87.3164 125.24 87.2988 125.482 87.2988 125.736V125.924C87.2988 126.182 87.3164 126.428 87.3516 126.662C87.3906 126.896 87.457 127.107 87.5508 127.295C87.6484 127.479 87.7832 127.625 87.9551 127.734C88.1309 127.844 88.3535 127.898 88.623 127.898ZM93.627 125.871H95.2148L93.4336 129H91.8457L93.627 125.871ZM94.7051 122.66H97.459V129H95.9121V123.867H94.7051C94.459 123.867 94.2539 123.912 94.0898 124.002C93.9297 124.092 93.8105 124.207 93.7324 124.348C93.6543 124.484 93.6152 124.625 93.6152 124.77C93.6152 124.91 93.6523 125.047 93.7266 125.18C93.8008 125.312 93.9141 125.422 94.0664 125.508C94.2227 125.594 94.418 125.637 94.6523 125.637H96.4629V126.727H94.6523C94.25 126.727 93.8887 126.678 93.5684 126.58C93.252 126.479 92.9805 126.338 92.7539 126.158C92.5312 125.979 92.3613 125.768 92.2441 125.525C92.127 125.279 92.0684 125.012 92.0684 124.723C92.0684 124.426 92.127 124.152 92.2441 123.902C92.3652 123.652 92.5391 123.434 92.7656 123.246C92.9961 123.059 93.2734 122.914 93.5977 122.812C93.9258 122.711 94.2949 122.66 94.7051 122.66ZM104.561 127.898C104.779 127.898 104.975 127.855 105.146 127.77C105.318 127.684 105.455 127.562 105.557 127.406C105.662 127.25 105.719 127.068 105.727 126.861H107.186C107.178 127.291 107.057 127.676 106.822 128.016C106.588 128.355 106.275 128.625 105.885 128.824C105.498 129.02 105.064 129.117 104.584 129.117C104.096 129.117 103.67 129.035 103.307 128.871C102.943 128.707 102.641 128.479 102.398 128.186C102.16 127.893 101.98 127.553 101.859 127.166C101.742 126.779 101.684 126.365 101.684 125.924V125.736C101.684 125.295 101.742 124.881 101.859 124.494C101.98 124.107 102.16 123.768 102.398 123.475C102.641 123.182 102.943 122.953 103.307 122.789C103.67 122.625 104.094 122.543 104.578 122.543C105.09 122.543 105.539 122.643 105.926 122.842C106.316 123.041 106.621 123.322 106.84 123.686C107.062 124.049 107.178 124.477 107.186 124.969H105.727C105.719 124.742 105.668 124.539 105.574 124.359C105.48 124.18 105.348 124.035 105.176 123.926C105.004 123.816 104.795 123.762 104.549 123.762C104.287 123.762 104.068 123.816 103.893 123.926C103.721 124.035 103.586 124.186 103.488 124.377C103.395 124.564 103.328 124.775 103.289 125.01C103.254 125.24 103.236 125.482 103.236 125.736V125.924C103.236 126.182 103.254 126.428 103.289 126.662C103.328 126.896 103.395 127.107 103.488 127.295C103.586 127.479 103.721 127.625 103.893 127.734C104.068 127.844 104.291 127.898 104.561 127.898ZM112.471 122.66V123.885H109.371V122.66H112.471ZM109.781 122.66V129H108.229V122.66H109.781ZM113.643 122.66V129H112.084V122.66H113.643ZM117.896 129.117C117.416 129.117 116.984 129.039 116.602 128.883C116.219 128.727 115.893 128.51 115.623 128.232C115.357 127.951 115.152 127.625 115.008 127.254C114.867 126.879 114.797 126.477 114.797 126.047V125.812C114.797 125.324 114.867 124.881 115.008 124.482C115.148 124.08 115.348 123.734 115.605 123.445C115.863 123.156 116.172 122.934 116.531 122.777C116.891 122.621 117.287 122.543 117.721 122.543C118.17 122.543 118.566 122.619 118.91 122.771C119.254 122.92 119.541 123.131 119.771 123.404C120.002 123.678 120.176 124.006 120.293 124.389C120.41 124.768 120.469 125.188 120.469 125.648V126.299H115.5V125.232H118.945V125.115C118.938 124.869 118.891 124.645 118.805 124.441C118.719 124.234 118.586 124.07 118.406 123.949C118.227 123.824 117.994 123.762 117.709 123.762C117.479 123.762 117.277 123.812 117.105 123.914C116.938 124.012 116.797 124.152 116.684 124.336C116.574 124.516 116.492 124.73 116.438 124.98C116.383 125.23 116.355 125.508 116.355 125.812V126.047C116.355 126.312 116.391 126.559 116.461 126.785C116.535 127.012 116.643 127.209 116.783 127.377C116.928 127.541 117.1 127.67 117.299 127.764C117.502 127.854 117.732 127.898 117.99 127.898C118.314 127.898 118.607 127.836 118.869 127.711C119.135 127.582 119.365 127.393 119.561 127.143L120.34 127.951C120.207 128.146 120.027 128.334 119.801 128.514C119.578 128.693 119.309 128.84 118.992 128.953C118.676 129.062 118.311 129.117 117.896 129.117ZM121.518 129V122.66H123.07V127.781H125.373V122.66H126.932V129H121.518ZM127.834 127.787L127.723 130.881H126.287V129H125.555V127.787H127.834ZM130.336 126.791L132.645 122.66H134.197V129H132.645V124.863L130.336 129H128.783V122.66H130.336V126.791ZM139.096 127.652V124.729C139.096 124.514 139.059 124.328 138.984 124.172C138.91 124.016 138.797 123.895 138.645 123.809C138.492 123.723 138.299 123.68 138.064 123.68C137.857 123.68 137.676 123.715 137.52 123.785C137.367 123.855 137.25 123.955 137.168 124.084C137.086 124.209 137.045 124.354 137.045 124.518H135.492C135.492 124.256 135.555 124.008 135.68 123.773C135.805 123.535 135.982 123.324 136.213 123.141C136.447 122.953 136.727 122.807 137.051 122.701C137.379 122.596 137.746 122.543 138.152 122.543C138.633 122.543 139.061 122.625 139.436 122.789C139.814 122.949 140.111 123.191 140.326 123.516C140.545 123.84 140.654 124.248 140.654 124.74V127.506C140.654 127.822 140.674 128.094 140.713 128.32C140.756 128.543 140.818 128.736 140.9 128.9V129H139.324C139.25 128.84 139.193 128.637 139.154 128.391C139.115 128.141 139.096 127.895 139.096 127.652ZM139.312 125.139L139.324 126.059H138.346C138.104 126.059 137.891 126.084 137.707 126.135C137.523 126.182 137.373 126.252 137.256 126.346C137.139 126.436 137.051 126.545 136.992 126.674C136.934 126.799 136.904 126.941 136.904 127.102C136.904 127.258 136.939 127.398 137.01 127.523C137.084 127.648 137.189 127.748 137.326 127.822C137.467 127.893 137.631 127.928 137.818 127.928C138.092 127.928 138.33 127.873 138.533 127.764C138.736 127.65 138.895 127.514 139.008 127.354C139.121 127.193 139.182 127.041 139.189 126.896L139.635 127.564C139.58 127.725 139.498 127.895 139.389 128.074C139.279 128.254 139.139 128.422 138.967 128.578C138.795 128.734 138.588 128.863 138.346 128.965C138.104 129.066 137.822 129.117 137.502 129.117C137.092 129.117 136.725 129.035 136.4 128.871C136.076 128.707 135.82 128.482 135.633 128.197C135.445 127.912 135.352 127.588 135.352 127.225C135.352 126.889 135.414 126.592 135.539 126.334C135.664 126.076 135.85 125.859 136.096 125.684C136.342 125.504 136.646 125.369 137.01 125.279C137.377 125.186 137.797 125.139 138.27 125.139H139.312ZM146.309 122.66V123.885H143.203V122.66H146.309ZM147.475 122.66V129H145.928V122.66H147.475ZM142.816 122.66H144.346L144.176 125.824C144.148 126.289 144.1 126.697 144.029 127.049C143.959 127.396 143.865 127.695 143.748 127.945C143.631 128.191 143.488 128.393 143.32 128.549C143.152 128.705 142.957 128.82 142.734 128.895C142.516 128.965 142.27 129 141.996 129H141.521L141.504 127.752L141.727 127.734C141.863 127.723 141.98 127.686 142.078 127.623C142.18 127.561 142.266 127.471 142.336 127.354C142.41 127.236 142.471 127.086 142.518 126.902C142.568 126.715 142.607 126.496 142.635 126.246C142.666 125.992 142.688 125.699 142.699 125.367L142.816 122.66ZM150.457 126.791L152.766 122.66H154.318V129H152.766V124.863L150.457 129H148.904V122.66H150.457V126.791ZM158.326 127.898C158.545 127.898 158.74 127.855 158.912 127.77C159.084 127.684 159.221 127.562 159.322 127.406C159.428 127.25 159.484 127.068 159.492 126.861H160.951C160.943 127.291 160.822 127.676 160.588 128.016C160.354 128.355 160.041 128.625 159.65 128.824C159.264 129.02 158.83 129.117 158.35 129.117C157.861 129.117 157.436 129.035 157.072 128.871C156.709 128.707 156.406 128.479 156.164 128.186C155.926 127.893 155.746 127.553 155.625 127.166C155.508 126.779 155.449 126.365 155.449 125.924V125.736C155.449 125.295 155.508 124.881 155.625 124.494C155.746 124.107 155.926 123.768 156.164 123.475C156.406 123.182 156.709 122.953 157.072 122.789C157.436 122.625 157.859 122.543 158.344 122.543C158.855 122.543 159.305 122.643 159.691 122.842C160.082 123.041 160.387 123.322 160.605 123.686C160.828 124.049 160.943 124.477 160.951 124.969H159.492C159.484 124.742 159.434 124.539 159.34 124.359C159.246 124.18 159.113 124.035 158.941 123.926C158.77 123.816 158.561 123.762 158.314 123.762C158.053 123.762 157.834 123.816 157.658 123.926C157.486 124.035 157.352 124.186 157.254 124.377C157.16 124.564 157.094 124.775 157.055 125.01C157.02 125.24 157.002 125.482 157.002 125.736V125.924C157.002 126.182 157.02 126.428 157.055 126.662C157.094 126.896 157.16 127.107 157.254 127.295C157.352 127.479 157.486 127.625 157.658 127.734C157.834 127.844 158.057 127.898 158.326 127.898ZM165.059 122.66V129H163.506V122.66H165.059ZM167.121 122.66V123.867H161.479V122.66H167.121ZM37.418 140.791L39.7266 136.66H41.2793V143H39.7266V138.863L37.418 143H35.8652V136.66H37.418V140.791ZM47.5312 142.297L49.2305 136.66H50.8887L48.3457 143.961C48.2871 144.117 48.2109 144.287 48.1172 144.471C48.0273 144.654 47.9062 144.828 47.7539 144.992C47.6016 145.16 47.4102 145.297 47.1797 145.402C46.9531 145.508 46.6777 145.561 46.3535 145.561C46.2129 145.561 46.0879 145.551 45.9785 145.531C45.8691 145.512 45.7539 145.486 45.6328 145.455V144.295C45.6719 144.299 45.7168 144.301 45.7676 144.301C45.8223 144.305 45.8691 144.307 45.9082 144.307C46.1348 144.307 46.3223 144.279 46.4707 144.225C46.6191 144.174 46.7383 144.09 46.8281 143.973C46.9219 143.859 47 143.711 47.0625 143.527L47.5312 142.297ZM46.6934 136.66L48.1289 141.33L48.3809 142.965L47.3145 143.158L45.0234 136.66H46.6934ZM54.7148 136.66V143H53.1621V136.66H54.7148ZM56.7773 136.66V137.867H51.1348V136.66H56.7773ZM57.1992 139.895V139.771C57.1992 139.307 57.2656 138.879 57.3984 138.488C57.5312 138.094 57.7246 137.752 57.9785 137.463C58.2324 137.174 58.543 136.949 58.9102 136.789C59.2773 136.625 59.6953 136.543 60.1641 136.543C60.6406 136.543 61.0625 136.625 61.4297 136.789C61.8008 136.949 62.1133 137.174 62.3672 137.463C62.6211 137.752 62.8145 138.094 62.9473 138.488C63.0801 138.879 63.1465 139.307 63.1465 139.771V139.895C63.1465 140.355 63.0801 140.783 62.9473 141.178C62.8145 141.568 62.6211 141.91 62.3672 142.203C62.1133 142.492 61.8027 142.717 61.4355 142.877C61.0684 143.037 60.6484 143.117 60.1758 143.117C59.707 143.117 59.2871 143.037 58.916 142.877C58.5449 142.717 58.2324 142.492 57.9785 142.203C57.7246 141.91 57.5312 141.568 57.3984 141.178C57.2656 140.783 57.1992 140.355 57.1992 139.895ZM58.7461 139.771V139.895C58.7461 140.172 58.7734 140.432 58.8281 140.674C58.8828 140.916 58.9668 141.129 59.0801 141.312C59.1934 141.496 59.3398 141.641 59.5195 141.746C59.7031 141.848 59.9219 141.898 60.1758 141.898C60.4258 141.898 60.6406 141.848 60.8203 141.746C61 141.641 61.1465 141.496 61.2598 141.312C61.377 141.129 61.4629 140.916 61.5176 140.674C61.5723 140.432 61.5996 140.172 61.5996 139.895V139.771C61.5996 139.498 61.5723 139.242 61.5176 139.004C61.4629 138.762 61.377 138.549 61.2598 138.365C61.1465 138.178 60.998 138.031 60.8145 137.926C60.6348 137.816 60.418 137.762 60.1641 137.762C59.9141 137.762 59.6992 137.816 59.5195 137.926C59.3398 138.031 59.1934 138.178 59.0801 138.365C58.9668 138.549 58.8828 138.762 58.8281 139.004C58.7734 139.242 58.7461 139.498 58.7461 139.771ZM69.4863 136.66V143H67.9336V136.66H69.4863ZM68.7832 139.42V140.639C68.6348 140.709 68.4551 140.775 68.2441 140.838C68.0371 140.896 67.8184 140.943 67.5879 140.979C67.3613 141.014 67.1406 141.031 66.9258 141.031C66.3438 141.031 65.8418 140.945 65.4199 140.773C65.002 140.602 64.6797 140.338 64.4531 139.982C64.2266 139.623 64.1133 139.164 64.1133 138.605V136.654H65.6602V138.605C65.6602 138.906 65.7051 139.145 65.7949 139.32C65.8848 139.496 66.0234 139.621 66.2109 139.695C66.3984 139.77 66.6367 139.807 66.9258 139.807C67.1484 139.807 67.3613 139.791 67.5645 139.76C67.7676 139.725 67.9688 139.68 68.168 139.625C68.3711 139.566 68.5762 139.498 68.7832 139.42ZM75.2227 139.262V140.475H71.9707V139.262H75.2227ZM72.457 136.66V143H70.9043V136.66H72.457ZM76.3066 136.66V143H74.748V136.66H76.3066ZM79.2773 140.791L81.5859 136.66H83.1387V143H81.5859V138.863L79.2773 143H77.7246V136.66H79.2773V140.791ZM87.6211 136.66V143H86.0684V136.66H87.6211ZM89.6836 136.66V137.867H84.041V136.66H89.6836ZM94.7227 136.66H96.2695L96.2109 138.84C96.1914 139.5 96.1133 140.07 95.9766 140.551C95.8438 141.027 95.666 141.428 95.4434 141.752C95.2246 142.076 94.9746 142.338 94.6934 142.537C94.416 142.736 94.125 142.891 93.8203 143H93.4512L93.4453 141.793L93.627 141.781C93.8105 141.586 93.9648 141.395 94.0898 141.207C94.2188 141.016 94.3223 140.811 94.4004 140.592C94.4785 140.373 94.5371 140.123 94.5762 139.842C94.6191 139.557 94.6465 139.223 94.6582 138.84L94.7227 136.66ZM95.1387 136.66H99.2461V143H97.6992V137.932H95.1387V136.66ZM93.0996 141.781H100.131V144.898H98.584V143H94.6758V144.898H93.0938L93.0996 141.781ZM103.928 143.117C103.447 143.117 103.016 143.039 102.633 142.883C102.25 142.727 101.924 142.51 101.654 142.232C101.389 141.951 101.184 141.625 101.039 141.254C100.898 140.879 100.828 140.477 100.828 140.047V139.812C100.828 139.324 100.898 138.881 101.039 138.482C101.18 138.08 101.379 137.734 101.637 137.445C101.895 137.156 102.203 136.934 102.562 136.777C102.922 136.621 103.318 136.543 103.752 136.543C104.201 136.543 104.598 136.619 104.941 136.771C105.285 136.92 105.572 137.131 105.803 137.404C106.033 137.678 106.207 138.006 106.324 138.389C106.441 138.768 106.5 139.188 106.5 139.648V140.299H101.531V139.232H104.977V139.115C104.969 138.869 104.922 138.645 104.836 138.441C104.75 138.234 104.617 138.07 104.438 137.949C104.258 137.824 104.025 137.762 103.74 137.762C103.51 137.762 103.309 137.812 103.137 137.914C102.969 138.012 102.828 138.152 102.715 138.336C102.605 138.516 102.523 138.73 102.469 138.98C102.414 139.23 102.387 139.508 102.387 139.812V140.047C102.387 140.312 102.422 140.559 102.492 140.785C102.566 141.012 102.674 141.209 102.814 141.377C102.959 141.541 103.131 141.67 103.33 141.764C103.533 141.854 103.764 141.898 104.021 141.898C104.346 141.898 104.639 141.836 104.9 141.711C105.166 141.582 105.396 141.393 105.592 141.143L106.371 141.951C106.238 142.146 106.059 142.334 105.832 142.514C105.609 142.693 105.34 142.84 105.023 142.953C104.707 143.062 104.342 143.117 103.928 143.117ZM110.543 136.66V143H108.99V136.66H110.543ZM112.605 136.66V137.867H106.963V136.66H112.605ZM116.912 141.652V138.729C116.912 138.514 116.875 138.328 116.801 138.172C116.727 138.016 116.613 137.895 116.461 137.809C116.309 137.723 116.115 137.68 115.881 137.68C115.674 137.68 115.492 137.715 115.336 137.785C115.184 137.855 115.066 137.955 114.984 138.084C114.902 138.209 114.861 138.354 114.861 138.518H113.309C113.309 138.256 113.371 138.008 113.496 137.773C113.621 137.535 113.799 137.324 114.029 137.141C114.264 136.953 114.543 136.807 114.867 136.701C115.195 136.596 115.562 136.543 115.969 136.543C116.449 136.543 116.877 136.625 117.252 136.789C117.631 136.949 117.928 137.191 118.143 137.516C118.361 137.84 118.471 138.248 118.471 138.74V141.506C118.471 141.822 118.49 142.094 118.529 142.32C118.572 142.543 118.635 142.736 118.717 142.9V143H117.141C117.066 142.84 117.01 142.637 116.971 142.391C116.932 142.141 116.912 141.895 116.912 141.652ZM117.129 139.139L117.141 140.059H116.162C115.92 140.059 115.707 140.084 115.523 140.135C115.34 140.182 115.189 140.252 115.072 140.346C114.955 140.436 114.867 140.545 114.809 140.674C114.75 140.799 114.721 140.941 114.721 141.102C114.721 141.258 114.756 141.398 114.826 141.523C114.9 141.648 115.006 141.748 115.143 141.822C115.283 141.893 115.447 141.928 115.635 141.928C115.908 141.928 116.146 141.873 116.35 141.764C116.553 141.65 116.711 141.514 116.824 141.354C116.938 141.193 116.998 141.041 117.006 140.896L117.451 141.564C117.396 141.725 117.314 141.895 117.205 142.074C117.096 142.254 116.955 142.422 116.783 142.578C116.611 142.734 116.404 142.863 116.162 142.965C115.92 143.066 115.639 143.117 115.318 143.117C114.908 143.117 114.541 143.035 114.217 142.871C113.893 142.707 113.637 142.482 113.449 142.197C113.262 141.912 113.168 141.588 113.168 141.225C113.168 140.889 113.23 140.592 113.355 140.334C113.48 140.076 113.666 139.859 113.912 139.684C114.158 139.504 114.463 139.369 114.826 139.279C115.193 139.186 115.613 139.139 116.086 139.139H117.129ZM124.125 136.66V137.885H121.02V136.66H124.125ZM125.291 136.66V143H123.744V136.66H125.291ZM120.633 136.66H122.162L121.992 139.824C121.965 140.289 121.916 140.697 121.846 141.049C121.775 141.396 121.682 141.695 121.564 141.945C121.447 142.191 121.305 142.393 121.137 142.549C120.969 142.705 120.773 142.82 120.551 142.895C120.332 142.965 120.086 143 119.812 143H119.338L119.32 141.752L119.543 141.734C119.68 141.723 119.797 141.686 119.895 141.623C119.996 141.561 120.082 141.471 120.152 141.354C120.227 141.236 120.287 141.086 120.334 140.902C120.385 140.715 120.424 140.496 120.451 140.246C120.482 139.992 120.504 139.699 120.516 139.367L120.633 136.66ZM128.273 140.791L130.582 136.66H132.135V143H130.582V138.863L128.273 143H126.721V136.66H128.273V140.791Z" fill="url(#paint2_linear_1099_7981)"/>
<defs>
<linearGradient id="paint0_linear_1099_7981" x1="130.774" y1="19.4104" x2="73.8408" y2="135.084" gradientUnits="userSpaceOnUse">
<stop stop-color="#7F31DA"/>
<stop offset="0.325806" stop-color="#D669F4"/>
<stop offset="0.653937" stop-color="#FF5CAA"/>
<stop offset="1" stop-color="#FF9883"/>
</linearGradient>
<linearGradient id="paint1_linear_1099_7981" x1="49.2289" y1="13.9183" x2="34.317" y2="44.2154" gradientUnits="userSpaceOnUse">
<stop stop-color="#7F31DA"/>
<stop offset="0.325806" stop-color="#D669F4"/>
<stop offset="0.653937" stop-color="#FF5CAA"/>
<stop offset="1" stop-color="#FF9883"/>
</linearGradient>
<linearGradient id="paint2_linear_1099_7981" x1="6.23226" y1="141.134" x2="165.177" y2="178.881" gradientUnits="userSpaceOnUse">
<stop offset="0.0237177" stop-color="#6D19A8"/>
<stop offset="0.357057" stop-color="#9F24AA"/>
<stop offset="0.596645" stop-color="#D93F94"/>
<stop offset="0.851858" stop-color="#F64073"/>
<stop offset="0.958449" stop-color="#F66B63"/>
</linearGradient>
</defs>
</svg>
