<svg width="114" height="105" viewBox="0 0 114 105" fill="none" xmlns="http://www.w3.org/2000/svg">
<g clip-path="url(#clip0_1_58)">
<path d="M40.8254 25.1465C40.1115 25.1465 39.5327 25.7253 39.5327 26.4392C39.5327 27.1532 40.1115 27.7319 40.8254 27.7319H60.2163C60.9303 27.7319 61.509 27.1532 61.509 26.4392C61.509 25.7253 60.9303 25.1465 60.2163 25.1465H40.8254Z" fill="#5F1BAB"/>
<path d="M40.8254 29.0247C40.1115 29.0247 39.5327 29.6034 39.5327 30.3174C39.5327 31.0313 40.1115 31.6101 40.8254 31.6101H55.6918C56.4057 31.6101 56.9845 31.0313 56.9845 30.3174C56.9845 29.6034 56.4057 29.0247 55.6918 29.0247H40.8254Z" fill="#5F1BAB"/>
<path fill-rule="evenodd" clip-rule="evenodd" d="M82.839 74.27C82.839 77.8398 79.9451 80.7337 76.3754 80.7337C72.8056 80.7337 69.9118 77.8398 69.9118 74.27C69.9118 70.7003 72.8056 67.8064 76.3754 67.8064C79.9451 67.8064 82.839 70.7003 82.839 74.27ZM81.5463 74.27C81.5463 77.1259 79.2312 79.4409 76.3754 79.4409C73.5196 79.4409 71.2045 77.1259 71.2045 74.27C71.2045 71.4142 73.5196 69.0991 76.3754 69.0991C79.2312 69.0991 81.5463 71.4142 81.5463 74.27Z" fill="#5F1BAB"/>
<path fill-rule="evenodd" clip-rule="evenodd" d="M75.7295 36.1143C75.1212 36.1143 74.5478 35.9686 74.044 35.7111C72.8847 35.1186 72.0939 33.9341 72.0939 32.5694C72.0939 30.6116 73.7217 29.0245 75.7297 29.0245C77.7377 29.0245 79.3655 30.6116 79.3655 32.5694C79.3655 33.9341 78.5746 35.1186 77.4153 35.7111C76.9115 35.9687 76.3379 36.1143 75.7295 36.1143ZM78.0728 32.5694C78.0728 33.7826 77.0548 34.8216 75.7297 34.8216C74.4046 34.8216 73.3866 33.7826 73.3866 32.5694C73.3866 31.3563 74.4046 30.3173 75.7297 30.3173C77.0548 30.3173 78.0728 31.3563 78.0728 32.5694Z" fill="#606060"/>
<path fill-rule="evenodd" clip-rule="evenodd" d="M69.2659 25.1464C68.5519 25.1464 67.9732 25.7251 67.9732 26.4391V41.9518C67.9732 42.6657 68.5519 43.2445 69.2659 43.2445H82.1931C82.9071 43.2445 83.4859 42.6657 83.4859 41.9518V26.4391C83.4859 25.7251 82.9071 25.1464 82.1931 25.1464H69.2659ZM82.1931 26.4391H69.2659V40.8409C69.2659 39.4929 70.4961 37.5683 73.8471 37.0405C74.4127 36.9514 75.0389 36.9021 75.7297 36.9021C76.4205 36.9021 77.0465 36.9514 77.6122 37.0405C80.9466 37.5658 82.1811 39.4741 82.1931 40.821V26.4391ZM80.9005 41.9114V40.8409C80.9005 40.2681 80.1266 38.1948 75.7295 38.1948C71.3325 38.1948 70.5586 40.2681 70.5586 40.8409V41.9114H80.9005Z" fill="#606060"/>
<path fill-rule="evenodd" clip-rule="evenodd" d="M39.5332 35.4882C39.5332 34.7742 40.112 34.1954 40.8259 34.1954H60.2168C60.9308 34.1954 61.5095 34.7742 61.5095 35.4882V36.7809C61.5095 37.4948 60.9308 38.0736 60.2168 38.0736H40.8259C40.112 38.0736 39.5332 37.4948 39.5332 36.7809V35.4882ZM40.8259 35.4882H60.2168V36.7809H40.8259V35.4882Z" fill="#606060"/>
<path fill-rule="evenodd" clip-rule="evenodd" d="M39.5332 40.6591C39.5332 39.9451 40.112 39.3663 40.8259 39.3663H60.2168C60.9308 39.3663 61.5095 39.9451 61.5095 40.6591V41.9518C61.5095 42.6657 60.9308 43.2445 60.2168 43.2445H40.8259C40.112 43.2445 39.5332 42.6657 39.5332 41.9518V40.6591ZM40.8259 40.6591H60.2168V41.9518H40.8259V40.6591Z" fill="#606060"/>
<path fill-rule="evenodd" clip-rule="evenodd" d="M39.5332 69.099C39.5332 68.3851 40.112 67.8063 40.8259 67.8063H66.0341C66.748 67.8063 67.3268 68.3851 67.3268 69.099V79.4408C67.3268 80.1548 66.748 80.7336 66.0341 80.7336H40.8259C40.112 80.7336 39.5332 80.1548 39.5332 79.4408V69.099ZM40.8259 69.099H66.0341V79.4408H40.8259V69.099Z" fill="#606060"/>
<path fill-rule="evenodd" clip-rule="evenodd" d="M40.8259 45.83C40.112 45.83 39.5332 46.4087 39.5332 47.1227V52.2936C39.5332 53.0075 40.112 53.5863 40.8259 53.5863H82.1931C82.9071 53.5863 83.4859 53.0075 83.4859 52.2936V47.1227C83.4859 46.4087 82.9071 45.83 82.1931 45.83H40.8259ZM82.1931 47.1227H40.8259V52.2936H82.1931V47.1227Z" fill="#606060"/>
<path d="M40.1796 56.1718C39.8226 56.1718 39.5332 56.4612 39.5332 56.8181C39.5332 57.1751 39.8226 57.4645 40.1796 57.4645H82.8395C83.1965 57.4645 83.4859 57.1751 83.4859 56.8181C83.4859 56.4612 83.1965 56.1718 82.8395 56.1718H40.1796Z" fill="#606060"/>
<path d="M40.1796 60.0499C39.8226 60.0499 39.5332 60.3393 39.5332 60.6963C39.5332 61.0533 39.8226 61.3427 40.1796 61.3427H82.8395C83.1965 61.3427 83.4859 61.0533 83.4859 60.6963C83.4859 60.3393 83.1965 60.0499 82.8395 60.0499H40.1796Z" fill="#606060"/>
<path d="M40.1796 63.9281C39.8226 63.9281 39.5332 64.2175 39.5332 64.5745C39.5332 64.9315 39.8226 65.2209 40.1796 65.2209H82.8395C83.1965 65.2209 83.4859 64.9315 83.4859 64.5745C83.4859 64.2175 83.1965 63.9281 82.8395 63.9281H40.1796Z" fill="#606060"/>
<path fill-rule="evenodd" clip-rule="evenodd" d="M38.8868 16.7437C36.388 16.7437 34.3623 18.7694 34.3623 21.2682V83.319C34.3623 85.8178 36.388 87.8435 38.8868 87.8435H84.1322C86.6311 87.8435 88.6568 85.8178 88.6568 83.319V21.2682C88.6568 18.7694 86.6311 16.7437 84.1322 16.7437H38.8868ZM35.655 21.2682C35.655 19.4833 37.102 18.0364 38.8868 18.0364H84.1322C85.9171 18.0364 87.364 19.4833 87.364 21.2682V83.319C87.364 85.1039 85.9171 86.5508 84.1322 86.5508H38.8868C37.102 86.5508 35.655 85.1039 35.655 83.319V21.2682Z" fill="#606060"/>
<path fill-rule="evenodd" clip-rule="evenodd" d="M61.6238 102.232C89.1406 102.232 111.447 79.925 111.447 52.4083C111.447 24.8915 89.1406 2.58472 61.6238 2.58472C49.3287 2.58472 38.0775 7.03587 29.3872 14.4176C30.9686 16.9898 31.8812 20.019 31.8812 23.2574C31.8812 32.5906 24.3151 40.1567 14.9819 40.1567C14.4275 40.1567 13.8789 40.1299 13.3374 40.0776C12.334 44.0191 11.8003 48.15 11.8003 52.4083C11.8003 79.925 34.107 102.232 61.6238 102.232ZM11.8781 37.8329C12.8793 38.0451 13.9176 38.1567 14.9819 38.1567C23.2106 38.1567 29.8812 31.4861 29.8812 23.2574C29.8812 19.8013 28.7044 16.62 26.7296 14.0923C35.9384 5.70106 48.1836 0.584717 61.6238 0.584717C90.2452 0.584717 113.447 23.7869 113.447 52.4083C113.447 81.0296 90.2452 104.232 61.6238 104.232C33.0025 104.232 9.80029 81.0296 9.80029 52.4083C9.80029 47.3476 10.5257 42.4564 11.8781 37.8329Z" fill="url(#paint0_linear_1_58)"/>
<path fill-rule="evenodd" clip-rule="evenodd" d="M14.3246 34.1347C20.7165 34.1347 25.8982 28.953 25.8982 22.561C25.8982 16.1691 20.7165 10.9874 14.3246 10.9874C7.93266 10.9874 2.75098 16.1691 2.75098 22.561C2.75098 28.953 7.93266 34.1347 14.3246 34.1347ZM14.3246 36.1347C21.8211 36.1347 27.8982 30.0575 27.8982 22.561C27.8982 15.0645 21.8211 8.98743 14.3246 8.98743C6.82809 8.98743 0.750977 15.0645 0.750977 22.561C0.750977 30.0575 6.82809 36.1347 14.3246 36.1347Z" fill="url(#paint1_linear_1_58)"/>
<path d="M12.0775 21.4402H13.679C14.0892 21.4402 14.4245 21.3686 14.6849 21.2253C14.9518 21.0756 15.1504 20.8673 15.2806 20.6003C15.4108 20.3269 15.4759 20.0046 15.4759 19.6335C15.4759 19.3471 15.414 19.0834 15.2903 18.8425C15.1732 18.6016 14.9909 18.4096 14.7435 18.2664C14.4961 18.1166 14.1803 18.0417 13.7962 18.0417C13.5358 18.0417 13.2819 18.0971 13.0345 18.2078C12.7871 18.3119 12.582 18.4617 12.4193 18.657C12.263 18.8523 12.1849 19.0899 12.1849 19.3699H8.8841C8.8841 18.5626 9.10545 17.8725 9.54816 17.2996C9.99738 16.7201 10.5866 16.2774 11.3157 15.9714C12.0514 15.6589 12.8424 15.5027 13.6888 15.5027C14.6979 15.5027 15.5833 15.6589 16.345 15.9714C17.1068 16.2774 17.6992 16.7332 18.1224 17.3386C18.5521 17.9376 18.7669 18.6798 18.7669 19.5652C18.7669 20.0535 18.653 20.5125 18.4251 20.9421C18.1972 21.3718 17.8782 21.7494 17.4681 22.075C17.0579 22.4005 16.5762 22.6576 16.0228 22.8464C15.4759 23.0287 14.8769 23.1199 14.2259 23.1199H12.0775V21.4402ZM12.0775 23.8914V22.2507H14.2259C14.9355 22.2507 15.5833 22.3321 16.1693 22.4949C16.7552 22.6511 17.2597 22.8855 17.6829 23.198C18.1061 23.5105 18.4316 23.8979 18.6595 24.3601C18.8874 24.8158 19.0013 25.3399 19.0013 25.9324C19.0013 26.5964 18.8678 27.1889 18.6009 27.7097C18.334 28.2306 17.9596 28.67 17.4778 29.0281C16.9961 29.3861 16.4329 29.6596 15.7884 29.8484C15.1439 30.0307 14.444 30.1218 13.6888 30.1218C13.0963 30.1218 12.5039 30.0437 11.9114 29.8875C11.319 29.7247 10.7786 29.4773 10.2903 29.1453C9.80207 28.8067 9.40819 28.377 9.10871 27.8562C8.81574 27.3289 8.66925 26.7006 8.66925 25.9714H11.97C11.97 26.2709 12.0514 26.5444 12.2142 26.7917C12.3834 27.0326 12.6081 27.2247 12.888 27.3679C13.168 27.5111 13.4707 27.5828 13.7962 27.5828C14.1999 27.5828 14.5416 27.5079 14.8216 27.3582C15.1081 27.2019 15.3262 26.9936 15.4759 26.7332C15.6256 26.4727 15.7005 26.183 15.7005 25.864C15.7005 25.3822 15.6191 24.9981 15.4564 24.7117C15.3001 24.4252 15.069 24.2169 14.763 24.0867C14.4635 23.9565 14.1022 23.8914 13.679 23.8914H12.0775Z" fill="#8435DC"/>
<path d="M73.79 73.3005L76.0523 76.2091L81.2232 69.0991" stroke="#18A75A" stroke-width="2.58545" stroke-linecap="round" stroke-linejoin="round"/>
</g>
<defs>
<linearGradient id="paint0_linear_1_58" x1="108.023" y1="19.4104" x2="51.0899" y2="135.084" gradientUnits="userSpaceOnUse">
<stop stop-color="#7F31DA"/>
<stop offset="0.325806" stop-color="#D669F4"/>
<stop offset="0.653937" stop-color="#FF5CAA"/>
<stop offset="1" stop-color="#FF9883"/>
</linearGradient>
<linearGradient id="paint1_linear_1_58" x1="26.4774" y1="13.9183" x2="11.5655" y2="44.2154" gradientUnits="userSpaceOnUse">
<stop stop-color="#7F31DA"/>
<stop offset="0.325806" stop-color="#D669F4"/>
<stop offset="0.653937" stop-color="#FF5CAA"/>
<stop offset="1" stop-color="#FF9883"/>
</linearGradient>
<clipPath id="clip0_1_58">
<rect width="114" height="105" fill="white"/>
</clipPath>
</defs>
</svg>
