<svg width="127" height="145" viewBox="0 0 127 145" fill="none" xmlns="http://www.w3.org/2000/svg">
<path d="M21.4559 23.7853V26.3243H11.2215L11.0262 24.3126L16.7391 15.1232H19.3367L16.5145 19.7423L14.1707 23.7853H21.4559ZM20.0203 15.1232V29.3419H16.7293V15.1232H20.0203Z" fill="#8435DC"/>
<path fill-rule="evenodd" clip-rule="evenodd" d="M67.8842 30.773H90.4376C92.0297 30.7748 93.32 32.0717 93.3218 33.672V46.074C93.32 47.6743 92.0297 48.9712 90.4376 48.973H76.819L76.7502 52.0061C76.7481 52.2071 76.6017 52.388 76.3814 52.462C76.3092 52.4872 76.2322 52.5002 76.1546 52.5C76.0015 52.4989 75.8561 52.4456 75.751 52.3518L71.8868 48.973H67.8842C66.292 48.9712 65.0018 47.6743 65 46.074V33.672C65.0018 32.0717 66.292 30.7748 67.8842 30.773ZM90.0509 32.073H68.2708C67.1759 32.0742 66.2885 32.9458 66.2873 34.0212V45.7248C66.2885 46.8002 67.1759 47.6718 68.2708 47.673H90.0509C91.1459 47.6718 92.0332 46.8003 92.0344 45.7248V34.0212C92.0332 32.9457 91.1459 32.0742 90.0509 32.073Z" fill="#606060"/>
<path fill-rule="evenodd" clip-rule="evenodd" d="M59.0541 30.773H35.9881C34.3598 30.7748 33.0402 32.0717 33.0383 33.672V46.074C33.0402 47.6743 34.3598 48.9712 35.9881 48.973H50.1848L50.2536 52.0061C50.2557 52.207 50.4021 52.388 50.6224 52.462C50.6946 52.4872 50.7716 52.5002 50.8492 52.5C51.0023 52.4989 51.1477 52.4455 51.2528 52.3518L55.117 48.973H59.0541C60.6824 48.9712 62.002 47.6743 62.0038 46.074V33.672C62.002 32.0717 60.6824 30.7748 59.0541 30.773ZM36.3588 32.073H58.6834C59.8057 32.0742 60.7152 32.9458 60.7165 34.0212V45.7248C60.7152 46.8002 59.8057 47.6718 58.6834 47.673H36.3588C35.2364 47.6718 34.3269 46.8003 34.3257 45.7248V34.0212C34.3269 32.9457 35.2364 32.0742 36.3588 32.073Z" fill="#606060"/>
<path d="M39.196 37.489C39.196 36.7751 39.7748 36.1963 40.4887 36.1963H53.416C54.1299 36.1963 54.7087 36.7751 54.7087 37.489C54.7087 38.203 54.1299 38.7817 53.416 38.7817H40.4887C39.7748 38.7817 39.196 38.203 39.196 37.489Z" fill="#5F1BAB"/>
<path d="M39.196 42.0136C39.196 41.2996 39.7748 40.7208 40.4887 40.7208H46.306C47.02 40.7208 47.5987 41.2996 47.5987 42.0136C47.5987 42.7275 47.02 43.3063 46.306 43.3063H40.4887C39.7748 43.3063 39.196 42.7275 39.196 42.0136Z" fill="#5F1BAB"/>
<path d="M75.7681 39.9392C75.7681 38.943 74.9605 38.1354 73.9643 38.1354C72.9681 38.1354 72.1605 38.943 72.1605 39.9392C72.1605 40.9354 72.9681 41.743 73.9643 41.743C74.9605 41.743 75.7681 40.9354 75.7681 39.9392Z" fill="#5F1BAB"/>
<path d="M85.0576 38.1354C86.0538 38.1354 86.8614 38.943 86.8614 39.9392C86.8614 40.9354 86.0538 41.743 85.0576 41.743C84.0614 41.743 83.2538 40.9354 83.2538 39.9392C83.2538 38.943 84.0614 38.1354 85.0576 38.1354Z" fill="#5F1BAB"/>
<path d="M42.2475 59.3684C42.2475 62.0581 44.428 64.2386 47.1177 64.2386C49.8075 64.2386 51.988 62.0581 51.988 59.3684C51.988 56.6786 49.8075 54.4981 47.1177 54.4981C44.428 54.4981 42.2475 56.6786 42.2475 59.3684Z" fill="#5F1BAB"/>
<path d="M84.6218 59.3684C84.6218 62.0581 82.4413 64.2386 79.7515 64.2386C77.0617 64.2386 74.8812 62.0581 74.8812 59.3684C74.8812 56.6786 77.0617 54.4981 79.7515 54.4981C82.4413 54.4981 84.6218 56.6786 84.6218 59.3684Z" fill="#5F1BAB"/>
<path d="M71.0932 70.7323C71.0932 68.5677 73.3444 65.3209 79.7515 65.3209C86.1586 65.3209 88.4097 68.5677 88.4097 70.7323V73.9791H71.0932V70.7323Z" fill="#5F1BAB"/>
<path d="M47.1177 65.3209C53.5248 65.3209 55.776 68.5677 55.776 70.7323V73.9792H38.4595V70.7323C38.4595 68.5677 40.7106 65.3209 47.1177 65.3209Z" fill="#5F1BAB"/>
<path d="M79.5107 38.1354C80.5069 38.1354 81.3145 38.943 81.3145 39.9392C81.3145 40.9354 80.5069 41.743 79.5107 41.743C78.5145 41.743 77.7069 40.9354 77.7069 39.9392C77.7069 38.943 78.5145 38.1354 79.5107 38.1354Z" fill="#18A75A"/>
<path d="M49.5376 42.0136C49.5376 41.2996 50.1164 40.7208 50.8303 40.7208H53.4158C54.1297 40.7208 54.7085 41.2996 54.7085 42.0136C54.7085 42.7275 54.1297 43.3063 53.4158 43.3063H50.8303C50.1164 43.3063 49.5376 42.7275 49.5376 42.0136Z" fill="#18A75A"/>
<path fill-rule="evenodd" clip-rule="evenodd" d="M63.8724 101.647C91.3891 101.647 113.696 79.3403 113.696 51.8235C113.696 24.3068 91.3891 2 63.8724 2C51.5773 2 40.326 6.45113 31.6358 13.8328C33.2172 16.4051 34.1298 19.4342 34.1298 22.6728C34.1298 32.006 26.5638 39.572 17.2306 39.572C16.6761 39.572 16.1275 39.5453 15.5859 39.4929C14.5826 43.4344 14.0488 47.5653 14.0488 51.8235C14.0488 79.3403 36.3556 101.647 63.8724 101.647ZM14.1266 37.2482C15.1278 37.4604 16.1662 37.572 17.2306 37.572C25.4592 37.572 32.1298 30.9014 32.1298 22.6728C32.1298 19.2166 30.953 16.0352 28.9782 13.5076C38.187 5.11633 50.4322 0 63.8724 0C92.4937 0 115.696 23.2022 115.696 51.8235C115.696 80.4449 92.4937 103.647 63.8724 103.647C35.251 103.647 12.0488 80.4449 12.0488 51.8235C12.0488 46.7629 12.7742 41.8717 14.1266 37.2482Z" fill="url(#paint0_linear_1099_7979)"/>
<path fill-rule="evenodd" clip-rule="evenodd" d="M16.5741 33.5501C22.966 33.5501 28.1477 28.3684 28.1477 21.9764C28.1477 15.5845 22.966 10.4028 16.5741 10.4028C10.1822 10.4028 5.00049 15.5845 5.00049 21.9764C5.00049 28.3684 10.1822 33.5501 16.5741 33.5501ZM16.5741 35.5501C24.0706 35.5501 30.1477 29.4729 30.1477 21.9764C30.1477 14.4799 24.0706 8.40283 16.5741 8.40283C9.0776 8.40283 3.00049 14.4799 3.00049 21.9764C3.00049 29.4729 9.0776 35.5501 16.5741 35.5501Z" fill="url(#paint1_linear_1099_7979)"/>
<path d="M18.7578 119.469H20.1523L22.4844 125.891L24.8105 119.469H26.2109L23.041 128H21.9219L18.7578 119.469ZM18.0547 119.469H19.4199L19.666 125.369V128H18.0547V119.469ZM25.543 119.469H26.9141V128H25.3027V125.369L25.543 119.469ZM29.5391 123.611H31.3906C31.9531 123.611 32.4316 123.705 32.8262 123.893C33.2246 124.076 33.5273 124.334 33.7344 124.666C33.9453 124.994 34.0508 125.375 34.0508 125.809C34.0508 126.121 33.9902 126.412 33.8691 126.682C33.752 126.947 33.5801 127.18 33.3535 127.379C33.127 127.574 32.8477 127.727 32.5156 127.836C32.1875 127.945 31.8125 128 31.3906 128H28.543V121.66H30.0957V126.787H31.3906C31.6602 126.787 31.875 126.742 32.0352 126.652C32.1992 126.559 32.3164 126.439 32.3867 126.295C32.4609 126.146 32.498 125.988 32.498 125.82C32.498 125.648 32.4609 125.488 32.3867 125.34C32.3164 125.188 32.1992 125.064 32.0352 124.971C31.875 124.877 31.6602 124.83 31.3906 124.83H29.5391V123.611ZM36.6523 121.66V128H35.0996V121.66H36.6523ZM40.9473 124.895V124.771C40.9473 124.307 41.0137 123.879 41.1465 123.488C41.2793 123.094 41.4727 122.752 41.7266 122.463C41.9805 122.174 42.291 121.949 42.6582 121.789C43.0254 121.625 43.4434 121.543 43.9121 121.543C44.3887 121.543 44.8105 121.625 45.1777 121.789C45.5488 121.949 45.8613 122.174 46.1152 122.463C46.3691 122.752 46.5625 123.094 46.6953 123.488C46.8281 123.879 46.8945 124.307 46.8945 124.771V124.895C46.8945 125.355 46.8281 125.783 46.6953 126.178C46.5625 126.568 46.3691 126.91 46.1152 127.203C45.8613 127.492 45.5508 127.717 45.1836 127.877C44.8164 128.037 44.3965 128.117 43.9238 128.117C43.4551 128.117 43.0352 128.037 42.6641 127.877C42.293 127.717 41.9805 127.492 41.7266 127.203C41.4727 126.91 41.2793 126.568 41.1465 126.178C41.0137 125.783 40.9473 125.355 40.9473 124.895ZM42.4941 124.771V124.895C42.4941 125.172 42.5215 125.432 42.5762 125.674C42.6309 125.916 42.7148 126.129 42.8281 126.312C42.9414 126.496 43.0879 126.641 43.2676 126.746C43.4512 126.848 43.6699 126.898 43.9238 126.898C44.1738 126.898 44.3887 126.848 44.5684 126.746C44.748 126.641 44.8945 126.496 45.0078 126.312C45.125 126.129 45.2109 125.916 45.2656 125.674C45.3203 125.432 45.3477 125.172 45.3477 124.895V124.771C45.3477 124.498 45.3203 124.242 45.2656 124.004C45.2109 123.762 45.125 123.549 45.0078 123.365C44.8945 123.178 44.7461 123.031 44.5625 122.926C44.3828 122.816 44.166 122.762 43.9121 122.762C43.6621 122.762 43.4473 122.816 43.2676 122.926C43.0879 123.031 42.9414 123.178 42.8281 123.365C42.7148 123.549 42.6309 123.762 42.5762 124.004C42.5215 124.242 42.4941 124.498 42.4941 124.771ZM49.5664 122.879V130.438H48.0137V121.66H49.4492L49.5664 122.879ZM53.6387 124.766V124.889C53.6387 125.35 53.584 125.777 53.4746 126.172C53.3691 126.562 53.2129 126.904 53.0059 127.197C52.7988 127.486 52.541 127.713 52.2324 127.877C51.9277 128.037 51.5762 128.117 51.1777 128.117C50.7871 128.117 50.4473 128.043 50.1582 127.895C49.8691 127.742 49.625 127.527 49.4258 127.25C49.2266 126.973 49.0664 126.65 48.9453 126.283C48.8281 125.912 48.7402 125.508 48.6816 125.07V124.678C48.7402 124.213 48.8281 123.791 48.9453 123.412C49.0664 123.029 49.2266 122.699 49.4258 122.422C49.625 122.141 49.8672 121.924 50.1523 121.771C50.4414 121.619 50.7793 121.543 51.166 121.543C51.5684 121.543 51.9219 121.619 52.2266 121.771C52.5352 121.924 52.7949 122.143 53.0059 122.428C53.2168 122.713 53.375 123.053 53.4805 123.447C53.5859 123.842 53.6387 124.281 53.6387 124.766ZM52.0859 124.889V124.766C52.0859 124.484 52.0605 124.225 52.0098 123.986C51.959 123.744 51.8809 123.533 51.7754 123.354C51.6699 123.17 51.5332 123.027 51.3652 122.926C51.1973 122.824 50.9941 122.773 50.7559 122.773C50.5176 122.773 50.3125 122.812 50.1406 122.891C49.9688 122.969 49.8281 123.08 49.7188 123.225C49.6094 123.369 49.5234 123.541 49.4609 123.74C49.4023 123.936 49.3633 124.152 49.3438 124.391V125.363C49.3789 125.652 49.4473 125.912 49.5488 126.143C49.6504 126.373 49.7988 126.557 49.9941 126.693C50.1934 126.83 50.4512 126.898 50.7676 126.898C51.0059 126.898 51.209 126.846 51.377 126.74C51.5449 126.635 51.6816 126.49 51.7871 126.307C51.8926 126.119 51.9688 125.904 52.0156 125.662C52.0625 125.42 52.0859 125.162 52.0859 124.889ZM59.0293 121.66V122.885H56.3281V128H54.7812V121.66H59.0293ZM63.3008 126.652V123.729C63.3008 123.514 63.2637 123.328 63.1895 123.172C63.1152 123.016 63.002 122.895 62.8496 122.809C62.6973 122.723 62.5039 122.68 62.2695 122.68C62.0625 122.68 61.8809 122.715 61.7246 122.785C61.5723 122.855 61.4551 122.955 61.373 123.084C61.291 123.209 61.25 123.354 61.25 123.518H59.6973C59.6973 123.256 59.7598 123.008 59.8848 122.773C60.0098 122.535 60.1875 122.324 60.418 122.141C60.6523 121.953 60.9316 121.807 61.2559 121.701C61.584 121.596 61.9512 121.543 62.3574 121.543C62.8379 121.543 63.2656 121.625 63.6406 121.789C64.0195 121.949 64.3164 122.191 64.5312 122.516C64.75 122.84 64.8594 123.248 64.8594 123.74V126.506C64.8594 126.822 64.8789 127.094 64.918 127.32C64.9609 127.543 65.0234 127.736 65.1055 127.9V128H63.5293C63.4551 127.84 63.3984 127.637 63.3594 127.391C63.3203 127.141 63.3008 126.895 63.3008 126.652ZM63.5176 124.139L63.5293 125.059H62.5508C62.3086 125.059 62.0957 125.084 61.9121 125.135C61.7285 125.182 61.5781 125.252 61.4609 125.346C61.3438 125.436 61.2559 125.545 61.1973 125.674C61.1387 125.799 61.1094 125.941 61.1094 126.102C61.1094 126.258 61.1445 126.398 61.2148 126.523C61.2891 126.648 61.3945 126.748 61.5312 126.822C61.6719 126.893 61.8359 126.928 62.0234 126.928C62.2969 126.928 62.5352 126.873 62.7383 126.764C62.9414 126.65 63.0996 126.514 63.2129 126.354C63.3262 126.193 63.3867 126.041 63.3945 125.896L63.8398 126.564C63.7852 126.725 63.7031 126.895 63.5938 127.074C63.4844 127.254 63.3438 127.422 63.1719 127.578C63 127.734 62.793 127.863 62.5508 127.965C62.3086 128.066 62.0273 128.117 61.707 128.117C61.2969 128.117 60.9297 128.035 60.6055 127.871C60.2812 127.707 60.0254 127.482 59.8379 127.197C59.6504 126.912 59.5566 126.588 59.5566 126.225C59.5566 125.889 59.6191 125.592 59.7441 125.334C59.8691 125.076 60.0547 124.859 60.3008 124.684C60.5469 124.504 60.8516 124.369 61.2148 124.279C61.582 124.186 62.002 124.139 62.4746 124.139H63.5176ZM70.584 124.262V125.475H67.332V124.262H70.584ZM67.8184 121.66V128H66.2656V121.66H67.8184ZM71.668 121.66V128H70.1094V121.66H71.668ZM74.6387 125.791L76.9473 121.66H78.5V128H76.9473V123.863L74.6387 128H73.0859V121.66H74.6387V125.791ZM82.625 124.977H81.3887V124.238H82.332C82.5625 124.238 82.7461 124.207 82.8828 124.145C83.0234 124.082 83.123 123.994 83.1816 123.881C83.2441 123.768 83.2754 123.637 83.2754 123.488C83.2754 123.355 83.2461 123.23 83.1875 123.113C83.1289 122.992 83.0312 122.895 82.8945 122.82C82.7578 122.742 82.5684 122.703 82.3262 122.703C82.127 122.703 81.9492 122.734 81.793 122.797C81.6367 122.859 81.5137 122.947 81.4238 123.061C81.334 123.174 81.2891 123.309 81.2891 123.465H79.7363C79.7363 123.066 79.8496 122.725 80.0762 122.439C80.3066 122.154 80.6133 121.936 80.9961 121.783C81.3789 121.627 81.7988 121.549 82.2559 121.549C82.6504 121.549 83.0059 121.59 83.3223 121.672C83.6387 121.75 83.9082 121.867 84.1309 122.023C84.3535 122.18 84.5254 122.373 84.6465 122.604C84.7676 122.83 84.8281 123.094 84.8281 123.395C84.8281 123.609 84.7773 123.812 84.6758 124.004C84.5742 124.195 84.4277 124.365 84.2363 124.514C84.0449 124.658 83.8125 124.771 83.5391 124.854C83.2695 124.936 82.9648 124.977 82.625 124.977ZM81.3887 124.555H82.625C83.0039 124.555 83.3359 124.592 83.6211 124.666C83.9102 124.736 84.1523 124.842 84.3477 124.982C84.543 125.123 84.6895 125.297 84.7871 125.504C84.8887 125.707 84.9395 125.941 84.9395 126.207C84.9395 126.508 84.873 126.777 84.7402 127.016C84.6113 127.25 84.4277 127.449 84.1895 127.613C83.9512 127.777 83.668 127.902 83.3398 127.988C83.0117 128.074 82.6504 128.117 82.2559 128.117C81.8301 128.117 81.416 128.047 81.0137 127.906C80.6152 127.766 80.2852 127.549 80.0234 127.256C79.7656 126.963 79.6367 126.586 79.6367 126.125H81.1895C81.1895 126.273 81.2344 126.412 81.3242 126.541C81.4141 126.67 81.543 126.773 81.7109 126.852C81.8828 126.926 82.0898 126.963 82.332 126.963C82.5781 126.963 82.7793 126.924 82.9355 126.846C83.0918 126.768 83.2051 126.664 83.2754 126.535C83.3496 126.402 83.3867 126.264 83.3867 126.119C83.3867 125.92 83.3477 125.76 83.2695 125.639C83.1953 125.514 83.0781 125.422 82.918 125.363C82.7617 125.305 82.5664 125.275 82.332 125.275H81.3887V124.555ZM87.916 127.297L89.6152 121.66H91.2734L88.7305 128.961C88.6719 129.117 88.5957 129.287 88.502 129.471C88.4121 129.654 88.291 129.828 88.1387 129.992C87.9863 130.16 87.7949 130.297 87.5645 130.402C87.3379 130.508 87.0625 130.561 86.7383 130.561C86.5977 130.561 86.4727 130.551 86.3633 130.531C86.2539 130.512 86.1387 130.486 86.0176 130.455V129.295C86.0566 129.299 86.1016 129.301 86.1523 129.301C86.207 129.305 86.2539 129.307 86.293 129.307C86.5195 129.307 86.707 129.279 86.8555 129.225C87.0039 129.174 87.123 129.09 87.2129 128.973C87.3066 128.859 87.3848 128.711 87.4473 128.527L87.916 127.297ZM87.0781 121.66L88.5137 126.33L88.7656 127.965L87.6992 128.158L85.4082 121.66H87.0781ZM94.7891 128.117C94.3086 128.117 93.877 128.039 93.4941 127.883C93.1113 127.727 92.7852 127.51 92.5156 127.232C92.25 126.951 92.0449 126.625 91.9004 126.254C91.7598 125.879 91.6895 125.477 91.6895 125.047V124.812C91.6895 124.324 91.7598 123.881 91.9004 123.482C92.041 123.08 92.2402 122.734 92.498 122.445C92.7559 122.156 93.0645 121.934 93.4238 121.777C93.7832 121.621 94.1797 121.543 94.6133 121.543C95.0625 121.543 95.459 121.619 95.8027 121.771C96.1465 121.92 96.4336 122.131 96.6641 122.404C96.8945 122.678 97.0684 123.006 97.1855 123.389C97.3027 123.768 97.3613 124.188 97.3613 124.648V125.299H92.3926V124.232H95.8379V124.115C95.8301 123.869 95.7832 123.645 95.6973 123.441C95.6113 123.234 95.4785 123.07 95.2988 122.949C95.1191 122.824 94.8867 122.762 94.6016 122.762C94.3711 122.762 94.1699 122.812 93.998 122.914C93.8301 123.012 93.6895 123.152 93.5762 123.336C93.4668 123.516 93.3848 123.73 93.3301 123.98C93.2754 124.23 93.248 124.508 93.248 124.812V125.047C93.248 125.312 93.2832 125.559 93.3535 125.785C93.4277 126.012 93.5352 126.209 93.6758 126.377C93.8203 126.541 93.9922 126.67 94.1914 126.764C94.3945 126.854 94.625 126.898 94.8828 126.898C95.207 126.898 95.5 126.836 95.7617 126.711C96.0273 126.582 96.2578 126.393 96.4531 126.143L97.2324 126.951C97.0996 127.146 96.9199 127.334 96.6934 127.514C96.4707 127.693 96.2012 127.84 95.8848 127.953C95.5684 128.062 95.2031 128.117 94.7891 128.117ZM102.201 126.172L103.982 121.66H105.277L102.729 128H101.68L99.1367 121.66H100.438L102.201 126.172ZM100.057 121.66V128H98.5039V121.66H100.057ZM104.375 128V121.66H105.928V128H104.375ZM3.85742 139.316H1.84766L1.83594 138.268H3.48828C3.73438 138.268 3.93555 138.242 4.0918 138.191C4.24805 138.141 4.36328 138.064 4.4375 137.963C4.51562 137.861 4.55469 137.738 4.55469 137.594C4.55469 137.469 4.53125 137.361 4.48438 137.271C4.4375 137.178 4.36719 137.102 4.27344 137.043C4.18359 136.984 4.06836 136.941 3.92773 136.914C3.79102 136.883 3.63086 136.867 3.44727 136.867H2.39844V142H0.845703V135.66H3.44727C3.85742 135.66 4.22656 135.697 4.55469 135.771C4.88281 135.842 5.16211 135.949 5.39258 136.094C5.62305 136.238 5.79883 136.422 5.91992 136.645C6.04492 136.863 6.10742 137.121 6.10742 137.418C6.10742 137.613 6.06445 137.797 5.97852 137.969C5.89258 138.141 5.76562 138.293 5.59766 138.426C5.42969 138.559 5.22266 138.668 4.97656 138.754C4.73047 138.836 4.44922 138.887 4.13281 138.906L3.85742 139.316ZM3.85742 142H1.43164L2.00586 140.793H3.85742C4.08398 140.793 4.27148 140.766 4.41992 140.711C4.56836 140.652 4.67773 140.568 4.74805 140.459C4.82227 140.35 4.85938 140.217 4.85938 140.061C4.85938 139.908 4.82422 139.777 4.75391 139.668C4.6875 139.555 4.58008 139.469 4.43164 139.41C4.28711 139.348 4.0957 139.316 3.85742 139.316H2.25781L2.26953 138.268H4.12695L4.53711 138.684C4.95898 138.711 5.30859 138.797 5.58594 138.941C5.86328 139.082 6.07031 139.262 6.20703 139.48C6.34375 139.695 6.41211 139.932 6.41211 140.189C6.41211 140.49 6.35547 140.754 6.24219 140.98C6.12891 141.207 5.96289 141.396 5.74414 141.549C5.52539 141.697 5.25781 141.811 4.94141 141.889C4.625 141.963 4.26367 142 3.85742 142ZM10.1387 140.898C10.3574 140.898 10.5527 140.855 10.7246 140.77C10.8965 140.684 11.0332 140.562 11.1348 140.406C11.2402 140.25 11.2969 140.068 11.3047 139.861H12.7637C12.7559 140.291 12.6348 140.676 12.4004 141.016C12.166 141.355 11.8535 141.625 11.4629 141.824C11.0762 142.02 10.6426 142.117 10.1621 142.117C9.67383 142.117 9.24805 142.035 8.88477 141.871C8.52148 141.707 8.21875 141.479 7.97656 141.186C7.73828 140.893 7.55859 140.553 7.4375 140.166C7.32031 139.779 7.26172 139.365 7.26172 138.924V138.736C7.26172 138.295 7.32031 137.881 7.4375 137.494C7.55859 137.107 7.73828 136.768 7.97656 136.475C8.21875 136.182 8.52148 135.953 8.88477 135.789C9.24805 135.625 9.67188 135.543 10.1562 135.543C10.668 135.543 11.1172 135.643 11.5039 135.842C11.8945 136.041 12.1992 136.322 12.418 136.686C12.6406 137.049 12.7559 137.477 12.7637 137.969H11.3047C11.2969 137.742 11.2461 137.539 11.1523 137.359C11.0586 137.18 10.9258 137.035 10.7539 136.926C10.582 136.816 10.373 136.762 10.127 136.762C9.86523 136.762 9.64648 136.816 9.4707 136.926C9.29883 137.035 9.16406 137.186 9.06641 137.377C8.97266 137.564 8.90625 137.775 8.86719 138.01C8.83203 138.24 8.81445 138.482 8.81445 138.736V138.924C8.81445 139.182 8.83203 139.428 8.86719 139.662C8.90625 139.896 8.97266 140.107 9.06641 140.295C9.16406 140.479 9.29883 140.625 9.4707 140.734C9.64648 140.844 9.86914 140.898 10.1387 140.898ZM16.8711 135.66V142H15.3184V135.66H16.8711ZM18.9336 135.66V136.867H13.291V135.66H18.9336ZM21.3887 136.879V144.438H19.8359V135.66H21.2715L21.3887 136.879ZM25.4609 138.766V138.889C25.4609 139.35 25.4062 139.777 25.2969 140.172C25.1914 140.562 25.0352 140.904 24.8281 141.197C24.6211 141.486 24.3633 141.713 24.0547 141.877C23.75 142.037 23.3984 142.117 23 142.117C22.6094 142.117 22.2695 142.043 21.9805 141.895C21.6914 141.742 21.4473 141.527 21.248 141.25C21.0488 140.973 20.8887 140.65 20.7676 140.283C20.6504 139.912 20.5625 139.508 20.5039 139.07V138.678C20.5625 138.213 20.6504 137.791 20.7676 137.412C20.8887 137.029 21.0488 136.699 21.248 136.422C21.4473 136.141 21.6895 135.924 21.9746 135.771C22.2637 135.619 22.6016 135.543 22.9883 135.543C23.3906 135.543 23.7441 135.619 24.0488 135.771C24.3574 135.924 24.6172 136.143 24.8281 136.428C25.0391 136.713 25.1973 137.053 25.3027 137.447C25.4082 137.842 25.4609 138.281 25.4609 138.766ZM23.9082 138.889V138.766C23.9082 138.484 23.8828 138.225 23.832 137.986C23.7812 137.744 23.7031 137.533 23.5977 137.354C23.4922 137.17 23.3555 137.027 23.1875 136.926C23.0195 136.824 22.8164 136.773 22.5781 136.773C22.3398 136.773 22.1348 136.812 21.9629 136.891C21.791 136.969 21.6504 137.08 21.541 137.225C21.4316 137.369 21.3457 137.541 21.2832 137.74C21.2246 137.936 21.1855 138.152 21.166 138.391V139.363C21.2012 139.652 21.2695 139.912 21.3711 140.143C21.4727 140.373 21.6211 140.557 21.8164 140.693C22.0156 140.83 22.2734 140.898 22.5898 140.898C22.8281 140.898 23.0312 140.846 23.1992 140.74C23.3672 140.635 23.5039 140.49 23.6094 140.307C23.7148 140.119 23.791 139.904 23.8379 139.662C23.8848 139.42 23.9082 139.162 23.9082 138.889ZM29.4395 142.117C28.959 142.117 28.5273 142.039 28.1445 141.883C27.7617 141.727 27.4355 141.51 27.166 141.232C26.9004 140.951 26.6953 140.625 26.5508 140.254C26.4102 139.879 26.3398 139.477 26.3398 139.047V138.812C26.3398 138.324 26.4102 137.881 26.5508 137.482C26.6914 137.08 26.8906 136.734 27.1484 136.445C27.4062 136.156 27.7148 135.934 28.0742 135.777C28.4336 135.621 28.8301 135.543 29.2637 135.543C29.7129 135.543 30.1094 135.619 30.4531 135.771C30.7969 135.92 31.084 136.131 31.3145 136.404C31.5449 136.678 31.7188 137.006 31.8359 137.389C31.9531 137.768 32.0117 138.188 32.0117 138.648V139.299H27.043V138.232H30.4883V138.115C30.4805 137.869 30.4336 137.645 30.3477 137.441C30.2617 137.234 30.1289 137.07 29.9492 136.949C29.7695 136.824 29.5371 136.762 29.252 136.762C29.0215 136.762 28.8203 136.812 28.6484 136.914C28.4805 137.012 28.3398 137.152 28.2266 137.336C28.1172 137.516 28.0352 137.73 27.9805 137.98C27.9258 138.23 27.8984 138.508 27.8984 138.812V139.047C27.8984 139.312 27.9336 139.559 28.0039 139.785C28.0781 140.012 28.1855 140.209 28.3262 140.377C28.4707 140.541 28.6426 140.67 28.8418 140.764C29.0449 140.854 29.2754 140.898 29.5332 140.898C29.8574 140.898 30.1504 140.836 30.4121 140.711C30.6777 140.582 30.9082 140.393 31.1035 140.143L31.8828 140.951C31.75 141.146 31.5703 141.334 31.3438 141.514C31.1211 141.693 30.8516 141.84 30.5352 141.953C30.2188 142.062 29.8535 142.117 29.4395 142.117ZM38.2637 135.66V142H36.7109V135.66H38.2637ZM37.5605 138.42V139.639C37.4121 139.709 37.2324 139.775 37.0215 139.838C36.8145 139.896 36.5957 139.943 36.3652 139.979C36.1387 140.014 35.918 140.031 35.7031 140.031C35.1211 140.031 34.6191 139.945 34.1973 139.773C33.7793 139.602 33.457 139.338 33.2305 138.982C33.0039 138.623 32.8906 138.164 32.8906 137.605V135.654H34.4375V137.605C34.4375 137.906 34.4824 138.145 34.5723 138.32C34.6621 138.496 34.8008 138.621 34.9883 138.695C35.1758 138.77 35.4141 138.807 35.7031 138.807C35.9258 138.807 36.1387 138.791 36.3418 138.76C36.5449 138.725 36.7461 138.68 36.9453 138.625C37.1484 138.566 37.3535 138.498 37.5605 138.42ZM41.5273 141.297L43.2266 135.66H44.8848L42.3418 142.961C42.2832 143.117 42.207 143.287 42.1133 143.471C42.0234 143.654 41.9023 143.828 41.75 143.992C41.5977 144.16 41.4062 144.297 41.1758 144.402C40.9492 144.508 40.6738 144.561 40.3496 144.561C40.209 144.561 40.084 144.551 39.9746 144.531C39.8652 144.512 39.75 144.486 39.6289 144.455V143.295C39.668 143.299 39.7129 143.301 39.7637 143.301C39.8184 143.305 39.8652 143.307 39.9043 143.307C40.1309 143.307 40.3184 143.279 40.4668 143.225C40.6152 143.174 40.7344 143.09 40.8242 142.973C40.918 142.859 40.9961 142.711 41.0586 142.527L41.5273 141.297ZM40.6895 135.66L42.125 140.33L42.377 141.965L41.3105 142.158L39.0195 135.66H40.6895ZM51.2246 140.898C51.4434 140.898 51.6387 140.855 51.8105 140.77C51.9824 140.684 52.1191 140.562 52.2207 140.406C52.3262 140.25 52.3828 140.068 52.3906 139.861H53.8496C53.8418 140.291 53.7207 140.676 53.4863 141.016C53.252 141.355 52.9395 141.625 52.5488 141.824C52.1621 142.02 51.7285 142.117 51.248 142.117C50.7598 142.117 50.334 142.035 49.9707 141.871C49.6074 141.707 49.3047 141.479 49.0625 141.186C48.8242 140.893 48.6445 140.553 48.5234 140.166C48.4062 139.779 48.3477 139.365 48.3477 138.924V138.736C48.3477 138.295 48.4062 137.881 48.5234 137.494C48.6445 137.107 48.8242 136.768 49.0625 136.475C49.3047 136.182 49.6074 135.953 49.9707 135.789C50.334 135.625 50.7578 135.543 51.2422 135.543C51.7539 135.543 52.2031 135.643 52.5898 135.842C52.9805 136.041 53.2852 136.322 53.5039 136.686C53.7266 137.049 53.8418 137.477 53.8496 137.969H52.3906C52.3828 137.742 52.332 137.539 52.2383 137.359C52.1445 137.18 52.0117 137.035 51.8398 136.926C51.668 136.816 51.459 136.762 51.2129 136.762C50.9512 136.762 50.7324 136.816 50.5566 136.926C50.3848 137.035 50.25 137.186 50.1523 137.377C50.0586 137.564 49.9922 137.775 49.9531 138.01C49.918 138.24 49.9004 138.482 49.9004 138.736V138.924C49.9004 139.182 49.918 139.428 49.9531 139.662C49.9922 139.896 50.0586 140.107 50.1523 140.295C50.25 140.479 50.3848 140.625 50.5566 140.734C50.7324 140.844 50.9551 140.898 51.2246 140.898ZM59.5215 135.66V142H57.9746V135.66H59.5215ZM63.6523 135.66L60.8574 139.551H59.2109L59.0176 138.133H60.1602L61.7012 135.66H63.6523ZM61.7949 142L60.0605 139.281L61.3496 138.473L63.8516 142H61.7949ZM68.0527 140.652V137.729C68.0527 137.514 68.0156 137.328 67.9414 137.172C67.8672 137.016 67.7539 136.895 67.6016 136.809C67.4492 136.723 67.2559 136.68 67.0215 136.68C66.8145 136.68 66.6328 136.715 66.4766 136.785C66.3242 136.855 66.207 136.955 66.125 137.084C66.043 137.209 66.002 137.354 66.002 137.518H64.4492C64.4492 137.256 64.5117 137.008 64.6367 136.773C64.7617 136.535 64.9395 136.324 65.1699 136.141C65.4043 135.953 65.6836 135.807 66.0078 135.701C66.3359 135.596 66.7031 135.543 67.1094 135.543C67.5898 135.543 68.0176 135.625 68.3926 135.789C68.7715 135.949 69.0684 136.191 69.2832 136.516C69.502 136.84 69.6113 137.248 69.6113 137.74V140.506C69.6113 140.822 69.6309 141.094 69.6699 141.32C69.7129 141.543 69.7754 141.736 69.8574 141.9V142H68.2812C68.207 141.84 68.1504 141.637 68.1113 141.391C68.0723 141.141 68.0527 140.895 68.0527 140.652ZM68.2695 138.139L68.2812 139.059H67.3027C67.0605 139.059 66.8477 139.084 66.6641 139.135C66.4805 139.182 66.3301 139.252 66.2129 139.346C66.0957 139.436 66.0078 139.545 65.9492 139.674C65.8906 139.799 65.8613 139.941 65.8613 140.102C65.8613 140.258 65.8965 140.398 65.9668 140.523C66.041 140.648 66.1465 140.748 66.2832 140.822C66.4238 140.893 66.5879 140.928 66.7754 140.928C67.0488 140.928 67.2871 140.873 67.4902 140.764C67.6934 140.65 67.8516 140.514 67.9648 140.354C68.0781 140.193 68.1387 140.041 68.1465 139.896L68.5918 140.564C68.5371 140.725 68.4551 140.895 68.3457 141.074C68.2363 141.254 68.0957 141.422 67.9238 141.578C67.752 141.734 67.5449 141.863 67.3027 141.965C67.0605 142.066 66.7793 142.117 66.459 142.117C66.0488 142.117 65.6816 142.035 65.3574 141.871C65.0332 141.707 64.7773 141.482 64.5898 141.197C64.4023 140.912 64.3086 140.588 64.3086 140.225C64.3086 139.889 64.3711 139.592 64.4961 139.334C64.6211 139.076 64.8066 138.859 65.0527 138.684C65.2988 138.504 65.6035 138.369 65.9668 138.279C66.334 138.186 66.7539 138.139 67.2266 138.139H68.2695ZM75.3359 138.262V139.475H72.084V138.262H75.3359ZM72.5703 135.66V142H71.0176V135.66H72.5703ZM76.4199 135.66V142H74.8613V135.66H76.4199ZM78.9688 135.66H80.5156L80.457 137.84C80.4375 138.5 80.3594 139.07 80.2227 139.551C80.0898 140.027 79.9121 140.428 79.6895 140.752C79.4707 141.076 79.2207 141.338 78.9395 141.537C78.6621 141.736 78.3711 141.891 78.0664 142H77.6973L77.6914 140.793L77.873 140.781C78.0566 140.586 78.2109 140.395 78.3359 140.207C78.4648 140.016 78.5684 139.811 78.6465 139.592C78.7246 139.373 78.7832 139.123 78.8223 138.842C78.8652 138.557 78.8926 138.223 78.9043 137.84L78.9688 135.66ZM79.3848 135.66H83.4922V142H81.9453V136.932H79.3848V135.66ZM77.3457 140.781H84.377V143.898H82.8301V142H78.9219V143.898H77.3398L77.3457 140.781ZM86.832 139.791L89.1406 135.66H90.6934V142H89.1406V137.863L86.832 142H85.2793V135.66H86.832V139.791ZM93.2422 135.66H94.7891L94.7305 137.84C94.7109 138.5 94.6328 139.07 94.4961 139.551C94.3633 140.027 94.1855 140.428 93.9629 140.752C93.7441 141.076 93.4941 141.338 93.2129 141.537C92.9355 141.736 92.6445 141.891 92.3398 142H91.9707L91.9648 140.793L92.1465 140.781C92.3301 140.586 92.4844 140.395 92.6094 140.207C92.7383 140.016 92.8418 139.811 92.9199 139.592C92.998 139.373 93.0566 139.123 93.0957 138.842C93.1387 138.557 93.166 138.223 93.1777 137.84L93.2422 135.66ZM93.6582 135.66H97.7656V142H96.2188V136.932H93.6582V135.66ZM91.6191 140.781H98.6504V143.898H97.1035V142H93.1953V143.898H91.6133L91.6191 140.781ZM103.092 140.652V137.729C103.092 137.514 103.055 137.328 102.98 137.172C102.906 137.016 102.793 136.895 102.641 136.809C102.488 136.723 102.295 136.68 102.061 136.68C101.854 136.68 101.672 136.715 101.516 136.785C101.363 136.855 101.246 136.955 101.164 137.084C101.082 137.209 101.041 137.354 101.041 137.518H99.4883C99.4883 137.256 99.5508 137.008 99.6758 136.773C99.8008 136.535 99.9785 136.324 100.209 136.141C100.443 135.953 100.723 135.807 101.047 135.701C101.375 135.596 101.742 135.543 102.148 135.543C102.629 135.543 103.057 135.625 103.432 135.789C103.811 135.949 104.107 136.191 104.322 136.516C104.541 136.84 104.65 137.248 104.65 137.74V140.506C104.65 140.822 104.67 141.094 104.709 141.32C104.752 141.543 104.814 141.736 104.896 141.9V142H103.32C103.246 141.84 103.189 141.637 103.15 141.391C103.111 141.141 103.092 140.895 103.092 140.652ZM103.309 138.139L103.32 139.059H102.342C102.1 139.059 101.887 139.084 101.703 139.135C101.52 139.182 101.369 139.252 101.252 139.346C101.135 139.436 101.047 139.545 100.988 139.674C100.93 139.799 100.9 139.941 100.9 140.102C100.9 140.258 100.936 140.398 101.006 140.523C101.08 140.648 101.186 140.748 101.322 140.822C101.463 140.893 101.627 140.928 101.814 140.928C102.088 140.928 102.326 140.873 102.529 140.764C102.732 140.65 102.891 140.514 103.004 140.354C103.117 140.193 103.178 140.041 103.186 139.896L103.631 140.564C103.576 140.725 103.494 140.895 103.385 141.074C103.275 141.254 103.135 141.422 102.963 141.578C102.791 141.734 102.584 141.863 102.342 141.965C102.1 142.066 101.818 142.117 101.498 142.117C101.088 142.117 100.721 142.035 100.396 141.871C100.072 141.707 99.8164 141.482 99.6289 141.197C99.4414 140.912 99.3477 140.588 99.3477 140.225C99.3477 139.889 99.4102 139.592 99.5352 139.334C99.6602 139.076 99.8457 138.859 100.092 138.684C100.338 138.504 100.643 138.369 101.006 138.279C101.373 138.186 101.793 138.139 102.266 138.139H103.309ZM109.027 135.66V142H107.475V135.66H109.027ZM111.09 135.66V136.867H105.447V135.66H111.09ZM111.512 138.895V138.771C111.512 138.307 111.578 137.879 111.711 137.488C111.844 137.094 112.037 136.752 112.291 136.463C112.545 136.174 112.855 135.949 113.223 135.789C113.59 135.625 114.008 135.543 114.477 135.543C114.953 135.543 115.375 135.625 115.742 135.789C116.113 135.949 116.426 136.174 116.68 136.463C116.934 136.752 117.127 137.094 117.26 137.488C117.393 137.879 117.459 138.307 117.459 138.771V138.895C117.459 139.355 117.393 139.783 117.26 140.178C117.127 140.568 116.934 140.91 116.68 141.203C116.426 141.492 116.115 141.717 115.748 141.877C115.381 142.037 114.961 142.117 114.488 142.117C114.02 142.117 113.6 142.037 113.229 141.877C112.857 141.717 112.545 141.492 112.291 141.203C112.037 140.91 111.844 140.568 111.711 140.178C111.578 139.783 111.512 139.355 111.512 138.895ZM113.059 138.771V138.895C113.059 139.172 113.086 139.432 113.141 139.674C113.195 139.916 113.279 140.129 113.393 140.312C113.506 140.496 113.652 140.641 113.832 140.746C114.016 140.848 114.234 140.898 114.488 140.898C114.738 140.898 114.953 140.848 115.133 140.746C115.312 140.641 115.459 140.496 115.572 140.312C115.689 140.129 115.775 139.916 115.83 139.674C115.885 139.432 115.912 139.172 115.912 138.895V138.771C115.912 138.498 115.885 138.242 115.83 138.004C115.775 137.762 115.689 137.549 115.572 137.365C115.459 137.178 115.311 137.031 115.127 136.926C114.947 136.816 114.73 136.762 114.477 136.762C114.227 136.762 114.012 136.816 113.832 136.926C113.652 137.031 113.506 137.178 113.393 137.365C113.279 137.549 113.195 137.762 113.141 138.004C113.086 138.242 113.059 138.498 113.059 138.771ZM122.387 140.172L124.168 135.66H125.463L122.914 142H121.865L119.322 135.66H120.623L122.387 140.172ZM120.242 135.66V142H118.689V135.66H120.242ZM124.561 142V135.66H126.113V142H124.561Z" fill="url(#paint2_linear_1099_7979)"/>
<defs>
<linearGradient id="paint0_linear_1099_7979" x1="110.271" y1="18.8257" x2="53.3384" y2="134.499" gradientUnits="userSpaceOnUse">
<stop stop-color="#7F31DA"/>
<stop offset="0.325806" stop-color="#D669F4"/>
<stop offset="0.653937" stop-color="#FF5CAA"/>
<stop offset="1" stop-color="#FF9883"/>
</linearGradient>
<linearGradient id="paint1_linear_1099_7979" x1="28.727" y1="13.3337" x2="13.815" y2="43.6308" gradientUnits="userSpaceOnUse">
<stop stop-color="#7F31DA"/>
<stop offset="0.325806" stop-color="#D669F4"/>
<stop offset="0.653937" stop-color="#FF5CAA"/>
<stop offset="1" stop-color="#FF9883"/>
</linearGradient>
<linearGradient id="paint2_linear_1099_7979" x1="4.71129" y1="140.134" x2="127.68" y2="162.21" gradientUnits="userSpaceOnUse">
<stop offset="0.0237177" stop-color="#6D19A8"/>
<stop offset="0.357057" stop-color="#9F24AA"/>
<stop offset="0.596645" stop-color="#D93F94"/>
<stop offset="0.851858" stop-color="#F64073"/>
<stop offset="0.958449" stop-color="#F66B63"/>
</linearGradient>
</defs>
</svg>
