<svg width="114" height="105" viewBox="0 0 114 105" fill="none" xmlns="http://www.w3.org/2000/svg">
<g clip-path="url(#clip0_1_16)">
<path fill-rule="evenodd" clip-rule="evenodd" d="M61.3748 102.232C88.892 102.232 111.198 79.925 111.198 52.4083C111.198 24.8915 88.892 2.58472 61.3748 2.58472C49.08 2.58472 37.8289 7.03568 29.1387 14.4171C30.7203 16.9895 31.6331 20.0188 31.6331 23.2575C31.6331 32.5908 24.067 40.1568 14.7338 40.1568C14.1791 40.1568 13.6302 40.13 13.0884 40.0776C12.085 44.0191 11.5513 48.15 11.5513 52.4083C11.5513 79.925 33.858 102.232 61.3748 102.232ZM11.6291 37.8329C12.6305 38.0451 13.6691 38.1568 14.7338 38.1568C22.9624 38.1568 29.6331 31.4862 29.6331 23.2575C29.6331 19.8011 28.4561 16.6196 26.4811 14.0919C35.6898 5.70088 47.9348 0.584717 61.3748 0.584717C89.996 0.584717 113.198 23.7869 113.198 52.4083C113.198 81.0296 89.996 104.232 61.3748 104.232C32.7535 104.232 9.5513 81.0296 9.5513 52.4083C9.5513 47.3476 10.2766 42.4564 11.6291 37.8329Z" fill="url(#paint0_linear_1_16)"/>
<path fill-rule="evenodd" clip-rule="evenodd" d="M14.0761 34.1347C20.468 34.1347 25.6497 28.953 25.6497 22.561C25.6497 16.1691 20.468 10.9874 14.0761 10.9874C7.6841 10.9874 2.5024 16.1691 2.5024 22.561C2.5024 28.953 7.6841 34.1347 14.0761 34.1347ZM14.0761 36.1347C21.5726 36.1347 27.6497 30.0575 27.6497 22.561C27.6497 15.0645 21.5726 8.98743 14.0761 8.98743C6.5796 8.98743 0.502396 15.0645 0.502396 22.561C0.502396 30.0575 6.5796 36.1347 14.0761 36.1347Z" fill="url(#paint1_linear_1_16)"/>
<path d="M18.7527 26.3876V28.9266H8.8309V26.7782L13.4012 21.9735C13.8048 21.5113 14.1304 21.0979 14.3777 20.7333C14.6251 20.3622 14.8042 20.0269 14.9149 19.7274C15.032 19.4279 15.0906 19.1578 15.0906 18.9169C15.0906 18.5067 15.0288 18.1649 14.9051 17.8915C14.7879 17.6115 14.6121 17.3999 14.3777 17.2567C14.1499 17.1135 13.8667 17.0419 13.5281 17.0419C13.1896 17.0419 12.8934 17.1395 12.6395 17.3348C12.3856 17.5302 12.187 17.7971 12.0438 18.1356C11.907 18.4742 11.8387 18.855 11.8387 19.2782H8.5379C8.5379 18.4058 8.7495 17.6083 9.1727 16.8856C9.6024 16.163 10.1981 15.5868 10.9598 15.1571C11.7215 14.7209 12.6037 14.5028 13.6063 14.5028C14.6544 14.5028 15.5333 14.6656 16.243 14.9911C16.9526 15.3166 17.4865 15.7886 17.8445 16.4071C18.2091 17.0191 18.3914 17.758 18.3914 18.6239C18.3914 19.1187 18.3133 19.594 18.157 20.0497C18.0008 20.5054 17.7762 20.9579 17.4832 21.4071C17.1902 21.8498 16.8322 22.3055 16.409 22.7743C15.9923 23.243 15.5171 23.7411 14.9832 24.2684L13.1473 26.3876H18.7527Z" fill="#8435DC"/>
<path d="M58.3746 20.6973C57.7018 20.5267 56.9979 20.5991 56.4459 20.908C55.8842 21.2222 55.4899 21.7793 55.4705 22.5246C55.4401 23.6893 55.7097 25.2516 56.78 27.0873C57.8368 28.8984 59.0035 29.9843 59.9718 30.6293C60.5832 31.0372 61.2587 31.0482 61.8359 30.7825C62.404 30.5207 62.8662 29.9978 63.106 29.3495C63.2262 29.0231 63.1984 28.6605 63.0284 28.3567L62.5081 27.4292C62.4033 27.242 62.2622 27.0776 62.0931 26.9456C61.9241 26.8135 61.7304 26.7164 61.5234 26.66C61.3165 26.6035 61.1003 26.5889 60.8876 26.6168C60.675 26.6448 60.47 26.7149 60.2846 26.8229L60.0022 26.9877C59.7772 27.1189 59.5471 27.0879 59.4217 26.956C59.0003 26.5152 58.617 25.8715 58.4438 25.291C58.3953 25.1288 58.4729 24.9239 58.6842 24.7901L59.1948 24.4656C59.546 24.2427 59.7977 23.8929 59.8975 23.4891C59.9973 23.0853 59.9376 22.6586 59.7307 22.2977L59.1503 21.2855C58.9822 20.9927 58.7023 20.7801 58.3746 20.6973Z" fill="#18A75A"/>
<path d="M62.1415 20.6341C62.2239 20.6106 62.3123 20.6208 62.3872 20.6624L62.6348 20.8001C63.5016 21.2815 64.2389 21.9657 64.7837 22.7942C65.3285 23.6226 65.6646 24.5707 65.7632 25.5573L65.7832 25.7603C65.7895 25.8035 65.787 25.8475 65.7758 25.8897C65.7646 25.9319 65.745 25.9713 65.7181 26.0057C65.6913 26.0402 65.6577 26.0688 65.6195 26.0898C65.5813 26.1109 65.5392 26.124 65.4958 26.1284C65.4523 26.1328 65.4085 26.1283 65.3668 26.1153C65.3252 26.1022 65.2866 26.0809 65.2534 26.0525C65.2202 26.0241 65.1932 25.9894 65.1738 25.9502C65.1544 25.9111 65.1432 25.8685 65.1407 25.8249L65.1201 25.6213C65.0317 24.7387 64.731 23.8906 64.2436 23.1496C63.7563 22.4085 63.0967 21.7964 62.3213 21.3657L62.0731 21.2273C61.9982 21.1857 61.9429 21.116 61.9194 21.0335C61.8959 20.9511 61.9061 20.8627 61.9477 20.7878C61.9894 20.7129 62.0591 20.6576 62.1415 20.6341Z" fill="#18A75A"/>
<path d="M61.8285 22.2476C61.7454 22.2683 61.6738 22.3212 61.6297 22.3947C61.6079 22.4311 61.5941 22.4714 61.5879 22.5134C61.5816 22.5554 61.5838 22.5982 61.5941 22.6394C61.6044 22.6806 61.6227 22.7193 61.648 22.7534C61.6733 22.7875 61.7051 22.8163 61.7415 22.8381L61.8217 22.8859C62.263 23.1508 62.6416 23.5084 62.9311 23.9339C63.2207 24.3594 63.4145 24.8427 63.499 25.3505L63.5281 25.5224C63.5339 25.5653 63.5482 25.6065 63.5703 25.6438C63.5923 25.681 63.6216 25.7134 63.6564 25.7391C63.6913 25.7648 63.7309 25.7832 63.7729 25.7933C63.815 25.8034 63.8587 25.8049 63.9013 25.7978C63.944 25.7907 63.9848 25.7751 64.0214 25.752C64.0579 25.7288 64.0894 25.6985 64.114 25.663C64.1387 25.6274 64.1559 25.5872 64.1647 25.5449C64.1735 25.5025 64.1738 25.4589 64.1654 25.4164L64.1369 25.2438C64.0368 24.6438 63.8076 24.0727 63.4651 23.5699C63.1226 23.0672 62.675 22.6448 62.1533 22.332L62.0731 22.2841C61.9996 22.24 61.9117 22.2269 61.8285 22.2476Z" fill="#18A75A"/>
<path d="M70.1204 55.0689C70.3728 55.3213 70.3728 55.7305 70.1204 55.983L68.5045 57.5989C68.3772 57.7262 68.2025 57.7946 68.0226 57.7877C67.8427 57.7808 67.6738 57.6992 67.5567 57.5625L66.5871 56.4313C66.3548 56.1603 66.3862 55.7523 66.6572 55.5199C66.9283 55.2876 67.3363 55.319 67.5686 55.59L68.0839 56.1912L69.2063 55.0689C69.4587 54.8165 69.868 54.8165 70.1204 55.0689Z" fill="#18A75A"/>
<path d="M70.1204 77.0452C70.3728 77.2976 70.3728 77.7069 70.1204 77.9593L68.5045 79.5752C68.3772 79.7025 68.2025 79.771 68.0226 79.764C67.8427 79.7571 67.6738 79.6755 67.5567 79.5388L66.5871 78.4077C66.3548 78.1366 66.3862 77.7286 66.6572 77.4963C66.9283 77.264 67.3363 77.2953 67.5686 77.5664L68.0839 78.1676L69.2063 77.0452C69.4587 76.7928 69.868 76.7928 70.1204 77.0452Z" fill="#18A75A"/>
<path d="M35.2613 71.5645C30.6887 71.5645 29.082 73.9045 29.082 75.4645V77.8045H41.4407V75.4645C41.4407 73.9045 39.834 71.5645 35.2613 71.5645Z" fill="#5F1BAB"/>
<path d="M35.2613 70.7845C37.181 70.7845 38.7372 69.213 38.7372 67.2745C38.7372 65.336 37.181 63.7645 35.2613 63.7645C33.3416 63.7645 31.7854 65.336 31.7854 67.2745C31.7854 69.213 33.3416 70.7845 35.2613 70.7845Z" fill="#5F1BAB"/>
<path d="M85.468 71.5645C80.895 71.5645 79.289 73.9045 79.289 75.4645V77.8045H91.647V75.4645C91.647 73.9045 90.041 71.5645 85.468 71.5645Z" fill="#5F1BAB"/>
<path d="M85.468 70.7845C87.388 70.7845 88.944 69.213 88.944 67.2745C88.944 65.336 87.388 63.7645 85.468 63.7645C83.549 63.7645 81.992 65.336 81.992 67.2745C81.992 69.213 83.549 70.7845 85.468 70.7845Z" fill="#5F1BAB"/>
<path fill-rule="evenodd" clip-rule="evenodd" d="M60.6133 14.1586C66.822 14.1586 71.8948 19.0218 72.2302 25.1467H72.8942C73.2512 25.1467 73.5405 25.4361 73.5405 25.7931C73.5405 26.1501 73.2512 26.4395 72.8942 26.4395H72.2302C71.8948 32.5644 66.822 37.4276 60.6133 37.4276C54.4046 37.4276 49.3318 32.5644 48.9964 26.4395H48.3324C47.9754 26.4395 47.686 26.1501 47.686 25.7931C47.686 25.4361 47.9754 25.1467 48.3324 25.1467H48.9964C49.3318 19.0218 54.4046 14.1586 60.6133 14.1586ZM60.6133 36.1349C66.3249 36.1349 70.9551 31.5047 70.9551 25.7931C70.9551 20.0815 66.3249 15.4513 60.6133 15.4513C54.9017 15.4513 50.2715 20.0815 50.2715 25.7931C50.2715 31.5047 54.9017 36.1349 60.6133 36.1349Z" fill="#606060"/>
<path d="M38.0464 26.6844C38.4266 26.5268 38.8439 26.4395 39.2833 26.4395H40.5761C40.933 26.4395 41.2224 26.1501 41.2224 25.7931C41.2224 25.4361 40.933 25.1467 40.5761 25.1467H39.2833C38.671 25.1467 38.0856 25.2687 37.5512 25.4903C37.2215 25.6271 37.065 26.0052 37.2017 26.335C37.3385 26.6647 37.7167 26.8212 38.0464 26.6844Z" fill="#606060"/>
<path d="M43.1615 25.1467C42.8045 25.1467 42.5151 25.4361 42.5151 25.7931C42.5151 26.1501 42.8045 26.4395 43.1615 26.4395H45.747C46.1039 26.4395 46.3933 26.1501 46.3933 25.7931C46.3933 25.4361 46.1039 25.1467 45.747 25.1467H43.1615Z" fill="#606060"/>
<path d="M36.2965 28.4343C36.4332 28.1046 36.2768 27.7264 35.947 27.5897C35.6173 27.4529 35.2391 27.6094 35.1024 27.9392C34.8808 28.4735 34.7588 29.059 34.7588 29.6713V30.964C34.7588 31.321 35.0482 31.6104 35.4052 31.6104C35.7621 31.6104 36.0515 31.321 36.0515 30.964V29.6713C36.0515 29.2319 36.1388 28.8145 36.2965 28.4343Z" fill="#606060"/>
<path d="M36.0515 33.5494C36.0515 33.1925 35.7621 32.9031 35.4052 32.9031C35.0482 32.9031 34.7588 33.1925 34.7588 33.5494V36.1349C34.7588 36.4919 35.0482 36.7813 35.4052 36.7813C35.7621 36.7813 36.0515 36.4919 36.0515 36.1349V33.5494Z" fill="#606060"/>
<path d="M36.0515 38.7203C36.0515 38.3634 35.7621 38.074 35.4052 38.074C35.0482 38.074 34.7588 38.3634 34.7588 38.7203V41.3058C34.7588 41.6628 35.0482 41.9522 35.4052 41.9522C35.7621 41.9522 36.0515 41.6628 36.0515 41.3058V38.7203Z" fill="#606060"/>
<path d="M36.0515 43.8912C36.0515 43.5343 35.7621 43.2449 35.4052 43.2449C35.0482 43.2449 34.7588 43.5343 34.7588 43.8912V46.4767C34.7588 46.8337 35.0482 47.1231 35.4052 47.1231C35.7621 47.1231 36.0515 46.8337 36.0515 46.4767V43.8912Z" fill="#606060"/>
<path d="M36.0515 49.0621C36.0515 48.7052 35.7621 48.4158 35.4052 48.4158C35.0482 48.4158 34.7588 48.7052 34.7588 49.0621V51.6476C34.7588 52.0046 35.0482 52.294 35.4052 52.294C35.7621 52.294 36.0515 52.0046 36.0515 51.6476V49.0621Z" fill="#606060"/>
<path d="M36.0515 54.233C36.0515 53.8761 35.7621 53.5867 35.4052 53.5867C35.0482 53.5867 34.7588 53.8761 34.7588 54.233V56.8185C34.7588 57.1755 35.0482 57.4649 35.4052 57.4649C35.7621 57.4649 36.0515 57.1755 36.0515 56.8185V54.233Z" fill="#606060"/>
<path d="M36.0515 59.4039C36.0515 59.047 35.7621 58.7576 35.4052 58.7576C35.0482 58.7576 34.7588 59.047 34.7588 59.4039V60.6967C34.7588 61.0536 35.0482 61.343 35.4052 61.343C35.7621 61.343 36.0515 61.0536 36.0515 60.6967V59.4039Z" fill="#606060"/>
<path d="M83.18 26.6844C82.8 26.5268 82.383 26.4395 81.943 26.4395H80.651C80.294 26.4395 80.004 26.1501 80.004 25.7931C80.004 25.4361 80.294 25.1467 80.651 25.1467H81.943C82.556 25.1467 83.141 25.2687 83.675 25.4903C84.005 25.6271 84.162 26.0052 84.025 26.335C83.888 26.6647 83.51 26.8212 83.18 26.6844Z" fill="#606060"/>
<path d="M78.065 25.1467C78.422 25.1467 78.711 25.4361 78.711 25.7931C78.711 26.1501 78.422 26.4395 78.065 26.4395H75.4796C75.1227 26.4395 74.8333 26.1501 74.8333 25.7931C74.8333 25.4361 75.1227 25.1467 75.4796 25.1467H78.065Z" fill="#606060"/>
<path d="M84.93 28.4343C84.793 28.1046 84.95 27.7264 85.28 27.5897C85.609 27.4529 85.987 27.6094 86.124 27.9392C86.346 28.4735 86.468 29.059 86.468 29.6713V30.964C86.468 31.321 86.178 31.6104 85.821 31.6104C85.464 31.6104 85.175 31.321 85.175 30.964V29.6713C85.175 29.2319 85.088 28.8145 84.93 28.4343Z" fill="#606060"/>
<path d="M85.175 33.5494C85.175 33.1925 85.464 32.9031 85.821 32.9031C86.178 32.9031 86.468 33.1925 86.468 33.5494V36.1349C86.468 36.4919 86.178 36.7813 85.821 36.7813C85.464 36.7813 85.175 36.4919 85.175 36.1349V33.5494Z" fill="#606060"/>
<path d="M85.175 38.7203C85.175 38.3634 85.464 38.074 85.821 38.074C86.178 38.074 86.468 38.3634 86.468 38.7203V41.3058C86.468 41.6628 86.178 41.9522 85.821 41.9522C85.464 41.9522 85.175 41.6628 85.175 41.3058V38.7203Z" fill="#606060"/>
<path d="M85.175 43.8912C85.175 43.5343 85.464 43.2449 85.821 43.2449C86.178 43.2449 86.468 43.5343 86.468 43.8912V46.4767C86.468 46.8337 86.178 47.1231 85.821 47.1231C85.464 47.1231 85.175 46.8337 85.175 46.4767V43.8912Z" fill="#606060"/>
<path d="M85.175 49.0621C85.175 48.7052 85.464 48.4158 85.821 48.4158C86.178 48.4158 86.468 48.7052 86.468 49.0621V51.6476C86.468 52.0046 86.178 52.294 85.821 52.294C85.464 52.294 85.175 52.0046 85.175 51.6476V49.0621Z" fill="#606060"/>
<path d="M85.175 54.233C85.175 53.8761 85.464 53.5867 85.821 53.5867C86.178 53.5867 86.468 53.8761 86.468 54.233V56.8185C86.468 57.1755 86.178 57.4649 85.821 57.4649C85.464 57.4649 85.175 57.1755 85.175 56.8185V54.233Z" fill="#606060"/>
<path d="M85.175 59.4039C85.175 59.047 85.464 58.7576 85.821 58.7576C86.178 58.7576 86.468 59.047 86.468 59.4039V60.6967C86.468 61.0536 86.178 61.343 85.821 61.343C85.464 61.343 85.175 61.0536 85.175 60.6967V59.4039Z" fill="#606060"/>
<path fill-rule="evenodd" clip-rule="evenodd" d="M66.4306 52.294H70.3087C71.3797 52.294 72.2478 53.1621 72.2478 54.233V58.1112C72.2478 59.1821 71.3797 60.0503 70.3087 60.0503H66.4306C65.3596 60.0503 64.4915 59.1821 64.4915 58.1112V54.233C64.4915 53.1621 65.3596 52.294 66.4306 52.294ZM66.4306 53.5867C66.0736 53.5867 65.7842 53.8761 65.7842 54.233V58.1112C65.7842 58.4682 66.0736 58.7576 66.4306 58.7576H70.3087C70.6657 58.7576 70.9551 58.4682 70.9551 58.1112V54.233C70.9551 53.8761 70.6657 53.5867 70.3087 53.5867H66.4306Z" fill="#606060"/>
<path d="M49.6251 54.8794C49.2682 54.8794 48.9788 55.1688 48.9788 55.5258C48.9788 55.8827 49.2682 56.1721 49.6251 56.1721H61.2597C61.6166 56.1721 61.906 55.8827 61.906 55.5258C61.906 55.1688 61.6166 54.8794 61.2597 54.8794H49.6251Z" fill="#606060"/>
<path d="M49.6251 56.8185C49.2682 56.8185 48.9788 57.1079 48.9788 57.4649C48.9788 57.8218 49.2682 58.1112 49.6251 58.1112H56.7351C57.0921 58.1112 57.3815 57.8218 57.3815 57.4649C57.3815 57.1079 57.0921 56.8185 56.7351 56.8185H49.6251Z" fill="#606060"/>
<path fill-rule="evenodd" clip-rule="evenodd" d="M67.0769 63.9285H69.6624C70.7333 63.9285 71.6015 64.7966 71.6015 65.8676V68.453C71.6015 69.5239 70.7333 70.3921 69.6624 70.3921H67.0769C66.006 70.3921 65.1378 69.5239 65.1378 68.453V65.8676C65.1378 64.7966 66.006 63.9285 67.0769 63.9285ZM67.0769 65.2212C66.7199 65.2212 66.4306 65.5106 66.4306 65.8676V68.453C66.4306 68.81 66.7199 69.0994 67.0769 69.0994H69.6624C70.0193 69.0994 70.3087 68.81 70.3087 68.453V65.8676C70.3087 65.5106 70.0193 65.2212 69.6624 65.2212H67.0769Z" fill="#606060"/>
<path d="M49.6251 65.8676C49.2682 65.8676 48.9788 66.157 48.9788 66.5139C48.9788 66.8709 49.2682 67.1603 49.6251 67.1603H61.2597C61.6166 67.1603 61.906 66.8709 61.906 66.5139C61.906 66.157 61.6166 65.8676 61.2597 65.8676H49.6251Z" fill="#606060"/>
<path d="M49.6251 67.8067C49.2682 67.8067 48.9788 68.096 48.9788 68.453C48.9788 68.81 49.2682 69.0994 49.6251 69.0994H61.2597C61.6166 69.0994 61.906 68.81 61.906 68.453C61.906 68.096 61.6166 67.8067 61.2597 67.8067H49.6251Z" fill="#606060"/>
<path fill-rule="evenodd" clip-rule="evenodd" d="M66.4306 74.2703H70.3087C71.3797 74.2703 72.2478 75.1384 72.2478 76.2094V80.0875C72.2478 81.1585 71.3797 82.0266 70.3087 82.0266H66.4306C65.3596 82.0266 64.4915 81.1585 64.4915 80.0875V76.2094C64.4915 75.1384 65.3596 74.2703 66.4306 74.2703ZM66.4306 75.563C66.0736 75.563 65.7842 75.8524 65.7842 76.2094V80.0875C65.7842 80.4445 66.0736 80.7339 66.4306 80.7339H70.3087C70.6657 80.7339 70.9551 80.4445 70.9551 80.0875V76.2094C70.9551 75.8524 70.6657 75.563 70.3087 75.563H66.4306Z" fill="#606060"/>
<path d="M48.9788 78.1485C48.9788 77.7915 49.2682 77.5021 49.6251 77.5021H61.2597C61.6166 77.5021 61.906 77.7915 61.906 78.1485C61.906 78.5054 61.6166 78.7948 61.2597 78.7948H49.6251C49.2682 78.7948 48.9788 78.5054 48.9788 78.1485Z" fill="#606060"/>
<path fill-rule="evenodd" clip-rule="evenodd" d="M45.1006 49.7085C45.1006 48.2806 46.2581 47.1231 47.686 47.1231H73.5405C74.9685 47.1231 76.126 48.2806 76.126 49.7085V84.6121C76.126 86.04 74.9685 87.1975 73.5405 87.1975H47.686C46.2581 87.1975 45.1006 86.04 45.1006 84.6121V49.7085ZM47.686 48.4158C46.9721 48.4158 46.3933 48.9946 46.3933 49.7085V84.6121C46.3933 85.326 46.9721 85.9048 47.686 85.9048H73.5405C74.2545 85.9048 74.8333 85.326 74.8333 84.6121V49.7085C74.8333 48.9946 74.2545 48.4158 73.5405 48.4158H47.686Z" fill="#606060"/>
</g>
<defs>
<linearGradient id="paint0_linear_1_16" x1="107.774" y1="19.4104" x2="50.8408" y2="135.084" gradientUnits="userSpaceOnUse">
<stop stop-color="#7F31DA"/>
<stop offset="0.325806" stop-color="#D669F4"/>
<stop offset="0.653937" stop-color="#FF5CAA"/>
<stop offset="1" stop-color="#FF9883"/>
</linearGradient>
<linearGradient id="paint1_linear_1_16" x1="26.2289" y1="13.9183" x2="11.317" y2="44.2154" gradientUnits="userSpaceOnUse">
<stop stop-color="#7F31DA"/>
<stop offset="0.325806" stop-color="#D669F4"/>
<stop offset="0.653937" stop-color="#FF5CAA"/>
<stop offset="1" stop-color="#FF9883"/>
</linearGradient>
<clipPath id="clip0_1_16">
<rect width="114" height="105" fill="white"/>
</clipPath>
</defs>
</svg>
