<svg width="113" height="104" viewBox="0 0 113 104" fill="none" xmlns="http://www.w3.org/2000/svg">
<g clip-path="url(#clip0_1_77)">
<path d="M18.4559 23.7853V26.3243H8.22151L8.02621 24.3126L13.7391 15.1232H16.3367L13.5145 19.7423L11.1707 23.7853H18.4559ZM17.0203 15.1232V29.3419H13.7293V15.1232H17.0203Z" fill="#8435DC"/>
<path fill-rule="evenodd" clip-rule="evenodd" d="M64.8842 30.773H87.4376C89.0297 30.7748 90.32 32.0717 90.3218 33.672V46.074C90.32 47.6743 89.0297 48.9712 87.4376 48.973H73.819L73.7502 52.0061C73.7481 52.2071 73.6017 52.388 73.3814 52.462C73.3092 52.4872 73.2322 52.5002 73.1546 52.5C73.0015 52.4989 72.8561 52.4456 72.751 52.3518L68.8868 48.973H64.8842C63.292 48.9712 62.0018 47.6743 62 46.074V33.672C62.0018 32.0717 63.292 30.7748 64.8842 30.773ZM87.0509 32.073H65.2708C64.1759 32.0742 63.2885 32.9458 63.2873 34.0212V45.7248C63.2885 46.8002 64.1759 47.6718 65.2708 47.673H87.0509C88.1459 47.6718 89.0332 46.8003 89.0344 45.7248V34.0212C89.0332 32.9457 88.1459 32.0742 87.0509 32.073Z" fill="#606060"/>
<path fill-rule="evenodd" clip-rule="evenodd" d="M56.0541 30.773H32.9881C31.3598 30.7748 30.0402 32.0717 30.0383 33.672V46.074C30.0402 47.6743 31.3598 48.9712 32.9881 48.973H47.1848L47.2536 52.0061C47.2557 52.207 47.4021 52.388 47.6224 52.462C47.6946 52.4872 47.7716 52.5002 47.8492 52.5C48.0023 52.4989 48.1477 52.4455 48.2528 52.3518L52.117 48.973H56.0541C57.6824 48.9712 59.002 47.6743 59.0038 46.074V33.672C59.002 32.0717 57.6824 30.7748 56.0541 30.773ZM33.3588 32.073H55.6834C56.8057 32.0742 57.7152 32.9458 57.7165 34.0212V45.7248C57.7152 46.8002 56.8057 47.6718 55.6834 47.673H33.3588C32.2364 47.6718 31.3269 46.8003 31.3257 45.7248V34.0212C31.3269 32.9457 32.2364 32.0742 33.3588 32.073Z" fill="#606060"/>
<path d="M36.196 37.489C36.196 36.7751 36.7748 36.1963 37.4887 36.1963H50.416C51.1299 36.1963 51.7087 36.7751 51.7087 37.489C51.7087 38.203 51.1299 38.7817 50.416 38.7817H37.4887C36.7748 38.7817 36.196 38.203 36.196 37.489Z" fill="#5F1BAB"/>
<path d="M36.196 42.0136C36.196 41.2996 36.7748 40.7208 37.4887 40.7208H43.306C44.02 40.7208 44.5987 41.2996 44.5987 42.0136C44.5987 42.7275 44.02 43.3063 43.306 43.3063H37.4887C36.7748 43.3063 36.196 42.7275 36.196 42.0136Z" fill="#5F1BAB"/>
<path d="M72.7681 39.9392C72.7681 38.943 71.9605 38.1354 70.9643 38.1354C69.9681 38.1354 69.1605 38.943 69.1605 39.9392C69.1605 40.9354 69.9681 41.743 70.9643 41.743C71.9605 41.743 72.7681 40.9354 72.7681 39.9392Z" fill="#5F1BAB"/>
<path d="M82.0576 38.1354C83.0538 38.1354 83.8614 38.943 83.8614 39.9392C83.8614 40.9354 83.0538 41.743 82.0576 41.743C81.0614 41.743 80.2538 40.9354 80.2538 39.9392C80.2538 38.943 81.0614 38.1354 82.0576 38.1354Z" fill="#5F1BAB"/>
<path d="M39.2475 59.3684C39.2475 62.0581 41.428 64.2386 44.1177 64.2386C46.8075 64.2386 48.988 62.0581 48.988 59.3684C48.988 56.6786 46.8075 54.4981 44.1177 54.4981C41.428 54.4981 39.2475 56.6786 39.2475 59.3684Z" fill="#5F1BAB"/>
<path d="M81.6218 59.3684C81.6218 62.0581 79.4413 64.2386 76.7515 64.2386C74.0617 64.2386 71.8812 62.0581 71.8812 59.3684C71.8812 56.6786 74.0617 54.4981 76.7515 54.4981C79.4413 54.4981 81.6218 56.6786 81.6218 59.3684Z" fill="#5F1BAB"/>
<path d="M68.0932 70.7323C68.0932 68.5677 70.3444 65.3209 76.7515 65.3209C83.1586 65.3209 85.4097 68.5677 85.4097 70.7323V73.9791H68.0932V70.7323Z" fill="#5F1BAB"/>
<path d="M44.1177 65.3209C50.5248 65.3209 52.776 68.5677 52.776 70.7323V73.9792H35.4595V70.7323C35.4595 68.5677 37.7106 65.3209 44.1177 65.3209Z" fill="#5F1BAB"/>
<path d="M76.5107 38.1354C77.5069 38.1354 78.3145 38.943 78.3145 39.9392C78.3145 40.9354 77.5069 41.743 76.5107 41.743C75.5145 41.743 74.7069 40.9354 74.7069 39.9392C74.7069 38.943 75.5145 38.1354 76.5107 38.1354Z" fill="#18A75A"/>
<path d="M46.5376 42.0136C46.5376 41.2996 47.1164 40.7208 47.8303 40.7208H50.4158C51.1297 40.7208 51.7085 41.2996 51.7085 42.0136C51.7085 42.7275 51.1297 43.3063 50.4158 43.3063H47.8303C47.1164 43.3063 46.5376 42.7275 46.5376 42.0136Z" fill="#18A75A"/>
<path fill-rule="evenodd" clip-rule="evenodd" d="M60.8724 101.647C88.3891 101.647 110.696 79.3403 110.696 51.8235C110.696 24.3068 88.3891 2 60.8724 2C48.5773 2 37.326 6.45113 28.6358 13.8328C30.2172 16.4051 31.1298 19.4342 31.1298 22.6728C31.1298 32.006 23.5638 39.572 14.2306 39.572C13.6761 39.572 13.1275 39.5453 12.5859 39.4929C11.5826 43.4344 11.0488 47.5653 11.0488 51.8235C11.0488 79.3403 33.3556 101.647 60.8724 101.647ZM11.1266 37.2482C12.1278 37.4604 13.1662 37.572 14.2306 37.572C22.4592 37.572 29.1298 30.9014 29.1298 22.6728C29.1298 19.2166 27.953 16.0352 25.9782 13.5076C35.187 5.11633 47.4322 0 60.8724 0C89.4937 0 112.696 23.2022 112.696 51.8235C112.696 80.4449 89.4937 103.647 60.8724 103.647C32.251 103.647 9.0488 80.4449 9.0488 51.8235C9.0488 46.7629 9.7742 41.8717 11.1266 37.2482Z" fill="url(#paint0_linear_1_77)"/>
<path fill-rule="evenodd" clip-rule="evenodd" d="M13.5741 33.5501C19.966 33.5501 25.1477 28.3684 25.1477 21.9764C25.1477 15.5845 19.966 10.4028 13.5741 10.4028C7.1822 10.4028 2.00049 15.5845 2.00049 21.9764C2.00049 28.3684 7.1822 33.5501 13.5741 33.5501ZM13.5741 35.5501C21.0706 35.5501 27.1477 29.4729 27.1477 21.9764C27.1477 14.4799 21.0706 8.40283 13.5741 8.40283C6.0776 8.40283 0.000488281 14.4799 0.000488281 21.9764C0.000488281 29.4729 6.0776 35.5501 13.5741 35.5501Z" fill="url(#paint1_linear_1_77)"/>
</g>
<defs>
<linearGradient id="paint0_linear_1_77" x1="107.271" y1="18.8257" x2="50.3384" y2="134.499" gradientUnits="userSpaceOnUse">
<stop stop-color="#7F31DA"/>
<stop offset="0.325806" stop-color="#D669F4"/>
<stop offset="0.653937" stop-color="#FF5CAA"/>
<stop offset="1" stop-color="#FF9883"/>
</linearGradient>
<linearGradient id="paint1_linear_1_77" x1="25.727" y1="13.3337" x2="10.815" y2="43.6308" gradientUnits="userSpaceOnUse">
<stop stop-color="#7F31DA"/>
<stop offset="0.325806" stop-color="#D669F4"/>
<stop offset="0.653937" stop-color="#FF5CAA"/>
<stop offset="1" stop-color="#FF9883"/>
</linearGradient>
<clipPath id="clip0_1_77">
<rect width="113" height="104" fill="white"/>
</clipPath>
</defs>
</svg>
