<svg width="113" height="146" viewBox="0 0 113 146" fill="none" xmlns="http://www.w3.org/2000/svg">
<rect x="39.4282" y="63.2821" width="23.2691" height="5.1709" rx="1.29273" fill="#5F1BAB"/>
<path d="M39.4276 26.4391C39.4276 25.7251 40.0064 25.1464 40.7203 25.1464H70.453C71.167 25.1464 71.7457 25.7251 71.7457 26.4391C71.7457 27.153 71.167 27.7318 70.453 27.7318H40.7203C40.0064 27.7318 39.4276 27.153 39.4276 26.4391Z" fill="#606060"/>
<path fill-rule="evenodd" clip-rule="evenodd" d="M40.7203 31.61C40.0064 31.61 39.4276 32.1888 39.4276 32.9027V35.4882C39.4276 36.2021 40.0064 36.7809 40.7203 36.7809H80.7948C81.5088 36.7809 82.0875 36.2021 82.0875 35.4882V32.9027C82.0875 32.1888 81.5088 31.61 80.7948 31.61H40.7203ZM80.7948 32.9027H40.7203L40.7203 35.4882H80.7948V32.9027Z" fill="#606060"/>
<path fill-rule="evenodd" clip-rule="evenodd" d="M39.4276 41.9518C39.4276 41.2378 40.0064 40.6591 40.7203 40.6591H80.7948C81.5088 40.6591 82.0875 41.2378 82.0875 41.9518V44.5372C82.0875 45.2512 81.5088 45.83 80.7948 45.83H40.7203C40.0064 45.83 39.4276 45.2512 39.4276 44.5372V41.9518ZM40.7203 41.9518H80.7948V44.5372H40.7203L40.7203 41.9518Z" fill="#606060"/>
<path fill-rule="evenodd" clip-rule="evenodd" d="M40.7203 49.7081C40.0064 49.7081 39.4276 50.2869 39.4276 51.0009V56.1718C39.4276 56.8857 40.0064 57.4645 40.7203 57.4645H80.7948C81.5088 57.4645 82.0875 56.8857 82.0875 56.1718V51.0009C82.0875 50.2869 81.5088 49.7081 80.7948 49.7081H40.7203ZM80.7948 51.0009H40.7203L40.7203 56.1718H80.7948V51.0009Z" fill="#606060"/>
<path fill-rule="evenodd" clip-rule="evenodd" d="M80.7948 66.5136C80.7948 69.7264 78.1903 72.3308 74.9776 72.3308C71.7648 72.3308 69.1603 69.7264 69.1603 66.5136C69.1603 63.3008 71.7648 60.6963 74.9776 60.6963C78.1903 60.6963 80.7948 63.3008 80.7948 66.5136ZM79.5021 66.5136C79.5021 69.0124 77.4764 71.0381 74.9776 71.0381C72.4787 71.0381 70.453 69.0124 70.453 66.5136C70.453 64.0147 72.4787 61.989 74.9776 61.989C77.4764 61.989 79.5021 64.0147 79.5021 66.5136Z" fill="#606060"/>
<path fill-rule="evenodd" clip-rule="evenodd" d="M33.6104 21.2682C33.6104 18.7694 35.6361 16.7437 38.1349 16.7437H83.3803C85.8791 16.7437 87.9048 18.7694 87.9048 21.2682V83.319C87.9048 85.8178 85.8791 87.8435 83.3803 87.8435H38.1349C35.6361 87.8435 33.6104 85.8178 33.6104 83.319V21.2682ZM38.1349 18.0364C36.35 18.0364 34.9031 19.4833 34.9031 21.2682V83.319C34.9031 85.1039 36.35 86.5508 38.1349 86.5508H83.3803C85.1651 86.5508 86.6121 85.1039 86.6121 83.319V21.2682C86.6121 19.4833 85.1651 18.0364 83.3803 18.0364H38.1349Z" fill="#606060"/>
<path d="M72.9253 66.5136L74.6363 68.2246L77.3738 65.4871" stroke="#18A75A" stroke-width="1.29273" stroke-linecap="round" stroke-linejoin="round"/>
<path fill-rule="evenodd" clip-rule="evenodd" d="M60.8724 102.232C88.3891 102.232 110.696 79.925 110.696 52.4083C110.696 24.8915 88.3891 2.58472 60.8724 2.58472C48.5775 2.58472 37.3263 7.03573 28.6361 14.4172C30.2176 16.9895 31.1303 20.0188 31.1303 23.2574C31.1303 32.5906 23.5643 40.1567 14.2311 40.1567C13.6765 40.1567 13.1277 40.1299 12.586 40.0775C11.5826 44.0191 11.0488 48.15 11.0488 52.4083C11.0488 79.925 33.3556 102.232 60.8724 102.232ZM11.1267 37.8328C12.128 38.045 13.1665 38.1567 14.2311 38.1567C22.4597 38.1567 29.1303 31.4861 29.1303 23.2574C29.1303 19.8011 27.9534 16.6197 25.9785 14.092C35.1873 5.70093 47.4324 0.584717 60.8724 0.584717C89.4937 0.584717 112.696 23.7869 112.696 52.4083C112.696 81.0296 89.4937 104.232 60.8724 104.232C32.251 104.232 9.04883 81.0296 9.04883 52.4083C9.04883 47.3476 9.77421 42.4563 11.1267 37.8328Z" fill="url(#paint0_linear_1099_7982)"/>
<path fill-rule="evenodd" clip-rule="evenodd" d="M13.5736 34.1347C19.9655 34.1347 25.1472 28.953 25.1472 22.561C25.1472 16.1691 19.9655 10.9874 13.5736 10.9874C7.18168 10.9874 2 16.1691 2 22.561C2 28.953 7.18168 34.1347 13.5736 34.1347ZM13.5736 36.1347C21.0701 36.1347 27.1472 30.0575 27.1472 22.561C27.1472 15.0645 21.0701 8.98743 13.5736 8.98743C6.07711 8.98743 0 15.0645 0 22.561C0 30.0575 6.07711 36.1347 13.5736 36.1347Z" fill="url(#paint1_linear_1099_7982)"/>
<path d="M15.6146 15.7078V29.9265H12.3236V19.4187L9.08136 20.366V17.866L15.3118 15.7078H15.6146Z" fill="#8435DC"/>
<path d="M21.9707 124.518V124.957C21.9707 125.602 21.8848 126.182 21.7129 126.697C21.541 127.209 21.2969 127.645 20.9805 128.004C20.6641 128.363 20.2871 128.639 19.8496 128.83C19.4121 129.021 18.9258 129.117 18.3906 129.117C17.8633 129.117 17.3789 129.021 16.9375 128.83C16.5 128.639 16.1211 128.363 15.8008 128.004C15.4805 127.645 15.2324 127.209 15.0566 126.697C14.8809 126.182 14.793 125.602 14.793 124.957V124.518C14.793 123.869 14.8809 123.289 15.0566 122.777C15.2324 122.266 15.4785 121.83 15.7949 121.471C16.1113 121.107 16.4883 120.83 16.9258 120.639C17.3672 120.447 17.8516 120.352 18.3789 120.352C18.9141 120.352 19.4004 120.447 19.8379 120.639C20.2754 120.83 20.6523 121.107 20.9688 121.471C21.2891 121.83 21.5352 122.266 21.707 122.777C21.8828 123.289 21.9707 123.869 21.9707 124.518ZM20.3418 124.957V124.506C20.3418 124.041 20.2988 123.633 20.2129 123.281C20.127 122.926 20 122.627 19.832 122.385C19.6641 122.143 19.457 121.961 19.2109 121.84C18.9648 121.715 18.6875 121.652 18.3789 121.652C18.0664 121.652 17.7891 121.715 17.5469 121.84C17.3086 121.961 17.1055 122.143 16.9375 122.385C16.7695 122.627 16.6406 122.926 16.5508 123.281C16.4648 123.633 16.4219 124.041 16.4219 124.506V124.957C16.4219 125.418 16.4648 125.826 16.5508 126.182C16.6406 126.537 16.7695 126.838 16.9375 127.084C17.1094 127.326 17.3164 127.51 17.5586 127.635C17.8008 127.76 18.0781 127.822 18.3906 127.822C18.7031 127.822 18.9805 127.76 19.2227 127.635C19.4648 127.51 19.668 127.326 19.832 127.084C20 126.838 20.127 126.537 20.2129 126.182C20.2988 125.826 20.3418 125.418 20.3418 124.957ZM25.8203 127.898C26.0391 127.898 26.2344 127.855 26.4062 127.77C26.5781 127.684 26.7148 127.562 26.8164 127.406C26.9219 127.25 26.9785 127.068 26.9863 126.861H28.4453C28.4375 127.291 28.3164 127.676 28.082 128.016C27.8477 128.355 27.5352 128.625 27.1445 128.824C26.7578 129.02 26.3242 129.117 25.8438 129.117C25.3555 129.117 24.9297 129.035 24.5664 128.871C24.2031 128.707 23.9004 128.479 23.6582 128.186C23.4199 127.893 23.2402 127.553 23.1191 127.166C23.002 126.779 22.9434 126.365 22.9434 125.924V125.736C22.9434 125.295 23.002 124.881 23.1191 124.494C23.2402 124.107 23.4199 123.768 23.6582 123.475C23.9004 123.182 24.2031 122.953 24.5664 122.789C24.9297 122.625 25.3535 122.543 25.8379 122.543C26.3496 122.543 26.7988 122.643 27.1855 122.842C27.5762 123.041 27.8809 123.322 28.0996 123.686C28.3223 124.049 28.4375 124.477 28.4453 124.969H26.9863C26.9785 124.742 26.9277 124.539 26.834 124.359C26.7402 124.18 26.6074 124.035 26.4355 123.926C26.2637 123.816 26.0547 123.762 25.8086 123.762C25.5469 123.762 25.3281 123.816 25.1523 123.926C24.9805 124.035 24.8457 124.186 24.748 124.377C24.6543 124.564 24.5879 124.775 24.5488 125.01C24.5137 125.24 24.4961 125.482 24.4961 125.736V125.924C24.4961 126.182 24.5137 126.428 24.5488 126.662C24.5879 126.896 24.6543 127.107 24.748 127.295C24.8457 127.479 24.9805 127.625 25.1523 127.734C25.3281 127.844 25.5508 127.898 25.8203 127.898ZM32.5527 122.66V129H31V122.66H32.5527ZM34.6152 122.66V123.867H28.9727V122.66H34.6152ZM38.9219 127.652V124.729C38.9219 124.514 38.8848 124.328 38.8105 124.172C38.7363 124.016 38.623 123.895 38.4707 123.809C38.3184 123.723 38.125 123.68 37.8906 123.68C37.6836 123.68 37.502 123.715 37.3457 123.785C37.1934 123.855 37.0762 123.955 36.9941 124.084C36.9121 124.209 36.8711 124.354 36.8711 124.518H35.3184C35.3184 124.256 35.3809 124.008 35.5059 123.773C35.6309 123.535 35.8086 123.324 36.0391 123.141C36.2734 122.953 36.5527 122.807 36.877 122.701C37.2051 122.596 37.5723 122.543 37.9785 122.543C38.459 122.543 38.8867 122.625 39.2617 122.789C39.6406 122.949 39.9375 123.191 40.1523 123.516C40.3711 123.84 40.4805 124.248 40.4805 124.74V127.506C40.4805 127.822 40.5 128.094 40.5391 128.32C40.582 128.543 40.6445 128.736 40.7266 128.9V129H39.1504C39.0762 128.84 39.0195 128.637 38.9805 128.391C38.9414 128.141 38.9219 127.895 38.9219 127.652ZM39.1387 125.139L39.1504 126.059H38.1719C37.9297 126.059 37.7168 126.084 37.5332 126.135C37.3496 126.182 37.1992 126.252 37.082 126.346C36.9648 126.436 36.877 126.545 36.8184 126.674C36.7598 126.799 36.7305 126.941 36.7305 127.102C36.7305 127.258 36.7656 127.398 36.8359 127.523C36.9102 127.648 37.0156 127.748 37.1523 127.822C37.293 127.893 37.457 127.928 37.6445 127.928C37.918 127.928 38.1562 127.873 38.3594 127.764C38.5625 127.65 38.7207 127.514 38.834 127.354C38.9473 127.193 39.0078 127.041 39.0156 126.896L39.4609 127.564C39.4062 127.725 39.3242 127.895 39.2148 128.074C39.1055 128.254 38.9648 128.422 38.793 128.578C38.6211 128.734 38.4141 128.863 38.1719 128.965C37.9297 129.066 37.6484 129.117 37.3281 129.117C36.918 129.117 36.5508 129.035 36.2266 128.871C35.9023 128.707 35.6465 128.482 35.459 128.197C35.2715 127.912 35.1777 127.588 35.1777 127.225C35.1777 126.889 35.2402 126.592 35.3652 126.334C35.4902 126.076 35.6758 125.859 35.9219 125.684C36.168 125.504 36.4727 125.369 36.8359 125.279C37.2031 125.186 37.623 125.139 38.0957 125.139H39.1387ZM44.9922 126.316H42.9824L42.9707 125.268H44.623C44.8691 125.268 45.0703 125.242 45.2266 125.191C45.3828 125.141 45.498 125.064 45.5723 124.963C45.6504 124.861 45.6895 124.738 45.6895 124.594C45.6895 124.469 45.666 124.361 45.6191 124.271C45.5723 124.178 45.502 124.102 45.4082 124.043C45.3184 123.984 45.2031 123.941 45.0625 123.914C44.9258 123.883 44.7656 123.867 44.582 123.867H43.5332V129H41.9805V122.66H44.582C44.9922 122.66 45.3613 122.697 45.6895 122.771C46.0176 122.842 46.2969 122.949 46.5273 123.094C46.7578 123.238 46.9336 123.422 47.0547 123.645C47.1797 123.863 47.2422 124.121 47.2422 124.418C47.2422 124.613 47.1992 124.797 47.1133 124.969C47.0273 125.141 46.9004 125.293 46.7324 125.426C46.5645 125.559 46.3574 125.668 46.1113 125.754C45.8652 125.836 45.584 125.887 45.2676 125.906L44.9922 126.316ZM44.9922 129H42.5664L43.1406 127.793H44.9922C45.2188 127.793 45.4062 127.766 45.5547 127.711C45.7031 127.652 45.8125 127.568 45.8828 127.459C45.957 127.35 45.9941 127.217 45.9941 127.061C45.9941 126.908 45.959 126.777 45.8887 126.668C45.8223 126.555 45.7148 126.469 45.5664 126.41C45.4219 126.348 45.2305 126.316 44.9922 126.316H43.3926L43.4043 125.268H45.2617L45.6719 125.684C46.0938 125.711 46.4434 125.797 46.7207 125.941C46.998 126.082 47.2051 126.262 47.3418 126.48C47.4785 126.695 47.5469 126.932 47.5469 127.189C47.5469 127.49 47.4902 127.754 47.377 127.98C47.2637 128.207 47.0977 128.396 46.8789 128.549C46.6602 128.697 46.3926 128.811 46.0762 128.889C45.7598 128.963 45.3984 129 44.9922 129ZM49.7383 124.611H51.5898C52.1523 124.611 52.6309 124.705 53.0254 124.893C53.4238 125.076 53.7266 125.334 53.9336 125.666C54.1445 125.994 54.25 126.375 54.25 126.809C54.25 127.121 54.1895 127.412 54.0684 127.682C53.9512 127.947 53.7793 128.18 53.5527 128.379C53.3262 128.574 53.0469 128.727 52.7148 128.836C52.3867 128.945 52.0117 129 51.5898 129H48.7422V122.66H50.2949V127.787H51.5898C51.8594 127.787 52.0742 127.742 52.2344 127.652C52.3984 127.559 52.5156 127.439 52.5859 127.295C52.6602 127.146 52.6973 126.988 52.6973 126.82C52.6973 126.648 52.6602 126.488 52.5859 126.34C52.5156 126.188 52.3984 126.064 52.2344 125.971C52.0742 125.877 51.8594 125.83 51.5898 125.83H49.7383V124.611ZM57.7129 122.66V129H56.1602V122.66H57.7129ZM59.7754 122.66V123.867H54.1328V122.66H59.7754ZM63.1094 129.117C62.6289 129.117 62.1973 129.039 61.8145 128.883C61.4316 128.727 61.1055 128.51 60.8359 128.232C60.5703 127.951 60.3652 127.625 60.2207 127.254C60.0801 126.879 60.0098 126.477 60.0098 126.047V125.812C60.0098 125.324 60.0801 124.881 60.2207 124.482C60.3613 124.08 60.5605 123.734 60.8184 123.445C61.0762 123.156 61.3848 122.934 61.7441 122.777C62.1035 122.621 62.5 122.543 62.9336 122.543C63.3828 122.543 63.7793 122.619 64.123 122.771C64.4668 122.92 64.7539 123.131 64.9844 123.404C65.2148 123.678 65.3887 124.006 65.5059 124.389C65.623 124.768 65.6816 125.188 65.6816 125.648V126.299H60.7129V125.232H64.1582V125.115C64.1504 124.869 64.1035 124.645 64.0176 124.441C63.9316 124.234 63.7988 124.07 63.6191 123.949C63.4395 123.824 63.207 123.762 62.9219 123.762C62.6914 123.762 62.4902 123.812 62.3184 123.914C62.1504 124.012 62.0098 124.152 61.8965 124.336C61.7871 124.516 61.7051 124.73 61.6504 124.98C61.5957 125.23 61.5684 125.508 61.5684 125.812V126.047C61.5684 126.312 61.6035 126.559 61.6738 126.785C61.748 127.012 61.8555 127.209 61.9961 127.377C62.1406 127.541 62.3125 127.67 62.5117 127.764C62.7148 127.854 62.9453 127.898 63.2031 127.898C63.5273 127.898 63.8203 127.836 64.082 127.711C64.3477 127.582 64.5781 127.393 64.7734 127.143L65.5527 127.951C65.4199 128.146 65.2402 128.334 65.0137 128.514C64.791 128.693 64.5215 128.84 64.2051 128.953C63.8887 129.062 63.5234 129.117 63.1094 129.117ZM72.4258 125.977H71.1895V125.238H72.1328C72.3633 125.238 72.5469 125.207 72.6836 125.145C72.8242 125.082 72.9238 124.994 72.9824 124.881C73.0449 124.768 73.0762 124.637 73.0762 124.488C73.0762 124.355 73.0469 124.23 72.9883 124.113C72.9297 123.992 72.832 123.895 72.6953 123.82C72.5586 123.742 72.3691 123.703 72.127 123.703C71.9277 123.703 71.75 123.734 71.5938 123.797C71.4375 123.859 71.3145 123.947 71.2246 124.061C71.1348 124.174 71.0898 124.309 71.0898 124.465H69.5371C69.5371 124.066 69.6504 123.725 69.877 123.439C70.1074 123.154 70.4141 122.936 70.7969 122.783C71.1797 122.627 71.5996 122.549 72.0566 122.549C72.4512 122.549 72.8066 122.59 73.123 122.672C73.4395 122.75 73.709 122.867 73.9316 123.023C74.1543 123.18 74.3262 123.373 74.4473 123.604C74.5684 123.83 74.6289 124.094 74.6289 124.395C74.6289 124.609 74.5781 124.812 74.4766 125.004C74.375 125.195 74.2285 125.365 74.0371 125.514C73.8457 125.658 73.6133 125.771 73.3398 125.854C73.0703 125.936 72.7656 125.977 72.4258 125.977ZM71.1895 125.555H72.4258C72.8047 125.555 73.1367 125.592 73.4219 125.666C73.7109 125.736 73.9531 125.842 74.1484 125.982C74.3438 126.123 74.4902 126.297 74.5879 126.504C74.6895 126.707 74.7402 126.941 74.7402 127.207C74.7402 127.508 74.6738 127.777 74.541 128.016C74.4121 128.25 74.2285 128.449 73.9902 128.613C73.752 128.777 73.4688 128.902 73.1406 128.988C72.8125 129.074 72.4512 129.117 72.0566 129.117C71.6309 129.117 71.2168 129.047 70.8145 128.906C70.416 128.766 70.0859 128.549 69.8242 128.256C69.5664 127.963 69.4375 127.586 69.4375 127.125H70.9902C70.9902 127.273 71.0352 127.412 71.125 127.541C71.2148 127.67 71.3438 127.773 71.5117 127.852C71.6836 127.926 71.8906 127.963 72.1328 127.963C72.3789 127.963 72.5801 127.924 72.7363 127.846C72.8926 127.768 73.0059 127.664 73.0762 127.535C73.1504 127.402 73.1875 127.264 73.1875 127.119C73.1875 126.92 73.1484 126.76 73.0703 126.639C72.9961 126.514 72.8789 126.422 72.7188 126.363C72.5625 126.305 72.3672 126.275 72.1328 126.275H71.1895V125.555ZM79.3516 127.652V124.729C79.3516 124.514 79.3145 124.328 79.2402 124.172C79.166 124.016 79.0527 123.895 78.9004 123.809C78.748 123.723 78.5547 123.68 78.3203 123.68C78.1133 123.68 77.9316 123.715 77.7754 123.785C77.623 123.855 77.5059 123.955 77.4238 124.084C77.3418 124.209 77.3008 124.354 77.3008 124.518H75.748C75.748 124.256 75.8105 124.008 75.9355 123.773C76.0605 123.535 76.2383 123.324 76.4688 123.141C76.7031 122.953 76.9824 122.807 77.3066 122.701C77.6348 122.596 78.002 122.543 78.4082 122.543C78.8887 122.543 79.3164 122.625 79.6914 122.789C80.0703 122.949 80.3672 123.191 80.582 123.516C80.8008 123.84 80.9102 124.248 80.9102 124.74V127.506C80.9102 127.822 80.9297 128.094 80.9688 128.32C81.0117 128.543 81.0742 128.736 81.1562 128.9V129H79.5801C79.5059 128.84 79.4492 128.637 79.4102 128.391C79.3711 128.141 79.3516 127.895 79.3516 127.652ZM79.5684 125.139L79.5801 126.059H78.6016C78.3594 126.059 78.1465 126.084 77.9629 126.135C77.7793 126.182 77.6289 126.252 77.5117 126.346C77.3945 126.436 77.3066 126.545 77.248 126.674C77.1895 126.799 77.1602 126.941 77.1602 127.102C77.1602 127.258 77.1953 127.398 77.2656 127.523C77.3398 127.648 77.4453 127.748 77.582 127.822C77.7227 127.893 77.8867 127.928 78.0742 127.928C78.3477 127.928 78.5859 127.873 78.7891 127.764C78.9922 127.65 79.1504 127.514 79.2637 127.354C79.377 127.193 79.4375 127.041 79.4453 126.896L79.8906 127.564C79.8359 127.725 79.7539 127.895 79.6445 128.074C79.5352 128.254 79.3945 128.422 79.2227 128.578C79.0508 128.734 78.8438 128.863 78.6016 128.965C78.3594 129.066 78.0781 129.117 77.7578 129.117C77.3477 129.117 76.9805 129.035 76.6562 128.871C76.332 128.707 76.0762 128.482 75.8887 128.197C75.7012 127.912 75.6074 127.588 75.6074 127.225C75.6074 126.889 75.6699 126.592 75.7949 126.334C75.9199 126.076 76.1055 125.859 76.3516 125.684C76.5977 125.504 76.9023 125.369 77.2656 125.279C77.6328 125.186 78.0527 125.139 78.5254 125.139H79.5684ZM83.6523 125.871H85.2402L83.459 129H81.8711L83.6523 125.871ZM84.7305 122.66H87.4844V129H85.9375V123.867H84.7305C84.4844 123.867 84.2793 123.912 84.1152 124.002C83.9551 124.092 83.8359 124.207 83.7578 124.348C83.6797 124.484 83.6406 124.625 83.6406 124.77C83.6406 124.91 83.6777 125.047 83.752 125.18C83.8262 125.312 83.9395 125.422 84.0918 125.508C84.248 125.594 84.4434 125.637 84.6777 125.637H86.4883V126.727H84.6777C84.2754 126.727 83.9141 126.678 83.5938 126.58C83.2773 126.479 83.0059 126.338 82.7793 126.158C82.5566 125.979 82.3867 125.768 82.2695 125.525C82.1523 125.279 82.0938 125.012 82.0938 124.723C82.0938 124.426 82.1523 124.152 82.2695 123.902C82.3906 123.652 82.5645 123.434 82.791 123.246C83.0215 123.059 83.2988 122.914 83.623 122.812C83.9512 122.711 84.3203 122.66 84.7305 122.66ZM92.1133 126.316H90.1035L90.0918 125.268H91.7441C91.9902 125.268 92.1914 125.242 92.3477 125.191C92.5039 125.141 92.6191 125.064 92.6934 124.963C92.7715 124.861 92.8105 124.738 92.8105 124.594C92.8105 124.469 92.7871 124.361 92.7402 124.271C92.6934 124.178 92.623 124.102 92.5293 124.043C92.4395 123.984 92.3242 123.941 92.1836 123.914C92.0469 123.883 91.8867 123.867 91.7031 123.867H90.6543V129H89.1016V122.66H91.7031C92.1133 122.66 92.4824 122.697 92.8105 122.771C93.1387 122.842 93.418 122.949 93.6484 123.094C93.8789 123.238 94.0547 123.422 94.1758 123.645C94.3008 123.863 94.3633 124.121 94.3633 124.418C94.3633 124.613 94.3203 124.797 94.2344 124.969C94.1484 125.141 94.0215 125.293 93.8535 125.426C93.6855 125.559 93.4785 125.668 93.2324 125.754C92.9863 125.836 92.7051 125.887 92.3887 125.906L92.1133 126.316ZM92.1133 129H89.6875L90.2617 127.793H92.1133C92.3398 127.793 92.5273 127.766 92.6758 127.711C92.8242 127.652 92.9336 127.568 93.0039 127.459C93.0781 127.35 93.1152 127.217 93.1152 127.061C93.1152 126.908 93.0801 126.777 93.0098 126.668C92.9434 126.555 92.8359 126.469 92.6875 126.41C92.543 126.348 92.3516 126.316 92.1133 126.316H90.5137L90.5254 125.268H92.3828L92.793 125.684C93.2148 125.711 93.5645 125.797 93.8418 125.941C94.1191 126.082 94.3262 126.262 94.4629 126.48C94.5996 126.695 94.668 126.932 94.668 127.189C94.668 127.49 94.6113 127.754 94.498 127.98C94.3848 128.207 94.2188 128.396 94 128.549C93.7812 128.697 93.5137 128.811 93.1973 128.889C92.8809 128.963 92.5195 129 92.1133 129ZM97.4453 122.66V129H95.8984V122.66H97.4453ZM101.576 122.66L98.7812 126.551H97.1348L96.9414 125.133H98.084L99.625 122.66H101.576ZM99.7188 129L97.9844 126.281L99.2734 125.473L101.775 129H99.7188ZM104.342 128.297L106.041 122.66H107.699L105.156 129.961C105.098 130.117 105.021 130.287 104.928 130.471C104.838 130.654 104.717 130.828 104.564 130.992C104.412 131.16 104.221 131.297 103.99 131.402C103.764 131.508 103.488 131.561 103.164 131.561C103.023 131.561 102.898 131.551 102.789 131.531C102.68 131.512 102.564 131.486 102.443 131.455V130.295C102.482 130.299 102.527 130.301 102.578 130.301C102.633 130.305 102.68 130.307 102.719 130.307C102.945 130.307 103.133 130.279 103.281 130.225C103.43 130.174 103.549 130.09 103.639 129.973C103.732 129.859 103.811 129.711 103.873 129.527L104.342 128.297ZM103.504 122.66L104.939 127.33L105.191 128.965L104.125 129.158L101.834 122.66H103.504ZM42.0918 139.262V140.475H38.8398V139.262H42.0918ZM39.3262 136.66V143H37.7734V136.66H39.3262ZM43.1758 136.66V143H41.6172V136.66H43.1758ZM48.0742 141.652V138.729C48.0742 138.514 48.0371 138.328 47.9629 138.172C47.8887 138.016 47.7754 137.895 47.623 137.809C47.4707 137.723 47.2773 137.68 47.043 137.68C46.8359 137.68 46.6543 137.715 46.498 137.785C46.3457 137.855 46.2285 137.955 46.1465 138.084C46.0645 138.209 46.0234 138.354 46.0234 138.518H44.4707C44.4707 138.256 44.5332 138.008 44.6582 137.773C44.7832 137.535 44.9609 137.324 45.1914 137.141C45.4258 136.953 45.7051 136.807 46.0293 136.701C46.3574 136.596 46.7246 136.543 47.1309 136.543C47.6113 136.543 48.0391 136.625 48.4141 136.789C48.793 136.949 49.0898 137.191 49.3047 137.516C49.5234 137.84 49.6328 138.248 49.6328 138.74V141.506C49.6328 141.822 49.6523 142.094 49.6914 142.32C49.7344 142.543 49.7969 142.736 49.8789 142.9V143H48.3027C48.2285 142.84 48.1719 142.637 48.1328 142.391C48.0938 142.141 48.0742 141.895 48.0742 141.652ZM48.291 139.139L48.3027 140.059H47.3242C47.082 140.059 46.8691 140.084 46.6855 140.135C46.502 140.182 46.3516 140.252 46.2344 140.346C46.1172 140.436 46.0293 140.545 45.9707 140.674C45.9121 140.799 45.8828 140.941 45.8828 141.102C45.8828 141.258 45.918 141.398 45.9883 141.523C46.0625 141.648 46.168 141.748 46.3047 141.822C46.4453 141.893 46.6094 141.928 46.7969 141.928C47.0703 141.928 47.3086 141.873 47.5117 141.764C47.7148 141.65 47.873 141.514 47.9863 141.354C48.0996 141.193 48.1602 141.041 48.168 140.896L48.6133 141.564C48.5586 141.725 48.4766 141.895 48.3672 142.074C48.2578 142.254 48.1172 142.422 47.9453 142.578C47.7734 142.734 47.5664 142.863 47.3242 142.965C47.082 143.066 46.8008 143.117 46.4805 143.117C46.0703 143.117 45.7031 143.035 45.3789 142.871C45.0547 142.707 44.7988 142.482 44.6113 142.197C44.4238 141.912 44.3301 141.588 44.3301 141.225C44.3301 140.889 44.3926 140.592 44.5176 140.334C44.6426 140.076 44.8281 139.859 45.0742 139.684C45.3203 139.504 45.625 139.369 45.9883 139.279C46.3555 139.186 46.7754 139.139 47.248 139.139H48.291ZM56.6172 141.898C56.8359 141.898 57.0312 141.855 57.2031 141.77C57.375 141.684 57.5117 141.562 57.6133 141.406C57.7188 141.25 57.7754 141.068 57.7832 140.861H59.2422C59.2344 141.291 59.1133 141.676 58.8789 142.016C58.6445 142.355 58.332 142.625 57.9414 142.824C57.5547 143.02 57.1211 143.117 56.6406 143.117C56.1523 143.117 55.7266 143.035 55.3633 142.871C55 142.707 54.6973 142.479 54.4551 142.186C54.2168 141.893 54.0371 141.553 53.916 141.166C53.7988 140.779 53.7402 140.365 53.7402 139.924V139.736C53.7402 139.295 53.7988 138.881 53.916 138.494C54.0371 138.107 54.2168 137.768 54.4551 137.475C54.6973 137.182 55 136.953 55.3633 136.789C55.7266 136.625 56.1504 136.543 56.6348 136.543C57.1465 136.543 57.5957 136.643 57.9824 136.842C58.373 137.041 58.6777 137.322 58.8965 137.686C59.1191 138.049 59.2344 138.477 59.2422 138.969H57.7832C57.7754 138.742 57.7246 138.539 57.6309 138.359C57.5371 138.18 57.4043 138.035 57.2324 137.926C57.0605 137.816 56.8516 137.762 56.6055 137.762C56.3438 137.762 56.125 137.816 55.9492 137.926C55.7773 138.035 55.6426 138.186 55.5449 138.377C55.4512 138.564 55.3848 138.775 55.3457 139.01C55.3105 139.24 55.293 139.482 55.293 139.736V139.924C55.293 140.182 55.3105 140.428 55.3457 140.662C55.3848 140.896 55.4512 141.107 55.5449 141.295C55.6426 141.479 55.7773 141.625 55.9492 141.734C56.125 141.844 56.3477 141.898 56.6172 141.898ZM63.7656 141.652V138.729C63.7656 138.514 63.7285 138.328 63.6543 138.172C63.5801 138.016 63.4668 137.895 63.3145 137.809C63.1621 137.723 62.9688 137.68 62.7344 137.68C62.5273 137.68 62.3457 137.715 62.1895 137.785C62.0371 137.855 61.9199 137.955 61.8379 138.084C61.7559 138.209 61.7148 138.354 61.7148 138.518H60.1621C60.1621 138.256 60.2246 138.008 60.3496 137.773C60.4746 137.535 60.6523 137.324 60.8828 137.141C61.1172 136.953 61.3965 136.807 61.7207 136.701C62.0488 136.596 62.416 136.543 62.8223 136.543C63.3027 136.543 63.7305 136.625 64.1055 136.789C64.4844 136.949 64.7812 137.191 64.9961 137.516C65.2148 137.84 65.3242 138.248 65.3242 138.74V141.506C65.3242 141.822 65.3438 142.094 65.3828 142.32C65.4258 142.543 65.4883 142.736 65.5703 142.9V143H63.9941C63.9199 142.84 63.8633 142.637 63.8242 142.391C63.7852 142.141 63.7656 141.895 63.7656 141.652ZM63.9824 139.139L63.9941 140.059H63.0156C62.7734 140.059 62.5605 140.084 62.377 140.135C62.1934 140.182 62.043 140.252 61.9258 140.346C61.8086 140.436 61.7207 140.545 61.6621 140.674C61.6035 140.799 61.5742 140.941 61.5742 141.102C61.5742 141.258 61.6094 141.398 61.6797 141.523C61.7539 141.648 61.8594 141.748 61.9961 141.822C62.1367 141.893 62.3008 141.928 62.4883 141.928C62.7617 141.928 63 141.873 63.2031 141.764C63.4062 141.65 63.5645 141.514 63.6777 141.354C63.791 141.193 63.8516 141.041 63.8594 140.896L64.3047 141.564C64.25 141.725 64.168 141.895 64.0586 142.074C63.9492 142.254 63.8086 142.422 63.6367 142.578C63.4648 142.734 63.2578 142.863 63.0156 142.965C62.7734 143.066 62.4922 143.117 62.1719 143.117C61.7617 143.117 61.3945 143.035 61.0703 142.871C60.7461 142.707 60.4902 142.482 60.3027 142.197C60.1152 141.912 60.0215 141.588 60.0215 141.225C60.0215 140.889 60.084 140.592 60.209 140.334C60.334 140.076 60.5195 139.859 60.7656 139.684C61.0117 139.504 61.3164 139.369 61.6797 139.279C62.0469 139.186 62.4668 139.139 62.9395 139.139H63.9824ZM68.2832 140.791L70.5918 136.66H72.1445V143H70.5918V138.863L68.2832 143H66.7305V136.66H68.2832V140.791ZM70.3047 134.17H71.4297C71.4297 134.498 71.3496 134.789 71.1895 135.043C71.0293 135.297 70.8008 135.496 70.5039 135.641C70.2109 135.781 69.8633 135.852 69.4609 135.852C68.8555 135.852 68.375 135.695 68.0195 135.383C67.6641 135.07 67.4863 134.666 67.4863 134.17H68.6113C68.6113 134.377 68.6758 134.562 68.8047 134.727C68.9336 134.891 69.1523 134.973 69.4609 134.973C69.7695 134.973 69.9863 134.891 70.1113 134.727C70.2402 134.562 70.3047 134.377 70.3047 134.17ZM76.627 136.66V143H75.0742V136.66H76.627ZM78.6895 136.66V137.867H73.0469V136.66H78.6895ZM82.0234 143.117C81.543 143.117 81.1113 143.039 80.7285 142.883C80.3457 142.727 80.0195 142.51 79.75 142.232C79.4844 141.951 79.2793 141.625 79.1348 141.254C78.9941 140.879 78.9238 140.477 78.9238 140.047V139.812C78.9238 139.324 78.9941 138.881 79.1348 138.482C79.2754 138.08 79.4746 137.734 79.7324 137.445C79.9902 137.156 80.2988 136.934 80.6582 136.777C81.0176 136.621 81.4141 136.543 81.8477 136.543C82.2969 136.543 82.6934 136.619 83.0371 136.771C83.3809 136.92 83.668 137.131 83.8984 137.404C84.1289 137.678 84.3027 138.006 84.4199 138.389C84.5371 138.768 84.5957 139.188 84.5957 139.648V140.299H79.627V139.232H83.0723V139.115C83.0645 138.869 83.0176 138.645 82.9316 138.441C82.8457 138.234 82.7129 138.07 82.5332 137.949C82.3535 137.824 82.1211 137.762 81.8359 137.762C81.6055 137.762 81.4043 137.812 81.2324 137.914C81.0645 138.012 80.9238 138.152 80.8105 138.336C80.7012 138.516 80.6191 138.73 80.5645 138.98C80.5098 139.23 80.4824 139.508 80.4824 139.812V140.047C80.4824 140.312 80.5176 140.559 80.5879 140.785C80.6621 141.012 80.7695 141.209 80.9102 141.377C81.0547 141.541 81.2266 141.67 81.4258 141.764C81.6289 141.854 81.8594 141.898 82.1172 141.898C82.4414 141.898 82.7344 141.836 82.9961 141.711C83.2617 141.582 83.4922 141.393 83.6875 141.143L84.4668 141.951C84.334 142.146 84.1543 142.334 83.9277 142.514C83.7051 142.693 83.4355 142.84 83.1191 142.953C82.8027 143.062 82.4375 143.117 82.0234 143.117Z" fill="url(#paint2_linear_1099_7982)"/>
<defs>
<linearGradient id="paint0_linear_1099_7982" x1="107.271" y1="19.4104" x2="50.3384" y2="135.084" gradientUnits="userSpaceOnUse">
<stop stop-color="#7F31DA"/>
<stop offset="0.325806" stop-color="#D669F4"/>
<stop offset="0.653937" stop-color="#FF5CAA"/>
<stop offset="1" stop-color="#FF9883"/>
</linearGradient>
<linearGradient id="paint1_linear_1099_7982" x1="25.7265" y1="13.9183" x2="10.8146" y2="44.2154" gradientUnits="userSpaceOnUse">
<stop stop-color="#7F31DA"/>
<stop offset="0.325806" stop-color="#D669F4"/>
<stop offset="0.653937" stop-color="#FF5CAA"/>
<stop offset="1" stop-color="#FF9883"/>
</linearGradient>
<linearGradient id="paint2_linear_1099_7982" x1="17.4871" y1="141.134" x2="109.806" y2="153.401" gradientUnits="userSpaceOnUse">
<stop offset="0.0237177" stop-color="#6D19A8"/>
<stop offset="0.357057" stop-color="#9F24AA"/>
<stop offset="0.596645" stop-color="#D93F94"/>
<stop offset="0.851858" stop-color="#F64073"/>
<stop offset="0.958449" stop-color="#F66B63"/>
</linearGradient>
</defs>
</svg>
