<svg width="122" height="146" viewBox="0 0 122 146" fill="none" xmlns="http://www.w3.org/2000/svg">
<path d="M40.8254 25.1465C40.1115 25.1465 39.5327 25.7253 39.5327 26.4392C39.5327 27.1532 40.1115 27.7319 40.8254 27.7319H60.2163C60.9303 27.7319 61.509 27.1532 61.509 26.4392C61.509 25.7253 60.9303 25.1465 60.2163 25.1465H40.8254Z" fill="#5F1BAB"/>
<path d="M40.8254 29.0247C40.1115 29.0247 39.5327 29.6034 39.5327 30.3174C39.5327 31.0313 40.1115 31.6101 40.8254 31.6101H55.6918C56.4057 31.6101 56.9845 31.0313 56.9845 30.3174C56.9845 29.6034 56.4057 29.0247 55.6918 29.0247H40.8254Z" fill="#5F1BAB"/>
<path fill-rule="evenodd" clip-rule="evenodd" d="M82.839 74.27C82.839 77.8398 79.9451 80.7337 76.3754 80.7337C72.8056 80.7337 69.9118 77.8398 69.9118 74.27C69.9118 70.7003 72.8056 67.8064 76.3754 67.8064C79.9451 67.8064 82.839 70.7003 82.839 74.27ZM81.5463 74.27C81.5463 77.1259 79.2312 79.4409 76.3754 79.4409C73.5196 79.4409 71.2045 77.1259 71.2045 74.27C71.2045 71.4142 73.5196 69.0991 76.3754 69.0991C79.2312 69.0991 81.5463 71.4142 81.5463 74.27Z" fill="#5F1BAB"/>
<path fill-rule="evenodd" clip-rule="evenodd" d="M75.7295 36.1143C75.1212 36.1143 74.5478 35.9686 74.044 35.7111C72.8847 35.1186 72.0939 33.9341 72.0939 32.5694C72.0939 30.6116 73.7217 29.0245 75.7297 29.0245C77.7377 29.0245 79.3655 30.6116 79.3655 32.5694C79.3655 33.9341 78.5746 35.1186 77.4153 35.7111C76.9115 35.9687 76.3379 36.1143 75.7295 36.1143ZM78.0728 32.5694C78.0728 33.7826 77.0548 34.8216 75.7297 34.8216C74.4046 34.8216 73.3866 33.7826 73.3866 32.5694C73.3866 31.3563 74.4046 30.3173 75.7297 30.3173C77.0548 30.3173 78.0728 31.3563 78.0728 32.5694Z" fill="#606060"/>
<path fill-rule="evenodd" clip-rule="evenodd" d="M69.2659 25.1464C68.5519 25.1464 67.9732 25.7251 67.9732 26.4391V41.9518C67.9732 42.6657 68.5519 43.2445 69.2659 43.2445H82.1931C82.9071 43.2445 83.4859 42.6657 83.4859 41.9518V26.4391C83.4859 25.7251 82.9071 25.1464 82.1931 25.1464H69.2659ZM82.1931 26.4391H69.2659V40.8409C69.2659 39.4929 70.4961 37.5683 73.8471 37.0405C74.4127 36.9514 75.0389 36.9021 75.7297 36.9021C76.4205 36.9021 77.0465 36.9514 77.6122 37.0405C80.9466 37.5658 82.1811 39.4741 82.1931 40.821V26.4391ZM80.9005 41.9114V40.8409C80.9005 40.2681 80.1266 38.1948 75.7295 38.1948C71.3325 38.1948 70.5586 40.2681 70.5586 40.8409V41.9114H80.9005Z" fill="#606060"/>
<path fill-rule="evenodd" clip-rule="evenodd" d="M39.5332 35.4882C39.5332 34.7742 40.112 34.1954 40.8259 34.1954H60.2168C60.9308 34.1954 61.5095 34.7742 61.5095 35.4882V36.7809C61.5095 37.4948 60.9308 38.0736 60.2168 38.0736H40.8259C40.112 38.0736 39.5332 37.4948 39.5332 36.7809V35.4882ZM40.8259 35.4882H60.2168V36.7809H40.8259V35.4882Z" fill="#606060"/>
<path fill-rule="evenodd" clip-rule="evenodd" d="M39.5332 40.6591C39.5332 39.9451 40.112 39.3663 40.8259 39.3663H60.2168C60.9308 39.3663 61.5095 39.9451 61.5095 40.6591V41.9518C61.5095 42.6657 60.9308 43.2445 60.2168 43.2445H40.8259C40.112 43.2445 39.5332 42.6657 39.5332 41.9518V40.6591ZM40.8259 40.6591H60.2168V41.9518H40.8259V40.6591Z" fill="#606060"/>
<path fill-rule="evenodd" clip-rule="evenodd" d="M39.5332 69.099C39.5332 68.3851 40.112 67.8063 40.8259 67.8063H66.0341C66.748 67.8063 67.3268 68.3851 67.3268 69.099V79.4408C67.3268 80.1548 66.748 80.7336 66.0341 80.7336H40.8259C40.112 80.7336 39.5332 80.1548 39.5332 79.4408V69.099ZM40.8259 69.099H66.0341V79.4408H40.8259V69.099Z" fill="#606060"/>
<path fill-rule="evenodd" clip-rule="evenodd" d="M40.8259 45.83C40.112 45.83 39.5332 46.4087 39.5332 47.1227V52.2936C39.5332 53.0075 40.112 53.5863 40.8259 53.5863H82.1931C82.9071 53.5863 83.4859 53.0075 83.4859 52.2936V47.1227C83.4859 46.4087 82.9071 45.83 82.1931 45.83H40.8259ZM82.1931 47.1227H40.8259V52.2936H82.1931V47.1227Z" fill="#606060"/>
<path d="M40.1796 56.1718C39.8226 56.1718 39.5332 56.4612 39.5332 56.8181C39.5332 57.1751 39.8226 57.4645 40.1796 57.4645H82.8395C83.1965 57.4645 83.4859 57.1751 83.4859 56.8181C83.4859 56.4612 83.1965 56.1718 82.8395 56.1718H40.1796Z" fill="#606060"/>
<path d="M40.1796 60.0499C39.8226 60.0499 39.5332 60.3393 39.5332 60.6963C39.5332 61.0533 39.8226 61.3427 40.1796 61.3427H82.8395C83.1965 61.3427 83.4859 61.0533 83.4859 60.6963C83.4859 60.3393 83.1965 60.0499 82.8395 60.0499H40.1796Z" fill="#606060"/>
<path d="M40.1796 63.9281C39.8226 63.9281 39.5332 64.2175 39.5332 64.5745C39.5332 64.9315 39.8226 65.2209 40.1796 65.2209H82.8395C83.1965 65.2209 83.4859 64.9315 83.4859 64.5745C83.4859 64.2175 83.1965 63.9281 82.8395 63.9281H40.1796Z" fill="#606060"/>
<path fill-rule="evenodd" clip-rule="evenodd" d="M38.8868 16.7437C36.388 16.7437 34.3623 18.7694 34.3623 21.2682V83.319C34.3623 85.8178 36.388 87.8435 38.8868 87.8435H84.1322C86.6311 87.8435 88.6568 85.8178 88.6568 83.319V21.2682C88.6568 18.7694 86.6311 16.7437 84.1322 16.7437H38.8868ZM35.655 21.2682C35.655 19.4833 37.102 18.0364 38.8868 18.0364H84.1322C85.9171 18.0364 87.364 19.4833 87.364 21.2682V83.319C87.364 85.1039 85.9171 86.5508 84.1322 86.5508H38.8868C37.102 86.5508 35.655 85.1039 35.655 83.319V21.2682Z" fill="#606060"/>
<path fill-rule="evenodd" clip-rule="evenodd" d="M61.6238 102.232C89.1406 102.232 111.447 79.925 111.447 52.4083C111.447 24.8915 89.1406 2.58472 61.6238 2.58472C49.3287 2.58472 38.0775 7.03587 29.3872 14.4176C30.9686 16.9898 31.8812 20.019 31.8812 23.2574C31.8812 32.5906 24.3151 40.1567 14.9819 40.1567C14.4275 40.1567 13.8789 40.1299 13.3374 40.0776C12.334 44.0191 11.8003 48.15 11.8003 52.4083C11.8003 79.925 34.107 102.232 61.6238 102.232ZM11.8781 37.8329C12.8793 38.0451 13.9176 38.1567 14.9819 38.1567C23.2106 38.1567 29.8812 31.4861 29.8812 23.2574C29.8812 19.8013 28.7044 16.62 26.7296 14.0923C35.9384 5.70106 48.1836 0.584717 61.6238 0.584717C90.2452 0.584717 113.447 23.7869 113.447 52.4083C113.447 81.0296 90.2452 104.232 61.6238 104.232C33.0025 104.232 9.80029 81.0296 9.80029 52.4083C9.80029 47.3476 10.5257 42.4564 11.8781 37.8329Z" fill="url(#paint0_linear_1099_7980)"/>
<path fill-rule="evenodd" clip-rule="evenodd" d="M14.3246 34.1347C20.7165 34.1347 25.8982 28.953 25.8982 22.561C25.8982 16.1691 20.7165 10.9874 14.3246 10.9874C7.93266 10.9874 2.75098 16.1691 2.75098 22.561C2.75098 28.953 7.93266 34.1347 14.3246 34.1347ZM14.3246 36.1347C21.8211 36.1347 27.8982 30.0575 27.8982 22.561C27.8982 15.0645 21.8211 8.98743 14.3246 8.98743C6.82809 8.98743 0.750977 15.0645 0.750977 22.561C0.750977 30.0575 6.82809 36.1347 14.3246 36.1347Z" fill="url(#paint1_linear_1099_7980)"/>
<path d="M12.0775 21.4402H13.679C14.0892 21.4402 14.4245 21.3686 14.6849 21.2253C14.9518 21.0756 15.1504 20.8673 15.2806 20.6003C15.4108 20.3269 15.4759 20.0046 15.4759 19.6335C15.4759 19.3471 15.414 19.0834 15.2903 18.8425C15.1732 18.6016 14.9909 18.4096 14.7435 18.2664C14.4961 18.1166 14.1803 18.0417 13.7962 18.0417C13.5358 18.0417 13.2819 18.0971 13.0345 18.2078C12.7871 18.3119 12.582 18.4617 12.4193 18.657C12.263 18.8523 12.1849 19.0899 12.1849 19.3699H8.8841C8.8841 18.5626 9.10545 17.8725 9.54816 17.2996C9.99738 16.7201 10.5866 16.2774 11.3157 15.9714C12.0514 15.6589 12.8424 15.5027 13.6888 15.5027C14.6979 15.5027 15.5833 15.6589 16.345 15.9714C17.1068 16.2774 17.6992 16.7332 18.1224 17.3386C18.5521 17.9376 18.7669 18.6798 18.7669 19.5652C18.7669 20.0535 18.653 20.5125 18.4251 20.9421C18.1972 21.3718 17.8782 21.7494 17.4681 22.075C17.0579 22.4005 16.5762 22.6576 16.0228 22.8464C15.4759 23.0287 14.8769 23.1199 14.2259 23.1199H12.0775V21.4402ZM12.0775 23.8914V22.2507H14.2259C14.9355 22.2507 15.5833 22.3321 16.1693 22.4949C16.7552 22.6511 17.2597 22.8855 17.6829 23.198C18.1061 23.5105 18.4316 23.8979 18.6595 24.3601C18.8874 24.8158 19.0013 25.3399 19.0013 25.9324C19.0013 26.5964 18.8678 27.1889 18.6009 27.7097C18.334 28.2306 17.9596 28.67 17.4778 29.0281C16.9961 29.3861 16.4329 29.6596 15.7884 29.8484C15.1439 30.0307 14.444 30.1218 13.6888 30.1218C13.0963 30.1218 12.5039 30.0437 11.9114 29.8875C11.319 29.7247 10.7786 29.4773 10.2903 29.1453C9.80207 28.8067 9.40819 28.377 9.10871 27.8562C8.81574 27.3289 8.66925 26.7006 8.66925 25.9714H11.97C11.97 26.2709 12.0514 26.5444 12.2142 26.7917C12.3834 27.0326 12.6081 27.2247 12.888 27.3679C13.168 27.5111 13.4707 27.5828 13.7962 27.5828C14.1999 27.5828 14.5416 27.5079 14.8216 27.3582C15.1081 27.2019 15.3262 26.9936 15.4759 26.7332C15.6256 26.4727 15.7005 26.183 15.7005 25.864C15.7005 25.3822 15.6191 24.9981 15.4564 24.7117C15.3001 24.4252 15.069 24.2169 14.763 24.0867C14.4635 23.9565 14.1022 23.8914 13.679 23.8914H12.0775Z" fill="#8435DC"/>
<path d="M73.79 73.3005L76.0523 76.2091L81.2232 69.0991" stroke="#18A75A" stroke-width="2.58545" stroke-linecap="round" stroke-linejoin="round"/>
<path d="M6.13086 125.197H3.95117L3.93945 124.061H5.80859C6.12891 124.061 6.39648 124.016 6.61133 123.926C6.82617 123.836 6.98828 123.705 7.09766 123.533C7.21094 123.361 7.26758 123.152 7.26758 122.906C7.26758 122.633 7.21484 122.41 7.10938 122.238C7.00781 122.066 6.84766 121.941 6.62891 121.863C6.41016 121.781 6.13281 121.74 5.79688 121.74H4.47266V129H2.86133V120.469H5.79688C6.28125 120.469 6.71289 120.516 7.0918 120.609C7.47461 120.699 7.79883 120.84 8.06445 121.031C8.33008 121.223 8.53125 121.463 8.66797 121.752C8.80859 122.041 8.87891 122.385 8.87891 122.783C8.87891 123.135 8.79688 123.459 8.63281 123.756C8.47266 124.049 8.22461 124.287 7.88867 124.471C7.55664 124.654 7.13477 124.76 6.62305 124.787L6.13086 125.197ZM6.06055 129H3.47656L4.15039 127.734H6.06055C6.38086 127.734 6.64453 127.682 6.85156 127.576C7.0625 127.471 7.21875 127.326 7.32031 127.143C7.42578 126.955 7.47852 126.74 7.47852 126.498C7.47852 126.232 7.43164 126.002 7.33789 125.807C7.24805 125.611 7.10352 125.461 6.9043 125.355C6.70898 125.25 6.45117 125.197 6.13086 125.197H4.45508L4.4668 124.061H6.59961L6.96875 124.5C7.46094 124.504 7.86133 124.602 8.16992 124.793C8.48242 124.984 8.71289 125.23 8.86133 125.531C9.00977 125.832 9.08398 126.156 9.08398 126.504C9.08398 127.051 8.96484 127.51 8.72656 127.881C8.49219 128.252 8.14844 128.531 7.69531 128.719C7.24609 128.906 6.70117 129 6.06055 129ZM11.4629 124.611H13.3145C13.877 124.611 14.3555 124.705 14.75 124.893C15.1484 125.076 15.4512 125.334 15.6582 125.666C15.8691 125.994 15.9746 126.375 15.9746 126.809C15.9746 127.121 15.9141 127.412 15.793 127.682C15.6758 127.947 15.5039 128.18 15.2773 128.379C15.0508 128.574 14.7715 128.727 14.4395 128.836C14.1113 128.945 13.7363 129 13.3145 129H10.4668V122.66H12.0195V127.787H13.3145C13.584 127.787 13.7988 127.742 13.959 127.652C14.123 127.559 14.2402 127.439 14.3105 127.295C14.3848 127.146 14.4219 126.988 14.4219 126.82C14.4219 126.648 14.3848 126.488 14.3105 126.34C14.2402 126.188 14.123 126.064 13.959 125.971C13.7988 125.877 13.584 125.83 13.3145 125.83H11.4629V124.611ZM18.5762 122.66V129H17.0234V122.66H18.5762ZM27.4004 122.66V123.885H24.3008V122.66H27.4004ZM24.7109 122.66V129H23.1582V122.66H24.7109ZM28.5723 122.66V129H27.0137V122.66H28.5723ZM29.7031 125.895V125.771C29.7031 125.307 29.7695 124.879 29.9023 124.488C30.0352 124.094 30.2285 123.752 30.4824 123.463C30.7363 123.174 31.0469 122.949 31.4141 122.789C31.7812 122.625 32.1992 122.543 32.668 122.543C33.1445 122.543 33.5664 122.625 33.9336 122.789C34.3047 122.949 34.6172 123.174 34.8711 123.463C35.125 123.752 35.3184 124.094 35.4512 124.488C35.584 124.879 35.6504 125.307 35.6504 125.771V125.895C35.6504 126.355 35.584 126.783 35.4512 127.178C35.3184 127.568 35.125 127.91 34.8711 128.203C34.6172 128.492 34.3066 128.717 33.9395 128.877C33.5723 129.037 33.1523 129.117 32.6797 129.117C32.2109 129.117 31.791 129.037 31.4199 128.877C31.0488 128.717 30.7363 128.492 30.4824 128.203C30.2285 127.91 30.0352 127.568 29.9023 127.178C29.7695 126.783 29.7031 126.355 29.7031 125.895ZM31.25 125.771V125.895C31.25 126.172 31.2773 126.432 31.332 126.674C31.3867 126.916 31.4707 127.129 31.584 127.312C31.6973 127.496 31.8438 127.641 32.0234 127.746C32.207 127.848 32.4258 127.898 32.6797 127.898C32.9297 127.898 33.1445 127.848 33.3242 127.746C33.5039 127.641 33.6504 127.496 33.7637 127.312C33.8809 127.129 33.9668 126.916 34.0215 126.674C34.0762 126.432 34.1035 126.172 34.1035 125.895V125.771C34.1035 125.498 34.0762 125.242 34.0215 125.004C33.9668 124.762 33.8809 124.549 33.7637 124.365C33.6504 124.178 33.502 124.031 33.3184 123.926C33.1387 123.816 32.9219 123.762 32.668 123.762C32.418 123.762 32.2031 123.816 32.0234 123.926C31.8438 124.031 31.6973 124.178 31.584 124.365C31.4707 124.549 31.3867 124.762 31.332 125.004C31.2773 125.242 31.25 125.498 31.25 125.771ZM40.9414 122.66V123.885H37.8359V122.66H40.9414ZM42.1074 122.66V129H40.5605V122.66H42.1074ZM37.4492 122.66H38.9785L38.8086 125.824C38.7812 126.289 38.7324 126.697 38.6621 127.049C38.5918 127.396 38.498 127.695 38.3809 127.945C38.2637 128.191 38.1211 128.393 37.9531 128.549C37.7852 128.705 37.5898 128.82 37.3672 128.895C37.1484 128.965 36.9023 129 36.6289 129H36.1543L36.1367 127.752L36.3594 127.734C36.4961 127.723 36.6133 127.686 36.7109 127.623C36.8125 127.561 36.8984 127.471 36.9688 127.354C37.043 127.236 37.1035 127.086 37.1504 126.902C37.2012 126.715 37.2402 126.496 37.2676 126.246C37.2988 125.992 37.3203 125.699 37.332 125.367L37.4492 122.66ZM45.3828 128.297L47.082 122.66H48.7402L46.1973 129.961C46.1387 130.117 46.0625 130.287 45.9688 130.471C45.8789 130.654 45.7578 130.828 45.6055 130.992C45.4531 131.16 45.2617 131.297 45.0312 131.402C44.8047 131.508 44.5293 131.561 44.2051 131.561C44.0645 131.561 43.9395 131.551 43.8301 131.531C43.7207 131.512 43.6055 131.486 43.4844 131.455V130.295C43.5234 130.299 43.5684 130.301 43.6191 130.301C43.6738 130.305 43.7207 130.307 43.7598 130.307C43.9863 130.307 44.1738 130.279 44.3223 130.225C44.4707 130.174 44.5898 130.09 44.6797 129.973C44.7734 129.859 44.8516 129.711 44.9141 129.527L45.3828 128.297ZM44.5449 122.66L45.9805 127.33L46.2324 128.965L45.166 129.158L42.875 122.66H44.5449ZM54.7051 122.66V129H53.1523V122.66H54.7051ZM54.002 125.42V126.639C53.8535 126.709 53.6738 126.775 53.4629 126.838C53.2559 126.896 53.0371 126.943 52.8066 126.979C52.5801 127.014 52.3594 127.031 52.1445 127.031C51.5625 127.031 51.0605 126.945 50.6387 126.773C50.2207 126.602 49.8984 126.338 49.6719 125.982C49.4453 125.623 49.332 125.164 49.332 124.605V122.654H50.8789V124.605C50.8789 124.906 50.9238 125.145 51.0137 125.32C51.1035 125.496 51.2422 125.621 51.4297 125.695C51.6172 125.77 51.8555 125.807 52.1445 125.807C52.3672 125.807 52.5801 125.791 52.7832 125.76C52.9863 125.725 53.1875 125.68 53.3867 125.625C53.5898 125.566 53.7949 125.498 54.002 125.42ZM57.6758 126.791L59.9844 122.66H61.5371V129H59.9844V124.863L57.6758 129H56.123V122.66H57.6758V126.791ZM66.0195 122.66V129H64.4668V122.66H66.0195ZM68.082 122.66V123.867H62.4395V122.66H68.082ZM71.416 129.117C70.9355 129.117 70.5039 129.039 70.1211 128.883C69.7383 128.727 69.4121 128.51 69.1426 128.232C68.877 127.951 68.6719 127.625 68.5273 127.254C68.3867 126.879 68.3164 126.477 68.3164 126.047V125.812C68.3164 125.324 68.3867 124.881 68.5273 124.482C68.668 124.08 68.8672 123.734 69.125 123.445C69.3828 123.156 69.6914 122.934 70.0508 122.777C70.4102 122.621 70.8066 122.543 71.2402 122.543C71.6895 122.543 72.0859 122.619 72.4297 122.771C72.7734 122.92 73.0605 123.131 73.291 123.404C73.5215 123.678 73.6953 124.006 73.8125 124.389C73.9297 124.768 73.9883 125.188 73.9883 125.648V126.299H69.0195V125.232H72.4648V125.115C72.457 124.869 72.4102 124.645 72.3242 124.441C72.2383 124.234 72.1055 124.07 71.9258 123.949C71.7461 123.824 71.5137 123.762 71.2285 123.762C70.998 123.762 70.7969 123.812 70.625 123.914C70.457 124.012 70.3164 124.152 70.2031 124.336C70.0938 124.516 70.0117 124.73 69.957 124.98C69.9023 125.23 69.875 125.508 69.875 125.812V126.047C69.875 126.312 69.9102 126.559 69.9805 126.785C70.0547 127.012 70.1621 127.209 70.3027 127.377C70.4473 127.541 70.6191 127.67 70.8184 127.764C71.0215 127.854 71.252 127.898 71.5098 127.898C71.834 127.898 72.127 127.836 72.3887 127.711C72.6543 127.582 72.8848 127.393 73.0801 127.143L73.8594 127.951C73.7266 128.146 73.5469 128.334 73.3203 128.514C73.0977 128.693 72.8281 128.84 72.5117 128.953C72.1953 129.062 71.8301 129.117 71.416 129.117ZM79.5605 123.879V131.438H78.0078V122.66H79.4434L79.5605 123.879ZM83.6328 125.766V125.889C83.6328 126.35 83.5781 126.777 83.4688 127.172C83.3633 127.562 83.207 127.904 83 128.197C82.793 128.486 82.5352 128.713 82.2266 128.877C81.9219 129.037 81.5703 129.117 81.1719 129.117C80.7812 129.117 80.4414 129.043 80.1523 128.895C79.8633 128.742 79.6191 128.527 79.4199 128.25C79.2207 127.973 79.0605 127.65 78.9395 127.283C78.8223 126.912 78.7344 126.508 78.6758 126.07V125.678C78.7344 125.213 78.8223 124.791 78.9395 124.412C79.0605 124.029 79.2207 123.699 79.4199 123.422C79.6191 123.141 79.8613 122.924 80.1465 122.771C80.4355 122.619 80.7734 122.543 81.1602 122.543C81.5625 122.543 81.916 122.619 82.2207 122.771C82.5293 122.924 82.7891 123.143 83 123.428C83.2109 123.713 83.3691 124.053 83.4746 124.447C83.5801 124.842 83.6328 125.281 83.6328 125.766ZM82.0801 125.889V125.766C82.0801 125.484 82.0547 125.225 82.0039 124.986C81.9531 124.744 81.875 124.533 81.7695 124.354C81.6641 124.17 81.5273 124.027 81.3594 123.926C81.1914 123.824 80.9883 123.773 80.75 123.773C80.5117 123.773 80.3066 123.812 80.1348 123.891C79.9629 123.969 79.8223 124.08 79.7129 124.225C79.6035 124.369 79.5176 124.541 79.4551 124.74C79.3965 124.936 79.3574 125.152 79.3379 125.391V126.363C79.373 126.652 79.4414 126.912 79.543 127.143C79.6445 127.373 79.793 127.557 79.9883 127.693C80.1875 127.83 80.4453 127.898 80.7617 127.898C81 127.898 81.2031 127.846 81.3711 127.74C81.5391 127.635 81.6758 127.49 81.7812 127.307C81.8867 127.119 81.9629 126.904 82.0098 126.662C82.0566 126.42 82.0801 126.162 82.0801 125.889ZM87.6113 129.117C87.1309 129.117 86.6992 129.039 86.3164 128.883C85.9336 128.727 85.6074 128.51 85.3379 128.232C85.0723 127.951 84.8672 127.625 84.7227 127.254C84.582 126.879 84.5117 126.477 84.5117 126.047V125.812C84.5117 125.324 84.582 124.881 84.7227 124.482C84.8633 124.08 85.0625 123.734 85.3203 123.445C85.5781 123.156 85.8867 122.934 86.2461 122.777C86.6055 122.621 87.002 122.543 87.4355 122.543C87.8848 122.543 88.2812 122.619 88.625 122.771C88.9688 122.92 89.2559 123.131 89.4863 123.404C89.7168 123.678 89.8906 124.006 90.0078 124.389C90.125 124.768 90.1836 125.188 90.1836 125.648V126.299H85.2148V125.232H88.6602V125.115C88.6523 124.869 88.6055 124.645 88.5195 124.441C88.4336 124.234 88.3008 124.07 88.1211 123.949C87.9414 123.824 87.709 123.762 87.4238 123.762C87.1934 123.762 86.9922 123.812 86.8203 123.914C86.6523 124.012 86.5117 124.152 86.3984 124.336C86.2891 124.516 86.207 124.73 86.1523 124.98C86.0977 125.23 86.0703 125.508 86.0703 125.812V126.047C86.0703 126.312 86.1055 126.559 86.1758 126.785C86.25 127.012 86.3574 127.209 86.498 127.377C86.6426 127.541 86.8145 127.67 87.0137 127.764C87.2168 127.854 87.4473 127.898 87.7051 127.898C88.0293 127.898 88.3223 127.836 88.584 127.711C88.8496 127.582 89.0801 127.393 89.2754 127.143L90.0547 127.951C89.9219 128.146 89.7422 128.334 89.5156 128.514C89.293 128.693 89.0234 128.84 88.707 128.953C88.3906 129.062 88.0254 129.117 87.6113 129.117ZM93.9395 125.977H92.7031V125.238H93.6465C93.877 125.238 94.0605 125.207 94.1973 125.145C94.3379 125.082 94.4375 124.994 94.4961 124.881C94.5586 124.768 94.5898 124.637 94.5898 124.488C94.5898 124.355 94.5605 124.23 94.502 124.113C94.4434 123.992 94.3457 123.895 94.209 123.82C94.0723 123.742 93.8828 123.703 93.6406 123.703C93.4414 123.703 93.2637 123.734 93.1074 123.797C92.9512 123.859 92.8281 123.947 92.7383 124.061C92.6484 124.174 92.6035 124.309 92.6035 124.465H91.0508C91.0508 124.066 91.1641 123.725 91.3906 123.439C91.6211 123.154 91.9277 122.936 92.3105 122.783C92.6934 122.627 93.1133 122.549 93.5703 122.549C93.9648 122.549 94.3203 122.59 94.6367 122.672C94.9531 122.75 95.2227 122.867 95.4453 123.023C95.668 123.18 95.8398 123.373 95.9609 123.604C96.082 123.83 96.1426 124.094 96.1426 124.395C96.1426 124.609 96.0918 124.812 95.9902 125.004C95.8887 125.195 95.7422 125.365 95.5508 125.514C95.3594 125.658 95.127 125.771 94.8535 125.854C94.584 125.936 94.2793 125.977 93.9395 125.977ZM92.7031 125.555H93.9395C94.3184 125.555 94.6504 125.592 94.9355 125.666C95.2246 125.736 95.4668 125.842 95.6621 125.982C95.8574 126.123 96.0039 126.297 96.1016 126.504C96.2031 126.707 96.2539 126.941 96.2539 127.207C96.2539 127.508 96.1875 127.777 96.0547 128.016C95.9258 128.25 95.7422 128.449 95.5039 128.613C95.2656 128.777 94.9824 128.902 94.6543 128.988C94.3262 129.074 93.9648 129.117 93.5703 129.117C93.1445 129.117 92.7305 129.047 92.3281 128.906C91.9297 128.766 91.5996 128.549 91.3379 128.256C91.0801 127.963 90.9512 127.586 90.9512 127.125H92.5039C92.5039 127.273 92.5488 127.412 92.6387 127.541C92.7285 127.67 92.8574 127.773 93.0254 127.852C93.1973 127.926 93.4043 127.963 93.6465 127.963C93.8926 127.963 94.0938 127.924 94.25 127.846C94.4062 127.768 94.5195 127.664 94.5898 127.535C94.6641 127.402 94.7012 127.264 94.7012 127.119C94.7012 126.92 94.6621 126.76 94.584 126.639C94.5098 126.514 94.3926 126.422 94.2324 126.363C94.0762 126.305 93.8809 126.275 93.6465 126.275H92.7031V125.555ZM101.146 125.168V126.393H97.7363V125.168H101.146ZM99.0488 122.66V129H97.4961V122.66H99.0488ZM100.057 125.895V125.771C100.057 125.307 100.123 124.879 100.256 124.488C100.389 124.094 100.582 123.752 100.836 123.463C101.09 123.174 101.4 122.949 101.768 122.789C102.135 122.625 102.553 122.543 103.021 122.543C103.498 122.543 103.92 122.625 104.287 122.789C104.658 122.949 104.971 123.174 105.225 123.463C105.482 123.752 105.676 124.094 105.805 124.488C105.938 124.879 106.004 125.307 106.004 125.771V125.895C106.004 126.355 105.938 126.783 105.805 127.178C105.676 127.568 105.484 127.91 105.23 128.203C104.977 128.492 104.664 128.717 104.293 128.877C103.926 129.037 103.506 129.117 103.033 129.117C102.561 129.117 102.141 129.037 101.773 128.877C101.406 128.717 101.094 128.492 100.836 128.203C100.582 127.91 100.389 127.568 100.256 127.178C100.123 126.783 100.057 126.355 100.057 125.895ZM101.604 125.771V125.895C101.604 126.172 101.631 126.432 101.686 126.674C101.74 126.916 101.824 127.129 101.938 127.312C102.055 127.496 102.203 127.641 102.383 127.746C102.562 127.848 102.779 127.898 103.033 127.898C103.287 127.898 103.504 127.848 103.684 127.746C103.863 127.641 104.01 127.496 104.123 127.312C104.236 127.129 104.32 126.916 104.375 126.674C104.43 126.432 104.457 126.172 104.457 125.895V125.771C104.457 125.498 104.43 125.242 104.375 125.004C104.32 124.762 104.234 124.549 104.117 124.365C104.004 124.178 103.855 124.031 103.672 123.926C103.492 123.816 103.275 123.762 103.021 123.762C102.771 123.762 102.557 123.816 102.377 123.926C102.201 124.031 102.055 124.178 101.938 124.365C101.824 124.549 101.74 124.762 101.686 125.004C101.631 125.242 101.604 125.498 101.604 125.771ZM110.926 127.172L112.707 122.66H114.002L111.453 129H110.404L107.861 122.66H109.162L110.926 127.172ZM108.781 122.66V129H107.229V122.66H108.781ZM113.1 129V122.66H114.652V129H113.1ZM119.041 129.117C118.561 129.117 118.129 129.039 117.746 128.883C117.363 128.727 117.037 128.51 116.768 128.232C116.502 127.951 116.297 127.625 116.152 127.254C116.012 126.879 115.941 126.477 115.941 126.047V125.812C115.941 125.324 116.012 124.881 116.152 124.482C116.293 124.08 116.492 123.734 116.75 123.445C117.008 123.156 117.316 122.934 117.676 122.777C118.035 122.621 118.432 122.543 118.865 122.543C119.314 122.543 119.711 122.619 120.055 122.771C120.398 122.92 120.686 123.131 120.916 123.404C121.146 123.678 121.32 124.006 121.438 124.389C121.555 124.768 121.613 125.188 121.613 125.648V126.299H116.645V125.232H120.09V125.115C120.082 124.869 120.035 124.645 119.949 124.441C119.863 124.234 119.73 124.07 119.551 123.949C119.371 123.824 119.139 123.762 118.854 123.762C118.623 123.762 118.422 123.812 118.25 123.914C118.082 124.012 117.941 124.152 117.828 124.336C117.719 124.516 117.637 124.73 117.582 124.98C117.527 125.23 117.5 125.508 117.5 125.812V126.047C117.5 126.312 117.535 126.559 117.605 126.785C117.68 127.012 117.787 127.209 117.928 127.377C118.072 127.541 118.244 127.67 118.443 127.764C118.646 127.854 118.877 127.898 119.135 127.898C119.459 127.898 119.752 127.836 120.014 127.711C120.279 127.582 120.51 127.393 120.705 127.143L121.484 127.951C121.352 128.146 121.172 128.334 120.945 128.514C120.723 128.693 120.453 128.84 120.137 128.953C119.82 129.062 119.455 129.117 119.041 129.117ZM20.123 139.262V140.475H16.8711V139.262H20.123ZM17.3574 136.66V143H15.8047V136.66H17.3574ZM21.207 136.66V143H19.6484V136.66H21.207ZM26.1055 141.652V138.729C26.1055 138.514 26.0684 138.328 25.9941 138.172C25.9199 138.016 25.8066 137.895 25.6543 137.809C25.502 137.723 25.3086 137.68 25.0742 137.68C24.8672 137.68 24.6855 137.715 24.5293 137.785C24.377 137.855 24.2598 137.955 24.1777 138.084C24.0957 138.209 24.0547 138.354 24.0547 138.518H22.502C22.502 138.256 22.5645 138.008 22.6895 137.773C22.8145 137.535 22.9922 137.324 23.2227 137.141C23.457 136.953 23.7363 136.807 24.0605 136.701C24.3887 136.596 24.7559 136.543 25.1621 136.543C25.6426 136.543 26.0703 136.625 26.4453 136.789C26.8242 136.949 27.1211 137.191 27.3359 137.516C27.5547 137.84 27.6641 138.248 27.6641 138.74V141.506C27.6641 141.822 27.6836 142.094 27.7227 142.32C27.7656 142.543 27.8281 142.736 27.9102 142.9V143H26.334C26.2598 142.84 26.2031 142.637 26.1641 142.391C26.125 142.141 26.1055 141.895 26.1055 141.652ZM26.3223 139.139L26.334 140.059H25.3555C25.1133 140.059 24.9004 140.084 24.7168 140.135C24.5332 140.182 24.3828 140.252 24.2656 140.346C24.1484 140.436 24.0605 140.545 24.002 140.674C23.9434 140.799 23.9141 140.941 23.9141 141.102C23.9141 141.258 23.9492 141.398 24.0195 141.523C24.0938 141.648 24.1992 141.748 24.3359 141.822C24.4766 141.893 24.6406 141.928 24.8281 141.928C25.1016 141.928 25.3398 141.873 25.543 141.764C25.7461 141.65 25.9043 141.514 26.0176 141.354C26.1309 141.193 26.1914 141.041 26.1992 140.896L26.6445 141.564C26.5898 141.725 26.5078 141.895 26.3984 142.074C26.2891 142.254 26.1484 142.422 25.9766 142.578C25.8047 142.734 25.5977 142.863 25.3555 142.965C25.1133 143.066 24.832 143.117 24.5117 143.117C24.1016 143.117 23.7344 143.035 23.4102 142.871C23.0859 142.707 22.8301 142.482 22.6426 142.197C22.4551 141.912 22.3613 141.588 22.3613 141.225C22.3613 140.889 22.4238 140.592 22.5488 140.334C22.6738 140.076 22.8594 139.859 23.1055 139.684C23.3516 139.504 23.6562 139.369 24.0195 139.279C24.3867 139.186 24.8066 139.139 25.2793 139.139H26.3223ZM34.6484 141.898C34.8672 141.898 35.0625 141.855 35.2344 141.77C35.4062 141.684 35.543 141.562 35.6445 141.406C35.75 141.25 35.8066 141.068 35.8145 140.861H37.2734C37.2656 141.291 37.1445 141.676 36.9102 142.016C36.6758 142.355 36.3633 142.625 35.9727 142.824C35.5859 143.02 35.1523 143.117 34.6719 143.117C34.1836 143.117 33.7578 143.035 33.3945 142.871C33.0312 142.707 32.7285 142.479 32.4863 142.186C32.248 141.893 32.0684 141.553 31.9473 141.166C31.8301 140.779 31.7715 140.365 31.7715 139.924V139.736C31.7715 139.295 31.8301 138.881 31.9473 138.494C32.0684 138.107 32.248 137.768 32.4863 137.475C32.7285 137.182 33.0312 136.953 33.3945 136.789C33.7578 136.625 34.1816 136.543 34.666 136.543C35.1777 136.543 35.627 136.643 36.0137 136.842C36.4043 137.041 36.709 137.322 36.9277 137.686C37.1504 138.049 37.2656 138.477 37.2734 138.969H35.8145C35.8066 138.742 35.7559 138.539 35.6621 138.359C35.5684 138.18 35.4355 138.035 35.2637 137.926C35.0918 137.816 34.8828 137.762 34.6367 137.762C34.375 137.762 34.1562 137.816 33.9805 137.926C33.8086 138.035 33.6738 138.186 33.5762 138.377C33.4824 138.564 33.416 138.775 33.377 139.01C33.3418 139.24 33.3242 139.482 33.3242 139.736V139.924C33.3242 140.182 33.3418 140.428 33.377 140.662C33.416 140.896 33.4824 141.107 33.5762 141.295C33.6738 141.479 33.8086 141.625 33.9805 141.734C34.1562 141.844 34.3789 141.898 34.6484 141.898ZM38.0293 139.895V139.771C38.0293 139.307 38.0957 138.879 38.2285 138.488C38.3613 138.094 38.5547 137.752 38.8086 137.463C39.0625 137.174 39.373 136.949 39.7402 136.789C40.1074 136.625 40.5254 136.543 40.9941 136.543C41.4707 136.543 41.8926 136.625 42.2598 136.789C42.6309 136.949 42.9434 137.174 43.1973 137.463C43.4512 137.752 43.6445 138.094 43.7773 138.488C43.9102 138.879 43.9766 139.307 43.9766 139.771V139.895C43.9766 140.355 43.9102 140.783 43.7773 141.178C43.6445 141.568 43.4512 141.91 43.1973 142.203C42.9434 142.492 42.6328 142.717 42.2656 142.877C41.8984 143.037 41.4785 143.117 41.0059 143.117C40.5371 143.117 40.1172 143.037 39.7461 142.877C39.375 142.717 39.0625 142.492 38.8086 142.203C38.5547 141.91 38.3613 141.568 38.2285 141.178C38.0957 140.783 38.0293 140.355 38.0293 139.895ZM39.5762 139.771V139.895C39.5762 140.172 39.6035 140.432 39.6582 140.674C39.7129 140.916 39.7969 141.129 39.9102 141.312C40.0234 141.496 40.1699 141.641 40.3496 141.746C40.5332 141.848 40.752 141.898 41.0059 141.898C41.2559 141.898 41.4707 141.848 41.6504 141.746C41.8301 141.641 41.9766 141.496 42.0898 141.312C42.207 141.129 42.293 140.916 42.3477 140.674C42.4023 140.432 42.4297 140.172 42.4297 139.895V139.771C42.4297 139.498 42.4023 139.242 42.3477 139.004C42.293 138.762 42.207 138.549 42.0898 138.365C41.9766 138.178 41.8281 138.031 41.6445 137.926C41.4648 137.816 41.248 137.762 40.9941 137.762C40.7441 137.762 40.5293 137.816 40.3496 137.926C40.1699 138.031 40.0234 138.178 39.9102 138.365C39.7969 138.549 39.7129 138.762 39.6582 139.004C39.6035 139.242 39.5762 139.498 39.5762 139.771ZM49.3613 136.66V137.885H46.6602V143H45.1133V136.66H49.3613ZM54.166 136.66V137.885H51.0605V136.66H54.166ZM55.332 136.66V143H53.7852V136.66H55.332ZM50.6738 136.66H52.2031L52.0332 139.824C52.0059 140.289 51.957 140.697 51.8867 141.049C51.8164 141.396 51.7227 141.695 51.6055 141.945C51.4883 142.191 51.3457 142.393 51.1777 142.549C51.0098 142.705 50.8145 142.82 50.5918 142.895C50.373 142.965 50.127 143 49.8535 143H49.3789L49.3613 141.752L49.584 141.734C49.7207 141.723 49.8379 141.686 49.9355 141.623C50.0371 141.561 50.123 141.471 50.1934 141.354C50.2676 141.236 50.3281 141.086 50.375 140.902C50.4258 140.715 50.4648 140.496 50.4922 140.246C50.5234 139.992 50.5449 139.699 50.5566 139.367L50.6738 136.66ZM60.2422 141.652V138.729C60.2422 138.514 60.2051 138.328 60.1309 138.172C60.0566 138.016 59.9434 137.895 59.791 137.809C59.6387 137.723 59.4453 137.68 59.2109 137.68C59.0039 137.68 58.8223 137.715 58.666 137.785C58.5137 137.855 58.3965 137.955 58.3145 138.084C58.2324 138.209 58.1914 138.354 58.1914 138.518H56.6387C56.6387 138.256 56.7012 138.008 56.8262 137.773C56.9512 137.535 57.1289 137.324 57.3594 137.141C57.5938 136.953 57.873 136.807 58.1973 136.701C58.5254 136.596 58.8926 136.543 59.2988 136.543C59.7793 136.543 60.207 136.625 60.582 136.789C60.9609 136.949 61.2578 137.191 61.4727 137.516C61.6914 137.84 61.8008 138.248 61.8008 138.74V141.506C61.8008 141.822 61.8203 142.094 61.8594 142.32C61.9023 142.543 61.9648 142.736 62.0469 142.9V143H60.4707C60.3965 142.84 60.3398 142.637 60.3008 142.391C60.2617 142.141 60.2422 141.895 60.2422 141.652ZM60.459 139.139L60.4707 140.059H59.4922C59.25 140.059 59.0371 140.084 58.8535 140.135C58.6699 140.182 58.5195 140.252 58.4023 140.346C58.2852 140.436 58.1973 140.545 58.1387 140.674C58.0801 140.799 58.0508 140.941 58.0508 141.102C58.0508 141.258 58.0859 141.398 58.1562 141.523C58.2305 141.648 58.3359 141.748 58.4727 141.822C58.6133 141.893 58.7773 141.928 58.9648 141.928C59.2383 141.928 59.4766 141.873 59.6797 141.764C59.8828 141.65 60.041 141.514 60.1543 141.354C60.2676 141.193 60.3281 141.041 60.3359 140.896L60.7812 141.564C60.7266 141.725 60.6445 141.895 60.5352 142.074C60.4258 142.254 60.2852 142.422 60.1133 142.578C59.9414 142.734 59.7344 142.863 59.4922 142.965C59.25 143.066 58.9688 143.117 58.6484 143.117C58.2383 143.117 57.8711 143.035 57.5469 142.871C57.2227 142.707 56.9668 142.482 56.7793 142.197C56.5918 141.912 56.498 141.588 56.498 141.225C56.498 140.889 56.5605 140.592 56.6855 140.334C56.8105 140.076 56.9961 139.859 57.2422 139.684C57.4883 139.504 57.793 139.369 58.1562 139.279C58.5234 139.186 58.9434 139.139 59.416 139.139H60.459ZM65.7969 141.898C66.0156 141.898 66.2109 141.855 66.3828 141.77C66.5547 141.684 66.6914 141.562 66.793 141.406C66.8984 141.25 66.9551 141.068 66.9629 140.861H68.4219C68.4141 141.291 68.293 141.676 68.0586 142.016C67.8242 142.355 67.5117 142.625 67.1211 142.824C66.7344 143.02 66.3008 143.117 65.8203 143.117C65.332 143.117 64.9062 143.035 64.543 142.871C64.1797 142.707 63.877 142.479 63.6348 142.186C63.3965 141.893 63.2168 141.553 63.0957 141.166C62.9785 140.779 62.9199 140.365 62.9199 139.924V139.736C62.9199 139.295 62.9785 138.881 63.0957 138.494C63.2168 138.107 63.3965 137.768 63.6348 137.475C63.877 137.182 64.1797 136.953 64.543 136.789C64.9062 136.625 65.3301 136.543 65.8145 136.543C66.3262 136.543 66.7754 136.643 67.1621 136.842C67.5527 137.041 67.8574 137.322 68.0762 137.686C68.2988 138.049 68.4141 138.477 68.4219 138.969H66.9629C66.9551 138.742 66.9043 138.539 66.8105 138.359C66.7168 138.18 66.584 138.035 66.4121 137.926C66.2402 137.816 66.0312 137.762 65.7852 137.762C65.5234 137.762 65.3047 137.816 65.1289 137.926C64.957 138.035 64.8223 138.186 64.7246 138.377C64.6309 138.564 64.5645 138.775 64.5254 139.01C64.4902 139.24 64.4727 139.482 64.4727 139.736V139.924C64.4727 140.182 64.4902 140.428 64.5254 140.662C64.5645 140.896 64.6309 141.107 64.7246 141.295C64.8223 141.479 64.957 141.625 65.1289 141.734C65.3047 141.844 65.5273 141.898 65.7969 141.898ZM69.1777 139.895V139.771C69.1777 139.307 69.2441 138.879 69.377 138.488C69.5098 138.094 69.7031 137.752 69.957 137.463C70.2109 137.174 70.5215 136.949 70.8887 136.789C71.2559 136.625 71.6738 136.543 72.1426 136.543C72.6191 136.543 73.041 136.625 73.4082 136.789C73.7793 136.949 74.0918 137.174 74.3457 137.463C74.5996 137.752 74.793 138.094 74.9258 138.488C75.0586 138.879 75.125 139.307 75.125 139.771V139.895C75.125 140.355 75.0586 140.783 74.9258 141.178C74.793 141.568 74.5996 141.91 74.3457 142.203C74.0918 142.492 73.7812 142.717 73.4141 142.877C73.0469 143.037 72.627 143.117 72.1543 143.117C71.6855 143.117 71.2656 143.037 70.8945 142.877C70.5234 142.717 70.2109 142.492 69.957 142.203C69.7031 141.91 69.5098 141.568 69.377 141.178C69.2441 140.783 69.1777 140.355 69.1777 139.895ZM70.7246 139.771V139.895C70.7246 140.172 70.752 140.432 70.8066 140.674C70.8613 140.916 70.9453 141.129 71.0586 141.312C71.1719 141.496 71.3184 141.641 71.498 141.746C71.6816 141.848 71.9004 141.898 72.1543 141.898C72.4043 141.898 72.6191 141.848 72.7988 141.746C72.9785 141.641 73.125 141.496 73.2383 141.312C73.3555 141.129 73.4414 140.916 73.4961 140.674C73.5508 140.432 73.5781 140.172 73.5781 139.895V139.771C73.5781 139.498 73.5508 139.242 73.4961 139.004C73.4414 138.762 73.3555 138.549 73.2383 138.365C73.125 138.178 72.9766 138.031 72.793 137.926C72.6133 137.816 72.3965 137.762 72.1426 137.762C71.8926 137.762 71.6777 137.816 71.498 137.926C71.3184 138.031 71.1719 138.178 71.0586 138.365C70.9453 138.549 70.8613 138.762 70.8066 139.004C70.752 139.242 70.7246 139.498 70.7246 139.771ZM79.3672 140.316H77.3574L77.3457 139.268H78.998C79.2441 139.268 79.4453 139.242 79.6016 139.191C79.7578 139.141 79.873 139.064 79.9473 138.963C80.0254 138.861 80.0645 138.738 80.0645 138.594C80.0645 138.469 80.041 138.361 79.9941 138.271C79.9473 138.178 79.877 138.102 79.7832 138.043C79.6934 137.984 79.5781 137.941 79.4375 137.914C79.3008 137.883 79.1406 137.867 78.957 137.867H77.9082V143H76.3555V136.66H78.957C79.3672 136.66 79.7363 136.697 80.0645 136.771C80.3926 136.842 80.6719 136.949 80.9023 137.094C81.1328 137.238 81.3086 137.422 81.4297 137.645C81.5547 137.863 81.6172 138.121 81.6172 138.418C81.6172 138.613 81.5742 138.797 81.4883 138.969C81.4023 139.141 81.2754 139.293 81.1074 139.426C80.9395 139.559 80.7324 139.668 80.4863 139.754C80.2402 139.836 79.959 139.887 79.6426 139.906L79.3672 140.316ZM79.3672 143H76.9414L77.5156 141.793H79.3672C79.5938 141.793 79.7812 141.766 79.9297 141.711C80.0781 141.652 80.1875 141.568 80.2578 141.459C80.332 141.35 80.3691 141.217 80.3691 141.061C80.3691 140.908 80.334 140.777 80.2637 140.668C80.1973 140.555 80.0898 140.469 79.9414 140.41C79.7969 140.348 79.6055 140.316 79.3672 140.316H77.7676L77.7793 139.268H79.6367L80.0469 139.684C80.4688 139.711 80.8184 139.797 81.0957 139.941C81.373 140.082 81.5801 140.262 81.7168 140.48C81.8535 140.695 81.9219 140.932 81.9219 141.189C81.9219 141.49 81.8652 141.754 81.752 141.98C81.6387 142.207 81.4727 142.396 81.2539 142.549C81.0352 142.697 80.7676 142.811 80.4512 142.889C80.1348 142.963 79.7734 143 79.3672 143ZM86.5391 141.652V138.729C86.5391 138.514 86.502 138.328 86.4277 138.172C86.3535 138.016 86.2402 137.895 86.0879 137.809C85.9355 137.723 85.7422 137.68 85.5078 137.68C85.3008 137.68 85.1191 137.715 84.9629 137.785C84.8105 137.855 84.6934 137.955 84.6113 138.084C84.5293 138.209 84.4883 138.354 84.4883 138.518H82.9355C82.9355 138.256 82.998 138.008 83.123 137.773C83.248 137.535 83.4258 137.324 83.6562 137.141C83.8906 136.953 84.1699 136.807 84.4941 136.701C84.8223 136.596 85.1895 136.543 85.5957 136.543C86.0762 136.543 86.5039 136.625 86.8789 136.789C87.2578 136.949 87.5547 137.191 87.7695 137.516C87.9883 137.84 88.0977 138.248 88.0977 138.74V141.506C88.0977 141.822 88.1172 142.094 88.1562 142.32C88.1992 142.543 88.2617 142.736 88.3438 142.9V143H86.7676C86.6934 142.84 86.6367 142.637 86.5977 142.391C86.5586 142.141 86.5391 141.895 86.5391 141.652ZM86.7559 139.139L86.7676 140.059H85.7891C85.5469 140.059 85.334 140.084 85.1504 140.135C84.9668 140.182 84.8164 140.252 84.6992 140.346C84.582 140.436 84.4941 140.545 84.4355 140.674C84.377 140.799 84.3477 140.941 84.3477 141.102C84.3477 141.258 84.3828 141.398 84.4531 141.523C84.5273 141.648 84.6328 141.748 84.7695 141.822C84.9102 141.893 85.0742 141.928 85.2617 141.928C85.5352 141.928 85.7734 141.873 85.9766 141.764C86.1797 141.65 86.3379 141.514 86.4512 141.354C86.5645 141.193 86.625 141.041 86.6328 140.896L87.0781 141.564C87.0234 141.725 86.9414 141.895 86.832 142.074C86.7227 142.254 86.582 142.422 86.4102 142.578C86.2383 142.734 86.0312 142.863 85.7891 142.965C85.5469 143.066 85.2656 143.117 84.9453 143.117C84.5352 143.117 84.168 143.035 83.8438 142.871C83.5195 142.707 83.2637 142.482 83.0762 142.197C82.8887 141.912 82.7949 141.588 82.7949 141.225C82.7949 140.889 82.8574 140.592 82.9824 140.334C83.1074 140.076 83.293 139.859 83.5391 139.684C83.7852 139.504 84.0898 139.369 84.4531 139.279C84.8203 139.186 85.2402 139.139 85.7129 139.139H86.7559ZM93.8223 139.262V140.475H90.5703V139.262H93.8223ZM91.0566 136.66V143H89.5039V136.66H91.0566ZM94.9062 136.66V143H93.3477V136.66H94.9062ZM97.877 140.791L100.186 136.66H101.738V143H100.186V138.863L97.877 143H96.3242V136.66H97.877V140.791ZM105.992 143.117C105.512 143.117 105.08 143.039 104.697 142.883C104.314 142.727 103.988 142.51 103.719 142.232C103.453 141.951 103.248 141.625 103.104 141.254C102.963 140.879 102.893 140.477 102.893 140.047V139.812C102.893 139.324 102.963 138.881 103.104 138.482C103.244 138.08 103.443 137.734 103.701 137.445C103.959 137.156 104.268 136.934 104.627 136.777C104.986 136.621 105.383 136.543 105.816 136.543C106.266 136.543 106.662 136.619 107.006 136.771C107.35 136.92 107.637 137.131 107.867 137.404C108.098 137.678 108.271 138.006 108.389 138.389C108.506 138.768 108.564 139.188 108.564 139.648V140.299H103.596V139.232H107.041V139.115C107.033 138.869 106.986 138.645 106.9 138.441C106.814 138.234 106.682 138.07 106.502 137.949C106.322 137.824 106.09 137.762 105.805 137.762C105.574 137.762 105.373 137.812 105.201 137.914C105.033 138.012 104.893 138.152 104.779 138.336C104.67 138.516 104.588 138.73 104.533 138.98C104.479 139.23 104.451 139.508 104.451 139.812V140.047C104.451 140.312 104.486 140.559 104.557 140.785C104.631 141.012 104.738 141.209 104.879 141.377C105.023 141.541 105.195 141.67 105.395 141.764C105.598 141.854 105.828 141.898 106.086 141.898C106.41 141.898 106.703 141.836 106.965 141.711C107.23 141.582 107.461 141.393 107.656 141.143L108.436 141.951C108.303 142.146 108.123 142.334 107.896 142.514C107.674 142.693 107.404 142.84 107.088 142.953C106.771 143.062 106.406 143.117 105.992 143.117Z" fill="url(#paint2_linear_1099_7980)"/>
<defs>
<linearGradient id="paint0_linear_1099_7980" x1="108.023" y1="19.4104" x2="51.0899" y2="135.084" gradientUnits="userSpaceOnUse">
<stop stop-color="#7F31DA"/>
<stop offset="0.325806" stop-color="#D669F4"/>
<stop offset="0.653937" stop-color="#FF5CAA"/>
<stop offset="1" stop-color="#FF9883"/>
</linearGradient>
<linearGradient id="paint1_linear_1099_7980" x1="26.4774" y1="13.9183" x2="11.5655" y2="44.2154" gradientUnits="userSpaceOnUse">
<stop stop-color="#7F31DA"/>
<stop offset="0.325806" stop-color="#D669F4"/>
<stop offset="0.653937" stop-color="#FF5CAA"/>
<stop offset="1" stop-color="#FF9883"/>
</linearGradient>
<linearGradient id="paint2_linear_1099_7980" x1="6.45161" y1="141.134" x2="123.032" y2="160.91" gradientUnits="userSpaceOnUse">
<stop offset="0.0237177" stop-color="#6D19A8"/>
<stop offset="0.357057" stop-color="#9F24AA"/>
<stop offset="0.596645" stop-color="#D93F94"/>
<stop offset="0.851858" stop-color="#F64073"/>
<stop offset="0.958449" stop-color="#F66B63"/>
</linearGradient>
</defs>
</svg>
