<svg width="375" height="582" viewBox="0 0 375 582" fill="none" xmlns="http://www.w3.org/2000/svg">
<path opacity="0.1" d="M-590.8 -29.8339C-556.965 -68.0303 -467.804 -130.221 -381.844 -73.412C-274.394 -2.4008 -233.219 174.701 -156.808 166.634C-80.3973 158.566 -69.4693 139.142 -38.8593 118.406C-8.24933 97.6706 55.4051 2.97166 135.88 33.7492C216.355 64.5267 227.445 163.906 298.452 169.415C369.459 174.924 387.267 133.156 446.919 100.793C506.571 68.4313 520.41 51.2553 610.274 79.7893M-595.696 372.593C-607.993 343.684 -606.075 295.108 -500.03 332.077C-367.474 378.287 -248.746 441.634 -194.366 414.172C-139.986 386.71 -110.757 593.557 -4.745 576.67C101.267 559.783 21.0061 508.597 135.865 484.941C250.724 461.285 203.605 334.133 315.308 376.206C427.01 418.278 606.728 593.115 669.557 579.993C719.82 569.496 741.129 529.957 745.5 511.5M-591.051 -20.6852C-558.341 -58.655 -471.308 -120.514 -384.858 -64.1885C-276.796 6.21773 -233.729 180.545 -157.855 172.005C-81.9819 163.464 -70.6076 149.558 -38.1585 128.917C-5.70946 108.275 54.4349 14.6375 135.749 44.0873C217.062 73.5372 226.732 167.391 298.732 173.792C370.732 180.193 392.488 143.708 452.218 111.815C511.641 79.9859 525.662 62.2644 613.441 89.6523M-591.306 -11.5178C-559.721 -49.2612 -474.817 -110.788 -387.877 -54.9465C-279.202 14.8549 -234.244 186.408 -158.908 177.394C-83.5715 168.38 -71.7508 159.994 -37.4627 139.446C-3.17458 118.898 53.4596 26.3218 135.612 54.444C217.764 82.5663 226.015 170.895 299.007 178.187C371.999 185.48 397.705 154.278 457.512 122.855C516.706 91.5591 530.909 73.2921 616.603 99.5339M-591.567 -2.33169C-561.107 -39.8485 -478.33 -101.043 -390.901 -45.6857C-281.614 23.5107 -234.764 192.289 -159.965 182.802C-85.1663 173.316 -72.8992 170.448 -36.772 149.994C-0.644735 129.54 52.4793 38.025 135.47 64.8195C218.461 91.6141 225.292 174.418 299.277 182.602C373.261 190.786 402.916 164.868 462.801 133.913C521.766 103.151 536.151 84.3386 619.76 109.434M-591.833 6.87329C-562.498 -30.417 -481.849 -91.2793 -393.93 -36.4061C-284.03 32.1855 -235.289 198.19 -161.027 188.23C-86.766 178.27 -74.0526 180.921 -36.0863 160.561C1.87999 140.201 51.4939 49.747 135.324 75.2139C219.153 100.681 224.564 177.959 299.541 187.035C374.519 196.112 408.123 175.476 468.085 144.991C526.821 114.762 541.388 95.4039 622.911 119.353M-592.104 16.0973C-563.894 -20.9665 -485.373 -81.4968 -396.964 -27.1074C-286.452 40.8792 -235.819 204.109 -162.095 193.676C-88.3709 183.243 -75.2111 191.413 -35.4057 171.147C4.39972 150.88 50.5035 61.488 135.172 85.6272C219.84 109.767 223.831 181.52 299.801 191.488C375.771 201.456 413.324 186.103 473.363 156.087C531.87 126.391 546.62 106.488 626.058 129.292M-592.38 25.3402C-565.295 -11.497 -488.902 -71.6952 -400.003 -17.7898C-288.879 49.5919 -236.354 210.047 -163.168 199.141C-89.9808 188.235 -76.3746 201.924 -34.7302 181.751C6.91429 161.579 49.5079 73.2479 135.015 96.0596C220.522 118.871 223.093 185.099 300.056 195.959C377.018 206.819 418.52 196.749 478.637 167.203C536.915 138.04 551.847 117.592 629.2 139.249M-592.661 34.6023C-566.702 -2.0084 -492.436 -61.8745 -403.047 -8.45304C-291.311 58.3238 -236.895 216.004 -164.245 204.625C-91.5959 193.246 -77.5434 212.454 -34.0599 192.375C9.42368 172.297 48.5072 85.0271 134.853 106.511C221.198 127.995 222.35 188.698 300.305 200.45C378.26 212.201 423.711 207.414 483.906 178.337C541.955 149.708 557.069 128.714 632.336 149.225M-592.946 43.881C-568.113 7.49677 -495.975 -52.0373 -406.096 0.900277C-293.747 67.0722 -237.44 221.978 -165.328 210.126C-93.2155 198.274 -78.7166 223.001 -33.394 203.016C11.9287 183.031 47.502 96.8227 134.686 116.979C221.87 137.135 221.602 192.313 300.55 204.957C379.498 217.6 428.898 218.096 489.169 189.488C546.99 161.393 562.286 139.853 635.468 159.218M-593.233 53.1621C-569.524 17.0044 -499.514 -42.1976 -409.145 10.256C-296.184 75.8231 -237.985 227.955 -166.41 215.63C-94.8356 203.304 -79.8904 233.55 -32.7287 213.659C14.433 193.768 46.4962 108.621 134.519 127.45C222.542 146.278 220.854 195.931 300.794 209.466C380.734 223.001 434.083 228.781 494.433 200.642C552.024 173.08 567.503 150.995 638.6 169.213M-593.519 62.4431C-570.935 26.512 -503.054 -32.3579 -412.195 19.6118C-298.621 84.5739 -238.531 233.931 -167.493 221.133C-96.4558 208.335 -81.0643 244.099 -32.0635 224.302C16.9373 204.505 45.4904 120.419 134.352 137.92C223.213 155.421 220.106 199.549 301.039 213.976C381.971 228.402 439.269 239.465 499.696 211.796C557.058 184.766 572.719 162.136 641.731 179.209M-593.805 71.7242C-572.347 36.0196 -506.593 -22.5183 -415.244 28.9675C-301.058 93.3247 -239.076 239.907 -168.576 226.636C-98.076 213.365 -82.2381 254.648 -31.3982 234.945C19.4417 215.242 44.4847 132.217 134.185 148.39C223.885 164.564 219.358 203.166 301.283 218.485C383.208 233.804 444.455 250.149 504.96 222.949C562.093 196.453 577.936 173.277 644.863 189.204M-594.091 81.0053C-573.758 45.5272 -510.132 -12.6786 -418.294 38.3232C-303.495 102.076 -239.622 245.884 -169.659 232.139C-99.6962 218.395 -83.4119 265.197 -30.7329 245.588C21.9461 225.979 43.4788 144.015 134.017 158.861C224.556 173.707 218.609 206.784 301.527 222.994C384.445 239.205 449.641 260.833 510.223 234.103C567.127 208.14 583.152 184.419 647.994 199.199M-594.378 90.2864C-575.169 55.0348 -513.671 -2.83894 -421.343 47.679C-305.933 110.826 -240.167 251.86 -170.742 237.643C-101.316 223.425 -84.5858 275.746 -30.0677 256.231C24.4503 236.716 42.473 155.813 133.85 169.331C225.228 182.849 217.861 210.402 301.772 227.504C385.682 244.606 454.827 271.518 515.487 245.256C572.162 219.827 588.369 195.56 651.125 209.195M-594.664 99.5674C-576.581 64.5424 -517.211 7.00074 -424.392 57.0347C-308.37 119.577 -240.713 257.836 -171.825 243.146C-102.937 228.456 -85.7596 286.295 -29.4025 266.874C26.9546 247.452 41.4672 167.611 133.683 179.802C225.899 191.992 217.113 214.019 302.016 232.013C386.919 250.007 460.013 282.202 520.75 256.41C577.196 231.514 593.585 206.702 654.257 219.19M-594.95 108.848C-577.992 74.05 -520.75 16.8404 -427.442 66.3905C-310.807 128.328 -241.258 263.813 -172.908 248.649C-104.557 233.486 -86.9334 296.844 -28.7372 277.517C29.459 258.189 40.4614 179.409 133.516 190.272C226.571 201.135 216.365 217.637 302.26 236.523C388.156 255.409 465.199 292.886 526.013 267.563C582.23 243.201 598.802 217.843 657.388 229.185M-595.236 118.13C-579.404 83.5576 -524.289 26.6801 -430.491 75.7462C-313.244 137.079 -241.804 269.789 -173.99 254.153C-106.177 238.516 -88.1072 307.393 -28.0719 288.16C31.9634 268.926 39.4556 191.207 133.349 200.743C227.242 210.278 215.616 221.255 302.504 241.032C389.393 260.81 470.385 303.571 531.277 278.717C587.265 254.888 604.019 228.985 660.52 239.181M-595.522 127.411C-580.815 93.0652 -527.828 36.5197 -433.54 85.102C-315.681 145.83 -242.349 275.765 -175.073 259.656C-107.797 243.547 -89.2811 317.942 -27.4067 298.803C34.4677 279.663 38.4498 203.006 133.182 211.213C227.914 219.421 214.868 224.872 302.749 245.542C390.63 266.211 475.571 314.255 536.54 289.871C592.299 266.575 609.235 240.126 663.651 249.176M-595.809 136.692C-582.226 102.573 -531.368 46.3594 -436.59 94.4577C-318.118 154.581 -242.895 281.742 -176.156 265.159C-109.417 248.577 -90.4549 328.491 -26.7414 309.446C36.972 290.4 37.444 214.804 133.014 221.684C228.585 228.563 214.12 228.49 302.993 250.051C391.866 271.612 480.757 324.939 541.803 301.024C597.334 278.261 614.452 251.267 666.782 259.171M-596.095 145.973C-583.638 112.08 -534.907 56.1991 -439.639 103.813C-320.555 163.331 -243.441 287.718 -177.239 270.662C-111.038 253.607 -91.6287 339.04 -26.0762 320.088C39.4763 301.136 36.4382 226.602 132.847 232.154C229.256 237.706 213.371 232.108 303.237 254.561C393.103 277.014 485.942 335.623 547.067 312.178C602.368 289.948 619.668 262.409 669.914 269.166M-596.381 155.254C-585.049 121.588 -538.446 66.0388 -442.689 113.169C-322.992 172.082 -243.986 293.694 -178.322 276.166C-112.658 258.637 -92.8026 349.59 -25.411 330.732C41.9807 311.873 35.4324 238.4 132.68 242.625C229.928 246.849 212.623 235.725 303.482 259.07C394.34 282.415 491.128 346.308 552.33 323.331C607.402 301.635 624.885 273.55 673.045 279.162M-596.667 164.535C-586.461 131.096 -541.985 75.8784 -445.738 122.525C-325.429 180.833 -244.532 299.67 -179.405 281.669C-114.278 263.668 -93.9764 360.139 -24.7457 341.374C44.485 322.61 34.4266 250.198 132.513 253.095C230.599 255.992 211.875 239.343 303.726 263.58C395.577 287.816 496.314 356.992 557.594 334.485C612.437 313.322 630.102 284.692 676.177 289.157M-596.953 173.816C-587.872 140.603 -545.525 85.7182 -448.787 131.881C-327.866 189.584 -245.077 305.647 -180.488 287.172C-115.898 268.698 -95.1502 370.688 -24.0804 352.017C46.9894 333.347 33.4208 261.996 132.346 263.565C231.271 265.135 211.127 242.961 303.97 268.089C396.814 293.218 501.5 367.676 562.857 345.639C617.471 325.009 635.318 295.833 679.308 299.152M-597.218 183.103C-589.262 150.116 -549.043 95.5635 -451.816 141.242C-330.282 198.341 -245.601 311.629 -181.549 292.681C-117.497 273.734 -96.3027 381.243 -23.3939 362.666C49.515 344.089 32.4363 273.8 132.2 274.042C231.964 274.283 210.4 246.584 304.236 272.604C398.072 298.624 506.708 378.366 568.142 356.798C622.527 336.701 640.556 306.98 682.461 309.153M-597.423 192.406C-590.592 159.646 -552.5 105.425 -454.783 150.62C-332.637 207.113 -246.065 317.627 -182.55 298.207C-119.035 278.786 -97.3947 391.814 -22.6468 373.331C52.1011 354.848 31.5123 285.62 132.115 284.534C232.717 283.448 209.733 250.224 304.562 277.136C399.391 304.048 511.975 389.073 573.487 367.974C627.643 348.41 645.854 318.144 685.674 319.171M-597.563 201.726C-591.857 169.193 -555.893 115.304 -457.686 160.015C-334.928 215.903 -246.464 323.643 -183.487 303.749C-120.509 283.856 -98.4221 402.402 -21.8351 384.013C54.7519 365.624 30.6529 297.457 132.094 295.044C233.535 292.63 209.131 253.881 304.953 281.684C400.774 309.488 517.308 399.796 578.897 379.166C632.824 360.137 651.217 329.325 688.952 329.205M-597.635 211.065C-593.054 178.758 -559.218 125.201 -460.522 169.428C-337.151 224.712 -246.796 329.677 -184.356 309.31C-121.916 288.943 -99.3823 413.009 -20.9562 394.714C57.4699 376.419 29.8607 309.313 132.14 305.572C234.42 301.83 208.597 257.556 305.411 286.251C402.224 314.947 522.707 410.538 584.374 390.377C638.072 371.881 656.648 340.523 692.297 339.258M-597.638 220.422C-594.183 188.342 -562.475 135.117 -463.288 178.86C-339.305 233.539 -247.058 335.729 -185.156 314.889C-123.253 294.05 -100.273 423.634 -20.0079 405.433C60.2573 387.231 29.138 321.187 132.256 316.118C235.374 311.049 208.132 261.249 305.938 290.837C403.744 320.424 528.176 421.298 589.92 401.607C643.389 383.644 662.147 351.741 695.711 349.329M-597.571 229.798C-595.24 197.944 -565.66 145.052 -465.984 188.311C-341.388 242.385 -247.25 341.8 -185.885 320.488C-124.519 299.175 -101.093 434.278 -18.9888 416.171C63.1154 398.063 28.486 333.08 132.443 326.684C236.4 320.287 207.737 264.962 306.536 295.441C405.335 325.921 533.716 432.078 595.537 412.856C648.777 395.426 667.718 362.977 699.197 359.42M-597.431 239.193C-596.226 207.566 -568.774 155.006 -468.608 197.781C-343.4 251.25 -247.37 347.891 -186.542 326.105C-125.714 304.32 -101.842 444.941 -17.8983 426.928C66.0451 408.915 27.9056 344.993 132.701 337.268C237.496 329.544 207.414 268.694 307.206 300.065C406.997 331.436 539.327 442.876 601.226 424.124C654.237 407.227 673.36 374.233 702.753 369.529M-597.221 248.608C-597.14 217.207 -571.816 164.979 -471.16 207.27C-345.34 260.134 -247.419 354.001 -187.128 331.742C-126.837 309.483 -102.518 455.624 -16.7358 437.704C69.0466 419.785 27.3969 356.924 133.031 347.872C238.665 338.82 207.163 272.445 307.947 304.708C408.731 336.971 545.01 453.694 606.987 435.411C659.769 419.047 679.073 385.508 706.382 379.658M-596.938 258.042C-597.983 226.868 -574.787 174.971 -473.641 216.778C-347.209 269.038 -247.396 360.13 -187.642 337.398C-127.889 314.666 -103.124 466.326 -15.5022 448.5C72.1193 430.674 26.9595 368.875 133.432 358.496C239.905 348.116 206.983 276.216 308.76 309.37C410.537 342.525 550.764 464.531 612.818 446.717C665.371 430.887 684.858 396.802 710.082 389.806M-596.586 267.494C-598.756 236.547 -577.687 184.982 -476.051 226.306C-349.007 277.96 -247.302 366.278 -188.086 343.073C-128.87 319.868 -103.659 477.046 -14.1981 459.314C75.2625 441.583 26.5926 380.845 133.904 369.137C241.215 357.43 206.874 280.005 309.643 314.051C412.412 348.098 556.589 475.387 618.721 458.042C671.045 442.745 690.714 408.115 713.852 399.973M-596.164 276.966C-599.459 246.245 -580.519 195.012 -478.393 235.852C-350.736 286.901 -247.14 372.444 -188.461 348.766C-129.782 325.089 -104.124 487.786 -12.8248 470.148C78.4749 452.51 26.2948 392.833 134.445 379.798C242.595 366.763 206.834 283.813 310.596 318.751C414.357 353.689 562.483 486.261 624.692 469.386C676.787 454.622 696.638 419.447 717.691 410.159M-595.674 286.455C-600.095 255.96 -583.282 205.06 -480.667 245.416C-352.397 295.86 -246.91 378.629 -188.768 354.478C-130.627 330.327 -104.523 498.543 -11.3839 480.999C81.7549 463.455 26.0646 404.839 135.053 390.477C244.042 376.114 206.861 287.639 311.615 323.469C416.37 359.299 568.445 497.154 630.731 480.748C682.597 466.517 702.631 430.797 721.598 420.362M-595.119 295.962C-600.665 265.694 -585.98 215.126 -482.875 254.997C-353.993 304.837 -246.614 384.831 -189.01 360.207C-131.406 335.583 -104.855 509.318 -9.8772 491.868C85.1006 474.418 25.9003 416.863 135.728 401.173C245.555 385.483 206.954 291.482 312.701 328.204C418.448 364.926 574.472 508.064 636.836 492.127C688.473 478.43 708.689 442.164 725.571 430.583M-594.5 305.486C-601.171 275.445 -588.614 225.209 -485.019 264.596C-355.525 313.831 -246.254 391.05 -189.187 365.954C-132.121 340.857 -105.124 520.11 -8.30672 502.754C88.5102 485.398 25.7997 428.905 136.466 411.887C247.131 394.869 207.111 295.343 313.851 332.957C420.59 370.57 580.563 518.992 643.005 503.524C694.413 490.36 714.811 453.549 729.608 440.822M-594.218 316.511C-602.014 286.696 -591.585 236.792 -487.5 275.696C-357.393 324.325 -246.232 398.771 -189.702 373.201C-133.173 347.631 -105.729 532.403 -7.07326 515.14C91.5828 497.878 25.3621 442.446 136.867 424.101C248.371 405.756 206.931 300.705 314.663 339.21C422.395 377.715 586.317 531.42 648.836 516.421C700.015 503.791 720.595 466.434 733.307 452.561M-594.671 330.509C-603.592 300.92 -595.291 251.348 -490.716 289.768C-359.997 337.793 -246.944 409.464 -190.951 383.421C-134.959 357.378 -107.07 547.669 -6.57457 530.5C93.9205 513.332 24.1897 458.961 136.533 439.288C248.876 419.615 206.016 309.039 314.741 348.436C423.466 387.833 591.337 546.821 653.933 532.292C704.883 520.195 725.645 482.292 736.272 467.273M-595.067 344.522C-605.113 315.16 -598.94 265.921 -493.875 303.856C-362.544 351.276 -247.599 420.172 -192.144 393.656C-136.689 367.141 -108.353 562.95 -6.01891 545.876C96.3152 528.801 23.0743 475.492 136.256 454.491C249.438 433.491 205.159 317.389 314.876 357.678C424.593 397.967 596.413 562.238 659.087 548.178C709.808 536.614 730.752 498.166 739.294 482.001M-595.408 358.551C-606.579 329.415 -602.534 280.507 -496.979 317.959C-365.035 364.774 -248.199 430.896 -193.281 403.907C-138.364 376.918 -109.582 578.246 -5.40827 561.266C98.765 544.285 22.0139 492.037 136.034 469.709C250.055 447.38 204.356 325.754 315.065 366.935C425.775 408.115 601.544 577.669 664.296 564.078C714.788 553.048 735.914 514.054 742.371 496.743" stroke="url(#paint0_linear_919_7019)" stroke-width="2"/>
<defs>
<linearGradient id="paint0_linear_919_7019" x1="-943.662" y1="578.211" x2="910.4" y2="850.851" gradientUnits="userSpaceOnUse">
<stop offset="0.105695" stop-color="#B166FF"/>
<stop offset="0.282148" stop-color="#DA33F7"/>
<stop offset="0.491617" stop-color="#FE67C7"/>
<stop offset="0.694518" stop-color="#FF3672"/>
<stop offset="0.949168" stop-color="#FFBF59"/>
</linearGradient>
</defs>
</svg>
