<svg width="50" height="59" viewBox="0 0 50 59" fill="none" xmlns="http://www.w3.org/2000/svg">
<path d="M18.85 29.7709H17.7619C17.9108 29.3367 18.2219 29.1867 18.4621 29.1867C18.7239 29.1867 18.8788 29.3863 18.8788 29.5992C18.8788 29.656 18.8716 29.7129 18.85 29.7709ZM40.1823 30.3611C40.1823 30.1471 40.0058 30.0479 39.6527 30.0479H38.9381L38.74 30.7881H39.5386C39.9421 30.7881 40.1823 30.6103 40.1823 30.3611ZM10.764 30.1979H11.6683L11.5338 28.9872L10.764 30.1979ZM40.593 28.6171C40.593 28.4103 40.4369 28.3256 40.0838 28.3256H39.3981L39.2143 29.0235H39.9781C40.4021 29.0223 40.593 28.8312 40.593 28.6171ZM50 29.402C50 40.7456 40.8368 49.9738 29.5732 49.9738H27.2878V34.0137H22.7122V59H18.1414V34.0137H6.74569C6.27732 32.5853 6.02512 31.0916 6.02512 29.5992C6.02512 28.0184 6.28332 26.463 6.77571 24.9875H18.1426V13.7963C10.4782 14.9151 4.57198 21.5756 4.57198 29.5992C4.57198 34.8446 7.3978 40.0973 11.7716 42.9807L9.26766 46.8316C3.63765 43.1198 0 36.3552 0 29.5992C0 18.2556 9.16318 9.02743 20.4268 9.02743H22.7122V24.9875H27.2878V0H31.8586V24.9863H43.2543C43.7227 26.4147 43.9749 27.9083 43.9749 29.4008C43.9749 30.9816 43.7167 32.537 43.2243 34.0125H31.8586V45.2037C39.523 44.0849 45.4292 37.4244 45.4292 29.4008C45.4292 24.1554 42.6034 18.9027 38.2296 16.0193L40.7335 12.1684C46.3623 15.8802 50 22.6448 50 29.402ZM38.1263 27.0654L36.7968 32.0483H39.4906C41.1875 32.0483 41.8516 31.3722 41.8516 30.5317C41.8516 30.0189 41.5117 29.6705 41.0458 29.5496C41.8024 29.35 42.2047 28.8445 42.2047 28.2397C42.2047 27.6278 41.8372 27.0654 40.3168 27.0654H38.1263ZM32.7401 27.0654L32.0747 29.5496C32.0039 29.8205 31.9691 30.0975 31.9691 30.3539C31.9691 31.4787 32.7185 32.1475 34.1103 32.1475C34.8946 32.1475 35.6019 31.9625 36.0679 31.492C36.4137 31.1437 36.6683 30.6587 36.8461 29.9971L37.6303 27.0641H35.9478L35.2332 29.7407C35.1275 30.1253 35.0279 30.3176 34.8801 30.4664C34.7456 30.6018 34.5547 30.6732 34.3505 30.6732C33.9122 30.6732 33.672 30.4591 33.672 30.0467C33.672 29.933 33.6936 29.7975 33.7284 29.6548L34.4214 27.0629H32.7401V27.0654ZM13.6055 32.0483L12.8561 27.0291H11.2156L7.79411 32.0483H9.59672L10.0279 31.3795H11.7596L11.8449 32.0483H13.6055ZM15.3228 32.0483L16.7087 26.8513H15.1042L13.7184 32.0483H15.3228ZM19.7627 31.5077L19.0205 30.6889C18.7515 30.8957 18.5041 31.0022 18.2435 31.0022C17.8832 31.0022 17.6851 30.7953 17.6634 30.4821H20.1446C20.2154 30.2608 20.2575 30.0116 20.2575 29.7564C20.2575 28.9376 19.8335 28.0692 18.5605 28.0692C17.0906 28.0692 16.2139 29.2508 16.2139 30.4325C16.2139 31.4509 16.9345 32.1415 18.1078 32.1415C18.7863 32.1415 19.3243 31.8984 19.7627 31.5077ZM23.3319 30.1338L25.1201 28.1623H23.3739L22.723 28.9594L22.4756 28.1623H20.8423L21.5989 30.0491L19.7891 32.0495H21.5353L22.2066 31.2235L22.4684 32.0495H24.1017L23.3319 30.1338ZM30.9158 32.0483L32.2453 27.0654H30.5916L30.1172 28.8239H28.604L29.0772 27.0654H27.4235L26.0941 32.0483H27.7477L28.2209 30.262H29.7341L29.2609 32.0483H30.9158Z" fill="url(#paint0_linear_904_5492)"/>
<defs>
<linearGradient id="paint0_linear_904_5492" x1="-8.86076" y1="118" x2="65.3308" y2="113.077" gradientUnits="userSpaceOnUse">
<stop offset="0.105695" stop-color="#5519B7"/>
<stop offset="0.374134" stop-color="#A220B9"/>
<stop offset="0.516093" stop-color="#DB44A4"/>
<stop offset="0.705767" stop-color="#FF3672"/>
<stop offset="1" stop-color="#EEAF4B"/>
</linearGradient>
</defs>
</svg>
