<svg width="375" height="507" viewBox="0 0 375 507" fill="none" xmlns="http://www.w3.org/2000/svg">
<g opacity="0.15" filter="url(#filter0_d_919_6789)">
<path d="M133.388 278.201H123.726C125.048 274.147 127.81 272.746 129.943 272.746C132.268 272.746 133.644 274.61 133.644 276.597C133.644 277.128 133.58 277.659 133.388 278.201ZM322.819 283.712C322.819 281.713 321.251 280.787 318.116 280.787H311.771L310.011 287.699H317.103C320.686 287.699 322.819 286.039 322.819 283.712ZM61.5846 282.188H69.6149L68.4205 270.883L61.5846 282.188ZM326.466 267.427C326.466 265.496 325.08 264.706 321.944 264.706H315.855L314.223 271.222H321.006C324.77 271.21 326.466 269.426 326.466 267.427ZM410 274.757C410 380.677 328.631 466.845 228.61 466.845H208.316V317.818H167.684V551.127H127.096V317.818H25.9017C21.7426 304.481 19.5031 290.533 19.5031 276.597C19.5031 261.837 21.7959 247.314 26.1683 233.536H127.106V129.039C59.0465 139.485 6.5992 201.677 6.5992 276.597C6.5992 325.576 31.6925 374.623 70.5321 401.547L48.2969 437.505C-1.69767 402.845 -34 339.682 -34 276.597C-34 170.677 47.3691 84.5092 147.39 84.5092H167.684V233.536H208.316V0.21582H248.904V233.525H350.098C354.257 246.862 356.497 260.809 356.497 274.745C356.497 289.506 354.204 304.029 349.832 317.807H248.904V422.304C316.964 411.857 369.411 349.665 369.411 274.745C369.411 225.766 344.318 176.719 305.479 149.796L327.714 113.838C377.698 148.497 410 211.661 410 274.757ZM304.561 252.938L292.756 299.466H316.676C331.745 299.466 337.642 293.153 337.642 285.305C337.642 280.516 334.624 277.264 330.487 276.134C337.205 274.271 340.778 269.55 340.778 263.904C340.778 258.189 337.514 252.938 324.013 252.938H304.561ZM256.732 252.938L250.824 276.134C250.195 278.664 249.885 281.25 249.885 283.644C249.885 294.147 256.54 300.392 268.9 300.392C275.864 300.392 282.145 298.665 286.283 294.271C289.354 291.019 291.615 286.49 293.193 280.313L300.157 252.927H285.216L278.871 277.919C277.933 281.51 277.047 283.306 275.736 284.695C274.541 285.96 272.846 286.626 271.033 286.626C267.14 286.626 265.007 284.627 265.007 280.776C265.007 279.714 265.199 278.449 265.509 277.117L271.662 252.915H256.732V252.938ZM86.8165 299.466L80.162 252.599H65.5945L35.2117 299.466H51.2189L55.0474 293.221H70.4254L71.1826 299.466H86.8165ZM102.067 299.466L114.373 250.939H100.126L87.819 299.466H102.067ZM141.493 294.418L134.902 286.773C132.513 288.704 130.316 289.698 128.002 289.698C124.803 289.698 123.043 287.766 122.851 284.841H144.884C145.513 282.775 145.886 280.448 145.886 278.065C145.886 270.42 142.122 262.311 130.818 262.311C117.764 262.311 109.98 273.345 109.98 284.378C109.98 293.887 116.378 300.336 126.797 300.336C132.823 300.336 137.6 298.066 141.493 294.418ZM173.187 281.589L189.066 263.181H173.56L167.78 270.623L165.584 263.181H151.08L157.799 280.798L141.727 299.478H157.233L163.195 291.764L165.52 299.478H180.023L173.187 281.589ZM240.533 299.466L252.338 252.938H237.653L233.441 269.358H220.004L224.205 252.938H209.521L197.715 299.466H212.4L216.602 282.786H230.039L225.837 299.466H240.533Z" fill="url(#paint0_linear_919_6789)"/>
</g>
<defs>
<filter id="filter0_d_919_6789" x="-38" y="0.21582" width="452" height="558.911" filterUnits="userSpaceOnUse" color-interpolation-filters="sRGB">
<feFlood flood-opacity="0" result="BackgroundImageFix"/>
<feColorMatrix in="SourceAlpha" type="matrix" values="0 0 0 0 0 0 0 0 0 0 0 0 0 0 0 0 0 0 127 0" result="hardAlpha"/>
<feOffset dy="4"/>
<feGaussianBlur stdDeviation="2"/>
<feComposite in2="hardAlpha" operator="out"/>
<feColorMatrix type="matrix" values="0 0 0 0 0 0 0 0 0 0 0 0 0 0 0 0 0 0 0.25 0"/>
<feBlend mode="normal" in2="BackgroundImageFix" result="effect1_dropShadow_919_6789"/>
<feBlend mode="normal" in="SourceGraphic" in2="effect1_dropShadow_919_6789" result="shape"/>
</filter>
<linearGradient id="paint0_linear_919_6789" x1="386.763" y1="100.279" x2="47.0289" y2="656.58" gradientUnits="userSpaceOnUse">
<stop stop-color="#7F31DA"/>
<stop offset="0.325806" stop-color="#D669F4"/>
<stop offset="0.653937" stop-color="#FF5CAA"/>
<stop offset="1" stop-color="#FF9883"/>
</linearGradient>
</defs>
</svg>
