<svg width="32" height="38" viewBox="0 0 32 38" fill="none" xmlns="http://www.w3.org/2000/svg">
<path d="M12.064 19.1745H11.3676C11.4629 18.8948 11.662 18.7982 11.8157 18.7982C11.9833 18.7982 12.0824 18.9268 12.0824 19.0639C12.0824 19.1005 12.0778 19.1371 12.064 19.1745ZM25.7167 19.5546C25.7167 19.4168 25.6037 19.3529 25.3777 19.3529H24.9204L24.7936 19.8296H25.3047C25.563 19.8296 25.7167 19.7151 25.7167 19.5546ZM6.88898 19.4495H7.46774L7.38166 18.6697L6.88898 19.4495ZM25.9795 18.4313C25.9795 18.2981 25.8796 18.2436 25.6536 18.2436H25.2148L25.0972 18.6931H25.586C25.8573 18.6923 25.9795 18.5692 25.9795 18.4313ZM32 18.9369C32 26.2429 26.1356 32.1865 18.9268 32.1865H17.4642V21.9071H14.5358V38H11.6105V21.9071H4.31724C4.01748 20.9872 3.85608 20.0251 3.85608 19.0639C3.85608 18.0458 4.02133 17.044 4.33645 16.0936H11.6113V8.88578C6.70606 9.60633 2.92607 13.8961 2.92607 19.0639C2.92607 22.4423 4.73459 25.8254 7.53384 27.6825L5.9313 30.1627C2.3281 27.772 0 23.4152 0 19.0639C0 11.7579 5.86444 5.81428 13.0732 5.81428H14.5358V16.0936H17.4642V0H20.3895V16.0929H27.6828C27.9825 17.0128 28.1439 17.9749 28.1439 18.9361C28.1439 19.9542 27.9787 20.956 27.6635 21.9064H20.3895V29.1142C25.2947 28.3937 29.0747 24.1039 29.0747 18.9361C29.0747 15.5577 27.2662 12.1746 24.4669 10.3175L26.0695 7.83728C29.6719 10.228 32 14.5848 32 18.9369ZM24.4008 17.4319L23.55 20.6413H25.274C26.36 20.6413 26.785 20.2059 26.785 19.6645C26.785 19.3342 26.5675 19.1098 26.2693 19.0319C26.7535 18.9034 27.011 18.5778 27.011 18.1883C27.011 17.7941 26.7758 17.4319 25.8028 17.4319H24.4008ZM20.9536 17.4319L20.5278 19.0319C20.4825 19.2064 20.4602 19.3848 20.4602 19.55C20.4602 20.2744 20.9398 20.7052 21.8306 20.7052C22.3325 20.7052 22.7852 20.586 23.0834 20.283C23.3048 20.0586 23.4677 19.7463 23.5815 19.3202L24.0834 17.4311H23.0066L22.5493 19.155C22.4816 19.4027 22.4178 19.5266 22.3233 19.6224C22.2372 19.7096 22.115 19.7556 21.9843 19.7556C21.7038 19.7556 21.5501 19.6177 21.5501 19.3521C21.5501 19.2789 21.5639 19.1916 21.5862 19.0997L22.0297 17.4304H20.9536V17.4319ZM8.7075 20.6413L8.22789 17.4086H7.17798L4.98823 20.6413H6.1419L6.41783 20.2105H7.52615L7.58073 20.6413H8.7075ZM9.8066 20.6413L10.6936 17.294H9.66671L8.77975 20.6413H9.8066ZM12.6481 20.2931L12.1731 19.7657C12.001 19.8989 11.8426 19.9675 11.6758 19.9675C11.4453 19.9675 11.3184 19.8343 11.3046 19.6325H12.8925C12.9379 19.49 12.9648 19.3295 12.9648 19.1651C12.9648 18.6378 12.6935 18.0785 11.8787 18.0785C10.938 18.0785 10.3769 18.8395 10.3769 19.6006C10.3769 20.2565 10.8381 20.7013 11.589 20.7013C12.0232 20.7013 12.3676 20.5447 12.6481 20.2931ZM14.9324 19.4082L16.0769 18.1385H14.9593L14.5427 18.6518L14.3844 18.1385H13.3391L13.8233 19.3537L12.665 20.6421H13.7826L14.2122 20.11L14.3798 20.6421H15.4251L14.9324 19.4082ZM19.7861 20.6413L20.637 17.4319H19.5786L19.275 18.5646H18.3066L18.6094 17.4319H17.551L16.7002 20.6413H17.7586L18.0614 19.4908H19.0298L18.727 20.6413H19.7861Z" fill="white"/>
</svg>
