<svg width="40" height="46" viewBox="0 0 40 46" fill="none" xmlns="http://www.w3.org/2000/svg">
<g clip-path="url(#clip0_0_1)" filter="url(#filter0_d_0_1)">
<path d="M16.064 22.1745H15.3676C15.4629 21.8948 15.662 21.7982 15.8157 21.7982C15.9833 21.7982 16.0824 21.9268 16.0824 22.0639C16.0824 22.1005 16.0778 22.1371 16.064 22.1745ZM29.7167 22.5546C29.7167 22.4168 29.6037 22.3529 29.3777 22.3529H28.9204L28.7936 22.8296H29.3047C29.563 22.8296 29.7167 22.7151 29.7167 22.5546ZM10.889 22.4495H11.4677L11.3817 21.6697L10.889 22.4495ZM29.9795 21.4313C29.9795 21.2981 29.8796 21.2436 29.6536 21.2436H29.2148L29.0972 21.6931H29.586C29.8573 21.6923 29.9795 21.5692 29.9795 21.4313ZM36 21.9369C36 29.2429 30.1356 35.1865 22.9268 35.1865H21.4642V24.9071H18.5358V41H15.6105V24.9071H8.31724C8.01748 23.9872 7.85608 23.0251 7.85608 22.0639C7.85608 21.0458 8.02133 20.044 8.33645 19.0936H15.6113V11.8858C10.7061 12.6063 6.92607 16.8961 6.92607 22.0639C6.92607 25.4423 8.73459 28.8254 11.5338 30.6825L9.9313 33.1627C6.3281 30.772 4 26.4152 4 22.0639C4 14.7579 9.86444 8.81428 17.0732 8.81428H18.5358V19.0936H21.4642V3H24.3895V19.0929H31.6828C31.9825 20.0128 32.1439 20.9749 32.1439 21.9361C32.1439 22.9542 31.9787 23.956 31.6635 24.9064H24.3895V32.1142C29.2947 31.3937 33.0747 27.1039 33.0747 21.9361C33.0747 18.5577 31.2662 15.1746 28.4669 13.3175L30.0695 10.8373C33.6719 13.228 36 17.5848 36 21.9369ZM28.4008 20.4319L27.55 23.6413H29.274C30.36 23.6413 30.785 23.2059 30.785 22.6645C30.785 22.3342 30.5675 22.1098 30.2693 22.0319C30.7535 21.9034 31.011 21.5778 31.011 21.1883C31.011 20.7941 30.7758 20.4319 29.8028 20.4319H28.4008ZM24.9536 20.4319L24.5278 22.0319C24.4825 22.2064 24.4602 22.3848 24.4602 22.55C24.4602 23.2744 24.9398 23.7052 25.8306 23.7052C26.3325 23.7052 26.7852 23.586 27.0834 23.283C27.3048 23.0586 27.4677 22.7463 27.5815 22.3202L28.0834 20.4311H27.0066L26.5493 22.155C26.4816 22.4027 26.4178 22.5266 26.3233 22.6224C26.2372 22.7096 26.115 22.7556 25.9843 22.7556C25.7038 22.7556 25.5501 22.6177 25.5501 22.3521C25.5501 22.2789 25.5639 22.1916 25.5862 22.0997L26.0297 20.4304H24.9536V20.4319ZM12.7075 23.6413L12.2279 20.4086H11.178L8.98823 23.6413H10.1419L10.4178 23.2105H11.5262L11.5807 23.6413H12.7075ZM13.8066 23.6413L14.6936 20.294H13.6667L12.7797 23.6413H13.8066ZM16.6481 23.2931L16.1731 22.7657C16.001 22.8989 15.8426 22.9675 15.6758 22.9675C15.4453 22.9675 15.3184 22.8343 15.3046 22.6325H16.8925C16.9379 22.49 16.9648 22.3295 16.9648 22.1651C16.9648 21.6378 16.6935 21.0785 15.8787 21.0785C14.938 21.0785 14.3769 21.8395 14.3769 22.6006C14.3769 23.2565 14.8381 23.7013 15.589 23.7013C16.0232 23.7013 16.3676 23.5447 16.6481 23.2931ZM18.9324 22.4082L20.0769 21.1385H18.9593L18.5427 21.6518L18.3844 21.1385H17.3391L17.8233 22.3537L16.665 23.6421H17.7826L18.2122 23.11L18.3798 23.6421H19.4251L18.9324 22.4082ZM23.7861 23.6413L24.637 20.4319H23.5786L23.275 21.5646H22.3066L22.6094 20.4319H21.551L20.7002 23.6413H21.7586L22.0614 22.4908H23.0298L22.727 23.6413H23.7861Z" fill="white"/>
</g>
<defs>
<filter id="filter0_d_0_1" x="0" y="0" width="40" height="46" filterUnits="userSpaceOnUse" color-interpolation-filters="sRGB">
<feFlood flood-opacity="0" result="BackgroundImageFix"/>
<feColorMatrix in="SourceAlpha" type="matrix" values="0 0 0 0 0 0 0 0 0 0 0 0 0 0 0 0 0 0 127 0" result="hardAlpha"/>
<feOffset dy="1"/>
<feGaussianBlur stdDeviation="2"/>
<feColorMatrix type="matrix" values="0 0 0 0 0.517647 0 0 0 0 0.207843 0 0 0 0 0.862745 0 0 0 0.25 0"/>
<feBlend mode="normal" in2="BackgroundImageFix" result="effect1_dropShadow_0_1"/>
<feBlend mode="normal" in="SourceGraphic" in2="effect1_dropShadow_0_1" result="shape"/>
</filter>
<clipPath id="clip0_0_1">
<rect width="32" height="38" fill="white" transform="translate(4 3)"/>
</clipPath>
</defs>
</svg>
