<svg width="20" height="16" viewBox="0 0 20 16" fill="none" xmlns="http://www.w3.org/2000/svg">
<path d="M0 11.8223C0 14.2008 1.95379 15.9912 4.37779 15.9912C6.79368 15.9912 8.73936 14.2008 8.73936 11.8223V9.89139C9.11228 9.75096 9.55006 9.67197 10.0041 9.67197C10.5148 9.67197 10.9201 9.72463 11.2606 9.8475V11.831C11.2606 14.2095 13.2063 16 15.6222 16C18.0462 16 20 14.2095 20 11.831C20 11.2342 19.9027 10.6199 19.619 9.88261L16.5059 1.91333C16.0276 0.684586 15.0628 0 13.8306 0C12.274 0 11.2606 1.08832 11.2606 2.73834V3.37905C10.8877 3.2825 10.4662 3.23862 10.0041 3.23862C9.56627 3.23862 9.14471 3.30005 8.73936 3.41415V2.72957C8.73936 1.08832 7.72598 0 6.16944 0C4.93717 0 3.97244 0.684586 3.49412 1.90455L0.38103 9.88261C0.0972841 10.6199 0 11.2255 0 11.8223ZM2.74828 8.0395L4.92096 2.47504C5.14795 1.91333 5.58573 1.57981 6.11269 1.57981C6.78557 1.57981 7.23145 2.07131 7.23145 2.79978V8.75919C6.50182 8.06583 5.47223 7.65332 4.37779 7.65332C3.8184 7.65332 3.24281 7.79375 2.74828 8.0395ZM17.2517 8.0395C16.7572 7.80252 16.1816 7.6621 15.6222 7.6621C14.5278 7.6621 13.4982 8.0746 12.7685 8.75919V2.80856C12.7685 2.07131 13.2144 1.58859 13.8873 1.58859C14.4143 1.58859 14.852 1.91333 15.079 2.48382L17.2517 8.0395ZM10.0041 4.56391C10.5148 4.56391 10.9201 4.61657 11.2606 4.73944V7.73523C10.9265 7.73523 10.4662 7.73523 10.0041 7.73523C9.56627 7.73523 9.08165 7.73523 8.73936 7.73523V4.78332C9.11228 4.6429 9.55006 4.56391 10.0041 4.56391ZM1.56465 11.8223C1.56465 10.3039 2.76449 9.28579 4.37779 9.28579C5.99108 9.28579 7.22335 10.3039 7.22335 11.8223C7.22335 13.3406 5.99108 14.3587 4.37779 14.3587C2.76449 14.3587 1.56465 13.3406 1.56465 11.8223ZM18.4435 11.831C18.4435 13.3406 17.2355 14.3675 15.6222 14.3675C14.0089 14.3675 12.7767 13.3406 12.7767 11.831C12.7767 10.3127 14.017 9.28579 15.6222 9.28579C17.2355 9.28579 18.4435 10.3127 18.4435 11.831Z" fill="url(#paint0_linear_1608_1377)"/>
<defs>
<linearGradient id="paint0_linear_1608_1377" x1="18.9533" y1="2.90613" x2="11.3914" y2="22.1109" gradientUnits="userSpaceOnUse">
<stop stop-color="#7F31DA"/>
<stop offset="0.325806" stop-color="#D669F4"/>
<stop offset="0.653937" stop-color="#FF5CAA"/>
<stop offset="1" stop-color="#FF9883"/>
</linearGradient>
</defs>
</svg>
