<svg width="19" height="18" viewBox="0 0 19 18" fill="none" xmlns="http://www.w3.org/2000/svg">
<path d="M3.6109 17.8154C4.02399 18.1318 4.53375 18.0264 5.11383 17.6045L9.41168 14.4492L13.7007 17.6045C14.2808 18.0264 14.7906 18.1318 15.2125 17.8154C15.6168 17.5078 15.7047 16.9893 15.4673 16.3213L13.7711 11.2764L18.1041 8.17383C18.6841 7.76074 18.9302 7.29492 18.7632 6.80273C18.605 6.31934 18.1392 6.08203 17.4273 6.09082L12.1187 6.12598L10.5015 1.05469C10.2818 0.369141 9.92145 0 9.41168 0C8.89313 0 8.54156 0.369141 8.31305 1.05469L6.70465 6.12598L1.38727 6.09082C0.675354 6.08203 0.218322 6.31934 0.0513303 6.80273C-0.115662 7.29492 0.130432 7.76074 0.71051 8.17383L5.04352 11.2764L3.34723 16.3213C3.11871 16.9893 3.19781 17.5078 3.6109 17.8154ZM5.18414 15.6533C5.16656 15.6357 5.17535 15.627 5.18414 15.583L6.73102 11.2412C6.88043 10.8105 6.84528 10.5557 6.4234 10.2744L2.62653 7.68164C2.59137 7.66406 2.58258 7.64648 2.58258 7.62891C2.59137 7.60254 2.60895 7.60254 2.66168 7.60254L7.25836 7.7168C7.72418 7.73438 7.94391 7.59375 8.07574 7.13672L9.35895 2.72461C9.37653 2.68066 9.38531 2.66309 9.41168 2.66309C9.42926 2.66309 9.43805 2.68066 9.45563 2.72461L10.7388 7.13672C10.8707 7.59375 11.0992 7.73438 11.565 7.7168L16.1617 7.60254C16.2056 7.60254 16.2232 7.60254 16.232 7.62891C16.2408 7.64648 16.2232 7.66406 16.188 7.68164L12.3912 10.2832C11.9781 10.5557 11.9341 10.8105 12.0836 11.2412L13.6304 15.583C13.648 15.627 13.648 15.6357 13.6304 15.6533C13.6216 15.6709 13.5953 15.6621 13.5601 15.6357L9.92145 12.8145C9.55231 12.5332 9.26227 12.5332 8.89313 12.8145L5.25446 15.6357C5.2193 15.6621 5.20172 15.6709 5.18414 15.6533Z" fill="url(#paint0_linear_919_5052)"/>
<defs>
<linearGradient id="paint0_linear_919_5052" x1="17.8299" y1="3.26928" x2="8.21221" y2="23.6948" gradientUnits="userSpaceOnUse">
<stop stop-color="#7F31DA"/>
<stop offset="0.325806" stop-color="#D669F4"/>
<stop offset="0.653937" stop-color="#FF5CAA"/>
<stop offset="1" stop-color="#FF9883"/>
</linearGradient>
</defs>
</svg>
