<svg width="48" height="48" viewBox="0 0 48 48" fill="none" xmlns="http://www.w3.org/2000/svg">
<g filter="url(#filter0_b_173_1576)">
<rect x="4" y="4" width="40" height="40" rx="4" fill="url(#paint0_linear_173_1576)"/>
</g>
<g filter="url(#filter1_d_173_1576)">
<path fill-rule="evenodd" clip-rule="evenodd" d="M30.9283 15.1163C31.1742 15.0133 31.4434 14.9778 31.7078 15.0134C31.9722 15.0491 32.2221 15.1546 32.4316 15.319C32.6411 15.4833 32.8025 15.7006 32.899 15.9481C32.9955 16.1956 33.0235 16.4643 32.9802 16.7262L30.7234 30.347C30.5044 31.6609 29.0556 32.4143 27.8446 31.7599C26.8316 31.2124 25.327 30.3688 23.9737 29.4886C23.297 29.048 21.2243 27.6371 21.479 26.6332C21.6979 25.7747 25.1807 22.549 27.1709 20.6312C27.952 19.8777 27.5958 19.443 26.6734 20.1361C24.3817 21.8569 20.7048 24.4737 19.4888 25.2104C18.4161 25.8599 17.8569 25.9708 17.1882 25.8599C15.9682 25.6579 14.8368 25.345 13.9134 24.9638C12.6655 24.449 12.7262 22.7421 13.9124 22.245L30.9283 15.1163Z" fill="#F3D8FF"/>
</g>
<defs>
<filter id="filter0_b_173_1576" x="0" y="0" width="48" height="48" filterUnits="userSpaceOnUse" color-interpolation-filters="sRGB">
<feFlood flood-opacity="0" result="BackgroundImageFix"/>
<feGaussianBlur in="BackgroundImageFix" stdDeviation="2"/>
<feComposite in2="SourceAlpha" operator="in" result="effect1_backgroundBlur_173_1576"/>
<feBlend mode="normal" in="SourceGraphic" in2="effect1_backgroundBlur_173_1576" result="shape"/>
</filter>
<filter id="filter1_d_173_1576" x="10" y="15" width="26" height="23" filterUnits="userSpaceOnUse" color-interpolation-filters="sRGB">
<feFlood flood-opacity="0" result="BackgroundImageFix"/>
<feColorMatrix in="SourceAlpha" type="matrix" values="0 0 0 0 0 0 0 0 0 0 0 0 0 0 0 0 0 0 127 0" result="hardAlpha"/>
<feOffset dy="3"/>
<feGaussianBlur stdDeviation="1.5"/>
<feComposite in2="hardAlpha" operator="out"/>
<feColorMatrix type="matrix" values="0 0 0 0 0.14902 0 0 0 0 0.0352941 0 0 0 0 0.2 0 0 0 0.7 0"/>
<feBlend mode="normal" in2="BackgroundImageFix" result="effect1_dropShadow_173_1576"/>
<feBlend mode="normal" in="SourceGraphic" in2="effect1_dropShadow_173_1576" result="shape"/>
</filter>
<linearGradient id="paint0_linear_173_1576" x1="-21.5" y1="54.5" x2="75.5" y2="-13" gradientUnits="userSpaceOnUse">
<stop offset="0.261025" stop-color="#8A41D8"/>
<stop offset="0.509579" stop-color="#A220B9"/>
<stop offset="0.697035" stop-color="#C25299"/>
<stop offset="0.750976" stop-color="#FF3672"/>
<stop offset="0.950474" stop-color="#EEAF4B"/>
</linearGradient>
</defs>
</svg>
