<svg width="20" height="16" viewBox="0 0 20 16" fill="none" xmlns="http://www.w3.org/2000/svg">
<path d="M3.12679 6.12945C4.86177 6.12945 6.27264 4.75802 6.27264 3.06006C6.27264 1.37143 4.86177 0 3.12679 0C1.40133 0 0 1.37143 0 3.06006C0 4.75802 1.40133 6.12945 3.12679 6.12945ZM16.8637 6.12945C18.5987 6.12945 20 4.75802 20 3.06006C20 1.37143 18.5987 0 16.8637 0C15.1382 0 13.7274 1.37143 13.7274 3.06006C13.7274 4.75802 15.1382 6.12945 16.8637 6.12945ZM3.12679 4.4035C2.36416 4.4035 1.76358 3.80641 1.76358 3.06006C1.76358 2.30437 2.36416 1.71662 3.12679 1.71662C3.90848 1.71662 4.50906 2.29504 4.50906 3.06006C4.50906 3.81574 3.90848 4.4035 3.12679 4.4035ZM16.8637 4.4035C16.101 4.4035 15.4909 3.80641 15.4909 3.06006C15.4909 2.30437 16.101 1.71662 16.8637 1.71662C17.6454 1.71662 18.2364 2.29504 18.2364 3.06006C18.2364 3.81574 17.6454 4.4035 16.8637 4.4035ZM7.73117 3.89971C8.16015 3.89971 8.5224 3.54519 8.5224 3.11603C8.5224 2.70554 8.16015 2.35102 7.73117 2.35102C7.30219 2.35102 6.93994 2.70554 6.93994 3.11603C6.93994 3.54519 7.29266 3.89971 7.73117 3.89971ZM9.98093 3.89971C10.4194 3.89971 10.7817 3.54519 10.7817 3.11603C10.7817 2.70554 10.4194 2.35102 9.98093 2.35102C9.56149 2.35102 9.19924 2.70554 9.19924 3.11603C9.19924 3.54519 9.56149 3.89971 9.98093 3.89971ZM12.2593 3.89971C12.6883 3.89971 13.0505 3.54519 13.0505 3.11603C13.0505 2.70554 12.6883 2.35102 12.2593 2.35102C11.8303 2.35102 11.4681 2.70554 11.4681 3.11603C11.4681 3.54519 11.8303 3.89971 12.2593 3.89971ZM14.4995 7.9207C14.938 7.9207 15.3003 7.57551 15.3003 7.14636C15.3003 6.72653 14.938 6.38134 14.4995 6.38134C14.0801 6.38134 13.7178 6.72653 13.7178 7.14636C13.7178 7.57551 14.0705 7.9207 14.4995 7.9207ZM5.49094 7.9207C5.91039 7.9207 6.27264 7.57551 6.27264 7.14636C6.27264 6.72653 5.91039 6.38134 5.49094 6.38134C5.05243 6.38134 4.69018 6.72653 4.69018 7.14636C4.69018 7.57551 5.05243 7.9207 5.49094 7.9207ZM12.7931 9.76793C13.2221 9.76793 13.5844 9.42274 13.5844 8.99359C13.5844 8.57376 13.2221 8.22857 12.7931 8.22857C12.3642 8.22857 12.0019 8.57376 12.0019 8.99359C12.0019 9.42274 12.3642 9.76793 12.7931 9.76793ZM7.19733 9.76793C7.62631 9.76793 7.98856 9.42274 7.98856 8.99359C7.98856 8.57376 7.62631 8.22857 7.19733 8.22857C6.76835 8.22857 6.4061 8.57376 6.4061 8.99359C6.4061 9.42274 6.75882 9.76793 7.19733 9.76793ZM10 16C11.7255 16 13.1363 14.6286 13.1363 12.9306C13.1363 11.242 11.7255 9.87055 10 9.87055C8.27455 9.87055 6.86368 11.242 6.86368 12.9306C6.86368 14.6286 8.27455 16 10 16ZM10 14.2834C9.23737 14.2834 8.62726 13.6863 8.62726 12.9306C8.62726 12.1749 9.22784 11.5965 10 11.5965C10.7817 11.5965 11.3727 12.1749 11.3727 12.9306C11.3727 13.6863 10.7722 14.2834 10 14.2834Z" fill="url(#paint0_linear_1608_1050)"/>
<path d="M10 5.68037C10.7295 5.68037 11.3131 6.26484 11.3131 7.00457C11.3131 7.74429 10.7386 8.3105 10 8.3105C9.25228 8.3105 8.68693 7.74429 8.68693 7.00457C8.68693 6.26484 9.2614 5.68037 10 5.68037Z" fill="url(#paint1_linear_1608_1050)"/>
<defs>
<linearGradient id="paint0_linear_1608_1050" x1="18.9533" y1="2.90613" x2="11.3914" y2="22.1109" gradientUnits="userSpaceOnUse">
<stop stop-color="#7F31DA"/>
<stop offset="0.325806" stop-color="#D669F4"/>
<stop offset="0.653937" stop-color="#FF5CAA"/>
<stop offset="1" stop-color="#FF9883"/>
</linearGradient>
<linearGradient id="paint1_linear_1608_1050" x1="18.9533" y1="2.90613" x2="11.3914" y2="22.1109" gradientUnits="userSpaceOnUse">
<stop stop-color="#7F31DA"/>
<stop offset="0.325806" stop-color="#D669F4"/>
<stop offset="0.653937" stop-color="#FF5CAA"/>
<stop offset="1" stop-color="#FF9883"/>
</linearGradient>
</defs>
</svg>
