<svg width="20" height="22" viewBox="0 0 20 22" fill="none" xmlns="http://www.w3.org/2000/svg">
<path d="M10.249 20.6899V19.3948V17.625C10.249 17.4745 10.2005 17.3881 10.1628 17.347C10.1284 17.3095 10.0799 17.2819 10 17.2819C9.92009 17.2819 9.87158 17.3095 9.83723 17.347C9.79953 17.3881 9.75103 17.4745 9.75103 17.625V19.3948V20.6858L8.62952 20.0463L7.02292 19.1302L7.01659 19.1266L7.01661 19.1265C6.9033 19.0604 6.80758 19.0576 6.75021 19.071C6.69747 19.0834 6.66317 19.1103 6.64004 19.1551L10.249 20.6899ZM10.249 20.6899L11.3723 20.0453M10.249 20.6899L11.3723 20.0453M11.3723 20.0453L12.9677 19.1296C13.0894 19.06 13.1903 19.0575 13.2493 19.0712C13.3033 19.0838 13.3372 19.1108 13.3601 19.1553C13.4133 19.259 13.41 19.3354 13.3957 19.383C13.3821 19.4286 13.3421 19.5032 13.2168 19.5736C13.2168 19.5736 13.2167 19.5736 13.2167 19.5737L10.4935 21.1007C10.4926 21.1012 10.4918 21.1017 10.4909 21.1021M11.3723 20.0453L10.4909 21.1021M10.4909 21.1021C10.285 21.2149 10.1287 21.25 10 21.25C9.87134 21.25 9.71495 21.2149 9.5091 21.1021C9.50825 21.1017 9.50739 21.1012 9.50653 21.1007L6.78331 19.5737C6.65792 19.5033 6.6179 19.4286 6.60428 19.383C6.59005 19.3354 6.5867 19.259 6.63993 19.1553L10.4909 21.1021ZM11.3606 1.90395L10.249 1.29201V2.56098V4.09133C10.249 4.23357 10.2024 4.31726 10.1645 4.3584C10.1296 4.39615 10.0802 4.42402 10 4.42402C9.91981 4.42402 9.87035 4.39615 9.83553 4.3584C9.79758 4.31726 9.75103 4.23357 9.75103 4.09133V2.56098V1.29201L8.63935 1.90395L7.6133 2.46876C7.51786 2.51464 7.43372 2.51873 7.38152 2.50841C7.33395 2.499 7.31951 2.48151 7.31145 2.46847L7.30568 2.45914L7.29963 2.44997C7.24717 2.37043 7.2413 2.29669 7.25645 2.23852C7.27065 2.18396 7.31696 2.09286 7.46593 2.0114L7.46598 2.0115L7.47752 2.00493L9.24524 0.997189C9.58994 0.805994 9.81684 0.75 10 0.75C10.1832 0.75 10.4101 0.805994 10.7548 0.997189L12.5225 2.00493L12.5224 2.00503L12.5341 2.0114C12.683 2.09286 12.7294 2.18396 12.7436 2.23852C12.7587 2.29669 12.7528 2.37043 12.7004 2.44997L12.6943 2.45914L12.6886 2.46847C12.6824 2.47834 12.6677 2.49798 12.6154 2.50825C12.5593 2.51929 12.4764 2.51337 12.3901 2.47062L11.3606 1.90395ZM16.3898 4.17785L16.3897 4.17791L16.3987 4.18293L18.323 5.26478C18.3234 5.26497 18.3237 5.26516 18.324 5.26535C18.7491 5.50573 18.9474 5.69608 19.0592 5.88561C19.171 6.07515 19.25 6.35529 19.25 6.88134V9.26535C19.25 9.41285 19.2025 9.49961 19.1658 9.54054C19.133 9.57725 19.0928 9.59804 19.0319 9.59804C18.9726 9.59804 18.9379 9.57876 18.9085 9.54531C18.874 9.50591 18.8242 9.41562 18.8242 9.25494V7.69336V6.3982L17.7008 7.04288L16.1131 7.95411C15.9531 8.03884 15.8072 8.00138 15.7082 7.84559C15.6786 7.79394 15.6759 7.74726 15.6939 7.69479C15.7149 7.63373 15.7756 7.54109 15.9131 7.46525L15.9132 7.46532L15.9226 7.45994L17.3644 6.63751L18.5026 5.98828L17.3663 5.33568L16.0069 4.55489L16.007 4.55478L15.9947 4.54803C15.8753 4.48238 15.8216 4.39334 15.8046 4.32745C15.7882 4.26446 15.8012 4.21854 15.8301 4.18198L15.8302 4.18205L15.8379 4.17203C15.8833 4.11262 15.9365 4.08365 16.0102 4.07542C16.0941 4.06604 16.228 4.08396 16.3898 4.17785ZM2.30099 7.04392L1.17585 6.39401V7.69336V9.25494C1.17585 9.41556 1.12609 9.50463 1.09203 9.5432C1.06342 9.57561 1.02625 9.59804 0.957775 9.59804C0.906081 9.59804 0.868343 9.58044 0.834729 9.54263C0.797611 9.50087 0.75 9.41294 0.75 9.26535V6.88134C0.75 6.42638 0.839381 6.12486 0.973107 5.90142C1.10771 5.67651 1.32404 5.46924 1.67947 5.26338L3.60132 4.18293L3.60136 4.18299L3.61022 4.17785C3.77201 4.08396 3.90591 4.06604 3.98981 4.07542C4.06349 4.08366 4.11672 4.11262 4.16213 4.17203L4.16205 4.1721L4.16987 4.18198C4.19881 4.21854 4.21177 4.26446 4.19545 4.32745C4.17837 4.39334 4.12473 4.48238 4.00531 4.54803L4.00525 4.54791L3.9931 4.55489L2.63367 5.33568L1.49743 5.98828L2.6356 6.63751L4.07742 7.45994L4.07738 7.46001L4.08689 7.46525C4.22443 7.54109 4.28511 7.63373 4.30607 7.69479C4.32407 7.74725 4.32136 7.79393 4.29183 7.84558C4.19576 7.99666 4.04973 8.04272 3.87423 7.95268L2.30099 7.04392ZM3.41493 17.3999L3.4142 17.4013C3.38675 17.4536 3.34744 17.4837 3.28749 17.4972C3.22133 17.5121 3.10564 17.5092 2.96151 17.4286L1.81188 16.7852C1.3617 16.5262 1.13102 16.3265 0.991334 16.1014C0.854299 15.8805 0.75 15.5446 0.75 14.9078V13.3463C0.75 13.1937 0.798088 13.1062 0.83273 13.0669C0.862464 13.0332 0.898174 13.0136 0.957775 13.0136C1.00836 13.0136 1.04256 13.03 1.07197 13.0602C1.10373 13.0928 1.14542 13.1601 1.15624 13.2744L1.18654 14.2137L1.22642 15.4501L2.30424 14.843L3.65337 14.083L3.65341 14.0831L3.66311 14.0774C3.77124 14.0144 3.8403 14.0204 3.87765 14.0306C3.91981 14.0422 3.98891 14.0787 4.05492 14.183C4.0872 14.2392 4.08988 14.2902 4.07239 14.3435C4.05249 14.4042 3.9953 14.4933 3.86551 14.5662L3.86549 14.5662L3.85876 14.5701L2.59202 15.2988L1.49164 15.9318L2.57707 16.5902L3.32497 17.0438C3.44439 17.1353 3.47155 17.2926 3.41493 17.3999ZM17.6833 14.8418L18.7501 15.4473L18.8029 14.2217L18.8435 13.2776C18.8538 13.1612 18.8962 13.0918 18.9288 13.0581C18.9589 13.0269 18.9906 13.0136 19.0319 13.0136C19.1007 13.0136 19.1388 13.0363 19.1678 13.069C19.202 13.1074 19.25 13.1938 19.25 13.3463V14.9078C19.25 15.5446 19.1457 15.8805 19.0087 16.1014C18.869 16.3265 18.6383 16.5262 18.1881 16.7852L17.0434 17.4258C17.0427 17.4262 17.042 17.4266 17.0413 17.427C16.8885 17.5104 16.772 17.5116 16.7094 17.4974C16.6538 17.4848 16.615 17.4569 16.5858 17.4013L16.5851 17.3999C16.5233 17.2828 16.5553 17.1314 16.6705 17.0465L17.4229 16.5902L18.5084 15.9318L17.408 15.2988L16.1412 14.5701L16.1413 14.57L16.1345 14.5662C16.0047 14.4933 15.9475 14.4042 15.9276 14.3435C15.9097 14.2888 15.9129 14.2367 15.9476 14.1787C16.0068 14.0797 16.073 14.043 16.1175 14.0309C16.158 14.0199 16.2299 14.0151 16.3369 14.0774L16.3369 14.0775L16.3445 14.0818L17.6833 14.8418ZM12.7653 11.0802C12.7653 12.6362 11.5196 13.8837 10 13.8837C8.4804 13.8837 7.23472 12.6362 7.23472 11.0802C7.23472 9.52429 8.4804 8.27679 10 8.27679C11.5196 8.27679 12.7653 9.52429 12.7653 11.0802Z" stroke="url(#paint0_linear_1608_894)" stroke-width="1.5"/>
<defs>
<linearGradient id="paint0_linear_1608_894" x1="18.9533" y1="3.99592" x2="6.18324" y2="27.5827" gradientUnits="userSpaceOnUse">
<stop stop-color="#7F31DA"/>
<stop offset="0.325806" stop-color="#D669F4"/>
<stop offset="0.653937" stop-color="#FF5CAA"/>
<stop offset="1" stop-color="#FF9883"/>
</linearGradient>
</defs>
</svg>
