<svg width="76" height="26" viewBox="0 0 76 26" fill="none" xmlns="http://www.w3.org/2000/svg">
<path fill-rule="evenodd" clip-rule="evenodd" d="M19.2455 24.872H12.6998L7.79139 5.42546C7.55841 4.53092 7.06374 3.74009 6.33609 3.36736C4.52016 2.43069 2.51913 1.68524 0.336182 1.30927V0.560578H10.8807C12.336 0.560578 13.4275 1.68524 13.6094 2.9914L16.1562 17.0189L22.6986 0.560578H29.0623L19.2455 24.872ZM32.7006 24.872H26.5188L31.6091 0.560578H37.791L32.7006 24.872ZM45.7887 7.2957C45.9706 5.9863 47.062 5.23761 48.3354 5.23761C50.3365 5.04962 52.5162 5.42559 54.3353 6.35903L55.4268 1.12466C53.6077 0.375967 51.6066 0 49.7907 0C43.7908 0 39.4249 3.3675 39.4249 8.04115C39.4249 11.5966 42.5174 13.4635 44.7004 14.5882C47.062 15.7096 47.9716 16.4583 47.7897 17.5797C47.7897 19.2618 45.9706 20.0105 44.1546 20.0105C41.9717 20.0105 39.7887 19.4498 37.7909 18.5131L36.6994 23.7507C38.8824 24.6842 41.244 25.0601 43.427 25.0601C50.1545 25.2449 54.3353 21.8806 54.3353 16.831C54.3353 10.472 45.7887 10.0992 45.7887 7.2957ZM75.9702 24.872L71.0618 0.560578H65.7895C64.698 0.560578 63.6065 1.30927 63.2427 2.43069L54.1535 24.872H60.5172L61.7874 21.3198H69.6065L70.3341 24.872H75.9702ZM66.6991 7.10799L68.515 16.2706H63.4246L66.6991 7.10799Z" fill="#172B85"/>
</svg>
