<svg width="744" height="477" viewBox="0 0 744 477" fill="none" xmlns="http://www.w3.org/2000/svg">
<path opacity="0.1" d="M-91 152.882C-74.5792 119.471 -24.1133 58.6069 46.384 82.4347C134.506 112.219 196.313 229.545 248.023 209.344C299.733 189.142 303.711 173.343 321.152 152.882C338.593 132.421 365.213 53.4269 427.02 59.9019C488.828 66.3768 515.142 134.493 565.628 124.91C616.114 115.327 620.704 82.4347 656.197 48.247C691.691 14.0593 698.116 -0.703601 766.043 2.40437M-19.1306 438.166C-33.103 420.072 -40.854 385.385 39.9205 391.381C140.889 398.877 235.431 421.106 268.17 391.381C300.908 361.657 359.959 502.268 430.636 470.217C501.314 438.166 435.838 417.229 511.411 378.716C586.984 340.203 530.381 259.3 616.051 267.83C701.721 276.359 859.598 365.792 900.903 344.597C933.947 327.641 941.392 295.659 940.984 281.787M-89.4632 159.394C-73.7837 126.357 -24.7377 66.131 46.0102 89.5239C134.445 118.765 197.051 233.772 248.298 213.337C299.546 192.903 304.867 180.919 323.606 160.176C342.345 139.432 366.719 61.8541 428.862 67.2318C491.006 72.6095 515.297 137.091 566.642 127.95C617.986 118.809 626.315 88.8998 661.95 55.029C697.383 21.2616 703.834 6.07871 770.094 8.77255M-87.9264 165.92C-72.9882 133.257 -25.3621 73.6692 45.6364 96.6272C134.385 125.325 197.789 238.012 248.574 217.345C299.359 196.679 306.023 188.51 326.06 167.484C346.098 146.458 368.226 70.2954 430.705 74.5758C493.183 78.8562 515.453 139.703 567.655 131.004C619.858 122.305 631.925 95.379 667.702 61.8251C703.076 28.4779 709.551 12.8751 774.145 15.1548M-86.3896 172.461C-72.1927 140.171 -25.9866 81.2216 45.2627 103.745C134.324 131.899 198.527 242.266 248.849 221.368C299.171 200.469 307.178 196.115 328.515 174.806C349.851 153.497 369.732 78.7508 432.547 81.934C495.361 85.1171 515.608 142.33 568.669 134.072C621.73 125.814 637.536 101.872 673.454 68.6353C708.769 35.7085 715.269 19.6857 778.196 21.5512M-84.8528 179.015C-71.3972 147.099 -26.611 88.7884 44.8889 110.877C134.264 138.487 199.265 246.535 249.124 225.404C298.984 204.273 308.334 203.734 330.969 182.142C353.603 160.551 371.238 87.2206 434.389 89.3065C497.539 91.3923 515.764 144.97 569.683 137.154C623.602 129.339 643.146 108.38 679.207 75.4599C714.461 42.9534 720.986 26.5106 782.246 27.962M-83.316 185.584C-70.6017 154.042 -27.2354 96.3695 44.5152 118.023C134.203 145.089 200.003 250.818 249.4 229.455C298.796 208.092 309.49 211.367 333.423 189.493C357.356 167.619 372.745 95.7047 436.231 96.6933C499.717 97.6819 515.92 147.625 570.697 140.251C625.474 132.877 648.757 114.902 684.959 82.2989C720.154 50.2126 726.704 33.3498 786.297 34.3871M-81.7792 192.168C-69.8062 160.999 -27.8598 103.965 44.1414 125.183C134.143 151.706 200.741 255.116 249.675 233.52C298.609 211.925 310.646 219.015 335.877 196.858C361.109 174.701 374.251 104.203 438.073 104.095C501.895 103.986 516.075 150.295 571.71 143.362C627.345 136.43 654.367 121.439 690.711 89.1523C725.846 57.4863 732.421 40.2035 790.348 40.8267M-80.2424 198.766C-69.0106 167.97 -28.4842 111.575 43.7677 132.358C134.083 158.338 201.479 259.428 249.95 237.6C298.421 215.772 311.802 226.677 338.332 204.238C364.862 181.798 375.758 112.716 439.916 111.51C504.073 110.304 516.231 152.978 572.724 146.488C629.217 139.997 659.978 127.99 696.464 96.0201C731.539 64.7744 738.138 47.0717 794.399 47.2807M-78.7056 205.376C-68.2152 174.954 -29.1087 119.197 43.3939 139.546C134.022 164.982 202.217 263.752 250.225 241.692C298.234 219.632 312.957 234.352 340.786 211.63C368.614 188.908 377.264 121.242 441.758 118.939C506.251 116.635 516.386 155.675 573.738 149.626C631.089 143.577 665.589 134.553 702.216 102.901C737.231 72.0751 743.856 53.9524 798.449 53.7472M-77.1688 211.989C-67.4197 181.94 -29.7331 126.822 43.0201 146.736C133.962 171.628 202.955 268.079 250.501 245.786C298.046 223.494 314.113 242.029 343.24 219.024C372.367 196.019 378.771 129.769 443.6 126.369C508.429 122.968 516.542 158.373 574.751 152.766C632.961 147.159 671.199 141.118 707.968 109.783C742.924 79.3776 749.573 60.8349 802.5 60.2156M-75.632 218.601C-66.6241 188.926 -30.3575 134.446 42.6464 153.925C133.901 178.273 203.693 272.405 250.776 249.881C297.859 227.356 315.269 249.706 345.694 226.418C376.12 203.13 380.277 138.297 445.442 133.799C510.607 129.301 516.697 161.071 575.765 155.906C634.833 150.741 676.81 147.684 713.721 116.665C748.617 86.6801 755.291 67.7174 806.551 66.684M-74.0952 225.213C-65.8286 195.912 -30.9819 142.071 42.2726 161.114C133.841 184.919 204.431 276.731 251.051 253.975C297.671 231.218 316.425 257.383 348.149 233.812C379.872 210.242 381.784 146.824 447.284 141.229C512.785 135.634 516.853 163.77 576.779 159.046C636.705 154.323 682.42 154.249 719.473 123.547C754.309 93.9826 761.008 74.6 810.602 73.1524M-72.5584 231.825C-65.0331 202.898 -31.6063 149.695 41.8989 168.304C133.78 191.565 205.169 281.058 251.326 258.069C297.484 235.08 317.581 265.059 350.603 241.206C383.625 217.353 383.29 155.351 449.127 148.659C514.963 141.967 517.009 166.468 577.792 162.186C638.576 157.905 688.031 160.814 725.225 130.429C760.002 101.285 766.726 81.4825 814.652 79.6208M-71.0216 238.438C-64.2376 209.884 -32.2308 157.319 41.5251 175.493C133.72 198.211 205.907 285.384 251.602 262.163C297.296 238.942 318.736 272.736 353.057 248.6C387.378 224.465 384.797 163.879 450.969 156.089C517.141 148.3 517.164 169.166 578.806 165.326C640.448 161.486 693.642 167.38 730.978 137.312C765.694 108.588 772.443 88.365 818.703 86.0892M-69.4848 245.05C-63.4421 216.87 -32.8552 164.944 41.1514 182.683C133.66 204.857 206.645 289.711 251.877 266.257C297.109 242.803 319.892 280.413 355.511 255.994C391.13 231.576 386.303 172.406 452.811 163.519C519.319 154.633 517.32 171.864 579.82 168.466C642.32 165.068 699.252 173.945 736.73 144.194C771.387 115.89 778.161 95.2475 822.754 92.5576M-67.948 251.662C-62.6466 223.856 -33.4796 172.568 40.7776 189.872C133.599 211.503 207.383 294.037 252.152 270.351C296.921 246.665 321.048 288.09 357.966 263.388C394.883 238.687 387.809 180.934 454.653 170.95C521.497 160.966 517.475 174.563 580.834 171.606C644.192 168.65 704.863 180.51 742.482 151.076C777.08 123.193 783.878 102.13 826.804 99.026M-66.4112 258.275C-61.8511 230.842 -34.104 180.192 40.4039 197.062C133.539 218.148 208.121 298.363 252.427 274.445C296.734 250.527 322.204 295.766 360.42 270.782C398.636 245.799 389.316 189.461 456.495 178.38C523.675 167.298 517.631 177.261 581.847 174.746C646.064 172.232 710.473 187.076 748.235 157.958C782.772 130.495 789.596 109.013 830.855 105.494M-64.8743 264.887C-61.0556 237.827 -34.7284 187.817 40.0301 204.251C133.478 224.794 208.859 302.69 252.703 278.539C296.546 254.389 323.359 303.443 362.874 278.176C402.389 252.91 390.822 197.988 458.338 185.81C525.853 173.631 517.787 179.959 582.861 177.886C647.936 175.813 716.084 193.641 753.987 164.841C788.465 137.798 795.313 115.895 834.906 111.963M-63.3376 271.499C-60.2601 244.813 -35.3529 195.441 39.6563 211.441C133.418 231.44 209.597 307.016 252.978 282.633C296.359 258.251 324.515 311.12 365.328 285.571C406.141 260.021 392.329 206.516 460.18 193.24C528.031 179.964 517.942 182.657 583.875 181.026C649.807 179.395 721.694 200.206 759.739 171.723C794.157 145.1 801.03 122.778 838.957 118.431M-61.8008 278.112C-59.4646 251.799 -35.9773 203.066 39.2826 218.63C133.357 238.086 210.335 311.343 253.253 286.728C296.172 262.113 325.671 318.796 367.783 292.965C409.894 267.133 393.835 215.043 462.022 200.67C530.209 186.297 518.098 185.356 584.888 184.166C651.679 182.977 727.305 206.772 765.491 178.605C799.85 152.403 806.748 129.66 843.007 124.9M-60.264 284.724C-58.6691 258.785 -36.6017 210.69 38.9088 225.82C133.297 244.732 211.073 315.669 253.529 290.822C295.984 265.975 326.827 326.473 370.237 300.359C413.647 274.244 395.342 223.571 463.864 208.1C532.387 192.63 518.253 188.054 585.902 187.306C653.551 186.559 732.915 213.337 771.244 185.487C805.542 159.705 812.465 136.543 847.058 131.368M-58.7271 291.336C-57.8736 265.771 -37.2261 218.314 38.5351 233.009C133.237 251.378 211.811 319.995 253.804 294.916C295.797 269.836 327.983 334.15 372.691 307.753C417.399 281.355 396.848 232.098 465.706 215.53C534.565 198.963 518.409 190.752 586.916 190.446C655.423 190.141 738.526 219.902 776.996 192.369C811.235 167.008 818.183 143.425 851.109 137.836M-57.1903 297.949C-57.0781 272.757 -37.8505 225.939 38.1613 240.199C133.176 258.023 212.549 324.322 254.079 299.01C295.609 273.698 329.138 341.827 375.145 315.147C421.152 288.467 398.355 240.625 467.549 222.961C536.743 205.296 518.564 193.45 587.93 193.586C657.295 193.722 744.137 226.468 782.748 199.252C816.928 174.31 823.9 150.308 855.16 144.305M-55.6376 304.561C-56.2666 279.743 -38.459 233.563 37.8035 247.388C133.132 264.669 213.303 328.648 254.37 303.104C295.438 277.56 330.31 349.503 377.615 322.541C424.921 295.578 399.877 249.153 469.407 230.391C538.936 211.628 518.736 196.149 588.959 196.726C659.183 197.304 749.763 233.033 788.517 206.134C822.636 181.613 829.634 157.19 859.226 150.773M-54.0397 311.173C-55.41 286.729 -39.0224 241.187 37.4908 254.578C133.132 271.315 214.102 332.975 254.707 307.198C295.311 281.422 331.527 357.18 380.131 329.935C428.735 302.69 401.445 257.68 471.31 237.821C541.175 217.961 518.953 198.847 590.034 199.866C661.116 200.886 755.435 239.598 794.33 213.016C828.39 188.915 835.412 164.073 863.338 157.242M-52.3936 317.786C-54.5052 293.715 -39.5375 248.812 37.2264 261.767C133.181 277.961 214.949 337.301 255.091 311.292C295.233 285.284 332.792 364.857 382.694 337.329C432.597 309.801 403.06 266.208 473.262 245.251C543.463 224.294 519.217 201.545 591.157 203.006C663.097 204.468 761.155 246.164 800.192 219.898C834.192 196.218 841.239 170.955 867.498 163.71M-50.6972 324.398C-53.5501 300.701 -40.0023 256.436 37.0122 268.956C133.28 284.607 215.847 341.627 255.526 315.387C295.205 289.146 334.107 372.534 385.308 344.723C436.509 316.912 404.726 274.735 475.263 252.681C545.8 230.627 519.533 204.243 592.33 206.146C665.128 208.05 766.925 252.729 806.104 226.781C840.044 203.52 847.116 177.838 871.709 170.178M-48.9491 331.01C-52.5433 307.686 -40.4154 264.06 36.8498 276.146C133.431 291.252 216.796 345.954 256.013 319.481C295.229 293.008 335.475 380.21 387.974 352.117C440.473 324.024 406.444 283.262 477.317 260.111C548.189 236.96 519.9 206.941 593.555 209.286C667.211 211.631 772.747 259.294 812.067 233.663C845.948 210.823 853.045 184.72 875.971 176.647M-47.148 337.623C-51.4835 314.672 -40.7756 271.685 36.7403 283.335C133.635 297.898 217.798 350.28 256.552 323.575C295.306 296.869 336.895 387.887 390.692 359.511C444.49 331.135 408.215 291.79 479.423 267.541C550.632 243.293 520.319 209.64 594.833 212.427C669.348 215.213 778.622 265.86 818.084 240.545C851.905 218.125 859.026 191.603 880.286 183.115M-45.2936 344.235C-50.3704 321.658 -41.0824 279.309 36.6841 290.525C133.892 304.544 218.854 354.607 257.145 327.669C295.436 300.731 338.368 395.564 393.464 366.905C448.56 338.246 410.039 300.317 481.583 274.972C553.127 249.626 520.792 212.338 596.165 215.567C671.537 218.795 784.55 272.425 824.154 247.427C857.915 225.428 865.062 198.486 884.654 189.584M-43.3856 350.847C-49.2037 328.644 -41.3356 286.934 36.6816 297.714C134.203 311.19 219.963 358.933 257.791 331.763C295.62 304.593 339.895 403.241 396.29 374.299C452.684 345.358 411.917 308.845 483.797 282.402C555.676 255.959 521.319 215.036 597.55 218.707C673.78 222.377 790.532 278.991 830.277 254.31C863.979 232.73 871.15 205.368 889.076 196.052M-41.4244 357.46C-47.9837 335.63 -41.5356 294.558 36.7323 304.904C134.567 317.836 221.126 363.259 258.491 335.857C295.857 308.455 341.475 410.917 399.168 381.693C456.861 352.469 413.848 317.372 486.063 289.832C558.279 262.291 521.899 217.735 598.988 221.847C676.076 225.959 796.567 285.556 836.454 261.192C870.096 240.033 877.292 212.251 893.551 202.521M-39.4105 364.072C-46.7112 342.616 -41.6829 302.182 36.8356 312.093C134.984 324.482 222.341 367.586 259.244 339.951C296.146 312.317 343.108 418.594 402.1 389.087C461.091 359.58 415.831 325.899 488.382 297.262C560.934 268.624 522.532 220.433 600.479 224.987C678.425 229.54 802.654 292.121 842.684 268.074C876.265 247.335 883.487 219.133 898.079 208.989M-37.345 370.684C-45.3869 349.602 -41.7786 309.807 36.9906 319.283C135.452 331.128 223.608 371.912 260.048 344.045C296.488 316.179 344.793 426.271 405.083 396.481C465.373 366.692 417.866 334.427 490.753 304.692C563.641 274.957 523.216 223.131 602.021 228.127C680.826 233.122 808.793 298.687 848.965 274.956C882.487 254.638 889.733 226.016 902.659 215.457M-35.229 377.296C-44.0123 356.588 -41.8239 317.431 37.196 326.472C135.971 337.773 224.925 376.238 260.902 348.14C296.879 320.041 346.528 433.948 408.116 403.875C469.704 373.803 419.952 342.954 493.175 312.122C566.398 281.29 523.951 225.829 603.614 231.267C683.277 236.704 814.983 305.252 855.296 281.839C888.758 261.94 896.03 232.898 907.289 221.926M-33.0638 383.909C-42.5884 363.574 -41.8199 325.056 37.4506 333.662C136.539 344.419 226.291 380.565 261.806 352.234C297.32 323.903 348.312 441.624 411.199 411.269C474.085 380.914 422.087 351.482 495.645 319.552C569.204 287.623 524.735 228.528 605.256 234.407C685.777 240.286 821.222 311.817 861.677 288.721C895.079 269.243 902.375 239.781 911.967 228.394M-30.8511 390.521C-41.117 370.56 -41.7684 332.68 37.7527 340.851C137.154 351.065 227.705 384.891 262.757 356.328C297.809 327.764 350.143 449.301 414.329 418.663C478.514 388.026 424.269 360.009 498.163 326.982C572.058 293.956 525.566 231.226 606.946 237.547C688.325 243.867 827.509 318.383 868.105 295.603C901.448 276.546 908.769 246.663 916.694 234.862M-28.5923 398.258C-39.5995 378.67 -41.6709 341.429 38.1009 349.165C137.816 358.835 229.165 390.342 263.754 361.546C298.343 332.75 352.021 458.102 417.505 427.182C482.989 396.261 426.498 369.661 500.728 335.537C574.958 301.413 526.444 235.048 608.681 241.811C690.919 248.574 833.841 326.072 874.579 303.61C907.862 284.972 915.208 254.67 921.467 242.455M-26.2892 408.234C-38.0377 389.02 -41.529 352.417 38.4935 359.719C138.522 368.845 230.669 398.033 264.796 369.005C298.922 339.977 353.943 469.143 420.726 437.94C487.508 406.737 428.77 381.553 503.336 346.331C577.902 311.11 527.366 241.111 610.461 248.315C693.557 255.52 840.218 336.002 881.098 313.856C914.321 295.639 921.692 264.917 926.284 252.288M-23.9435 418.211C-36.4332 399.371 -41.3445 363.406 38.9287 370.273C139.27 378.856 232.216 405.724 265.88 376.464C299.543 347.203 355.908 480.185 423.989 448.699C492.069 417.213 431.086 393.445 505.987 357.126C580.889 320.808 528.33 247.174 612.284 254.82C696.238 262.466 846.638 345.932 887.659 324.103C920.823 306.307 928.218 275.164 931.144 262.121M-21.5567 428.188C-34.7877 409.721 -41.1189 374.395 39.4049 380.827C140.06 388.866 233.804 413.415 267.005 383.922C300.206 354.43 357.914 491.226 427.293 459.458C496.672 427.689 433.442 405.337 508.679 367.921C583.917 330.505 529.336 253.237 614.148 261.325C698.959 269.413 853.098 355.862 894.262 334.35C927.365 316.974 934.786 285.412 936.044 271.954" stroke="url(#paint0_linear_982_5096)" stroke-width="3"/>
<defs>
<linearGradient id="paint0_linear_982_5096" x1="-223.022" y1="649.491" x2="1119.83" y2="494.741" gradientUnits="userSpaceOnUse">
<stop offset="0.105695" stop-color="#B166FF"/>
<stop offset="0.282148" stop-color="#DA33F7"/>
<stop offset="0.491617" stop-color="#FE67C7"/>
<stop offset="0.694518" stop-color="#FF3672"/>
<stop offset="0.949168" stop-color="#FFBF59"/>
</linearGradient>
</defs>
</svg>
