<svg width="30" height="30" viewBox="0 0 30 30" fill="none" xmlns="http://www.w3.org/2000/svg">
<g filter="url(#filter0_d_147_1934)">
<path d="M4.69226 23.5396C3.94597 23.7432 3.26099 23.0587 3.46412 22.3122L4.62722 18.0384C3.55818 16.2058 2.99653 14.1216 3.00002 12C3.00002 5.3724 8.37241 0 15 0C21.6276 0 27 5.3724 27 12C27 18.6276 21.6276 24 15 24C12.8793 24.0034 10.796 23.4422 8.96401 22.374L4.69226 23.5396ZM10.6692 6.3696C10.5142 6.37922 10.3628 6.42003 10.224 6.4896C10.0938 6.56331 9.97501 6.65546 9.87121 6.7632C9.72721 6.8988 9.64561 7.0164 9.55801 7.13039C9.11451 7.70759 8.87594 8.4161 8.88001 9.14399C8.88241 9.73199 9.03601 10.3044 9.27601 10.8396C9.76681 11.922 10.5744 13.068 11.6412 14.13C11.898 14.3856 12.1488 14.6424 12.4188 14.8812C13.7429 16.0469 15.3207 16.8876 17.0268 17.3364L17.7096 17.4408C17.9316 17.4528 18.1536 17.436 18.3768 17.4252C18.7263 17.4071 19.0675 17.3125 19.3764 17.148C19.5336 17.067 19.6869 16.979 19.836 16.884C19.836 16.884 19.8876 16.8504 19.986 16.776C20.148 16.656 20.2476 16.5708 20.382 16.4304C20.4816 16.3272 20.568 16.206 20.634 16.068C20.7276 15.8724 20.8212 15.4992 20.8596 15.1884C20.8884 14.9508 20.88 14.8212 20.8764 14.7408C20.8716 14.6124 20.7648 14.4792 20.6484 14.4228L19.95 14.1096C19.95 14.1096 18.906 13.6548 18.2688 13.3644C18.2016 13.3351 18.1296 13.3184 18.0564 13.3152C17.9743 13.3068 17.8913 13.316 17.8131 13.3423C17.7349 13.3686 17.6632 13.4113 17.6028 13.4676V13.4652C17.5968 13.4652 17.5164 13.5336 16.6488 14.5848C16.599 14.6517 16.5304 14.7023 16.4518 14.7301C16.3731 14.7578 16.288 14.7616 16.2072 14.7408C16.129 14.7199 16.0524 14.6934 15.978 14.6616C15.8292 14.5992 15.7776 14.5752 15.6756 14.5308L15.6696 14.5284C14.9831 14.2287 14.3475 13.8238 13.7856 13.3284C13.6344 13.1964 13.494 13.0524 13.35 12.9132C12.8779 12.4611 12.4665 11.9496 12.126 11.3916L12.0552 11.2776C12.0044 11.201 11.9632 11.1184 11.9328 11.0316C11.8872 10.8552 12.006 10.7136 12.006 10.7136C12.006 10.7136 12.2976 10.3944 12.4332 10.2216C12.5461 10.078 12.6515 9.92858 12.7488 9.77399C12.8904 9.54599 12.9348 9.31199 12.8604 9.13079C12.5244 8.30999 12.1764 7.49279 11.8188 6.6816C11.748 6.5208 11.538 6.4056 11.3472 6.3828C11.2824 6.3756 11.2176 6.3684 11.1528 6.3636C10.9917 6.35559 10.8302 6.35719 10.6692 6.3684V6.3696Z" fill="#F3D8FF"/>
</g>
<defs>
<filter id="filter0_d_147_1934" x="0" y="0" width="30" height="30" filterUnits="userSpaceOnUse" color-interpolation-filters="sRGB">
<feFlood flood-opacity="0" result="BackgroundImageFix"/>
<feColorMatrix in="SourceAlpha" type="matrix" values="0 0 0 0 0 0 0 0 0 0 0 0 0 0 0 0 0 0 127 0" result="hardAlpha"/>
<feOffset dy="3"/>
<feGaussianBlur stdDeviation="1.5"/>
<feComposite in2="hardAlpha" operator="out"/>
<feColorMatrix type="matrix" values="0 0 0 0 0.14902 0 0 0 0 0.0352941 0 0 0 0 0.2 0 0 0 0.7 0"/>
<feBlend mode="normal" in2="BackgroundImageFix" result="effect1_dropShadow_147_1934"/>
<feBlend mode="normal" in="SourceGraphic" in2="effect1_dropShadow_147_1934" result="shape"/>
</filter>
</defs>
</svg>
