<svg width="48" height="48" viewBox="0 0 48 48" fill="none" xmlns="http://www.w3.org/2000/svg">
<g filter="url(#filter0_b_839_5988)">
<rect x="4" y="4" width="40" height="40" rx="4" fill="url(#paint0_linear_839_5988)"/>
</g>
<g filter="url(#filter1_d_839_5988)">
<path d="M13.6923 35.5396C12.946 35.7432 12.261 35.0587 12.4641 34.3122L13.6272 30.0384C12.5582 28.2058 11.9965 26.1216 12 24C12 17.3724 17.3724 12 24 12C30.6276 12 36 17.3724 36 24C36 30.6276 30.6276 36 24 36C21.8793 36.0034 19.796 35.4422 17.964 34.374L13.6923 35.5396ZM19.6692 18.3696C19.5142 18.3792 19.3628 18.42 19.224 18.4896C19.0938 18.5633 18.975 18.6555 18.8712 18.7632C18.7272 18.8988 18.6456 19.0164 18.558 19.1304C18.1145 19.7076 17.8759 20.4161 17.88 21.144C17.8824 21.732 18.036 22.3044 18.276 22.8396C18.7668 23.922 19.5744 25.068 20.6412 26.13C20.898 26.3856 21.1488 26.6424 21.4188 26.8812C22.7429 28.0469 24.3207 28.8876 26.0268 29.3364L26.7096 29.4408C26.9316 29.4528 27.1536 29.436 27.3768 29.4252C27.7263 29.4071 28.0675 29.3125 28.3764 29.148C28.5336 29.067 28.6869 28.979 28.836 28.884C28.836 28.884 28.8876 28.8504 28.986 28.776C29.148 28.656 29.2476 28.5708 29.382 28.4304C29.4816 28.3272 29.568 28.206 29.634 28.068C29.7276 27.8724 29.8212 27.4992 29.8596 27.1884C29.8884 26.9508 29.88 26.8212 29.8764 26.7408C29.8716 26.6124 29.7648 26.4792 29.6484 26.4228L28.95 26.1096C28.95 26.1096 27.906 25.6548 27.2688 25.3644C27.2016 25.3351 27.1296 25.3184 27.0564 25.3152C26.9743 25.3068 26.8913 25.316 26.8131 25.3423C26.7349 25.3686 26.6632 25.4113 26.6028 25.4676V25.4652C26.5968 25.4652 26.5164 25.5336 25.6488 26.5848C25.599 26.6517 25.5304 26.7023 25.4518 26.7301C25.3731 26.7578 25.288 26.7616 25.2072 26.7408C25.129 26.7199 25.0524 26.6934 24.978 26.6616C24.8292 26.5992 24.7776 26.5752 24.6756 26.5308L24.6696 26.5284C23.9831 26.2287 23.3475 25.8238 22.7856 25.3284C22.6344 25.1964 22.494 25.0524 22.35 24.9132C21.8779 24.4611 21.4665 23.9496 21.126 23.3916L21.0552 23.2776C21.0044 23.201 20.9632 23.1184 20.9328 23.0316C20.8872 22.8552 21.006 22.7136 21.006 22.7136C21.006 22.7136 21.2976 22.3944 21.4332 22.2216C21.5461 22.078 21.6515 21.9286 21.7488 21.774C21.8904 21.546 21.9348 21.312 21.8604 21.1308C21.5244 20.31 21.1764 19.4928 20.8188 18.6816C20.748 18.5208 20.538 18.4056 20.3472 18.3828C20.2824 18.3756 20.2176 18.3684 20.1528 18.3636C19.9917 18.3556 19.8302 18.3572 19.6692 18.3684V18.3696Z" fill="#F3D8FF"/>
</g>
<defs>
<filter id="filter0_b_839_5988" x="0" y="0" width="48" height="48" filterUnits="userSpaceOnUse" color-interpolation-filters="sRGB">
<feFlood flood-opacity="0" result="BackgroundImageFix"/>
<feGaussianBlur in="BackgroundImageFix" stdDeviation="2"/>
<feComposite in2="SourceAlpha" operator="in" result="effect1_backgroundBlur_839_5988"/>
<feBlend mode="normal" in="SourceGraphic" in2="effect1_backgroundBlur_839_5988" result="shape"/>
</filter>
<filter id="filter1_d_839_5988" x="9" y="12" width="30" height="30" filterUnits="userSpaceOnUse" color-interpolation-filters="sRGB">
<feFlood flood-opacity="0" result="BackgroundImageFix"/>
<feColorMatrix in="SourceAlpha" type="matrix" values="0 0 0 0 0 0 0 0 0 0 0 0 0 0 0 0 0 0 127 0" result="hardAlpha"/>
<feOffset dy="3"/>
<feGaussianBlur stdDeviation="1.5"/>
<feComposite in2="hardAlpha" operator="out"/>
<feColorMatrix type="matrix" values="0 0 0 0 0.14902 0 0 0 0 0.0352941 0 0 0 0 0.2 0 0 0 0.7 0"/>
<feBlend mode="normal" in2="BackgroundImageFix" result="effect1_dropShadow_839_5988"/>
<feBlend mode="normal" in="SourceGraphic" in2="effect1_dropShadow_839_5988" result="shape"/>
</filter>
<linearGradient id="paint0_linear_839_5988" x1="-21.5" y1="54.5" x2="75.5" y2="-13" gradientUnits="userSpaceOnUse">
<stop offset="0.261025" stop-color="#8A41D8"/>
<stop offset="0.509579" stop-color="#A220B9"/>
<stop offset="0.697035" stop-color="#C25299"/>
<stop offset="0.750976" stop-color="#FF3672"/>
<stop offset="0.950474" stop-color="#EEAF4B"/>
</linearGradient>
</defs>
</svg>
